<?xml version="1.0" encoding="UTF-8"?><svg id="_ロゴ横配置二行" xmlns="http://www.w3.org/2000/svg" viewBox="0 0 301.09 68.8"><defs><style>.cls-1{fill:#d80c18;}.cls-2{fill:none;stroke:#3e3a39;stroke-miterlimit:10;}.cls-3{fill:#3e3a39;}.cls-4{fill:#1b4385;}.cls-5{fill:#9ed2e8;}.cls-6{fill:#003f8d;}</style></defs><path class="cls-4" d="M60.05,68.8c-5.92-5.39-11.68-11.06-17.2-16.9,6.03-6.62,11.8-13.49,17.2-20.48,5.4,7,11.17,13.87,17.2,20.48-5.51,5.84-11.28,11.5-17.2,16.9Z"/><path class="cls-6" d="M102.9,68.8c-5.92-5.39-11.68-11.06-17.2-16.9,6.03-6.62,11.8-13.48,17.2-20.48,5.4,7,11.17,13.86,17.2,20.48-5.51,5.84-11.28,11.5-17.2,16.9Z"/><path class="cls-1" d="M81.48,47.34c-6.17-6.8-12.06-13.86-17.55-21.05,6.26-8.46,12.14-17.28,17.55-26.29,5.4,9.02,11.29,17.83,17.55,26.29-5.49,7.19-11.38,14.26-17.55,21.05Z"/><path class="cls-5" d="M17.2,68.8c-5.92-5.39-11.69-11.06-17.2-16.9,6.03-6.62,11.8-13.49,17.2-20.48,5.4,7,11.17,13.86,17.2,20.48-5.51,5.84-11.28,11.5-17.2,16.9Z"/><path class="cls-6" d="M38.62,47.34c-6.17-6.8-12.06-13.86-17.55-21.05C27.34,17.83,33.22,9.02,38.62,0c5.4,9.02,11.29,17.83,17.55,26.29-5.49,7.19-11.37,14.25-17.55,21.05Z"/><path class="cls-3" d="M147.19,30.39h-8.51v-1.09c.99,0,1.73-.09,2.21-.27.48-.18.81-.57.98-1.18.17-.6.25-1.52.25-2.75v-14.09c0-.92-.08-1.61-.25-2.08-.17-.47-.49-.8-.96-.98-.47-.18-1.19-.27-2.16-.27v-1.09h7.39l7.64,18.22h.14l7.61-18.22h6.88v1.09c-.85,0-1.5.09-1.96.27-.46.18-.77.51-.94.98-.17.47-.25,1.15-.25,2.05v15.1c0,.87.08,1.54.25,2.01.17.47.48.79.94.96.46.17,1.12.25,1.99.25v1.09h-9.63v-1.09c.94,0,1.64-.08,2.1-.25s.76-.49.91-.96.22-1.14.22-2.01v-15.61h-.14l-8.44,19.92h-.87l-8.55-19.89h-.15v14.6c0,1.23.08,2.15.25,2.75s.49,1,.96,1.18c.47.18,1.16.27,2.08.27v1.09Z"/><path class="cls-3" d="M185.33,30.39h-10.43v-1.09c1.09,0,1.88-.09,2.39-.27.51-.18.83-.53.98-1.05.15-.52.22-1.3.22-2.34v-14.27c0-.94-.06-1.68-.18-2.23-.12-.54-.43-.92-.92-1.14-.5-.22-1.32-.33-2.48-.33v-1.09h10.43v1.09c-1.13,0-1.96.11-2.46.33-.51.22-.82.6-.92,1.14-.11.54-.16,1.29-.16,2.23v14.27c0,1.04.07,1.82.22,2.34.14.52.47.87.98,1.05.51.18,1.29.27,2.35.27v1.09Z"/><path class="cls-3" d="M212.79,30.68h-1.2l-15-19.38h-1.01l-.65-1.41c-.46-.63-.86-1.1-1.21-1.41-.35-.31-.71-.52-1.09-.63-.38-.11-.84-.16-1.39-.16v-1.09h6.16l13.4,17.49h.18v-11.74c0-1.13-.07-2.04-.22-2.72-.14-.68-.46-1.17-.94-1.48-.48-.31-1.24-.47-2.28-.47v-1.09h8.55v1.09c-.92,0-1.62.16-2.1.49-.48.33-.8.85-.96,1.56-.16.71-.24,1.65-.24,2.81v18.15ZM199.71,30.39h-8.48v-1.09c.96,0,1.69-.1,2.17-.31.48-.21.81-.62.98-1.25.17-.63.25-1.54.25-2.75V8.76h1.78v16.23c0,1.21.08,2.12.25,2.73.17.62.5,1.03.98,1.25.48.22,1.17.33,2.06.33v1.09Z"/><path class="cls-3" d="M228.36,30.39h-7.61v-1.09c.68,0,1.22-.11,1.63-.33.41-.22.81-.66,1.2-1.32s.87-1.68,1.45-3.06l7.68-18.18h1.49l8.58,19.67c.53,1.18,1.04,2.02,1.54,2.5.5.48,1.23.72,2.19.72v1.09h-9.74v-1.09c.36,0,.74-.02,1.12-.07.39-.05.71-.17.98-.36.27-.19.4-.49.4-.91,0-.27-.04-.57-.13-.92-.08-.35-.25-.79-.49-1.32l-1.56-3.62-.25-.72-4.13-10.5h-.11l-4.24,10.5-.25.72-1.78,4.2c-.1.29-.19.57-.27.85-.08.28-.13.59-.13.92,0,.51.19.84.58,1,.39.16,1,.24,1.85.24v1.09ZM237.64,22.46h-10.07l.54-1.45h8.98l.54,1.45Z"/><path class="cls-3" d="M266.43,30.39h-10.5v-1.09c1.01,0,1.78-.08,2.28-.24.51-.16.84-.49,1.01-1.01s.25-1.32.25-2.41V8.22h-2.32c-1.33,0-2.32.13-2.99.4s-1.14.75-1.43,1.45c-.29.7-.57,1.71-.83,3.04h-1.12l.4-6.52h20.03l.29,6.52h-1.12c-.27-1.33-.54-2.34-.83-3.04-.29-.7-.76-1.18-1.41-1.45-.65-.27-1.65-.4-3.01-.4h-2.28v17.42c0,1.09.08,1.89.25,2.41s.51.86,1.01,1.01c.51.16,1.28.24,2.32.24v1.09Z"/><path class="cls-3" d="M289.03,30.82c-2.39,0-4.45-.49-6.18-1.49-1.73-.99-3.05-2.41-3.98-4.26-.93-1.85-1.39-4.05-1.39-6.61s.46-4.62,1.39-6.46c.93-1.85,2.26-3.28,3.98-4.31s3.79-1.54,6.18-1.54,4.48.5,6.19,1.5c1.71,1,3.03,2.4,3.95,4.2.92,1.8,1.38,3.89,1.38,6.28,0,2.54-.46,4.75-1.39,6.65s-2.25,3.37-3.97,4.44c-1.71,1.06-3.77,1.59-6.16,1.59ZM289.07,29.3c2.58,0,4.51-.93,5.78-2.79,1.27-1.86,1.9-4.61,1.9-8.26,0-2.17-.33-4.05-.98-5.63-.65-1.58-1.56-2.8-2.73-3.66-1.17-.86-2.54-1.29-4.11-1.29-2.34,0-4.2.94-5.58,2.81-1.38,1.87-2.06,4.46-2.06,7.77s.65,6.1,1.94,8.08c1.29,1.98,3.24,2.97,5.85,2.97Z"/><path class="cls-3" d="M147.09,60.66h-8.43v-.88c.9,0,1.55-.07,1.95-.2s.66-.42.78-.83c.12-.42.18-1.06.18-1.92v-11.53c0-.76-.05-1.36-.15-1.8s-.35-.75-.75-.92c-.4-.17-1.07-.26-2-.26v-.88h8.43v.88c-.92,0-1.58.09-1.99.26-.41.18-.66.48-.75.92-.09.44-.13,1.04-.13,1.8v5.5h.15l4.74-4.62c.68-.64,1.2-1.19,1.55-1.64.35-.45.53-.89.53-1.32,0-.31-.08-.54-.25-.69-.17-.15-.45-.22-.86-.22h-.47v-.88h7.17v.88c-.54.02-1.01.1-1.39.23-.38.14-.75.35-1.11.63-.36.28-.8.67-1.33,1.16l-6.35,5.94,8.4,8.25c.49.45.94.77,1.35.97.41.2.97.29,1.7.29v.88h-8.45v-.88h.59c.41,0,.7-.04.88-.13.18-.09.26-.24.26-.45,0-.33-.15-.7-.44-1.11-.29-.41-.75-.93-1.38-1.57-.62-.63-1.43-1.43-2.43-2.38l-2.57-2.57h-.26v5.27c0,.82.06,1.44.18,1.86.12.42.38.71.79.86s1.04.23,1.9.23v.88Z"/><path class="cls-3" d="M166.31,60.66h-6.14v-.88c.55,0,.98-.09,1.32-.26.33-.18.65-.53.97-1.07.31-.54.7-1.36,1.17-2.47l6.2-14.69h1.2l6.93,15.89c.43.96.84,1.63,1.24,2.02.4.39.99.58,1.77.58v.88h-7.87v-.88c.29,0,.59-.02.91-.06.31-.04.58-.14.79-.29.21-.16.32-.4.32-.73,0-.21-.03-.46-.1-.75-.07-.28-.2-.64-.39-1.07l-1.26-2.92-.21-.58-3.33-8.48h-.09l-3.42,8.48-.21.58-1.43,3.39c-.08.23-.15.46-.22.69-.07.22-.1.47-.1.75,0,.41.16.68.47.8.31.13.81.19,1.49.19v.88ZM173.8,54.25h-8.13l.44-1.17h7.26l.44,1.17Z"/><path class="cls-3" d="M192.37,60.66h-8.42v-.88c.88,0,1.52-.07,1.93-.22.41-.15.67-.43.79-.85.12-.42.17-1.05.17-1.89v-11.53c0-.76-.05-1.36-.15-1.8-.1-.44-.35-.75-.75-.92-.4-.17-1.07-.26-2-.26v-.88h8.42v.88c-.92,0-1.58.09-1.99.26-.41.18-.66.48-.75.92s-.13,1.04-.13,1.8v11.53c0,.84.06,1.47.18,1.89.12.42.38.7.79.85.41.15,1.04.22,1.9.22v.88Z"/><path class="cls-3" d="M204.72,60.66h-8.4v-.88c.88,0,1.52-.06,1.92-.19.4-.13.65-.41.76-.83.11-.43.16-1.07.16-1.93v-11.53c0-.76-.05-1.36-.15-1.8-.1-.44-.35-.75-.75-.92-.4-.17-1.05-.26-1.95-.26v-.88h8.4v.88c-.92,0-1.58.09-1.99.26-.41.18-.66.48-.75.92s-.13,1.04-.13,1.8v4.92h9.6v-4.92c0-.76-.05-1.36-.15-1.8-.1-.44-.35-.75-.75-.92-.4-.17-1.05-.26-1.95-.26v-.88h8.37v.88c-.92,0-1.58.09-1.99.26-.41.18-.66.48-.75.91-.09.43-.13,1.03-.13,1.81v11.53c0,.84.05,1.47.16,1.9s.37.71.78.85c.41.14,1.05.2,1.93.2v.88h-8.37v-.88c.88,0,1.52-.07,1.92-.2.4-.14.65-.42.76-.85.11-.43.16-1.06.16-1.9v-5.47h-9.6v5.47c0,.86.05,1.5.16,1.92s.37.7.78.83,1.05.2,1.93.2v.88Z"/><path class="cls-3" d="M226.11,60.66h-6.14v-.88c.55,0,.98-.09,1.32-.26.33-.18.65-.53.97-1.07.31-.54.7-1.36,1.17-2.47l6.2-14.69h1.2l6.93,15.89c.43.96.84,1.63,1.24,2.02.4.39.99.58,1.77.58v.88h-7.87v-.88c.29,0,.59-.02.91-.06.31-.04.58-.14.79-.29.21-.16.32-.4.32-.73,0-.21-.03-.46-.1-.75-.07-.28-.2-.64-.39-1.07l-1.26-2.92-.21-.58-3.33-8.48h-.09l-3.42,8.48-.21.58-1.43,3.39c-.08.23-.15.46-.22.69-.07.22-.1.47-.1.75,0,.41.16.68.47.8.31.13.81.19,1.49.19v.88ZM233.6,54.25h-8.13l.44-1.17h7.26l.44,1.17Z"/><path class="cls-3" d="M255.83,60.66h-8.48v-.88c.82,0,1.43-.06,1.84-.19.41-.13.68-.4.82-.82s.21-1.07.21-1.95v-14.07h-1.87c-1.07,0-1.88.11-2.41.32s-.92.6-1.16,1.17-.46,1.38-.67,2.46h-.91l.32-5.27h16.18l.23,5.27h-.91c-.21-1.07-.44-1.89-.67-2.46-.23-.57-.61-.96-1.14-1.17s-1.34-.32-2.43-.32h-1.84v14.07c0,.88.07,1.53.21,1.95.14.42.41.69.82.82.41.13,1.03.19,1.87.19v.88Z"/><path class="cls-3" d="M264.46,61.1h-.91l-.26-6.32h.91c.35,1.35.76,2.37,1.23,3.09.47.71,1.05,1.2,1.74,1.46s1.54.39,2.53.39c.74,0,1.38-.1,1.9-.31.53-.21.94-.54,1.23-1,.29-.46.44-1.06.44-1.8,0-.86-.24-1.57-.72-2.14-.48-.57-1.09-1.07-1.83-1.51-.74-.44-1.51-.88-2.31-1.33-.78-.45-1.53-.93-2.25-1.43-.72-.51-1.31-1.11-1.77-1.81-.46-.7-.69-1.56-.69-2.57s.25-1.9.76-2.59c.51-.69,1.18-1.22,2.02-1.59.84-.37,1.76-.56,2.78-.56.9,0,1.59.07,2.08.22.49.15.87.3,1.16.45.28.16.54.23.78.23s.42-.06.57-.19c.15-.13.26-.35.34-.66h.76l.2,5.85h-.88c-.41-1.62-.96-2.82-1.64-3.6-.68-.78-1.77-1.16-3.25-1.14-1,0-1.77.23-2.31.69s-.82,1.15-.82,2.06c0,.72.21,1.34.61,1.86.41.52.95.98,1.61,1.39s1.36.83,2.08,1.26c.64.37,1.29.74,1.95,1.11.65.37,1.25.79,1.79,1.26.54.47.96,1.01,1.29,1.64.32.62.48,1.38.48,2.25,0,1.13-.26,2.09-.78,2.87s-1.22,1.37-2.12,1.77c-.9.4-1.91.6-3.04.6-1.01,0-1.84-.07-2.47-.22s-1.13-.29-1.49-.44c-.36-.15-.66-.22-.89-.22-.2,0-.37.09-.53.26-.16.18-.24.41-.26.7Z"/><path class="cls-3" d="M289.79,61.01c-2.59,0-4.49-.6-5.68-1.8s-1.78-3.15-1.78-5.87v-8.46c0-.68-.08-1.21-.23-1.58-.16-.37-.44-.63-.85-.78-.41-.15-1-.22-1.79-.22v-.88h8.43v.88c-.82,0-1.43.07-1.84.22-.41.15-.68.42-.82.8-.14.39-.21.96-.21,1.7v8.28c0,1.27.17,2.34.5,3.2.33.87.9,1.53,1.71,1.97.81.45,1.91.67,3.29.67,1.91,0,3.29-.45,4.14-1.36s1.27-2.36,1.27-4.37v-7.37c0-1.03-.06-1.82-.18-2.35-.12-.54-.37-.9-.76-1.1-.39-.19-1-.29-1.81-.29v-.88h7.17v.88c-.84,0-1.45.1-1.84.29-.39.2-.64.55-.75,1.07-.11.52-.16,1.28-.16,2.3v7.05c0,2.65-.61,4.65-1.83,5.98-1.22,1.34-3.21,2-5.98,2Z"/><line class="cls-2" x1="137.67" y1="35.86" x2="301.09" y2="35.86"/></svg>