<?xml version="1.0" encoding="UTF-8"?><svg id="_レイヤー_2" xmlns="http://www.w3.org/2000/svg" viewBox="0 0 28.3 29.76"><defs><style>.cls-1{fill:#003888;}</style></defs><g id="_デザイン"><path class="cls-1" d="m10.11,7.68L6.25.99c-1.23.08-3.52,1.2-4.93,2.43C-.13,4.67-.23,7.52.28,10.05c.54,2.7,1.72,5.68,3.77,9.24,2.06,3.56,4.05,6.07,6.11,7.89,1.94,1.71,4.46,3.05,6.27,2.42,1.77-.62,3.88-2.03,4.57-3.06l-3.86-6.69-4.84,2.79c-.94-1.1-2.25-3.21-3.82-5.91-1.56-2.71-2.73-4.9-3.21-6.26l4.84-2.79Z"/><path class="cls-1" d="m21.53,18.12l-2.07-1.2c.93-1.59.72-4.09-.51-6.22-1.23-2.13-3.28-3.55-5.12-3.55h-.01v-2.39s0,0,.01,0c2.71,0,5.53,1.86,7.19,4.75,1.67,2.9,1.87,6.28.5,8.62Z"/><path class="cls-1" d="m27.1,17.95l-2.07-1.2c1.4-2.4,1.12-5.99-.71-9.16-1.82-3.16-4.79-5.19-7.56-5.19,0,0-.01,0-.02,0V0s.01,0,.02,0c3.61,0,7.39,2.5,9.63,6.39,2.25,3.89,2.53,8.43.71,11.56Z"/></g></svg>