<?xml version="1.0" encoding="UTF-8"?><svg id="_レイヤー_2" xmlns="http://www.w3.org/2000/svg" xmlns:xlink="http://www.w3.org/1999/xlink" viewBox="0 0 119.88 121.79"><defs><style>.cls-1{stroke:#33c6e5;stroke-miterlimit:10;stroke-width:5px;}.cls-1,.cls-2{fill:none;}.cls-3{fill:#fff;}.cls-4{fill:url(#_新規パターンスウォッチ_12);}.cls-5{fill:#33c6e5;}.cls-6{clip-path:url(#clippath);}.cls-7{fill:#2e2e2e;}</style><clipPath id="clippath"><circle class="cls-3" cx="59.94" cy="59.94" r="59.94"/></clipPath><pattern id="_新規パターンスウォッチ_12" x="0" y="0" width="25" height="25" patternTransform="translate(-6610.81 -4540.08) rotate(-90) scale(.19)" patternUnits="userSpaceOnUse" viewBox="0 0 25 25"><rect class="cls-2" width="25" height="25"/><rect class="cls-3" x="24.29" y="24.29" width="26.43" height="26.43"/><rect class="cls-3" x="-.71" y="24.29" width="26.43" height="26.43"/><rect class="cls-3" x="-25.71" y="24.29" width="26.43" height="26.43"/><rect class="cls-3" x="24.29" y="-.71" width="26.43" height="26.43"/><line class="cls-1" x1="23.61" y1="12.5" x2="51.39" y2="12.5"/><rect class="cls-3" x="-.71" y="-.71" width="26.43" height="26.43"/><line class="cls-1" x1="-1.39" y1="12.5" x2="26.39" y2="12.5"/><rect class="cls-3" x="-25.71" y="-.71" width="26.43" height="26.43"/><line class="cls-1" x1="-26.39" y1="12.5" x2="1.39" y2="12.5"/><rect class="cls-3" x="24.29" y="-25.71" width="26.43" height="26.43"/><rect class="cls-3" x="-.71" y="-25.71" width="26.43" height="26.43"/><rect class="cls-3" x="-25.71" y="-25.71" width="26.43" height="26.43"/></pattern></defs><g id="_デザイン"><circle class="cls-3" cx="59.94" cy="59.94" r="59.94"/><g class="cls-6"><path class="cls-5" d="m52.66,45.53s0,0,0-.01c0,0,0,0-.01.02,0,0,0,0,0,0Z"/><path class="cls-5" d="m56.39,112.31c0,.27.01.57,0,.87.24-.84.44-1.69.57-2.56-.22-.02-.45-.03-.67-.05.05.58.09,1.17.1,1.75Z"/><path class="cls-5" d="m53.67,113.76s0-.03.01-.07c-.03.04-.05.07-.01.07Z"/><path class="cls-4" d="m51.11,91.44c-3.1-1.29-6.28-2.52-9.31-4-.17,1.48-.34,2.95-.52,4.43-.03.22-.09.42-.18.61.13.03.26.08.38.16.39.28.78.56,1.16.83,2.44,1.75,4.89,3.5,7.33,5.26.15-1.5.65-3.01,1.89-3.94,1.78-1.34,4.13-.57,6.11-.2.58.11,1.16.22,1.74.33,0-.03,0-.05,0-.08-.14,0-.27,0-.41-.06-2.75-1.1-5.48-2.21-8.22-3.34Z"/><path class="cls-3" d="m65.11,91.08c-.03-.08-.06-.17-.09-.25-.02-.05-.05-.13-.07-.15-.08-.13-.16-.27-.23-.4-.02-.03-.03-.06-.04-.07-.02-.01-.05-.04-.1-.09-.09-.08-.17-.16-.26-.25-.02-.02-.03-.03-.04-.04,0,0,0,0,0,0-.23-.17-.47-.35-.69-.53-1.17-.93-2.4-1.77-3.66-2.56-1.43-.89-2.91-1.67-4.38-2.51-.81-.46-2.76-1.88-3.15-.25-.24,1.02,1.11,1.77,1.81,2.24,1.31.89,2.61,1.8,3.94,2.65.75.48,1.5.95,2.26,1.4.67.4,1.37.76,1.8,1.44.76,1.21.2,2.44.16,3.71.66.12,1.33.25,1.99.37.38.07.75.16,1.12.25.07-1.44.11-2.95-.19-4.31-.05-.22-.1-.43-.17-.65Z"/><path class="cls-3" d="m69.3,85.1c-1.24.8-2.59,1.59-4,2.19.03.02.06.04.09.07,0,0,.01,0,.02.02.59.43,1.11.85,1.54,1.46.04.06.07.13.11.2,2.45-1.19,4.91-2.37,7.34-3.62-.04-1.62-.16-3.23-.27-4.85-1.36,1.79-2.91,3.29-4.83,4.53Z"/><path class="cls-4" d="m68,91.53c.31,1.67.2,3.5.12,5.05,0,.15-.04.27-.08.39.52.28,1.02.61,1.47,1.02.34.32.62.66.85,1.03.25-.22.51-.44.76-.66,2.22-1.92,4.43-3.84,6.65-5.76-.3-1.82-.61-3.64-.91-5.46-2.92,1.52-5.89,2.95-8.85,4.39Z"/><path class="cls-3" d="m49.92,85.45c-1.96-1.15-3.68-2.71-5.09-4.52-.03,1.59-.05,3.18-.08,4.77,0,.06-.01.12-.02.18,2.4,1.09,4.87,2.07,7.3,3.07,1.24.51,2.49,1.01,3.74,1.52-.9-.6-1.79-1.2-2.68-1.81-1.25-.85-2.62-1.74-3.16-3.22Z"/><path class="cls-5" d="m52.63,45.57s.02-.03.03-.04c0,0-.01.01-.02.02,0,.01,0,.01-.01.03Z"/><path class="cls-5" d="m49.88,47.59s-.02.01-.03.02c.02-.01.05-.02.07-.03-.01,0-.02,0-.03.01h0Z"/><path class="cls-5" d="m49.99,47.54s-.05.02-.07.03c.05-.02.08-.03.07-.03Z"/><path class="cls-5" d="m90.05,107.61c-.94-.41-2.02-.59-3.01-.85-1.36-.36-2.71-.73-4.07-1.09-1.66-.44-.95-3.01.71-2.57.8.21,1.59.42,2.38.64-.61-2.02-1.22-4.03-1.84-6.05-1.18-.69-2.36-1.38-3.54-2.07-.08,1.36-.16,2.72-.23,4.08-.38,7.36-.71,14.72-1.04,22.08h6.28c.02-.06.04-.12.06-.17,1.69-3.82,3.13-7.75,4.74-11.61.42-1,.7-1.89-.45-2.4Z"/><path class="cls-4" d="m71.15,101.45c.05.5.04,1.02-.01,1.54-.22,1.98-.61,3.95-.9,5.92-.55,3.69-1.1,7.38-1.75,11.06-.11.6-.2,1.21-.26,1.82h8.53c.03-.77.07-1.54.1-2.31.35-7.86.67-15.72,1.14-23.58-1.99,1.73-3.98,3.45-5.97,5.18-.26.23-.57.35-.88.37Z"/><path class="cls-5" d="m38.38,95.62c-1.18.69-2.36,1.38-3.54,2.07-.61,2.02-1.22,4.03-1.84,6.05.79-.21,1.59-.43,2.38-.64,1.66-.44,2.36,2.13.71,2.57-1.33.35-2.66.71-3.99,1.06-.99.26-2.05.45-3,.84-1.12.46-1.03,1.18-.64,2.21.77,1.99,1.51,3.96,2.16,5.99.62,1.96,1.18,3.96,2.01,5.84.02.06.04.11.06.17h6.94c-.03-.77-.07-1.54-.1-2.31-.36-7.95-.68-15.91-1.16-23.86Z"/><path class="cls-3" d="m78.9,54.89c-.79.89-1.92.26-2.18-.63-.16-.22-.26-.49-.3-.79-.48-3.62-.41-7.28-.56-10.92-.1-2.62-1.2-5.65-3.99-6.37-.8-.21-1.04-.9-.91-1.53-.48-.3-.97-.56-1.46-.79-.12.04-.23.06-.36.07-.48.02-.87-.25-1.11-.62-1.28-.4-2.59-.6-3.93-.65-.29.96-1.78,1.47-2.44.35-.06-.1-.12-.2-.17-.3-1.13.08-2.28.22-3.42.39.2,1.09-1.25,2.2-2.26,1.2-.24-.24-.47-.48-.71-.72-1.4.23-2.79.46-4.17.61.05.61-.31,1.36-.96,1.44-2.41.32-3.69,1.76-4.38,4.02-.48,1.57-.42,3.2-.45,4.99-.05,2.95.01,7.96-3.11,9.46-.17.96-1.38,1.7-2.21.77-.78-.88-1.82.01-2.27.86-.58,1.1-.66,2.48-.47,3.69.38,2.41,2.25,3.91,4.51,4.63.59.19.93.67.98,1.28.29,3.58.62,7.31,2.24,10.58,1.25,2.53,3.05,4.84,5.34,6.49.34-.66.86-1.23,1.53-1.56,1.85-.93,3.81.29,5.4,1.19,1.63.91,3.26,1.79,4.83,2.81.26.17.52.34.77.52,1.87-.51,3.65-1.54,5.25-2.58,1.88-1.22,3.37-2.73,4.63-4.58,2.62-3.86,3.21-8.31,3.57-12.86.05-.61.38-1.09.98-1.28,2.26-.72,4.13-2.22,4.51-4.63.2-1.24.11-2.69-.53-3.8-.47-.81-1.47-1.6-2.21-.76Zm-18.77,9.19c1.72,0,1.71,2.66,0,2.66s-1.71-2.66,0-2.66Zm-7.62-8.97c-1.72,0-1.71-2.66,0-2.66s1.71,2.66,0,2.66Zm.01-5.94c-1.15.77-2.68,1.49-4.1,1.33-.74-.08-1.3-.55-1.33-1.33-.03-.66.64-1.41,1.33-1.33.13.01.26.02.39.02.05,0,.09,0,.14,0,.25-.06.49-.11.73-.19.07-.02.14-.05.2-.07.06-.03.1-.05.11-.05.1-.04.19-.09.28-.13.29-.15.56-.31.83-.48.14-.09.27-.18.4-.28,0,0,.02-.02.03-.03.17-.15.07-.06,0,0-.02.01-.02.02-.04.04.06-.05.13-.1.19-.15.24-.2.47-.41.68-.64.1-.1.19-.21.28-.31.13-.24.1-.12.03-.03.03-.04.05-.07.08-.11.07-.11.14-.22.21-.34.03-.06.06-.11.09-.17.02-.04.03-.05.02-.04.29-.61.86-.96,1.57-.79.65.15,1.18.99.93,1.64-.57,1.48-1.75,2.6-3.05,3.47Zm12.71,25.72c-.32.6-1.25.88-1.82.48-.31-.22-.63-.42-.97-.6-.14-.08-.29-.15-.44-.21-.04-.01-.21-.08-.22-.09-.72-.26-1.03-.31-1.65-.31-.71,0-.96.04-1.71.29-.56.18-1.18.52-1.8.92-.62.41-1.45.1-1.82-.48-.4-.63-.1-1.44.48-1.82,1.44-.94,3.11-1.59,4.85-1.58,1.67.02,3.27.63,4.63,1.58.61.42.84,1.14.48,1.82Zm2.48-19.78c-1.72,0-1.71-2.66,0-2.66s1.71,2.66,0,2.66Zm4.45-5.27c-.33.63-1.11.76-1.72.51.03.01.05.02.06.03-.02-.02-.11-.04-.14-.05-.09-.03-.17-.06-.26-.08-.22-.06-.44-.1-.66-.14-.05,0-.1-.02-.15-.02-.11-.01-.23-.03-.34-.04-.28-.03-.56-.04-.84-.05-.57-.02-1.15,0-1.72.06-.02,0-.04,0-.07,0,0,0-.01,0-.02,0-.11.02-.23.04-.34.06-.22.05-.44.11-.65.19-.69.27-1.44-.3-1.64-.93-.24-.74.28-1.38.93-1.64.57-.22,1.19-.3,1.79-.36.6-.06,1.2-.08,1.81-.05,1.17.04,2.44.15,3.51.69.66.34.8,1.22.48,1.82Z"/><path class="cls-3" d="m75.02,29.84c-.72.11-1.43-.18-1.64-.93-.68-2.43-2.09-4.45-4.28-5.75-4.03-2.39-9.24-2.28-13.74-1.81-2.29.24-4.66.56-6.89,1.17-2.51.68-4.83,3.23-4.78,5.91.02,1.37-1.67,1.64-2.37.82-.36.51-.58,1.06-.82,1.55.19-.06.38-.12.58-.17,1.67-.37,2.38,2.2.71,2.57-3.02.66-3.71,4.94-3.88,7.5-.1,1.55.09,3.06.24,4.61.22,2.19.42,4.39.68,6.58.43-.04.85-.01,1.27.1.1-.05.21-.09.33-.12.63-.14.88-.35,1.22-1.01.37-.71.54-1.62.65-2.44.25-1.9.19-3.84.24-5.75.12-4.32,1.94-8.96,6.75-9.61.71-.1,1.43.16,1.64.93.02.06.02.13.03.19,1.38-.15,2.77-.38,4.17-.61-.46-.47-.91-.94-1.38-1.41-.4-.4-.8-.78-1.22-1.16-.2-.18-.41-.36-.62-.54-.13-.11-.26-.21-.39-.31-.03-.02-.04-.03-.05-.04-.01-.01-.03-.02-.06-.05-.44-.31-.89-.62-1.37-.87-.1-.05-.2-.09-.29-.14-.02,0-.03-.01-.04-.02-.02,0-.04-.01-.08-.02-.21-.06-.42-.11-.62-.17,0,0,0,0-.01,0-.03,0-.07,0-.1,0-.08,0-.19,0-.28,0-.02,0-.03,0-.04,0-.02,0-.04,0-.06.01-.09.03-.17.05-.26.08,0,0,0,0,0,0,0,0,0,0-.02.01-.07.06-.15.1-.23.15-.04.03-.12.1-.14.12-.04.04-.34.38-.17.16-.44.57-1.13.88-1.82.48-.56-.33-.92-1.25-.48-1.82,3.92-5.07,9.44,1.54,12.32,4.39.22.21.33.45.37.68,1.15-.17,2.29-.32,3.42-.39-.47-.81-.94-1.62-1.46-2.4-.16-.25-.33-.5-.51-.74-.07-.1-.15-.21-.23-.31,0,0-.08-.11-.12-.16-.33-.42-.69-.83-1.07-1.22-.19-.19-.39-.37-.59-.55-.03-.02-.2-.16-.22-.18-.08-.06-.16-.11-.23-.17-.21-.15-.44-.28-.67-.41-.1-.05-.2-.1-.31-.15-.02,0-.14-.06-.19-.08-1.04-.38-1.81-.38-2.82-.12-1.67.42-2.37-2.15-.71-2.57,2.75-.69,5.32.19,7.36,2.09,1.78,1.67,3.03,3.84,4.24,5.93.21.35.23.7.14,1,1.34.05,2.65.25,3.93.65-.13-.21-.21-.46-.23-.71,0-.15-.02-.3-.03-.45,0-.02,0-.03,0-.05,0-.01,0-.03-.01-.05-.04-.22-.08-.45-.14-.67-.06-.22-.12-.44-.2-.66-.04-.13-.09-.25-.14-.38-.01-.03-.02-.05-.03-.08,0,0,0,0-.01-.02-.22-.43-.42-.85-.68-1.26-.11-.17-.22-.33-.34-.49-.04-.04-.13-.17-.16-.2-.07-.09-.14-.17-.22-.25-.29-.32-.61-.62-.95-.9-.04-.03-.08-.06-.1-.08-.1-.07-.2-.14-.3-.2-.18-.12-.38-.22-.57-.32-.04-.02-.14-.06-.17-.08-.05-.02-.09-.04-.14-.05-.18-.06-.36-.11-.55-.15-.06-.01-.12-.02-.18-.03.06,0,.11.01.17.02-.05-.04-.25-.02-.32-.03-.2,0-.39,0-.59.02-.74.08-1.3-.68-1.33-1.33-.03-.77.64-1.25,1.33-1.33,2.13-.24,4.21,1.05,5.59,2.57,1.6,1.77,2.62,4.04,2.74,6.43.03.62-.43,1.1-.98,1.26.49.22.98.48,1.46.79.15-.68.75-1.27,1.61-1.04,3.55.92,5.39,4.3,5.83,7.72.25,1.91.16,3.87.22,5.79.05,1.6.12,3.21.27,4.81.29-.05.58-.06.87-.05.29-1.7.52-3.42.67-5.14.34-3.86.5-7.93-.36-11.73-.62-2.7-1.97-5.64-5.07-5.17Z"/><path class="cls-5" d="m107.49,108.89c-.76-.74-2.16-1.28-3.19-1.8-1.48-.74-2.98-1.46-4.48-2.17-4.05-1.9-8.14-3.73-12.25-5.51.52,1.71,1,3.42,1.52,5.13,1.09.28,2.21.58,3.11,1.27,1.14.89,1.52,2.21,1.27,3.61-.21,1.18-.83,2.28-1.29,3.38-.47,1.14-.93,2.29-1.38,3.44-.73,1.85-1.46,3.71-2.24,5.55h23.44c-.32-1.85-.73-3.68-1.22-5.49-.66-2.43-1.42-5.58-3.28-7.41Z"/><path class="cls-5" d="m18.25,105.53c-1.48.71-2.95,1.43-4.41,2.19-1.04.54-2.06.95-2.77,1.83-1.77,2.17-2.61,5.22-3.36,7.87-.41,1.44-.77,2.91-1.07,4.38h23.22c-.75-1.91-1.35-3.88-1.97-5.84-.38-1.19-.76-2.37-1.2-3.54-.41-1.09-.99-2.13-1.14-3.3-.38-2.92,2.11-3.91,4.42-4.56.51-1.7,1-3.41,1.51-5.11-1.28.57-2.55,1.14-3.83,1.72-3.15,1.43-6.28,2.88-9.4,4.37Z"/><path class="cls-4" d="m53.52,116.77c-1.54.4-3.12-.26-3.86-1.68-.71-1.36-.77-2.93-1-4.41-.26-1.67-.84-3.66-.25-5.32.16-.46.42-.82.72-1.14-.2-.92-.23-1.95-.05-2.87-.28-.2-.56-.4-.84-.6-2.4-1.72-4.8-3.45-7.21-5.17.08,1.38.16,2.75.23,4.13.38,7.36.71,14.72,1.04,22.08h11.92c-.03-1.64.22-3.24.84-4.84.21-.53.41-1.06.6-1.59-.57.66-1.31,1.19-2.16,1.41Z"/><path class="cls-3" d="m65.09,98.67c-1.74-.45-3.55-.71-5.32-1.04-.97-.18-1.93-.36-2.9-.54-.82-.15-1.71-.43-2.55-.41-1,.03-1.42.8-1.59,1.66.14,0,.29,0,.44,0,3.46.04,6.82.71,10.18,1.47,1.67.38.96,2.94-.71,2.57-2.71-.61-5.43-1.2-8.21-1.34-.35-.02-.7-.03-1.04-.03-.32,0-.81-.1-1.11,0-.16.05-.28.22-.4.33-.02.02-.03.03-.05.04,0,0,0,.01-.01.03-.02.03-.02.04-.03.05,0,0,0,.01,0,.05-.13.44-.16.94-.14,1.43,1.91-.43,4.02-.24,5.93-.01,1.41.17,2.82.38,4.2.68.71.16,1.11.97.93,1.64-.2.72-.94,1.09-1.64.93-.36-.08-.72-.15-1.09-.22-.41-.08-.82-.15-1.23-.21-.21-.03-.42-.06-.62-.09-.04,0-.07,0-.11-.01-.02,0-.04,0-.09-.01-.11-.01-.23-.03-.34-.04-.96-.11-1.93-.2-2.9-.21-.47,0-.95,0-1.42.03-.19.01-.38.03-.57.05-.01,0-.39.07-.47.08-.22.05-.43.11-.65.18-.04.01-.07.02-.09.03-.02.01-.04.02-.07.04-.13.07-.47.37-.2.09-.05.05-.12.09-.16.15-.02.03-.03.04-.03.04,0,0,0,0,0,.02-.03.12-.13.39-.14.59-.01.28,0,.57.02.85.05.72.19,1.44.31,2.15.21,1.29.26,2.65.7,3.89.02.05.02.06.03.08.03.07.07.15.11.22.03.05.06.1.09.15.01,0,.06.06.11.11.02,0,.08.04.13.08.02,0,.06.01.1.02.04,0,.18.01.22.01.03,0,.05,0,.07,0,.02,0,.04-.02.07-.03,0,0,.23-.09.25-.09.25-.13.36-.27.58-.44.02-.02.03-.02.05-.04.01-.12.02-.3.02-.31.04-.62.02-1.24-.01-1.87-.03-.53-.08-1.06-.14-1.59-.01-.09-.02-.18-.03-.27,0-.04-.01-.08-.02-.12-.12-.78.33-1.76,1.28-1.69,1.1.08,2.2.17,3.31.25.13,0,.25.04.37.08.7-.04,1.39.38,1.32,1.27-.21,2.63-.84,5.09-1.84,7.53-.47,1.14-.95,2.29-1.07,3.53-.04.45-.04.9-.02,1.36h8.72c.02-.22.03-.43.06-.65.41-3.13,1.04-6.24,1.51-9.36.24-1.61.47-3.22.72-4.83.25-1.68.83-3.57.68-5.28-.16-1.79-1.9-2.6-3.44-3Z"/><path class="cls-7" d="m67.71,52.45c-1.71,0-1.72,2.66,0,2.66s1.72-2.66,0-2.66Z"/><path class="cls-7" d="m52.51,52.45c-1.71,0-1.72,2.66,0,2.66s1.72-2.66,0-2.66Z"/><path class="cls-7" d="m54.64,44.06c-.71-.16-1.28.18-1.57.79,0,0,0,0-.02.04-.03.06-.06.11-.09.17-.06.12-.13.23-.21.34-.03.04-.05.07-.08.11,0,0,0,0,0,.01,0,0,0,0,0,0,0,.01-.02.03-.03.04,0-.01,0-.01.01-.03-.09.11-.18.21-.28.31-.21.23-.44.44-.68.64-.06.05-.13.1-.19.15.02-.02.03-.02.04-.04-.01,0-.02.02-.03.03-.13.1-.26.19-.4.28-.27.18-.55.34-.83.48-.09.05-.19.09-.28.13,0,0-.02.01-.07.03-.02.01-.05.02-.07.03.01,0,.02-.01.03-.02-.07.03-.14.05-.2.07-.24.08-.49.13-.73.19-.05,0-.09,0-.14,0-.13,0-.26,0-.39-.02-.69-.08-1.36.67-1.33,1.33.04.79.59,1.25,1.33,1.33,1.42.16,2.95-.57,4.1-1.33,1.3-.87,2.48-1.99,3.05-3.47.25-.65-.28-1.49-.93-1.64Z"/><path class="cls-7" d="m49.89,47.58s.02,0,.03-.01c.02-.01.05-.02.07-.03,0,0-.05.02-.11.05h0Z"/><path class="cls-7" d="m52.66,45.53s0-.01.01-.02c.07-.09.11-.21-.03.03,0,0,.01-.01.02-.02Z"/><path class="cls-7" d="m51.54,46.62c.07-.06.17-.15,0,0h0Z"/><path class="cls-7" d="m71.68,48.03c-1.06-.54-2.33-.64-3.51-.69-.6-.02-1.21,0-1.81.05-.6.06-1.22.14-1.79.36-.65.25-1.17.9-.93,1.64.2.63.94,1.2,1.64.93.21-.08.43-.14.65-.19.11-.02.23-.05.34-.06,0,0,.01,0,.02,0,.03,0,.06,0,.07,0,.57-.06,1.15-.08,1.72-.06.28,0,.56.03.84.05.12.01.23.02.34.04.05,0,.1.02.15.02.22.04.44.08.66.14.09.02.18.05.26.08.03.01.11.03.14.05,0,0-.03-.02-.06-.03.61.25,1.39.12,1.72-.51.32-.61.19-1.49-.48-1.82Z"/><path class="cls-7" d="m60.13,64.08c-1.71,0-1.72,2.66,0,2.66s1.72-2.66,0-2.66Z"/><path class="cls-7" d="m110.21,108.01c-1.68-2.32-4.82-3.37-7.32-4.57-3.26-1.56-6.55-3.05-9.85-4.52-1.93-.86-3.87-1.71-5.81-2.54-.25-.11-.49-.13-.72-.11-.53-.9-1.81-1.38-2.67-1.89-1.17-.68-2.33-1.36-3.5-2.04,0-.12.01-.25,0-.37-.4-2.41-.8-4.81-1.2-7.22-.15-.88-1.27-1.17-1.96-.8-.06.03-.11.06-.17.09-.12-2.3-.33-4.6-.38-6.91,0-.18-.05-.37-.13-.53,1.41-3.22,1.93-6.73,2.24-10.29,1.27-.52,2.5-1.26,3.47-2.21,1.5-1.46,2.12-3.53,2.18-5.58.05-1.96-.5-4.14-1.99-5.51-.03-.03-.06-.04-.09-.07.74-4.08,1.14-8.28,1.05-12.43-.09-3.82-.44-8.68-3.28-11.57-1.23-1.26-2.79-1.76-4.45-1.76-1.83-4.92-6.28-7.65-11.46-8.41-2.83-.41-5.69-.39-8.54-.11-2.71.27-5.72.54-8.3,1.43-3.42,1.18-6.36,4.62-6.3,8.34,0,.35.12.62.3.82.29-.42.67-.81,1.26-1.1-.58.29-.96.68-1.26,1.1.7.82,2.39.55,2.37-.82-.04-2.68,2.27-5.23,4.78-5.91,2.23-.61,4.6-.93,6.89-1.17,4.51-.47,9.71-.59,13.74,1.81,2.19,1.3,3.6,3.32,4.28,5.75.21.75.92,1.04,1.64.93,3.11-.47,4.46,2.47,5.07,5.17.87,3.8.7,7.87.36,11.73-.15,1.72-.37,3.44-.67,5.14-.29-.02-.58,0-.87.05-.15-1.6-.22-3.2-.27-4.81-.06-1.92.03-3.88-.22-5.79-.44-3.42-2.29-6.8-5.83-7.72-.86-.22-1.47.37-1.61,1.04.3.19.6.39.9.61-.3-.22-.6-.42-.9-.61-.14.62.11,1.32.91,1.53,2.79.72,3.88,3.75,3.99,6.37.14,3.64.08,7.3.56,10.92.04.29.14.56.3.79.26.89,1.39,1.52,2.18.63.74-.84,1.74-.06,2.21.76.64,1.11.72,2.55.53,3.8-.38,2.41-2.25,3.91-4.51,4.63-.6.19-.93.67-.98,1.28-.36,4.55-.95,9-3.57,12.86-1.26,1.86-2.74,3.37-4.63,4.58-1.61,1.04-3.38,2.06-5.25,2.58-.26-.17-.51-.35-.77-.52-1.57-1.01-3.2-1.9-4.83-2.81-1.59-.89-3.55-2.12-5.4-1.19-.67.34-1.18.9-1.53,1.56-2.29-1.65-4.09-3.97-5.34-6.49-1.62-3.27-1.95-6.99-2.24-10.58-.05-.61-.38-1.09-.98-1.28-2.25-.72-4.13-2.22-4.51-4.63-.19-1.21-.11-2.59.47-3.69.45-.85,1.49-1.74,2.27-.86.83.93,2.04.19,2.21-.77,3.13-1.51,3.06-6.52,3.11-9.46.03-1.79-.03-3.42.45-4.99.69-2.26,1.98-3.7,4.38-4.02.65-.09,1.01-.84.96-1.44-1.03.11-2.05.18-3.05.18,1,0,2.02-.07,3.05-.18,0-.07-.01-.13-.03-.19-.2-.77-.93-1.03-1.64-.93-4.81.65-6.63,5.29-6.75,9.61-.05,1.91.01,3.85-.24,5.75-.11.82-.28,1.73-.65,2.44-.34.66-.59.87-1.22,1.01-.13.03-.23.07-.33.12-.41-.11-.84-.14-1.27-.1-.26-2.19-.46-4.38-.68-6.58-.15-1.55-.34-3.05-.24-4.61.17-2.56.86-6.84,3.88-7.5,1.67-.37.97-2.93-.71-2.57-.2.04-.39.1-.58.17-.17.34-.34.66-.59.9.24-.24.42-.56.59-.9-3.55,1.18-4.77,5.53-5.17,8.89-.19,1.6-.1,3.13.06,4.73.27,2.7.51,5.41.84,8.11.02.17.06.33.12.48-1.49,1.36-2.04,3.54-1.99,5.5.05,2,.65,4.02,2.07,5.48.98,1,2.26,1.77,3.58,2.31.31,3.58.79,7.16,2.29,10.46-.04.12-.06.24-.06.37-.05,2.49-.09,4.99-.13,7.48-.24-.12-.49-.23-.72-.36-.96-.52-1.89.15-2,1.15-.25,2.16-.5,4.31-.75,6.47-.02.17.01.33.07.48l-3.48,2.03c-.86.5-2.13.98-2.67,1.88-.23-.02-.47,0-.72.11-4.8,2.12-9.57,4.29-14.3,6.56-1.55.74-3.09,1.49-4.61,2.27-1.16.59-2.43,1.13-3.36,2.06-2.1,2.1-3.14,5.32-4,8.08-.66,2.11-1.21,4.26-1.63,6.44h2.72c.3-1.47.66-2.94,1.07-4.38.75-2.64,1.59-5.7,3.36-7.87.72-.88,1.73-1.29,2.77-1.83,1.46-.75,2.93-1.47,4.41-2.19,3.11-1.5,6.25-2.95,9.4-4.37,1.27-.58,2.55-1.15,3.83-1.72-.51,1.7-1,3.42-1.51,5.11-2.31.65-4.8,1.64-4.42,4.56.15,1.17.73,2.21,1.14,3.3.44,1.16.82,2.35,1.2,3.54.62,1.96,1.22,3.93,1.97,5.84h2.84c-.02-.06-.04-.12-.06-.17-.83-1.88-1.39-3.88-2.01-5.84-.64-2.04-1.39-4-2.16-5.99-.39-1.02-.48-1.75.64-2.21.95-.39,2.01-.58,3-.84,1.33-.35,2.66-.71,3.99-1.06,1.66-.44.95-3.01-.71-2.57-.8.21-1.59.42-2.38.64.61-2.02,1.22-4.03,1.84-6.05,1.18-.69,2.36-1.38,3.54-2.07.48,7.95.8,15.91,1.16,23.86.03.77.07,1.54.1,2.31h2.66c-.32-7.36-.66-14.72-1.04-22.08-.07-1.38-.15-2.75-.23-4.13,2.4,1.72,4.8,3.45,7.21,5.17.28.2.56.4.84.6-.18.93-.16,1.95.05,2.87-.3.32-.56.68-.72,1.14-.6,1.66-.01,3.65.25,5.32.23,1.48.29,3.05,1,4.41.74,1.42,2.33,2.08,3.86,1.68.85-.22,1.58-.75,2.16-1.41-.19.53-.39,1.06-.6,1.59-.63,1.6-.88,3.21-.84,4.84h2.63c-.02-.45-.02-.9.02-1.36.12-1.23.6-2.39,1.07-3.53,1-2.44,1.63-4.9,1.84-7.53.07-.89-.62-1.31-1.32-1.27-.12-.04-.24-.07-.37-.08-1.1-.08-2.2-.17-3.31-.25-.95-.07-1.4.9-1.28,1.69,0,.04.01.08.02.12.01.09.02.18.03.27.06.53.11,1.06.14,1.59.04.62.05,1.24.01,1.87,0,.02-.01.19-.02.31-.02.01-.03.02-.05.04-.22.17-.33.31-.58.44-.02,0-.26.09-.25.09-.03.01-.05.02-.07.03-.02,0-.04,0-.07,0-.04,0-.18-.01-.22-.01-.04-.01-.08-.02-.1-.02-.05-.03-.11-.07-.13-.08-.04-.05-.09-.1-.11-.11-.03-.05-.07-.1-.09-.15-.04-.07-.08-.14-.11-.22,0-.02-.01-.04-.03-.08-.44-1.24-.49-2.6-.7-3.89-.12-.71-.26-1.43-.31-2.15-.02-.28-.03-.57-.02-.85,0-.2.1-.47.14-.59,0,0,0-.01,0-.02,0,0,.02-.02.03-.04.04-.06.11-.1.16-.15-.27.28.07-.02.2-.09.03-.02.05-.03.07-.04.02,0,.05-.01.09-.03.22-.06.43-.13.65-.18.08-.02.45-.08.47-.08.19-.02.38-.04.57-.05.47-.03.95-.04,1.42-.03.97.02,1.94.1,2.9.21.11.01.23.03.34.04.05,0,.08.01.09.01.04,0,.07,0,.11.01.21.03.42.06.62.09.41.06.82.13,1.23.21.36.07.73.14,1.09.22.7.16,1.44-.21,1.64-.93.18-.67-.22-1.48-.93-1.64-1.38-.31-2.79-.52-4.2-.68-1.91-.23-4.02-.42-5.93.01-.03-.49.01-.99.14-1.43.01-.04.01-.05,0-.05,0-.01.01-.02.03-.05,0-.01,0-.02.01-.03.01,0,.02-.02.05-.04.12-.1.24-.27.4-.33.3-.1.79,0,1.11,0,.35,0,.7.02,1.04.03,2.78.13,5.5.73,8.21,1.34,1.67.38,2.38-2.19.71-2.57-3.36-.75-6.72-1.43-10.18-1.47-.15,0-.3,0-.44,0,.18-.86.6-1.64,1.59-1.66.84-.02,1.73.25,2.55.41.97.18,1.93.36,2.9.54,1.77.33,3.58.59,5.32,1.04,1.54.4,3.28,1.21,3.44,3,.15,1.7-.42,3.6-.68,5.28-.24,1.61-.48,3.22-.72,4.83-.47,3.12-1.1,6.23-1.51,9.36-.03.22-.04.44-.06.65h2.65c.07-.61.16-1.22.26-1.82.64-3.68,1.2-7.37,1.75-11.06.29-1.97.67-3.94.9-5.92.06-.52.06-1.04.01-1.54.31-.02.61-.14.88-.37,1.99-1.73,3.98-3.45,5.97-5.18-.47,7.85-.79,15.72-1.14,23.58-.03.77-.07,1.54-.1,2.31h2.66c.32-7.36.66-14.72,1.04-22.08.07-1.36.15-2.72.23-4.08,1.18.69,2.36,1.38,3.54,2.07.61,2.02,1.22,4.03,1.84,6.05-.79-.21-1.59-.43-2.38-.64-1.66-.44-2.37,2.13-.71,2.57,1.36.36,2.71.73,4.07,1.09.99.26,2.07.44,3.01.85,1.15.51.87,1.4.45,2.4-1.6,3.85-3.04,7.79-4.74,11.61-.03.06-.04.11-.06.17h2.85c.78-1.84,1.51-3.69,2.24-5.55.45-1.15.91-2.3,1.38-3.44.46-1.1,1.07-2.2,1.29-3.38.25-1.39-.12-2.72-1.27-3.61-.9-.69-2.02-.99-3.11-1.27-.52-1.7-1-3.42-1.52-5.13,4.11,1.78,8.2,3.6,12.25,5.51,1.5.7,3,1.42,4.48,2.17,1.04.52,2.44,1.06,3.19,1.8,1.87,1.83,2.62,4.98,3.28,7.41.49,1.8.9,3.64,1.22,5.49h2.69c-.28-1.78-.66-3.55-1.1-5.29-.73-2.88-1.6-6.05-3.37-8.49Zm-53.24,2.6c-.14.88-.33,1.73-.57,2.56,0-.3,0-.59,0-.87,0-.58-.04-1.17-.1-1.75.22.02.45.03.67.05Zm-3.28,3.08s0,.07-.01.07c-.03,0-.02-.03.01-.07Zm-8.94-27.98c.03-1.59.06-3.18.08-4.77,1.41,1.8,3.13,3.37,5.09,4.52.54,1.49,1.91,2.37,3.16,3.22.89.61,1.78,1.21,2.68,1.81-1.25-.51-2.49-1.01-3.74-1.52-2.42-1-4.89-1.98-7.3-3.07,0-.06.02-.12.02-.18Zm14.98,9.22c-.58-.11-1.16-.22-1.74-.33-1.98-.37-4.33-1.14-6.11.2-1.24.93-1.74,2.44-1.89,3.94-2.44-1.75-4.89-3.51-7.33-5.26-.39-.28-.78-.56-1.16-.83-.12-.08-.25-.13-.38-.16.09-.19.16-.39.18-.61.17-1.48.34-2.95.52-4.43,3.03,1.48,6.21,2.72,9.31,4,2.73,1.13,5.47,2.25,8.22,3.34.13.05.27.07.41.06,0,.03,0,.05,0,.08Zm5.75,1.11c-.37-.09-.75-.17-1.12-.25-.66-.13-1.33-.25-1.99-.37.04-1.27.61-2.51-.16-3.71-.43-.68-1.13-1.04-1.8-1.44-.76-.45-1.51-.92-2.26-1.4-1.33-.85-2.63-1.76-3.94-2.65-.7-.47-2.05-1.22-1.81-2.24.38-1.62,2.34-.21,3.15.25,1.46.83,2.95,1.61,4.38,2.51,1.27.79,2.49,1.64,3.66,2.56.23.18.46.35.69.53,0,0,0,0,0,0,.01.01.02.02.04.04.09.08.18.16.26.25.06.05.09.08.1.09,0,.02.02.04.04.07.08.13.16.27.23.4.01.02.05.1.07.15.03.08.06.17.09.25.07.21.12.43.17.65.3,1.36.27,2.87.19,4.31Zm1.58-7.01c-.04-.06-.07-.14-.11-.2-.42-.6-.95-1.03-1.54-1.46-.01,0-.01-.01-.02-.02-.03-.02-.06-.04-.09-.07,1.41-.6,2.76-1.39,4-2.19,1.92-1.24,3.47-2.75,4.83-4.53.11,1.61.22,3.23.27,4.85-2.43,1.24-4.89,2.42-7.34,3.62Zm4.05,9.33c-.25.22-.51.44-.76.66-.23-.37-.51-.71-.85-1.03-.45-.42-.94-.75-1.47-1.02.04-.12.07-.25.08-.39.09-1.55.19-3.38-.12-5.05,2.96-1.44,5.93-2.87,8.85-4.39.3,1.82.61,3.64.91,5.46-2.22,1.92-4.43,3.84-6.65,5.76Z"/><path class="cls-7" d="m62.16,23.6c-.69.08-1.37.56-1.33,1.33.03.66.59,1.41,1.33,1.33.2-.02.39-.03.59-.02.07,0,.27-.02.32.03-.06,0-.11-.01-.17-.02.06.01.12.02.18.03.19.04.37.09.55.15.05.02.09.03.14.05.04.02.13.06.17.08.2.1.39.2.57.32.1.06.2.13.3.2.02.01.06.05.1.08.34.28.66.57.95.9.07.08.15.17.22.25.02.03.12.15.16.2.12.16.23.32.34.49.26.41.47.83.68,1.26,0,.02,0,.02.01.02.01.03.02.05.03.08.05.12.09.25.14.38.07.22.14.44.2.66.06.22.1.44.14.67,0,.02,0,.03.01.05,0,.01,0,.02,0,.05.01.15.03.3.03.45.01.25.09.5.23.71.49.15.98.34,1.46.56.55-.17,1.01-.65.98-1.26-.12-2.39-1.14-4.66-2.74-6.43-1.38-1.52-3.46-2.81-5.59-2.57Z"/><path class="cls-7" d="m69.16,33.94c.12,0,.24-.03.36-.07-.48-.22-.97-.4-1.46-.56.23.38.63.65,1.11.62Z"/><path class="cls-7" d="m59.74,25.74c-2.03-1.9-4.61-2.78-7.36-2.09-1.66.42-.96,2.99.71,2.57,1.02-.26,1.78-.25,2.82.12.05.02.16.07.19.08.1.05.21.1.31.15.23.12.45.26.67.41.08.05.16.11.23.17.02.02.19.16.22.18.2.18.4.36.59.55.38.38.73.79,1.07,1.22.04.05.12.16.12.16.08.1.15.21.23.31.17.24.34.49.51.74.52.78.99,1.59,1.46,2.4.88-.06,1.75-.08,2.61-.05.09-.3.07-.65-.14-1-1.21-2.09-2.46-4.26-4.24-5.93Z"/><path class="cls-7" d="m61.51,32.71c.06.1.12.2.17.3.66,1.13,2.15.62,2.44-.35-.86-.04-1.73-.01-2.61.05Z"/><path class="cls-7" d="m45.4,28.03c-.44.57-.09,1.49.48,1.82.69.4,1.38.09,1.82-.48-.17.22.13-.12.17-.16.02-.02.1-.09.14-.12.08-.05.16-.09.23-.15,0,0,0,0,.02-.01,0,0,0,0,0,0,.09-.02.18-.05.26-.08.02,0,.04,0,.06-.01.01,0,.02,0,.04,0,.08,0,.19,0,.28,0,.03,0,.07,0,.1,0,0,0,0,0,.01,0,.2.06.42.11.62.17.04.01.06.02.08.02.01,0,.02.01.04.02.1.05.2.09.29.14.48.25.93.56,1.37.87.03.02.05.04.06.05.01,0,.03.02.05.04.13.1.26.21.39.31.21.17.41.35.62.54.42.38.82.76,1.22,1.16.47.46.92.94,1.38,1.41.99-.16,1.98-.33,2.96-.48-.04-.23-.16-.47-.37-.68-2.88-2.85-8.4-9.46-12.32-4.39Z"/><path class="cls-7" d="m55.13,33.59c.23.24.47.48.71.72,1,.99,2.45-.11,2.26-1.2-.99.15-1.97.32-2.96.48Z"/><path class="cls-7" d="m64.75,73.08c-1.36-.94-2.96-1.56-4.63-1.58-1.74-.02-3.41.63-4.85,1.58-.58.38-.88,1.2-.48,1.82.37.58,1.2.89,1.82.48.62-.41,1.24-.74,1.8-.92.74-.25,1-.29,1.71-.29.63,0,.93.06,1.65.31.02,0,.18.07.22.09.15.07.3.14.44.21.34.18.66.38.97.6.57.4,1.5.12,1.82-.48.36-.68.14-1.4-.48-1.82Z"/></g></g></svg>