<?xml version="1.0" encoding="UTF-8"?><svg id="_レイヤー_2" xmlns="http://www.w3.org/2000/svg" viewBox="0 0 155.8 143.83"><defs><style>.cls-1{fill:#1e1e32;}.cls-2{fill:#3397dc;}.cls-3{fill:#a9cfdc;}</style></defs><g id="_デザイン"><path class="cls-1" d="m125.69,143.83H50.05c-4.1,0-7.44-3.34-7.44-7.44v-6.03c0-.83.68-1.51,1.51-1.51s1.51.68,1.51,1.51v6.03c0,2.44,1.98,4.42,4.42,4.42h75.65c2.44,0,4.42-1.98,4.42-4.42V27.77c0-2.44-1.98-4.42-4.42-4.42H50.05c-2.44,0-4.42,1.98-4.42,4.42v38.36c0,.83-.68,1.51-1.51,1.51s-1.51-.68-1.51-1.51V27.77c0-4.1,3.34-7.44,7.44-7.44h75.65c4.1,0,7.44,3.34,7.44,7.44v108.62c0,4.1-3.34,7.44-7.44,7.44Z"/><path class="cls-1" d="m142.8,129.06c-.83,0-1.51-.68-1.51-1.51V18.93c0-2.44-1.98-4.42-4.42-4.42H61.21c-.83,0-1.51-.68-1.51-1.51s.68-1.51,1.51-1.51h75.65c4.1,0,7.44,3.34,7.44,7.44v108.62c0,.83-.68,1.51-1.51,1.51Z"/><path class="cls-1" d="m154.29,117.57c-.83,0-1.51-.68-1.51-1.51V7.44c0-2.44-1.98-4.42-4.42-4.42h-75.65c-.83,0-1.51-.68-1.51-1.51s.68-1.51,1.51-1.51h75.65c4.1,0,7.44,3.34,7.44,7.44v108.62c0,.83-.68,1.51-1.51,1.51Z"/><path class="cls-1" d="m28.79,128.05c-15.87,0-28.79-12.91-28.79-28.79s12.91-28.79,28.79-28.79,28.79,12.91,28.79,28.79-12.91,28.79-28.79,28.79Zm0-54.55c-14.21,0-25.76,11.56-25.76,25.76s11.56,25.76,25.76,25.76,25.76-11.56,25.76-25.76-11.56-25.76-25.76-25.76Z"/><path class="cls-1" d="m51.54,115.8c-.29,0-.57-.08-.83-.25l-22.76-15.02c-.42-.28-.68-.75-.68-1.26v-27.27c0-.83.68-1.51,1.51-1.51s1.51.68,1.51,1.51v26.46l22.08,14.58c.7.46.89,1.4.43,2.09-.29.44-.77.68-1.26.68Z"/><path class="cls-1" d="m2.66,108.6c-.65,0-1.25-.42-1.45-1.08-.24-.8.21-1.64,1.01-1.88l26.13-7.83c.8-.24,1.64.21,1.88,1.01.24.8-.21,1.64-1.01,1.88l-26.13,7.83c-.14.04-.29.06-.43.06Z"/><path class="cls-1" d="m67.54,73.02c-.83,0-1.51-.68-1.51-1.51v-18.58c0-.83.68-1.51,1.51-1.51h13.48c.83,0,1.51.68,1.51,1.51s-.68,1.51-1.51,1.51h-11.97v17.07c0,.83-.68,1.51-1.51,1.51Z"/><path class="cls-1" d="m81.02,73.02c-.83,0-1.51-.68-1.51-1.51v-18.58c0-.83.68-1.51,1.51-1.51s1.51.68,1.51,1.51v18.58c0,.83-.68,1.51-1.51,1.51Z"/><path class="cls-1" d="m81.02,54.44c-.83,0-1.51-.68-1.51-1.51v-9.84c0-.83.68-1.51,1.51-1.51h13.48c.83,0,1.51.68,1.51,1.51s-.68,1.51-1.51,1.51h-11.97v8.33c0,.83-.68,1.51-1.51,1.51Z"/><polyline class="cls-2" points="94.51 71.51 94.51 30.52 107.99 30.52 107.99 71.51"/><path class="cls-1" d="m107.99,73.02c-.83,0-1.51-.68-1.51-1.51v-39.47h-10.46v39.47c0,.83-.68,1.51-1.51,1.51s-1.51-.68-1.51-1.51V30.52c0-.83.68-1.51,1.51-1.51h13.48c.83,0,1.51.68,1.51,1.51v40.99c0,.83-.68,1.51-1.51,1.51Z"/><path class="cls-1" d="m113.91,73.02h-52.28c-.83,0-1.51-.68-1.51-1.51s.68-1.51,1.51-1.51h52.28c.83,0,1.51.68,1.51,1.51s-.68,1.51-1.51,1.51Z"/><path class="cls-1" d="m119.37,86.99h-46.67c-.83,0-1.51-.68-1.51-1.51s.68-1.51,1.51-1.51h46.67c.83,0,1.51.68,1.51,1.51s-.68,1.51-1.51,1.51Z"/><path class="cls-1" d="m119.37,98.44h-46.67c-.83,0-1.51-.68-1.51-1.51s.68-1.51,1.51-1.51h46.67c.83,0,1.51.68,1.51,1.51s-.68,1.51-1.51,1.51Z"/><rect class="cls-3" x="94.92" y="111.08" width="24.45" height="22.59" rx="3.27" ry="3.27"/><path class="cls-1" d="m116.1,135.19h-17.92c-2.63,0-4.78-2.14-4.78-4.78v-16.06c0-2.63,2.14-4.78,4.78-4.78h17.92c2.63,0,4.78,2.14,4.78,4.78v16.06c0,2.63-2.14,4.78-4.78,4.78Zm-17.92-22.59c-.97,0-1.76.79-1.76,1.76v16.06c0,.97.79,1.76,1.76,1.76h17.92c.97,0,1.76-.79,1.76-1.76v-16.06c0-.97-.79-1.76-1.76-1.76h-17.92Z"/><path class="cls-1" d="m81.44,117.77h-13.48c-.83,0-1.51-.68-1.51-1.51s.68-1.51,1.51-1.51h13.48c.83,0,1.51.68,1.51,1.51s-.68,1.51-1.51,1.51Z"/><path class="cls-1" d="m81.44,130.02h-13.48c-.83,0-1.51-.68-1.51-1.51s.68-1.51,1.51-1.51h13.48c.83,0,1.51.68,1.51,1.51s-.68,1.51-1.51,1.51Z"/></g></svg>