<?xml version="1.0" encoding="UTF-8"?><svg id="_レイヤー_2" xmlns="http://www.w3.org/2000/svg" viewBox="0 0 122.18 162.83"><defs><style>.cls-1{fill:#1e1e32;}.cls-2{fill:#fff;}.cls-3{fill:#3397dc;}</style></defs><g id="_デザイン"><polygon class="cls-3" points="95.72 161.3 95.72 128.91 105.44 128.91 90.34 105.98 31.84 105.98 16.74 128.91 26.66 128.91 26.66 161.3 95.72 161.3"/><path class="cls-1" d="m95.72,162.83c-.84,0-1.53-.68-1.53-1.53v-32.39c0-.84.68-1.53,1.53-1.53h6.88l-13.09-19.88h-56.85l-13.09,19.88h7.09c.84,0,1.53.68,1.53,1.53v32.39c0,.84-.68,1.53-1.53,1.53s-1.53-.68-1.53-1.53v-30.87h-8.39c-.56,0-1.08-.31-1.34-.8-.27-.49-.24-1.09.07-1.56l15.1-22.93c.28-.43.76-.69,1.27-.69h58.5c.51,0,.99.26,1.27.69l15.1,22.93c.31.47.34,1.07.07,1.56-.27.49-.78.8-1.34.8h-8.19v30.87c0,.84-.68,1.53-1.53,1.53Z"/><path class="cls-1" d="m122.15,41l-27.93-27.93c-.49-.49-1.28-.49-1.77,0-.49.49-.49,1.28,0,1.77l27.07,27.07-7.43,7.82-29.54-29.54L100.13,2.12c.48-.49.47-1.29-.02-1.77-.49-.48-1.29-.47-1.77.02l-17.77,18.27c-.85.85-.85,2.23,0,3.08l2.98,2.98-4.19,4.19h-24.99c-2.25,0-4.47,1.85-4.71,2.06l-.07.07s-.11.11-.31.31h-7.03l-4-4,3.54-3.54c.85-.85.85-2.23.01-3.07L24.01,2.45c-.48-.49-1.27-.51-1.77-.02-.49.48-.51,1.27-.02,1.77l17.57,18.07-29.53,29.53-7.59-8.81,26.75-25.54c.5-.48.52-1.27.04-1.77-.48-.5-1.27-.52-1.77-.04L.08,41.99l-.08,1.72,8.64,10.03.07.07c.41.41.96.63,1.53.63s1.13-.23,1.54-.64l1.82-1.82,17.91,17.91c-.89.92-1.55,2.01-1.63,3-.11,1.41.34,2.79,1.26,3.86.92,1.08,2.21,1.73,3.62,1.84.07,0,.14.01.21.01.04,0,.08,0,.12,0-.27.52-.46,1.04-.5,1.5-.23,2.92,1.96,5.48,4.88,5.7.14.01.28.02.42.02.67,0,1.32-.13,1.93-.37,0,.01,0,.03,0,.04-.11,1.41.34,2.79,1.26,3.86.92,1.08,2.21,1.73,3.62,1.84.13,0,.26.01.39.01.74,0,1.48-.17,2.21-.51.04,2.78,1.74,4.76,4.47,5.17.24.04.49.06.72.06,1.02,0,1.85-.34,2.51-.8.93.56,2,.86,3.11.86,2.92,0,5.39-2.09,5.94-4.88l.61.61c1.14,1.14,2.66,1.76,4.27,1.76,2.96,0,5.46-2.15,5.96-5.01,1,.69,2.2,1.06,3.43,1.06,3.34,0,6.05-2.71,6.05-6.05,0-1.02-.36-1.97-.74-2.7,3.01-.35,5.36-2.93,5.36-6.01,0-2.3-1.77-4.23-1.97-4.45l-.94-.94,20.08-20.08,2.42,2.42c.41.41.96.64,1.54.64s1.12-.22,1.53-.63l8.54-8.99-.02-1.74Zm-87.19,35.76s-.05,0-.07,0c-.92-.07-1.76-.5-2.36-1.2-.6-.7-.89-1.6-.82-2.52.09-1.18,2.38-3.33,3.71-3.47.11-.01.21-.02.32-.02.97,0,1.99.45,2.68,1.17.38.4.82,1.06.78,1.93-.07,1.46-2.81,4.1-4.25,4.1Zm7.14,6.41c-.69.58-1.57.87-2.48.8-1.9-.15-3.33-1.81-3.18-3.72.07-.94,1.79-3.02,2.99-4.19l.06-.06c1.06-1.26,2.04-1.84,3.08-1.84.2,0,.41.02.62.06,1.43.29,3.11,1.79,3.06,3.2-.05,1.21-2.44,4.08-4.14,5.74Zm7.3,5.33c-.88.64-1.7.93-2.56.86-.92-.07-1.76-.5-2.36-1.2-.6-.7-.89-1.6-.82-2.52.04-.45.4-1.34,1.91-3.02,1.17-1.3,2.16-1.88,3.31-1.93h.05c.6,0,1.58.42,2.16.93.85.75,1.11,1.96,1.06,2.84-.03.55-.22,1.1-.58,1.66-.31.4-1.48,1.87-2.17,2.38Zm4.64,5.55c-1.88-.29-2.91-1.51-2.9-3.46,0-.74.79-1.59,1.39-2.16.72-.7,1.12-1.02,1.91-1.19.11-.02.23-.04.36-.04.95,0,2.12.7,2.84,1.69.5.69.68,1.39.5,1.94-.21.64-.57,1.08-1.01,1.63l-.09.11c-.98,1.22-1.86,1.65-2.98,1.48Zm30.88-15.78c-.52,0-1.68-.58-2.47-1.15l-15.74-15.73c-.48-.49-1.33-.49-1.81,0-.5.5-.5,1.31,0,1.81l17.64,17.64c.1.1,1.24,1.39,1.24,2.65,0,1.92-1.56,3.48-3.48,3.48-.91,0-1.77-.35-2.41-.97l-3.13-3.25-.06.06-12.26-12.25c-.48-.48-1.33-.48-1.81,0-.24.24-.38.56-.38.91s.13.67.38.91l12.94,12.94c.36.51.83,1.33.83,2.13,0,1.92-1.56,3.48-3.48,3.48-.78,0-1.51-.27-2.11-.73-.05-.08-.11-.16-.18-.24l-4.36-4.36-.32-.32h0s-10.61-10.61-10.61-10.61c-.48-.48-1.32-.48-1.81,0-.5.5-.5,1.31,0,1.81l10.83,10.83s1.24,1.37,1.24,2.65c0,1.92-1.56,3.48-3.48,3.48-.43,0-.84-.09-1.23-.23.38-.5.75-1.04.99-1.78.37-1.11.1-2.43-.75-3.61-1.06-1.47-2.8-2.46-4.34-2.46-.25,0-.5.03-.74.07-.06.01-.12.03-.18.05.08-.3.13-.61.14-.92.08-1.7-.55-3.32-1.7-4.32-.98-.86-2.44-1.44-3.51-1.39-.4.02-.77.08-1.12.17.25-.54.41-1.05.43-1.51.09-2.43-2.31-4.63-4.54-5.09-.33-.07-.66-.1-.99-.1-.52,0-1.02.09-1.51.26,0-1.13-.44-2.23-1.28-3.12-1.04-1.09-2.55-1.75-4.03-1.75-.18,0-.36.01-.53.03-.51.06-1.09.27-1.67.59l-18.14-18.14,21.02-21.02,4.75,4.75h5.53c-2.13,2.13-4.81,4.81-5.69,5.69-1.67,1.67-1.39,3.19-1.08,3.95.86,2.08,3.8,3.2,6.12,3.2,4.29,0,7.58-3.1,10.25-6.28h3.26l-2.07,1.99,29.67,29.67c.05.06,1.25,1.38,1.25,2.66,0,1.92-1.56,3.48-3.48,3.48Zm1.37-10.64l-24.95-24.95.68-.68c4.03,4.74,10.01,7.53,16.26,7.53,1.1,0,2.19-.08,3.25-.25.7-.11,1.18-.76,1.08-1.46-.11-.68-.76-1.18-1.46-1.07-.94.14-1.91.22-2.87.22-5.44,0-10.65-2.41-14.19-6.5h6.16c.71,0,1.28-.58,1.28-1.28s-.58-1.28-1.28-1.28h-14.49c-.1,0-.19.01-.28.03h-.33l-.24.3c-.1.09-.18.19-.25.3-2.46,2.99-5.2,5.72-8.61,5.72-1.61,0-3.46-.81-3.81-1.66-.05-.12-.2-.49.53-1.23,1.48-1.47,7.99-7.99,8.53-8.54.48-.4,1.95-1.43,3.05-1.43h26.03l4.92-4.92,21.07,21.07-20.08,20.08Z"/><rect class="cls-2" x="46.52" y="129.03" width="29.11" height="19.72"/><path class="cls-1" d="m75.63,150.28h-29.11c-.84,0-1.53-.68-1.53-1.53v-19.72c0-.84.68-1.53,1.53-1.53h29.11c.84,0,1.53.68,1.53,1.53v19.72c0,.84-.68,1.53-1.53,1.53Zm-27.58-3.05h26.06v-16.67h-26.06v16.67Z"/><path class="cls-1" d="m61.08,150.16c-.84,0-1.53-.68-1.53-1.53v-19.23c0-.84.68-1.53,1.53-1.53s1.53.68,1.53,1.53v19.23c0,.84-.68,1.53-1.53,1.53Z"/></g></svg>