<?xml version="1.0" encoding="UTF-8"?>
<svg id="_レイヤー_2" data-name="レイヤー 2" xmlns="http://www.w3.org/2000/svg" xmlns:xlink="http://www.w3.org/1999/xlink" viewBox="0 0 395.07 398.18">
  <defs>
    <style>
      .cls-1 {
        fill: url(#_名称未設定グラデーション_10-3);
      }

      .cls-1, .cls-2, .cls-3, .cls-4, .cls-5 {
        stroke-width: 0px;
      }

      .cls-2 {
        fill: url(#_名称未設定グラデーション_10);
      }

      .cls-3 {
        fill: url(#_名称未設定グラデーション_10-2);
      }

      .cls-4 {
        fill: #fff;
      }

      .cls-5 {
        fill: url(#_名称未設定グラデーション_10-4);
      }
    </style>
    <linearGradient id="_名称未設定グラデーション_10" data-name="名称未設定グラデーション 10" x1="165.32" y1="28.36" x2="28.36" y2="165.32" gradientUnits="userSpaceOnUse">
      <stop offset="0" stop-color="#3397dc"/>
      <stop offset="1" stop-color="#003888"/>
    </linearGradient>
    <linearGradient id="_名称未設定グラデーション_10-2" data-name="名称未設定グラデーション 10" x1="365.42" x2="228.46" y2="165.32" xlink:href="#_名称未設定グラデーション_10"/>
    <linearGradient id="_名称未設定グラデーション_10-3" data-name="名称未設定グラデーション 10" x1="366.7" y1="232.85" x2="229.75" y2="369.81" xlink:href="#_名称未設定グラデーション_10"/>
    <linearGradient id="_名称未設定グラデーション_10-4" data-name="名称未設定グラデーション 10" x1="165.32" y1="232.85" x2="28.36" y2="369.81" xlink:href="#_名称未設定グラデーション_10"/>
  </defs>
  <g id="_デザイン" data-name="デザイン">
    <g>
      <circle class="cls-2" cx="96.84" cy="96.84" r="96.84"/>
      <g>
        <path class="cls-4" d="m65.21,40.05l2.85.92c-.55,1.44-1.2,2.88-1.95,4.34-.75,1.45-1.57,2.83-2.44,4.12-.87,1.29-1.77,2.42-2.69,3.4-.09-.24-.23-.56-.42-.95-.2-.39-.4-.79-.62-1.19-.21-.4-.41-.73-.58-.99.77-.79,1.52-1.69,2.24-2.72.73-1.03,1.4-2.13,2.03-3.31.62-1.18,1.15-2.39,1.58-3.62Zm-2.59,7.11l3-3.03.03.03v19.86h-3.03v-16.85Zm3.28,2.98l15.24-5.95,1.18,2.67-15.21,6-1.21-2.72Zm3.16-7.31h3.03v16.29c0,.51.05.9.14,1.15.09.26.28.43.56.51.28.09.7.13,1.24.13h5.18c.51,0,.9-.09,1.15-.28.26-.19.44-.53.56-1.04.12-.5.22-1.24.31-2.22.34.24.78.47,1.32.69.54.22,1.02.38,1.45.49-.14,1.28-.36,2.3-.65,3.04-.3.74-.75,1.28-1.36,1.6-.61.32-1.45.49-2.53.49h-5.7c-1.23,0-2.19-.13-2.87-.4-.68-.27-1.16-.73-1.44-1.4-.27-.67-.41-1.59-.41-2.77v-16.29Zm5.52-2.74h2.9v17.88h-2.9v-17.88Zm5.54,4.62h-.21l.54-.38.54-.38,2.1.8-.1.49c0,1.49,0,2.82-.03,3.99-.02,1.17-.04,2.15-.08,2.95-.03.8-.08,1.38-.13,1.76-.05.65-.2,1.15-.45,1.51-.25.36-.58.63-.99.82-.39.17-.86.28-1.41.32-.55.04-1.05.06-1.51.04-.02-.43-.09-.92-.21-1.49-.12-.56-.27-1.01-.46-1.33.29.02.59.03.9.04.31,0,.54.01.69.01.17,0,.31-.04.41-.12.1-.08.18-.23.23-.47.03-.21.06-.63.08-1.28.02-.65.03-1.57.05-2.77.02-1.2.03-2.69.03-4.49Z"/>
        <path class="cls-4" d="m94.54,44.72h.59l.54-.13,1.72,1.13c-.63,1.68-1.46,3.27-2.49,4.78-1.03,1.51-2.16,2.88-3.39,4.09-1.23,1.21-2.49,2.22-3.77,3.03-.09-.27-.22-.6-.4-.99-.18-.38-.36-.75-.54-1.1-.18-.35-.36-.63-.53-.83,1.18-.62,2.31-1.42,3.39-2.42,1.08-1,2.04-2.1,2.9-3.31.85-1.21,1.51-2.44,1.98-3.71v-.54Zm-7.29,0h8.39v2.77h-8.39v-2.77Zm3.67-4.75h3.05v6.03h-3.05v-6.03Zm0,13.49l3.05-3.64v14.24h-3.05v-10.6Zm2.72-2.77c.24.15.57.41.99.76.42.35.87.74,1.35,1.15.48.42.92.8,1.31,1.15.39.35.68.6.85.76l-1.85,2.51c-.26-.32-.57-.71-.94-1.14-.37-.44-.76-.89-1.17-1.35-.41-.46-.81-.9-1.21-1.31-.39-.41-.73-.75-1-1.03l1.67-1.51Zm2.82,9.59h14.6v3.03h-14.6v-3.03Zm1.05-12.39h12.93v2.98h-12.93v-2.98Zm4.87-7.7h3.18v21.55h-3.18v-21.55Z"/>
        <path class="cls-4" d="m114.65,44.16c.51-.02,1-.04,1.46-.06s.81-.05,1.05-.06c.53-.03,1.18-.09,1.96-.17.78-.08,1.65-.16,2.62-.24.97-.09,2-.17,3.09-.26,1.09-.09,2.23-.18,3.41-.28.89-.09,1.77-.16,2.65-.22.88-.06,1.72-.11,2.51-.15.8-.04,1.49-.07,2.09-.09l.03,3.28c-.46,0-.99,0-1.59.03-.6.02-1.19.05-1.78.09-.59.04-1.12.12-1.58.24-.77.21-1.49.55-2.15,1.04s-1.24,1.06-1.73,1.72c-.49.66-.87,1.37-1.14,2.13-.27.76-.41,1.53-.41,2.3,0,.84.15,1.58.45,2.22.3.64.71,1.19,1.23,1.64.52.45,1.13.83,1.83,1.13.7.3,1.46.53,2.27.68.81.15,1.65.26,2.53.31l-1.21,3.51c-1.08-.07-2.13-.24-3.14-.51-1.02-.27-1.97-.65-2.86-1.13s-1.66-1.06-2.32-1.76-1.18-1.49-1.56-2.39c-.39-.9-.58-1.9-.58-3.01,0-1.23.2-2.36.59-3.4.39-1.03.88-1.94,1.47-2.72.59-.78,1.18-1.38,1.76-1.81-.48.07-1.06.14-1.73.21-.68.07-1.4.15-2.18.24-.78.09-1.57.19-2.37.29-.8.1-1.58.22-2.32.35s-1.42.25-2.01.37l-.33-3.51Zm17.21,4.26c.22.31.46.67.71,1.09.25.42.49.84.73,1.26.24.42.44.8.62,1.14l-1.95.87c-.33-.72-.64-1.35-.94-1.9-.3-.55-.65-1.1-1.06-1.67l1.9-.8Zm2.87-1.18c.22.31.47.66.73,1.06.26.4.53.81.78,1.23.26.42.47.79.64,1.12l-1.92.92c-.34-.68-.67-1.29-.99-1.82-.32-.53-.69-1.08-1.12-1.64l1.87-.87Z"/>
        <path class="cls-4" d="m31.67,79.27h3.47v29.28h-3.47v-29.28Zm2.17,23.48h12.71v3.44h-12.71v-3.44Zm6.24-13.11l2.13.93c-.38,1.22-.86,2.48-1.45,3.79-.59,1.3-1.24,2.52-1.95,3.65-.71,1.13-1.47,2.08-2.27,2.83-.16-.49-.38-1.05-.68-1.68s-.58-1.18-.85-1.65c.69-.6,1.36-1.33,2-2.2.64-.87,1.24-1.8,1.78-2.78.54-.99.97-1.95,1.28-2.88Zm-4.3-1.87h11.31v3.34h-11.31v-3.34Zm.07-6.44l2.4-.8c.36.91.65,1.9.88,2.95.23,1.06.37,1.97.42,2.75l-2.6.83c-.02-.78-.14-1.71-.35-2.78-.21-1.08-.46-2.06-.75-2.95Zm3.94-2.87h3.3v23.65h-3.3v-23.65Zm3.2,13.07c.2.18.51.44.92.8.41.36.84.75,1.3,1.17.46.42.88.82,1.27,1.18s.67.63.85.78l-2.13,2.7c-.2-.33-.47-.74-.82-1.22-.34-.48-.71-.97-1.1-1.47s-.76-.97-1.12-1.42c-.36-.44-.66-.81-.9-1.1l1.73-1.43Zm1.63-11.01l3.1.73c-.42,1.02-.84,2.07-1.25,3.13-.41,1.07-.81,1.97-1.18,2.7l-2.27-.73c.2-.56.4-1.17.6-1.85.2-.68.39-1.37.57-2.07.18-.7.32-1.34.43-1.92Zm3.6.2l4.67,1.33c-.02.29-.31.48-.87.57v9.8c0,1.25-.06,2.61-.18,4.09-.12,1.48-.35,2.99-.68,4.54-.33,1.55-.84,3.04-1.52,4.49-.68,1.45-1.57,2.77-2.69,3.97-.16-.29-.4-.62-.73-.98-.33-.37-.69-.71-1.07-1.03-.38-.32-.73-.56-1.07-.72,1.27-1.38,2.19-2.89,2.77-4.54.58-1.65.95-3.32,1.12-5.02.17-1.7.25-3.31.25-4.82v-11.67Zm10.44-2.23l3.2,2.93c-1.11.49-2.32.95-3.62,1.37-1.3.42-2.62.8-3.97,1.12-1.35.32-2.66.61-3.95.85-.09-.42-.25-.93-.48-1.52-.23-.59-.47-1.09-.72-1.52,1.16-.27,2.32-.57,3.49-.9,1.17-.33,2.28-.71,3.34-1.12,1.06-.41,1.96-.82,2.72-1.22Zm-8.64,10.64h12.01v3.7h-12.01v-3.7Zm5.27,1.87h3.77v18.38h-3.77v-18.38Z"/>
        <path class="cls-4" d="m75.92,86.31c-.11.44-.23,1.02-.35,1.72s-.24,1.43-.35,2.18c-.11.76-.22,1.48-.32,2.17-.1.69-.18,1.27-.25,1.73,1.51-1.09,3.1-1.89,4.75-2.4,1.66-.51,3.35-.77,5.09-.77,1.96,0,3.62.36,5,1.07,1.38.71,2.43,1.65,3.15,2.8.72,1.16,1.08,2.41,1.08,3.77,0,1.51-.32,2.91-.97,4.2-.65,1.29-1.7,2.39-3.17,3.3s-3.39,1.56-5.77,1.93c-2.38.38-5.3.42-8.77.13l-1.27-4.37c3.34.44,6.14.51,8.4.18,2.27-.32,3.99-.97,5.15-1.93,1.17-.97,1.75-2.15,1.75-3.55,0-.73-.21-1.38-.63-1.95-.42-.57-1.01-1.01-1.77-1.33-.76-.32-1.61-.48-2.57-.48-1.87,0-3.62.34-5.25,1.02-1.63.68-2.97,1.65-4.02,2.92-.29.36-.53.68-.72.98-.19.3-.36.62-.52.95l-3.83-.97c.13-.64.27-1.41.4-2.28.13-.88.27-1.82.4-2.83.13-1.01.25-2.03.37-3.05.11-1.02.21-2.03.3-3.03.09-1,.16-1.91.2-2.73l4.47.63Zm-.2-6.7c.8.25,1.8.5,3,.77s2.46.53,3.77.78c1.31.26,2.55.47,3.72.65,1.17.18,2.12.31,2.85.4l-1,4.07c-.67-.09-1.47-.22-2.42-.38s-1.95-.35-3-.55c-1.06-.2-2.1-.41-3.12-.62-1.02-.21-1.96-.42-2.8-.62s-1.53-.37-2.07-.5l1.07-4Z"/>
        <path class="cls-4" d="m109.07,88.81c-.36.04-.81.1-1.37.17s-1.15.14-1.78.23c-.63.09-1.27.18-1.92.27-.65.09-1.25.17-1.8.23l-.43-4.27c.49.02.95.03,1.38.02.43-.01.94-.03,1.52-.05.53-.04,1.17-.11,1.92-.18.74-.08,1.5-.17,2.27-.28.77-.11,1.48-.23,2.15-.37s1.19-.27,1.57-.4l1.33,1.7c-.2.27-.43.6-.68,1-.26.4-.52.81-.78,1.22-.27.41-.5.77-.7,1.08l-1.97,6.27c-.36.51-.8,1.16-1.32,1.93-.52.78-1.07,1.6-1.65,2.47-.58.87-1.15,1.7-1.7,2.5-.56.8-1.06,1.5-1.5,2.1l-2.63-3.64c.42-.53.91-1.15,1.45-1.85s1.12-1.44,1.72-2.23c.6-.79,1.19-1.58,1.77-2.37.58-.79,1.12-1.53,1.62-2.23.5-.7.92-1.31,1.25-1.82l.07-.87.23-.63Zm-.4-6.4v-1.48c0-.5-.04-1.01-.13-1.52l4.87.17c-.13.51-.27,1.25-.42,2.22-.14.97-.29,2.07-.43,3.32-.14,1.25-.28,2.55-.4,3.92-.12,1.37-.22,2.73-.3,4.09-.08,1.36-.12,2.62-.12,3.8,0,.91,0,1.83.02,2.77.01.93.03,1.89.05,2.87.02.98.07,1.99.13,3.03.02.29.06.7.1,1.22.04.52.09.97.13,1.35h-4.6c.04-.4.07-.85.08-1.33s.02-.87.02-1.13c.02-1.09.04-2.1.07-3.03.02-.93.04-1.92.05-2.97.01-1.04.04-2.26.08-3.64.02-.51.06-1.16.1-1.95.04-.79.09-1.66.15-2.6.06-.94.12-1.91.18-2.88.07-.98.13-1.9.18-2.75.06-.86.1-1.59.13-2.2.03-.61.05-1.03.05-1.25Zm23.45,22.31c-.78.71-1.68,1.3-2.7,1.77-1.02.47-2.21.7-3.57.7-1.25,0-2.25-.43-3.02-1.3-.77-.87-1.15-2.11-1.15-3.74,0-.89.06-1.85.18-2.88s.26-2.07.42-3.12c.16-1.04.29-2.04.42-2.98.12-.94.18-1.8.18-2.55,0-.82-.2-1.44-.6-1.85-.4-.41-.96-.62-1.67-.62-.78,0-1.65.27-2.6.82-.96.55-1.93,1.24-2.93,2.08-1,.85-1.95,1.75-2.85,2.7-.9.96-1.68,1.87-2.35,2.73l-.03-5.14c.4-.44.93-.97,1.58-1.57s1.4-1.22,2.23-1.87c.83-.64,1.71-1.25,2.63-1.82.92-.57,1.86-1.03,2.8-1.38.95-.36,1.86-.53,2.75-.53,1.2,0,2.18.22,2.95.65s1.34,1.02,1.72,1.77c.38.75.57,1.58.57,2.52,0,.87-.06,1.81-.17,2.82-.11,1.01-.24,2.04-.4,3.08-.16,1.05-.28,2.08-.38,3.1-.1,1.02-.15,1.96-.15,2.8,0,.44.11.81.33,1.08.22.28.53.42.93.42.62,0,1.31-.21,2.07-.62.76-.41,1.51-1.01,2.27-1.78l.53,4.7Z"/>
        <path class="cls-4" d="m150.43,79.84c-.13.44-.27.99-.4,1.63-.13.65-.23,1.15-.3,1.5-.16.76-.35,1.68-.58,2.77-.23,1.09-.49,2.25-.77,3.47-.28,1.22-.56,2.39-.85,3.5-.29,1.18-.65,2.45-1.07,3.82-.42,1.37-.87,2.76-1.35,4.17-.48,1.41-.96,2.76-1.45,4.04-.49,1.28-.97,2.42-1.43,3.42l-4.64-1.57c.49-.84,1.01-1.87,1.57-3.08.56-1.21,1.09-2.52,1.62-3.92.52-1.4,1.01-2.79,1.45-4.17.44-1.38.82-2.66,1.13-3.84.22-.78.43-1.58.63-2.4.2-.82.38-1.62.53-2.4.16-.78.29-1.51.42-2.18.12-.68.22-1.27.28-1.78.07-.62.11-1.24.13-1.87.02-.62.01-1.12-.03-1.5l5.1.4Zm-8.5,4.97c1.36,0,2.77-.07,4.24-.2s2.95-.32,4.44-.57c1.49-.24,2.97-.53,4.44-.87v4.17c-1.38.31-2.85.58-4.4.8-1.56.22-3.09.4-4.6.52-1.51.12-2.9.18-4.17.18-.8,0-1.52-.02-2.17-.05-.65-.03-1.27-.06-1.87-.08l-.1-4.17c.87.09,1.61.16,2.23.2.62.04,1.28.07,1.97.07Zm12.27,13.51c-.13.47-.24.95-.33,1.45s-.13.94-.13,1.32c0,.36.08.69.23,1,.16.31.4.58.73.82.33.23.79.42,1.38.55.59.13,1.33.2,2.22.2,1.13,0,2.27-.06,3.42-.18,1.14-.12,2.32-.29,3.52-.52l-.17,4.27c-.93.11-1.97.22-3.1.32-1.13.1-2.37.15-3.7.15-2.8,0-4.94-.46-6.42-1.38-1.48-.92-2.22-2.23-2.22-3.92,0-.76.07-1.52.2-2.3.13-.78.27-1.5.4-2.17l3.97.4Zm-1.8-8.4c.93-.09,1.97-.17,3.1-.23,1.13-.07,2.23-.1,3.3-.1.96,0,1.93.02,2.92.07.99.04,1.97.12,2.95.23l-.1,4c-.82-.11-1.73-.21-2.72-.28-.99-.08-2-.12-3.02-.12-1.13,0-2.23.03-3.29.08-1.06.06-2.11.15-3.15.28v-3.94Z"/>
        <path class="cls-4" d="m33.37,129.98l2.59.41c-.12,1.13-.27,2.26-.44,3.4-.17,1.14-.38,2.21-.62,3.22-.24,1.01-.51,1.9-.82,2.67-.15-.12-.37-.27-.64-.45l-.82-.54c-.27-.18-.51-.31-.72-.4.27-.7.51-1.5.71-2.4.2-.9.36-1.86.49-2.87.13-1.02.22-2.03.27-3.04Zm-1.21,12.52c.84-.21,1.79-.44,2.86-.72,1.07-.27,2.2-.58,3.39-.91,1.19-.33,2.37-.66,3.55-.99l.38,2.69c-1.61.51-3.24,1.02-4.91,1.53-1.67.5-3.18.95-4.53,1.35l-.74-2.95Zm1.92-9.03h7.64v2.92h-8.23l.59-2.92Zm2.67-4.95h2.82v24.09h-2.82v-24.09Zm7.95-.03l2.8.54c-.33,1.42-.72,2.8-1.18,4.14-.46,1.34-.99,2.59-1.59,3.75-.6,1.15-1.25,2.17-1.95,3.04-.15-.17-.38-.36-.67-.58-.29-.21-.59-.43-.88-.64-.3-.21-.55-.39-.76-.53.68-.75,1.3-1.64,1.83-2.67.54-1.03,1.01-2.14,1.41-3.35.4-1.21.73-2.44.99-3.71Zm2.59,4.93l2.23,1.1c-.34,1.47-.81,2.97-1.41,4.5-.6,1.53-1.3,2.96-2.09,4.3-.8,1.33-1.65,2.44-2.58,3.31-.29-.27-.66-.58-1.1-.91-.44-.33-.87-.6-1.28-.81.75-.58,1.45-1.3,2.1-2.17.65-.86,1.24-1.81,1.77-2.85.53-1.03.99-2.1,1.39-3.21.39-1.1.72-2.19.97-3.27Zm3.57.31l2.39,1.1c-.33,1.66-.73,3.32-1.22,4.98-.49,1.66-1.07,3.25-1.74,4.77-.68,1.52-1.45,2.92-2.32,4.19-.87,1.27-1.85,2.35-2.92,3.22-.29-.29-.67-.61-1.14-.95-.47-.34-.92-.62-1.35-.85,1.11-.8,2.12-1.8,3.01-2.99.9-1.19,1.69-2.51,2.37-3.98s1.27-3,1.74-4.62c.48-1.62.87-3.25,1.18-4.89Zm-5.39-1.23h9.16v2.85h-10.54l1.39-2.85Zm7.85,0h2.92c-.02.36-.03.65-.03.87s0,.39-.03.51c-.12,2.89-.24,5.34-.37,7.36-.13,2.02-.27,3.68-.41,4.99-.15,1.31-.31,2.33-.5,3.08-.19.74-.4,1.28-.64,1.6-.31.43-.62.74-.92.92-.31.19-.68.32-1.1.41-.36.07-.8.11-1.31.12-.51,0-1.05,0-1.62-.04-.03-.44-.12-.95-.27-1.51-.15-.56-.34-1.06-.58-1.49.48.05.92.08,1.33.09.41,0,.74.01.98.01.21,0,.37-.03.5-.1.13-.07.27-.2.42-.38.17-.21.33-.64.49-1.3.15-.66.3-1.6.44-2.83.14-1.23.26-2.8.37-4.71.11-1.91.22-4.22.32-6.94v-.67Z"/>
        <path class="cls-4" d="m64.61,128.6l2.92.92c-.55,1.44-1.19,2.89-1.92,4.35-.74,1.46-1.54,2.84-2.4,4.14-.86,1.3-1.76,2.45-2.68,3.44-.1-.26-.25-.59-.44-.99-.19-.4-.39-.81-.62-1.22s-.43-.74-.62-1c.77-.79,1.51-1.69,2.22-2.72.71-1.03,1.37-2.13,1.98-3.31.61-1.18,1.12-2.39,1.55-3.62Zm-2.54,7.11l2.92-2.92v19.78h-2.92v-16.85Zm7.03-5.77l2.98.59c-.24,1.16-.53,2.32-.87,3.46-.34,1.15-.72,2.22-1.14,3.22-.42,1-.86,1.88-1.32,2.63-.19-.15-.45-.32-.78-.51-.33-.19-.67-.37-1-.55-.33-.18-.63-.31-.88-.4.46-.68.89-1.48,1.28-2.4.39-.91.74-1.89,1.03-2.92.29-1.03.53-2.07.72-3.12Zm-2.59,11.01h16.67v3h-16.67v-3Zm3.59-7.47h11.88v3.03h-12.65l.77-3.03Zm3.36-4.64h3.13v23.76h-3.13v-23.76Z"/>
        <path class="cls-4" d="m87.68,139.3c.92.31,1.86.55,2.81.72.95.17,1.89.29,2.82.35.93.06,1.83.09,2.68.09.79,0,1.64-.03,2.55-.08.91-.05,1.78-.13,2.6-.23l-.08,3.05c-.72.07-1.45.12-2.21.17-.75.04-1.53.06-2.33.06-1.71,0-3.35-.09-4.93-.27-1.57-.18-2.94-.43-4.1-.76l.18-3.1Zm.54-6.36c.77.24,1.61.44,2.51.6.91.16,1.84.28,2.8.36.96.08,1.86.12,2.72.12,1.01,0,1.95-.03,2.82-.1.87-.07,1.63-.15,2.28-.26l-.1,3.05c-.77.07-1.54.13-2.31.18-.77.05-1.69.08-2.77.08-.87,0-1.78-.05-2.72-.14-.94-.09-1.87-.22-2.8-.38-.92-.16-1.79-.35-2.59-.55l.15-2.95Zm9.16-3.18c-.1.46-.19.87-.26,1.23-.07.36-.13.71-.18,1.05-.07.36-.15.88-.24,1.55-.09.68-.2,1.44-.31,2.28s-.22,1.73-.33,2.64c-.11.92-.22,1.81-.32,2.68-.1.87-.18,1.67-.24,2.39-.06.72-.09,1.29-.09,1.72,0,1.06.32,1.87.96,2.42.64.56,1.59.83,2.86.83,1.2,0,2.21-.17,3.03-.5.82-.33,1.44-.78,1.87-1.35.43-.56.64-1.2.64-1.9,0-.87-.23-1.72-.68-2.55-.45-.83-1.11-1.64-1.96-2.42l3.62-.77c.85,1.08,1.48,2.1,1.89,3.07.4.97.6,2,.6,3.09,0,1.28-.37,2.43-1.1,3.44-.74,1.01-1.78,1.8-3.14,2.36-1.36.56-2.98.85-4.86.85-1.33,0-2.52-.21-3.57-.62-1.04-.41-1.86-1.06-2.44-1.95-.58-.89-.87-2.04-.87-3.46,0-.53.04-1.24.13-2.12.09-.88.19-1.86.32-2.92.13-1.07.26-2.15.4-3.26.14-1.1.26-2.15.37-3.14.11-.99.2-1.85.27-2.57.03-.6.06-1.06.06-1.37,0-.32,0-.62-.04-.91l3.62.21Z"/>
        <path class="cls-4" d="m127.35,150.69c-1.73,0-3.35-.36-4.85-1.08s-2.82-1.71-3.95-2.98c-1.13-1.27-2.01-2.74-2.65-4.43-.64-1.68-.95-3.48-.95-5.41s.32-3.72.95-5.39c.64-1.67,1.51-3.14,2.63-4.41,1.12-1.27,2.42-2.26,3.91-2.96,1.49-.71,3.1-1.06,4.83-1.06s3.34.35,4.83,1.06c1.49.71,2.8,1.69,3.93,2.96,1.13,1.27,2.01,2.75,2.65,4.43.64,1.68.95,3.48.95,5.41s-.32,3.73-.95,5.41c-.64,1.68-1.51,3.15-2.63,4.41-1.12,1.26-2.42,2.25-3.91,2.96-1.49.72-3.09,1.08-4.8,1.08Zm-.07-4.23c1.64,0,3.08-.41,4.31-1.23,1.23-.82,2.2-1.96,2.91-3.41.7-1.45,1.06-3.12,1.06-5.02,0-1.41-.2-2.7-.61-3.87-.4-1.17-.98-2.18-1.71-3.04-.74-.86-1.61-1.52-2.61-1.98-1-.46-2.12-.69-3.34-.69-1.62,0-3.04.4-4.28,1.21s-2.21,1.93-2.91,3.37c-.7,1.44-1.06,3.1-1.06,5,0,1.41.2,2.71.61,3.91.4,1.19.97,2.21,1.7,3.06s1.6,1.51,2.61,1.98c1.02.48,2.12.71,3.32.71Z"/>
        <path class="cls-4" d="m145.42,150.3v-26.94h3.98v26.94h-3.98Zm14.65,0l-11.22-14.05,10.98-12.89h5.09l-12.12,14.01v-2.42l12.47,15.35h-5.19Z"/>
      </g>
      <circle class="cls-3" cx="296.94" cy="96.84" r="96.84"/>
      <g>
        <path class="cls-4" d="m236.19,54.83l3.02.93c-.57,1.51-1.24,3.03-2,4.55s-1.59,2.96-2.47,4.31c-.88,1.35-1.8,2.54-2.76,3.58-.09-.27-.24-.61-.44-1.03-.2-.42-.42-.84-.65-1.27-.23-.43-.44-.77-.64-1.04.8-.8,1.57-1.74,2.31-2.82.74-1.08,1.42-2.23,2.04-3.46s1.16-2.48,1.6-3.76Zm-2.64,7.42l3.04-3.04v20.6h-3.04v-17.56Zm4.99-2.13h16.36v12.6h-3.15v-9.63h-10.19v9.85h-3.02v-12.81Zm1.71,8.22h13.16v2.96h-13.16v-2.96Zm4.75-13.24h3.2v24.71h-3.2v-24.71Z"/>
        <path class="cls-4" d="m271.02,57.98c-.68,1.12-1.57,2.26-2.67,3.42-1.1,1.16-2.33,2.26-3.7,3.3-1.36,1.04-2.79,1.95-4.28,2.74-.12-.27-.3-.56-.53-.88-.23-.32-.47-.64-.72-.96s-.49-.59-.72-.8c1.58-.76,3.07-1.71,4.47-2.83,1.4-1.12,2.64-2.32,3.72-3.59,1.08-1.27,1.94-2.5,2.56-3.67h3.44c.69,1.12,1.47,2.18,2.33,3.18.86,1,1.78,1.91,2.75,2.74.97.83,1.99,1.56,3.06,2.2,1.07.64,2.14,1.17,3.23,1.6-.41.41-.79.88-1.15,1.4-.36.52-.68,1.04-.96,1.53-1.42-.73-2.83-1.6-4.22-2.62-1.39-1.01-2.66-2.1-3.8-3.27-1.15-1.17-2.09-2.33-2.81-3.48Zm-6.24,6.7h3.31v3.31c0,.94-.06,1.93-.17,2.98-.12,1.04-.37,2.09-.75,3.14-.38,1.05-.96,2.06-1.73,3.04-.77.98-1.82,1.88-3.14,2.7-.2-.23-.45-.49-.76-.79-.31-.29-.64-.58-.97-.85-.34-.28-.65-.49-.93-.65,1.16-.69,2.08-1.44,2.77-2.24s1.21-1.62,1.55-2.47c.34-.84.56-1.69.67-2.52.11-.84.16-1.64.16-2.4v-3.23Zm9.21-.13h3.34v15.26h-3.34v-15.26Z"/>
        <path class="cls-4" d="m286.92,68.49h24.53v3.15h-24.53v-3.15Zm19.78-13.8l2.32,2.67c-1.37.36-2.86.66-4.47.92-1.61.26-3.28.48-5,.67-1.73.19-3.46.34-5.2.45-1.74.12-3.43.2-5.04.25-.05-.41-.16-.89-.32-1.45-.16-.56-.32-1.02-.48-1.37,1.6-.05,3.24-.14,4.92-.27,1.68-.12,3.33-.28,4.94-.45,1.61-.18,3.13-.38,4.55-.61,1.42-.23,2.69-.5,3.79-.8Zm-17.93,7.58h21.08v3.07h-21.08v-3.07Zm8.75-3.79h3.34v17.51c0,.96-.13,1.68-.39,2.15-.26.47-.72.84-1.37,1.11-.62.23-1.43.38-2.42.45-.99.07-2.17.1-3.54.08-.05-.3-.16-.64-.31-1.03-.15-.38-.32-.77-.49-1.15s-.35-.72-.51-1c.68.02,1.34.04,2,.05.66.02,1.25.03,1.76.03h1.09c.3-.02.52-.08.64-.19.12-.11.19-.29.19-.56v-17.45Z"/>
        <path class="cls-4" d="m320.1,60.51l2.05,1.25c-.43.71-.98,1.42-1.67,2.13-.69.71-1.41,1.37-2.19,1.99s-1.53,1.13-2.28,1.56c-.18-.34-.42-.74-.73-1.2-.31-.46-.61-.84-.89-1.12.71-.3,1.43-.7,2.16-1.19.73-.49,1.41-1.03,2.04-1.63.63-.6,1.13-1.2,1.51-1.8Zm-5.5,8.17h13.5v2.59h-13.5v-2.59Zm8.59,1.79l2.96.27c-.25,1.41-.62,2.61-1.11,3.62-.49,1.01-1.14,1.86-1.95,2.56-.81.7-1.79,1.29-2.95,1.76-1.16.47-2.54.87-4.14,1.19-.09-.44-.26-.92-.51-1.41-.25-.5-.51-.91-.77-1.23,1.76-.23,3.22-.6,4.36-1.09,1.15-.5,2.05-1.2,2.71-2.11.66-.91,1.12-2.09,1.39-3.55Zm-8.27-11.21h13.1v2.54h-13.1v-2.54Zm4.51,7.53l2.96.61c-.44.93-.92,1.88-1.43,2.86-.51.98-1.01,1.93-1.51,2.84-.5.92-.96,1.73-1.39,2.44l-2.8-.85c.43-.68.88-1.47,1.37-2.38.49-.91.98-1.85,1.47-2.82.49-.97.93-1.87,1.32-2.71Zm-3.84-10.62l2.3-.96c.35.5.68,1.06.99,1.68.3.62.52,1.17.64,1.63l-2.46,1.07c-.09-.46-.28-1.01-.56-1.65-.29-.64-.59-1.23-.91-1.76Zm2.03,18.55l1.71-2.16c1.05.39,2.09.85,3.14,1.36,1.04.52,2.01,1.05,2.91,1.59.9.54,1.65,1.06,2.26,1.56l-2.24,2.27c-.55-.5-1.25-1.02-2.08-1.57-.84-.55-1.74-1.09-2.72-1.61-.98-.52-1.97-1-2.96-1.43Zm2.4-19.99h2.93v12.44h-2.93v-12.44Zm2.67,6.56c.25.12.59.31,1.03.56.43.25.91.52,1.41.81.51.29.97.57,1.39.81.42.25.72.44.89.56l-1.68,2.21c-.25-.23-.57-.52-.96-.85-.39-.34-.81-.68-1.25-1.04-.44-.36-.87-.69-1.28-1.01s-.77-.58-1.07-.77l1.52-1.28Zm2.4-6.22l2.69,1.09c-.43.59-.85,1.17-1.27,1.75-.42.58-.8,1.07-1.13,1.48l-2.05-.91c.3-.46.62-1.02.96-1.67.34-.65.6-1.23.8-1.75Zm9.93,6.32l3.28.32c-.39,3.04-.99,5.72-1.8,8.03-.81,2.31-1.93,4.31-3.35,5.98-1.42,1.67-3.26,3.07-5.5,4.19-.11-.25-.27-.56-.48-.93-.21-.37-.44-.74-.69-1.11-.25-.36-.48-.65-.69-.87,2.03-.89,3.67-2.05,4.92-3.47,1.26-1.42,2.22-3.14,2.9-5.16.68-2.02,1.15-4.35,1.41-6.98Zm-4.86-6.67l3.26.48c-.29,1.83-.65,3.61-1.09,5.32-.44,1.72-.98,3.3-1.61,4.75-.63,1.45-1.37,2.73-2.2,3.83-.16-.21-.39-.46-.69-.75-.3-.28-.62-.56-.96-.84-.34-.28-.62-.5-.85-.68.75-.92,1.39-2.02,1.94-3.3.54-1.27,1-2.66,1.37-4.16.37-1.5.66-3.06.85-4.66Zm1.52,7.23c.37,2.24.9,4.35,1.57,6.32.68,1.97,1.56,3.71,2.67,5.2,1.1,1.49,2.46,2.67,4.08,3.52-.23.2-.49.46-.77.79-.28.33-.56.67-.81,1.03-.26.36-.47.68-.63.96-1.8-1.07-3.28-2.45-4.44-4.14-1.16-1.69-2.1-3.65-2.81-5.88-.71-2.23-1.29-4.67-1.73-7.33l2.88-.48Zm-1.82-2.38h9.82v2.96h-9.82v-2.96Z"/>
        <path class="cls-4" d="m346.33,65.23l1.79.88c-.23.89-.5,1.83-.8,2.82-.3.99-.64,1.97-1.01,2.95-.37.98-.77,1.9-1.17,2.76-.41.86-.85,1.61-1.31,2.25-.09-.34-.22-.71-.39-1.11-.17-.4-.35-.8-.53-1.19-.19-.39-.36-.73-.52-1.01.53-.66,1.05-1.47,1.56-2.44.51-.97.97-1.97,1.4-3.02.43-1.04.76-2.01.99-2.9Zm-3.5-8.3l2.24-.59c.23.64.44,1.33.63,2.08s.34,1.48.47,2.19c.12.71.21,1.35.27,1.92l-2.4.64c-.02-.57-.09-1.21-.2-1.93-.12-.72-.26-1.46-.43-2.21-.17-.76-.36-1.45-.57-2.09Zm.03,6.72h10.94v2.99h-10.94v-2.99Zm4.06-8.78h2.93v24.87h-2.93v-24.87Zm2.91,11.9c.14.14.35.36.63.67.28.3.58.65.92,1.03.34.38.66.77.97,1.15.31.38.6.73.85,1.03.26.3.44.53.55.69l-1.95,2.51c-.18-.39-.41-.85-.69-1.37-.28-.52-.6-1.07-.93-1.63-.34-.56-.67-1.09-.99-1.59-.32-.5-.6-.91-.83-1.23l1.47-1.25Zm1.79-10.57l2.7.59c-.21.73-.44,1.48-.69,2.24-.25.77-.5,1.5-.75,2.2-.25.7-.48,1.32-.69,1.85l-2.03-.59c.2-.57.39-1.22.57-1.96.19-.74.36-1.49.52-2.26.16-.76.28-1.46.37-2.08Zm2.14,15.24l13.72-2.46.48,2.96-13.72,2.48-.48-2.99Zm.29-6.35l1.49-2.29c.53.27,1.08.58,1.65.95.57.36,1.11.73,1.63,1.09.52.36.93.72,1.26,1.05l-1.63,2.56c-.28-.34-.68-.71-1.17-1.11-.5-.4-1.03-.8-1.59-1.2-.56-.4-1.11-.75-1.64-1.05Zm1.2-6.73l1.57-2.16c.5.28,1.02.61,1.56.99.54.37,1.06.76,1.55,1.15.49.39.88.76,1.16,1.09l-1.65,2.4c-.27-.36-.64-.74-1.11-1.15-.47-.41-.97-.82-1.51-1.23-.53-.41-1.06-.77-1.57-1.09Zm6.48-3.63h2.99v25.06h-2.99v-25.06Z"/>
        <path class="cls-4" d="m278.92,148.49c-3.65,0-6.98-1.14-10.01-3.42-3.03-2.28-5.44-5.5-7.24-9.66-1.8-4.16-2.7-9.06-2.7-14.7s.89-10.53,2.67-14.66c1.78-4.13,4.17-7.32,7.17-9.58,3-2.26,6.33-3.39,9.97-3.39s7.04,1.13,10.04,3.39c3,2.26,5.39,5.45,7.17,9.58,1.78,4.13,2.67,9.04,2.67,14.74s-.89,10.54-2.67,14.7c-1.78,4.16-4.16,7.36-7.13,9.62-2.98,2.26-6.29,3.39-9.94,3.39Zm-.14-8.31c2.4,0,4.48-.72,6.23-2.15,1.75-1.44,3.13-3.59,4.12-6.46.99-2.87,1.49-6.49,1.49-10.85s-.5-7.9-1.49-10.77c-.99-2.87-2.38-5.01-4.15-6.43-1.78-1.41-3.84-2.12-6.2-2.12s-4.42.71-6.2,2.12c-1.78,1.41-3.15,3.54-4.12,6.39-.97,2.85-1.45,6.45-1.45,10.81s.48,7.98,1.45,10.85c.97,2.87,2.34,5.03,4.12,6.46,1.78,1.44,3.84,2.15,6.2,2.15Z"/>
        <path class="cls-4" d="m307.63,118.94h26.15v3.97h-22.14v25.21h-4v-29.18Zm2.17,12.41h24.05v3.94h-24.05v-3.94Zm9.74-10.24h4v12.21h-4v-12.21Zm12.34-2.17h4.03v24.51c0,1.07-.13,1.91-.4,2.52-.27.61-.75,1.08-1.43,1.42-.69.33-1.55.54-2.58.62-1.03.08-2.3.12-3.79.12-.07-.38-.18-.81-.33-1.3-.16-.49-.33-.97-.53-1.45-.2-.48-.4-.89-.6-1.25.65.04,1.3.07,1.95.08.66.01,1.24.02,1.75.02h1.07c.31-.02.53-.09.67-.22.13-.12.2-.33.2-.62v-24.45Z"/>
      </g>
      <circle class="cls-1" cx="298.23" cy="301.33" r="96.84"/>
      <g>
        <path class="cls-4" d="m235.46,294.75v-4h5.34v-14.91h-4.5v-3.07c1.25-.24,2.32-.53,3.22-.87.9-.33,1.74-.73,2.52-1.2h3.64v20.04h4.64v4h-14.84Z"/>
        <path class="cls-4" d="m269.91,267.9l3.6,1c-1.69,4.38-3.96,8.23-6.82,11.56-2.86,3.32-6.18,6-9.95,8.02-.13-.29-.34-.64-.62-1.05-.28-.41-.56-.83-.85-1.25-.29-.42-.57-.77-.83-1.03,3.6-1.69,6.73-4.01,9.37-6.95,2.65-2.95,4.68-6.37,6.1-10.29Zm-14.61,8.24h17.08v3.47h-17.08v-3.47Zm1.47-6.2h11.51v3.47h-11.51v-3.47Zm5.27,12.14h7.04v3.17h-7.04v12.41h-3.64v-13.27l2.2-2.3h1.43Zm-1.3,5.3h8.5v3h-8.5v-3Zm0,5.34h8.4v3.2h-8.4v-3.2Zm.4-26.05h3.7v11.74h-3.7v-11.74Zm6.3,15.41h3.8v15.11h-3.8v-15.11Zm6-13.81h9.84v3.77h-5.9v25.68h-3.93v-29.45Zm8.9,0h.77l.6-.13,2.9,1.8c-.6,1.6-1.26,3.29-1.97,5.05-.71,1.77-1.4,3.4-2.07,4.89.95,1,1.68,1.96,2.17,2.87.49.91.82,1.78.98,2.62.17.83.25,1.61.25,2.32,0,1.25-.14,2.28-.43,3.12-.29.83-.77,1.47-1.43,1.92-.62.45-1.41.73-2.37.87-.38.04-.83.07-1.35.08-.52.01-1.04,0-1.55-.02-.02-.56-.12-1.21-.3-1.95-.18-.74-.42-1.38-.73-1.92.42.02.81.04,1.17.05.36.01.67.02.93.02.27-.02.52-.06.77-.1.24-.04.46-.12.63-.23.31-.18.53-.46.65-.83.12-.38.18-.86.18-1.43,0-.91-.24-1.96-.72-3.13-.48-1.18-1.4-2.42-2.75-3.74.33-.82.67-1.73,1.02-2.72.34-.99.69-1.98,1.03-2.97.34-.99.66-1.93.93-2.82.28-.89.51-1.63.68-2.23v-1.37Z"/>
        <path class="cls-4" d="m298.19,295.21c-1.29,0-2.45-.15-3.47-.45-1.02-.3-1.93-.71-2.72-1.23-.79-.52-1.47-1.11-2.05-1.75l2.3-3.1c.76.69,1.58,1.28,2.49,1.78.9.5,1.91.75,3.02.75.85,0,1.58-.13,2.22-.38.63-.26,1.12-.63,1.47-1.12.34-.49.52-1.08.52-1.77,0-.78-.2-1.45-.58-2.02-.39-.57-1.07-1-2.05-1.3-.98-.3-2.36-.45-4.14-.45v-3.54c1.51,0,2.7-.16,3.57-.47.87-.31,1.48-.73,1.85-1.27.37-.53.55-1.14.55-1.83,0-.96-.29-1.69-.87-2.2-.58-.51-1.39-.77-2.44-.77-.87,0-1.67.19-2.42.58-.75.39-1.48.93-2.22,1.62l-2.53-3c1.09-.93,2.23-1.68,3.43-2.23,1.2-.56,2.52-.83,3.97-.83,1.58,0,2.97.25,4.19.75,1.21.5,2.15,1.23,2.82,2.2.67.97,1,2.14,1,3.52,0,1.29-.36,2.38-1.07,3.29s-1.72,1.62-3.04,2.15v.17c.91.24,1.74.63,2.49,1.17.74.53,1.33,1.2,1.77,1.98.43.79.65,1.72.65,2.78,0,1.47-.39,2.72-1.18,3.77-.79,1.05-1.85,1.84-3.17,2.38-1.32.54-2.77.82-4.35.82Z"/>
        <path class="cls-4" d="m318.8,289.41l4.2,1.57c-.71.82-1.52,1.63-2.43,2.43-.91.8-1.85,1.56-2.82,2.27-.97.71-1.91,1.32-2.82,1.83-.27-.29-.6-.6-1-.93-.4-.33-.8-.66-1.2-.98-.4-.32-.76-.58-1.07-.78.91-.44,1.82-.97,2.72-1.57.9-.6,1.74-1.23,2.52-1.9s1.41-1.31,1.9-1.93Zm-5.24-19.84h4v19.61h-4v-19.61Zm2.3,15.37h26.35v3.54h-26.35v-3.54Zm4.03-17.34h18.71v15.64h-18.71v-15.64Zm3.77,2.7v1.7h11.04v-1.7h-11.04Zm0,4.24v1.73h11.04v-1.73h-11.04Zm0,4.27v1.7h11.04v-1.7h-11.04Zm1.37,7.67h4.24v11.27h-4.24v-11.27Zm6.3,4.84l3.44-2.17c.84.56,1.75,1.18,2.73,1.88.98.7,1.93,1.41,2.85,2.12.92.71,1.67,1.35,2.25,1.9l-3.7,2.5c-.53-.58-1.23-1.23-2.08-1.95-.86-.72-1.77-1.46-2.75-2.22-.98-.76-1.89-1.44-2.73-2.07Z"/>
        <path class="cls-4" d="m360.61,277.17c-.17,1.3-.39,2.69-.67,4.16-.27,1.47-.64,2.96-1.1,4.46-.5,1.73-1.08,3.22-1.74,4.46-.67,1.25-1.4,2.21-2.19,2.89-.8.68-1.66,1.01-2.6,1.01s-1.81-.32-2.6-.96c-.79-.64-1.43-1.53-1.9-2.66-.47-1.13-.71-2.41-.71-3.85s.3-2.89.9-4.21c.6-1.32,1.43-2.48,2.5-3.5,1.07-1.02,2.32-1.82,3.75-2.4,1.43-.58,2.97-.87,4.63-.87s3.02.26,4.3.77,2.36,1.22,3.27,2.13c.91.91,1.6,1.97,2.08,3.18.48,1.21.72,2.52.72,3.92,0,1.8-.37,3.4-1.1,4.82-.74,1.42-1.83,2.59-3.27,3.51-1.45.92-3.25,1.56-5.4,1.9l-1.92-3.05c.5-.05.93-.11,1.31-.18.38-.07.73-.15,1.08-.23.82-.21,1.59-.5,2.3-.88.71-.38,1.33-.86,1.86-1.44.53-.57.95-1.24,1.25-2.01.3-.77.45-1.62.45-2.54,0-1.01-.15-1.93-.46-2.77-.31-.84-.76-1.57-1.36-2.19-.6-.62-1.33-1.1-2.18-1.44s-1.84-.5-2.95-.5c-1.37,0-2.57.24-3.62.73s-1.92,1.12-2.64,1.89c-.72.77-1.26,1.6-1.63,2.49-.37.89-.55,1.74-.55,2.54,0,.86.1,1.57.31,2.14.21.57.46,1,.76,1.28s.62.42.96.42c.36,0,.71-.18,1.06-.55.35-.37.7-.93,1.04-1.68.34-.75.68-1.7,1.03-2.85.39-1.23.73-2.55,1-3.95.27-1.4.47-2.77.59-4.1l3.49.1Z"/>
        <path class="cls-4" d="m237.11,318.41l2.59.41c-.12,1.13-.27,2.26-.44,3.4-.17,1.14-.38,2.21-.62,3.22-.24,1.01-.51,1.9-.82,2.67-.15-.12-.37-.27-.64-.45-.27-.18-.55-.36-.82-.54-.27-.18-.51-.31-.72-.4.27-.7.51-1.5.71-2.4.2-.9.36-1.86.49-2.87.13-1.02.22-2.03.27-3.04Zm-1.21,12.52c.84-.21,1.79-.44,2.86-.72,1.07-.27,2.2-.58,3.39-.91s2.37-.66,3.55-.99l.39,2.69c-1.61.51-3.25,1.02-4.91,1.53-1.67.5-3.18.95-4.53,1.35l-.74-2.95Zm1.92-9.03h7.64v2.92h-8.23l.59-2.92Zm2.67-4.95h2.82v24.09h-2.82v-24.09Zm7.95-.03l2.8.54c-.33,1.42-.72,2.8-1.18,4.14-.46,1.34-.99,2.59-1.59,3.75-.6,1.15-1.25,2.17-1.95,3.04-.15-.17-.38-.36-.67-.58-.29-.21-.59-.43-.88-.64-.3-.21-.55-.39-.76-.53.68-.75,1.3-1.64,1.84-2.67s1.01-2.14,1.41-3.35c.4-1.21.73-2.44.99-3.71Zm2.59,4.93l2.23,1.1c-.34,1.47-.81,2.97-1.41,4.5-.6,1.53-1.3,2.96-2.09,4.3-.79,1.33-1.65,2.44-2.58,3.31-.29-.27-.66-.58-1.1-.91-.45-.33-.87-.6-1.28-.81.75-.58,1.45-1.3,2.1-2.17.65-.86,1.24-1.81,1.77-2.85.53-1.03.99-2.1,1.39-3.21s.72-2.19.97-3.27Zm3.57.31l2.39,1.1c-.33,1.66-.73,3.32-1.22,4.98-.49,1.66-1.07,3.25-1.74,4.77-.68,1.52-1.45,2.92-2.32,4.19-.87,1.27-1.85,2.35-2.92,3.22-.29-.29-.67-.61-1.14-.95-.47-.34-.92-.62-1.35-.85,1.11-.8,2.12-1.8,3.02-2.99.9-1.19,1.69-2.51,2.37-3.98s1.27-3,1.74-4.62c.48-1.62.87-3.25,1.18-4.89Zm-5.39-1.23h9.16v2.85h-10.54l1.39-2.85Zm7.85,0h2.92c-.02.36-.03.65-.03.87s0,.39-.03.51c-.12,2.89-.24,5.34-.37,7.36-.13,2.02-.27,3.68-.41,4.99-.15,1.31-.31,2.33-.5,3.08-.19.74-.4,1.28-.64,1.6-.31.43-.62.74-.92.92-.31.19-.68.32-1.1.41-.36.07-.8.11-1.31.12-.51,0-1.05,0-1.62-.04-.03-.44-.12-.95-.27-1.51-.15-.56-.34-1.06-.58-1.49.48.05.92.08,1.33.09.41,0,.74.01.97.01.21,0,.37-.03.5-.1.13-.07.27-.2.42-.38.17-.21.33-.64.49-1.3.15-.66.3-1.6.44-2.83.14-1.23.26-2.8.37-4.71.11-1.91.22-4.22.32-6.94v-.67Z"/>
        <path class="cls-4" d="m268.36,317.02l2.92.92c-.55,1.44-1.19,2.89-1.92,4.35-.74,1.46-1.54,2.84-2.4,4.14-.86,1.3-1.76,2.45-2.68,3.44-.1-.26-.25-.59-.44-.99-.19-.4-.39-.81-.62-1.22s-.43-.74-.62-1c.77-.79,1.51-1.69,2.22-2.72.71-1.03,1.37-2.13,1.98-3.31.61-1.18,1.12-2.39,1.55-3.62Zm-2.54,7.11l2.92-2.92v19.78h-2.92v-16.85Zm7.03-5.77l2.98.59c-.24,1.16-.53,2.32-.87,3.46-.34,1.15-.72,2.22-1.14,3.22-.42,1-.86,1.88-1.32,2.63-.19-.15-.45-.32-.78-.51-.33-.19-.67-.37-1-.55s-.63-.31-.88-.4c.46-.68.89-1.48,1.28-2.4.39-.91.73-1.89,1.03-2.92.29-1.03.53-2.07.72-3.12Zm-2.59,11.01h16.67v3h-16.67v-3Zm3.59-7.47h11.88v3.03h-12.65l.77-3.03Zm3.36-4.64h3.13v23.76h-3.13v-23.76Z"/>
        <path class="cls-4" d="m296.63,319.07c-.07.17-.15.41-.23.72-.09.31-.17.61-.24.9-.08.29-.13.51-.17.67-.05.36-.13.83-.24,1.4-.11.57-.22,1.21-.33,1.92-.11.71-.22,1.43-.32,2.17-.1.74-.18,1.45-.24,2.13-.06.68-.09,1.28-.09,1.8,0,.24,0,.51.01.82,0,.31.04.59.09.85.12-.29.25-.58.38-.87.14-.29.27-.59.41-.89.14-.3.26-.59.36-.86l1.59,1.26c-.24.7-.48,1.45-.73,2.26-.25.8-.47,1.56-.67,2.27-.2.71-.35,1.3-.45,1.76-.04.19-.06.4-.09.64-.03.24-.04.43-.04.56s0,.3.01.5c0,.2.02.38.04.55l-2.97.21c-.26-.89-.49-2.07-.69-3.55-.21-1.48-.31-3.09-.31-4.84,0-.96.04-1.93.13-2.92.09-.99.19-1.95.31-2.86.12-.91.24-1.75.35-2.5.11-.75.21-1.38.29-1.87.03-.36.08-.77.14-1.22.06-.45.1-.88.12-1.3l3.59.31Zm6,12.67c-.1.43-.18.81-.23,1.14s-.08.67-.08,1.01c0,.27.07.53.21.76.14.23.35.43.63.59.28.16.65.28,1.1.36.45.08,1,.12,1.65.12,1.14,0,2.22-.06,3.23-.17,1.01-.11,2.08-.28,3.21-.5l.05,3.46c-.82.15-1.77.27-2.83.36-1.07.09-2.33.13-3.78.13-2.21,0-3.85-.37-4.93-1.12-1.08-.74-1.62-1.77-1.62-3.09,0-.5.04-1.01.12-1.55.08-.54.18-1.13.32-1.78l2.95.28Zm-2.05-10.95c.79.1,1.67.18,2.66.22.98.04,1.98.06,3,.05,1.02,0,2-.04,2.94-.1.94-.06,1.75-.12,2.44-.19v3.31c-.79.07-1.65.12-2.59.17-.94.04-1.91.06-2.9.06s-1.96-.02-2.91-.06c-.95-.04-1.83-.1-2.63-.17v-3.28Z"/>
        <path class="cls-4" d="m317.92,318.25l2.59.44c-.12,1.13-.27,2.26-.44,3.4-.17,1.14-.38,2.21-.62,3.22-.24,1.01-.51,1.9-.82,2.67-.15-.14-.37-.29-.64-.46-.27-.17-.55-.35-.82-.53-.27-.18-.51-.32-.72-.42.27-.68.51-1.48.71-2.39.2-.91.36-1.87.49-2.89.13-1.02.22-2.03.27-3.04Zm-1.21,12.34c.84-.19,1.79-.42,2.86-.69,1.07-.27,2.2-.58,3.39-.91s2.37-.67,3.55-1.01l.39,2.72c-1.61.5-3.25,1-4.91,1.5-1.67.5-3.18.95-4.53,1.35l-.74-2.95Zm1.92-8.82h7.64v2.92h-8.23l.59-2.92Zm2.67-4.82h2.82v24.09h-2.82v-24.09Zm4.54,7.23h15.01v2.87h-15.01v-2.87Zm.54,5.18h14.24v2.82h-14.24v-2.82Zm.9,4.21l2.28-1.41c.39.38.79.8,1.18,1.26.39.46.76.92,1.11,1.37.35.45.62.87.81,1.24l-2.44,1.59c-.17-.38-.42-.8-.74-1.27-.33-.47-.68-.95-1.06-1.44s-.77-.94-1.14-1.35Zm.08-14.37h12.37v2.8h-12.37v-2.8Zm7.62,7.52h3.05v10.88c0,.77-.09,1.38-.27,1.82-.18.44-.53.8-1.04,1.05-.53.22-1.16.36-1.9.42-.74.06-1.58.09-2.54.09-.07-.44-.19-.96-.36-1.54-.17-.58-.37-1.09-.59-1.51.63.02,1.26.03,1.87.04.62,0,1.03.01,1.23.01.2-.02.35-.05.42-.1.08-.05.12-.16.12-.33v-10.83Zm-3.03-9.83h3.05v8.88h-3.05v-8.88Z"/>
        <path class="cls-4" d="m350.25,317.28l3.05,1c-.65,1.52-1.42,3.04-2.31,4.55-.89,1.51-1.84,2.93-2.86,4.26-1.02,1.33-2.07,2.48-3.14,3.48-.1-.26-.26-.59-.47-1-.21-.41-.44-.82-.68-1.24-.24-.42-.45-.76-.64-1.01.94-.79,1.85-1.71,2.72-2.78.87-1.07,1.68-2.22,2.44-3.46.75-1.24,1.39-2.5,1.9-3.78Zm-2.72,7.23l3.05-3.05.03.05v19.47h-3.08v-16.47Zm7.7-6.93h3.11v18.5c0,.51.03.9.09,1.15.06.26.2.42.41.5.21.08.53.12.94.12h3.75c.43,0,.75-.12.96-.37.21-.25.37-.7.46-1.36.09-.66.18-1.59.24-2.78.38.27.84.53,1.39.78.55.25,1.03.42,1.46.53-.12,1.47-.32,2.65-.59,3.54-.27.89-.69,1.53-1.26,1.94-.56.4-1.36.6-2.39.6h-4.41c-1.08,0-1.92-.14-2.51-.41-.6-.27-1.02-.75-1.27-1.44s-.37-1.62-.37-2.82v-18.47Zm9.6,4.31l2.26,2.69c-.94.68-1.97,1.35-3.08,1.99-1.11.64-2.24,1.26-3.4,1.86-1.15.6-2.29,1.15-3.4,1.67-.1-.36-.28-.77-.54-1.24-.26-.47-.49-.87-.69-1.19,1.06-.51,2.13-1.09,3.19-1.74,1.07-.65,2.09-1.33,3.07-2.03.98-.7,1.84-1.37,2.59-2Z"/>
      </g>
      <circle class="cls-5" cx="96.84" cy="301.33" r="96.84"/>
      <g>
        <path class="cls-4" d="m64.19,270.52c1.03-.21,2.2-.47,3.52-.77,1.31-.3,2.71-.64,4.18-.99,1.47-.36,2.93-.71,4.38-1.07l.44,3.53c-1.28.38-2.6.76-3.94,1.14-1.35.38-2.65.74-3.91,1.09-1.26.35-2.44.67-3.53.96l-1.14-3.88Zm2.18-22.68h3.6v23.43l-3.6.6v-24.03Zm1.67,0h10.63v15.52h-10.63v-3.5h7.13v-8.52h-7.13v-3.5Zm.03,6.12h8.36v3.31h-8.36v-3.31Zm3.94,11.51l3.03-1.48c.67.88,1.33,1.84,1.97,2.89s1.22,2.07,1.73,3.08c.51,1.01.9,1.92,1.15,2.74l-3.34,1.67c-.21-.8-.56-1.71-1.04-2.74-.48-1.03-1.03-2.09-1.64-3.17-.61-1.08-1.23-2.08-1.86-2.98Zm8.42-17.69h10.38v3.82h-6.53v24.25h-3.85v-28.07Zm8.33,0h3.94v19.11c0,.9-.1,1.67-.3,2.29-.2.62-.58,1.11-1.15,1.47-.57.34-1.24.55-2,.65-.77.09-1.67.14-2.7.14-.04-.38-.13-.82-.25-1.34-.13-.51-.28-1.02-.47-1.51-.19-.49-.38-.92-.57-1.28.61.04,1.2.06,1.78.06s.98-.01,1.21-.03c.19,0,.32-.04.39-.11.07-.07.11-.22.11-.43v-19.02Z"/>
        <path class="cls-4" d="m105.98,248.19h22.01v27.28h-4.07v-23.46h-14.07v23.53h-3.88v-27.34Zm2.65,10.6h16.97v3.72h-16.97v-3.72Zm0,10.85h17v3.82h-17v-3.82Z"/>
        <path class="cls-4" d="m52.81,293.92c-.15.22-.36.56-.64,1.02-.28.46-.49.89-.64,1.27-.51,1.14-1.13,2.41-1.87,3.82-.74,1.41-1.58,2.82-2.51,4.24-.93,1.42-1.92,2.75-2.97,3.98-1.36,1.53-2.86,3.04-4.49,4.53-1.64,1.49-3.36,2.86-5.17,4.11-1.81,1.25-3.66,2.32-5.55,3.22l-3.75-3.93c1.96-.75,3.87-1.7,5.71-2.84,1.84-1.14,3.55-2.38,5.13-3.71,1.58-1.33,2.94-2.63,4.08-3.89.8-.92,1.56-1.9,2.27-2.95.72-1.04,1.35-2.08,1.91-3.11.56-1.03.97-1.98,1.24-2.86h-12.34c-.51,0-1.04.02-1.6.05-.56.04-1.09.07-1.58.11-.5.04-.88.07-1.15.09v-5.17c.36.02.81.06,1.35.11.53.05,1.07.09,1.62.11.55.02,1,.04,1.36.04h12.85c.8,0,1.53-.05,2.2-.15.67-.1,1.18-.21,1.55-.33l2.98,2.22Zm-8.15,11.32c.95.75,1.95,1.63,3.02,2.62,1.07,1,2.12,2.03,3.17,3.09,1.04,1.07,2.01,2.09,2.89,3.07s1.63,1.84,2.24,2.57l-4.15,3.6c-.9-1.24-1.92-2.52-3.08-3.86-1.15-1.33-2.36-2.66-3.64-3.98-1.27-1.32-2.57-2.58-3.88-3.77l3.42-3.35Z"/>
        <path class="cls-4" d="m71.84,290.68c-.1.56-.17,1.2-.22,1.93-.05.73-.07,1.35-.07,1.86v18.38c0,.78.19,1.31.58,1.6s.98.52,1.78.69c.56.07,1.2.13,1.93.16.73.04,1.49.05,2.29.05.95,0,2-.03,3.15-.09,1.15-.06,2.32-.14,3.49-.24,1.18-.1,2.29-.23,3.33-.4,1.04-.17,1.94-.35,2.69-.55v5.31c-1.14.17-2.46.31-3.97.42-1.5.11-3.04.19-4.6.25-1.56.06-3.03.09-4.38.09-1.19,0-2.31-.04-3.37-.11-1.06-.07-1.97-.17-2.75-.29-1.58-.32-2.8-.92-3.68-1.8-.87-.89-1.31-2.1-1.31-3.66v-19.83c0-.27-.01-.63-.04-1.09-.02-.46-.05-.93-.09-1.42-.04-.49-.09-.91-.16-1.27h5.39Zm-2.4,11.17c1.16-.24,2.4-.54,3.71-.89,1.31-.35,2.63-.73,3.97-1.15,1.33-.41,2.6-.83,3.8-1.26,1.2-.42,2.27-.84,3.22-1.26.66-.24,1.3-.52,1.95-.84.64-.32,1.32-.69,2.02-1.13l1.96,4.62c-.7.27-1.44.56-2.2.89-.76.33-1.45.6-2.06.82-1.07.41-2.29.85-3.66,1.31-1.37.46-2.8.92-4.28,1.36-1.48.45-2.94.87-4.39,1.26-1.44.39-2.78.73-4.02,1.02l-.04-4.77Zm17.14-9.1c0-.8.19-1.53.58-2.18.39-.65.91-1.18,1.56-1.58.66-.4,1.38-.6,2.18-.6s1.53.2,2.18.6c.66.4,1.18.93,1.58,1.58.4.66.6,1.38.6,2.18s-.2,1.53-.6,2.18c-.4.66-.93,1.18-1.58,1.58-.66.4-1.38.6-2.18.6s-1.53-.2-2.18-.6c-.66-.4-1.18-.93-1.56-1.58-.39-.65-.58-1.38-.58-2.18Zm2.26,0c0,.58.2,1.08.6,1.49.4.41.89.62,1.47.62s1.08-.21,1.49-.62c.41-.41.62-.91.62-1.49s-.21-1.08-.62-1.49c-.41-.41-.91-.62-1.49-.62s-1.07.21-1.47.62c-.4.41-.6.91-.6,1.49Z"/>
        <path class="cls-4" d="m102.22,301.74c.44.02.99.05,1.67.09.68.04,1.39.07,2.13.09.74.02,1.42.04,2.06.04h19.54c.85,0,1.65-.03,2.4-.09.75-.06,1.37-.1,1.86-.13v5.71c-.41-.02-1.03-.06-1.86-.11-.82-.05-1.63-.07-2.4-.07h-19.54c-1.04,0-2.11.02-3.2.05-1.09.04-1.98.08-2.66.13v-5.71Z"/>
        <path class="cls-4" d="m147.38,315.64v-20.92c0-.65-.03-1.39-.09-2.22-.06-.82-.15-1.55-.27-2.18h5.68c-.07.63-.15,1.33-.22,2.11-.07.78-.11,1.54-.11,2.29v20.92c0,.32.02.78.05,1.4s.09,1.26.15,1.91c.06.66.11,1.24.16,1.75h-5.71c.12-.7.21-1.55.27-2.53.06-.98.09-1.83.09-2.53Zm3.93-15.9c1.21.32,2.57.72,4.06,1.22,1.49.5,3,1.03,4.53,1.6,1.53.57,2.97,1.13,4.33,1.67,1.36.55,2.47,1.04,3.35,1.47l-2.04,5.06c-1.04-.56-2.18-1.1-3.42-1.64-1.24-.53-2.49-1.06-3.77-1.58-1.27-.52-2.52-1-3.73-1.44-1.21-.44-2.32-.81-3.31-1.13v-5.24Zm10.59-8.22c.34.49.72,1.06,1.13,1.71.41.66.81,1.31,1.18,1.97.38.66.71,1.26,1,1.82l-3.17,1.42c-.34-.78-.67-1.47-1-2.07-.33-.61-.66-1.19-1-1.76-.34-.57-.74-1.17-1.2-1.8l3.06-1.27Zm4.77-2c.36.49.76,1.04,1.18,1.67.42.63.84,1.27,1.24,1.91.4.64.73,1.24,1,1.8l-3.06,1.49c-.39-.78-.76-1.46-1.11-2.06-.35-.59-.7-1.16-1.06-1.71-.35-.55-.76-1.11-1.22-1.69l3.02-1.42Z"/>
        <path class="cls-4" d="m73.68,342.63l3.69.5c-.53,3.05-1.26,5.82-2.21,8.31-.95,2.49-2.13,4.7-3.56,6.62-1.43,1.92-3.16,3.57-5.2,4.94-.15-.25-.37-.57-.68-.95-.31-.38-.63-.75-.96-1.12-.34-.37-.64-.67-.92-.9,1.93-1.11,3.55-2.52,4.86-4.21,1.3-1.69,2.36-3.64,3.17-5.85.81-2.21,1.41-4.66,1.81-7.35Zm-8.96-4.13h15.01v3.5h-15.01v-3.5Zm.6,7.95l2.68-2.18c.93,1.01,1.88,2.08,2.87,3.22.99,1.14,1.95,2.29,2.89,3.47.94,1.18,1.77,2.32,2.51,3.42.74,1.1,1.33,2.13,1.8,3.08l-3,2.59c-.42-.95-.99-1.99-1.7-3.12-.72-1.14-1.52-2.31-2.41-3.53-.89-1.22-1.82-2.42-2.78-3.61-.96-1.19-1.91-2.3-2.85-3.33Zm4.92-12.8h3.63v7h-3.63v-7Zm8.14,14.6l3.03-1.45c.5.69.99,1.44,1.47,2.24.47.8.89,1.58,1.25,2.35.36.77.62,1.48.79,2.13l-3.28,1.64c-.15-.61-.38-1.31-.71-2.11-.33-.8-.71-1.62-1.15-2.46-.44-.84-.9-1.62-1.39-2.33Zm.32-7.6h15.08v3.63h-15.08v-3.63Zm7.95-7.03h3.75v24.92c0,1.07-.12,1.91-.35,2.51-.23.6-.65,1.06-1.26,1.37-.61.34-1.39.56-2.33.66-.95.1-2.08.16-3.41.16-.02-.38-.09-.81-.22-1.29-.13-.48-.27-.97-.44-1.47-.17-.49-.34-.93-.5-1.31.88.04,1.7.06,2.46.06h1.55c.27,0,.47-.05.58-.14.12-.09.17-.28.17-.55v-24.92Z"/>
        <path class="cls-4" d="m104.62,337.33h3.78v7.95c0,1.28-.05,2.7-.14,4.24s-.26,3.13-.49,4.76c-.23,1.63-.56,3.21-.99,4.75-.43,1.53-1,2.92-1.72,4.16-.23-.21-.55-.46-.96-.74-.41-.28-.83-.56-1.25-.82-.42-.26-.78-.46-1.07-.58.65-1.14,1.17-2.38,1.55-3.72.38-1.35.66-2.72.84-4.13.18-1.41.3-2.79.36-4.15.06-1.36.09-2.61.09-3.77v-7.95Zm1.77,0h24.92v3.6h-24.92v-3.6Zm3.75,12.08l3.41.73c-.11,1.2-.25,2.44-.44,3.72-.19,1.28-.44,2.5-.74,3.64-.31,1.15-.7,2.15-1.18,3.01l-3.34-1.51c.44-.82.81-1.74,1.12-2.78.31-1.03.55-2.13.74-3.31.19-1.18.34-2.34.44-3.5Zm4.48-2.43h3.75v10.98c0,.59.07.96.2,1.1.14.15.41.22.84.22h2.55c.32,0,.56-.12.73-.36.17-.24.29-.73.36-1.47.07-.74.13-1.83.17-3.28.27.21.6.42.99.63.39.21.79.39,1.21.54.42.15.79.27,1.1.38-.11,1.79-.3,3.19-.58,4.19-.28,1.01-.71,1.72-1.28,2.13-.57.41-1.36.62-2.37.62h-3.5c-1.11,0-1.97-.14-2.57-.43-.6-.28-1.02-.77-1.26-1.47-.24-.69-.36-1.62-.36-2.78v-11.01Zm.22-3.53l2.55-2.49c.84.4,1.74.86,2.71,1.39.97.53,1.89,1.07,2.78,1.64.88.57,1.61,1.09,2.18,1.58l-2.71,2.84c-.5-.5-1.18-1.06-2.03-1.66-.85-.6-1.76-1.19-2.71-1.77-.96-.58-1.88-1.09-2.76-1.53Zm1.07-9.84h3.94v5.77h-3.94v-5.77Zm8.58,16.24l3.37-1.29c.63,1.07,1.24,2.23,1.83,3.48.59,1.25,1.1,2.47,1.53,3.66.43,1.19.72,2.27.87,3.23l-3.72,1.55c-.11-.95-.35-2.03-.74-3.26-.39-1.23-.86-2.48-1.4-3.75-.55-1.27-1.12-2.48-1.73-3.61Z"/>
      </g>
    </g>
  </g>
</svg>