<?xml version="1.0" encoding="UTF-8"?><svg xmlns="http://www.w3.org/2000/svg" viewBox="0 0 124.59 130.38"><defs><style>.cls-1{fill:#3e3a39;}.cls-2{fill:#1a4384;}.cls-3{fill:#9ed2e7;}.cls-4{fill:#003f8c;}.cls-5{fill:#d70c18;}</style></defs><g id="_レイヤー_2"><g id="_デザイン"><path class="cls-1" d="M18.74,107.2l-.69-18.56h-.38l-6.48,17.7h-1.82l-6.45-17.7h-.41l-.65,18.56H0l.79-21.44h4.49l5.59,15.61h.27l5.63-15.61h4.49l.79,21.44h-3.33.02Z"/><path class="cls-1" d="M29.79,107.2v-21.44h3.33v21.44h-3.33Z"/><path class="cls-1" d="M54.18,107.37l-10.98-17.77h-.21v17.6h-1.82v-21.31l3.5-.27,10.88,17.7h.24v-17.57h1.82v21.34l-3.43.27h0Z"/><path class="cls-1" d="M77.55,107.2l-2.26-7.03h-7.58l-2.26,7.03h-1.82l6.45-19.62v-1.1l3.71-1.44,7.27,22.16h-3.51ZM71.61,88.77h-.24l-3.19,9.85h6.59l-3.16-9.85Z"/><path class="cls-1" d="M89.63,107.2v-19.9h-1.44c-2.3,0-4.01.24-5.49.69v-2.23h17.16v2.23c-1.48-.45-3.19-.69-5.49-.69h-1.41v19.9s-3.33,0-3.33,0Z"/><path class="cls-1" d="M102.42,96.63c0-6.21,4.91-11.39,11.12-11.39s11.05,4.53,11.05,11.08c0,6.21-4.94,11.39-11.15,11.39s-11.01-4.56-11.01-11.08h-.01ZM121.05,96.7c0-6.14-3.53-9.95-7.65-9.95s-7.48,3.47-7.48,9.47,3.53,9.98,7.62,9.98,7.51-3.47,7.51-9.5Z"/><path class="cls-1" d="M10.07,129.96l-5.61-8.3-1.79,1.81v6.49H0v-17.18h2.67v8.83l8.63-8.83h1.95l-6.98,7.07,7.04,10.12h-3.24Z"/><path class="cls-1" d="M27.69,129.96l-1.81-5.64h-6.08l-1.81,5.64h-1.46l5.17-15.73v-.88l2.97-1.16,5.83,17.76h-2.81ZM22.94,115.2h-.19l-2.56,7.89h5.28l-2.53-7.89Z"/><path class="cls-1" d="M35.31,129.96v-17.18h2.67v17.18h-2.67Z"/><path class="cls-1" d="M54.86,129.96v-8.19h-7.75v8.19h-2.67v-17.18h2.67v7.75h7.75v-7.75h2.67v17.18s-2.67,0-2.67,0Z"/><path class="cls-1" d="M73.5,129.96l-1.81-5.64h-6.08l-1.81,5.64h-1.46l5.17-15.73v-.88l2.97-1.16,5.83,17.76h-2.81ZM68.74,115.2h-.19l-2.56,7.89h5.28l-2.53-7.89Z"/><path class="cls-1" d="M83.18,129.96v-15.95h-1.15c-1.84,0-3.22.19-4.4.55v-1.79h13.75v1.79c-1.18-.36-2.56-.55-4.4-.55h-1.13v15.95h-2.67Z"/><path class="cls-1" d="M95.28,127.35c1.43,1.1,2.86,1.81,4.67,1.81,2.78,0,3.93-1.68,3.93-3.19s-.88-2.64-4.51-3.88c-3.41-1.15-4.76-2.64-4.76-5.03s1.7-4.7,5.83-4.7c2.01,0,4.04.49,5,.96l-.58,1.84c-1.37-1.07-2.8-1.59-4.62-1.59-2.14,0-3.41,1.35-3.41,2.78,0,1.7,1.16,2.61,4.23,3.71,3.85,1.37,5.14,2.89,5.14,5.28,0,2.58-1.9,5.03-6.43,5.03-1.9,0-4.01-.55-5.09-1.13l.58-1.9h.02Z"/><path class="cls-1" d="M123.13,112.78h1.46v11.19c0,4.01-2.45,6.41-6.46,6.41s-6.41-2.14-6.41-6.65v-10.94h2.67v10.39c0,4.1,1.9,5.33,4.51,5.33s4.23-1.7,4.23-4.84v-10.89Z"/></g></g><g id="_レイヤー_2-2"><path class="cls-2" d="M62.29,68.8c-5.92-5.39-11.68-11.06-17.2-16.9,6.03-6.62,11.8-13.49,17.2-20.48,5.4,7,11.17,13.87,17.2,20.48-5.51,5.84-11.28,11.5-17.2,16.9Z"/><path class="cls-4" d="M105.15,68.8c-5.92-5.39-11.68-11.06-17.2-16.9,6.03-6.62,11.8-13.48,17.2-20.48,5.4,7,11.17,13.86,17.2,20.48-5.51,5.84-11.28,11.5-17.2,16.9Z"/><path class="cls-5" d="M83.72,47.34c-6.17-6.8-12.06-13.86-17.55-21.05,6.26-8.46,12.14-17.28,17.55-26.29,5.4,9.02,11.29,17.83,17.55,26.29-5.49,7.19-11.38,14.26-17.55,21.05Z"/><path class="cls-3" d="M19.44,68.8c-5.92-5.39-11.69-11.06-17.2-16.9,6.03-6.62,11.8-13.49,17.2-20.48,5.4,7,11.17,13.86,17.2,20.48-5.51,5.84-11.28,11.5-17.2,16.9Z"/><path class="cls-4" d="M40.87,47.34c-6.17-6.8-12.06-13.86-17.55-21.05C29.58,17.83,35.46,9.02,40.87,0c5.4,9.02,11.29,17.83,17.55,26.29-5.49,7.19-11.37,14.25-17.55,21.05Z"/></g></svg>