<?xml version="1.0" encoding="UTF-8"?><svg id="_レイヤー_2" xmlns="http://www.w3.org/2000/svg" viewBox="0 0 32.37 42.72"><defs><style>.cls-1{fill:#003888;}</style></defs><g id="_デザイン"><path class="cls-1" d="m7.97,8.54H.57c-.23,0-.44-.14-.52-.35-.09-.21-.04-.46.12-.62L7.57.17c.16-.16.41-.21.62-.12.21.09.35.29.35.52v7.4c0,.31-.25.57-.57.57Zm-6.04-1.13h5.47V1.93L1.93,7.4Z"/><path class="cls-1" d="m31.81,42.72H.57C.25,42.72,0,42.47,0,42.16V7.97C0,7.82.06,7.67.17,7.57L7.57.17C7.67.06,7.82,0,7.97,0h23.84c.31,0,.57.25.57.57v41.59c0,.31-.25.57-.57.57Zm-30.68-1.13h30.11V1.13H8.2L1.13,8.2v33.39Z"/><path class="cls-1" d="m26.16,13.66h-14.05c-.31,0-.57-.25-.57-.57s.25-.57.57-.57h14.05c.31,0,.57.25.57.57s-.25.57-.57.57Z"/><path class="cls-1" d="m26.16,21.07H6.22c-.31,0-.57-.25-.57-.57s.25-.57.57-.57h19.94c.31,0,.57.25.57.57s-.25.57-.57.57Z"/><path class="cls-1" d="m26.16,28.47H6.22c-.31,0-.57-.25-.57-.57s.25-.57.57-.57h19.94c.31,0,.57.25.57.57s-.25.57-.57.57Z"/><path class="cls-1" d="m18.92,35.88H6.22c-.31,0-.57-.25-.57-.57s.25-.57.57-.57h12.7c.31,0,.57.25.57.57s-.25.57-.57.57Z"/></g></svg>