<?xml version="1.0" encoding="UTF-8"?><svg id="_レイヤー_2" xmlns="http://www.w3.org/2000/svg" viewBox="0 0 66.25 66.29"><defs><style>.cls-1{fill:#fff;}</style></defs><g id="_デザイン"><path class="cls-1" d="m34.29,32v31.79H2.5v-31.79h31.79m.63-2.5H1.87c-1.03,0-1.87.84-1.87,1.87v33.05c0,1.03.84,1.87,1.87,1.87h33.05c1.03,0,1.87-.84,1.87-1.87V31.37c0-1.03-.84-1.87-1.87-1.87h0Z"/><path class="cls-1" d="m34.29,2.5v26.99H7.3V2.5h26.99m.87-2.5H6.43c-.9,0-1.63.73-1.63,1.63v28.74c0,.9.73,1.63,1.63,1.63h28.74c.9,0,1.63-.73,1.63-1.63V1.63c0-.9-.73-1.63-1.63-1.63h0Z"/><path class="cls-1" d="m63.75,2.59v57.78h-26.99V2.59h26.99m.22-2.5h-27.43c-1.26,0-2.28,1.02-2.28,2.28v58.22c0,1.26,1.02,2.28,2.28,2.28h27.43c1.26,0,2.28-1.02,2.28-2.28V2.37c0-1.26-1.02-2.28-2.28-2.28h0Z"/></g></svg>