<?xml version="1.0" encoding="UTF-8"?><svg id="_レイヤー_2" xmlns="http://www.w3.org/2000/svg" viewBox="0 0 113.22 63.91"><defs><style>.cls-1{fill:#fff;}</style></defs><g id="_デザイン"><path class="cls-1" d="m62.64,49.68h-7.89c-.59,0-1.07.48-1.07,1.07v11.86c0,.23.07.44.19.61.19.28.51.46.88.46s.69-.18.88-.46c.12-.17.19-.38.19-.61v-10.79h5.75v10.79c0,.23.07.44.19.61.19.28.51.46.88.46s.69-.18.88-.46c.12-.17.19-.38.19-.61v-11.86c0-.59-.48-1.07-1.07-1.07Z"/><path class="cls-1" d="m36.05,42.24H10.77c-.59,0-1.07.48-1.07,1.07v19.31c0,.23.07.44.19.61.19.28.51.46.88.46s.69-.18.88-.46c.12-.17.19-.38.19-.61v-18.24h10.49v18.16c0,.26.1.5.26.69.2.23.49.39.82.39s.62-.15.82-.39c.16-.19.26-.42.26-.69v-18.16h10.49v18.24c0,.23.07.44.19.61.19.28.51.46.88.46s.69-.18.88-.46c.12-.17.19-.38.19-.61v-19.31c0-.59-.48-1.07-1.07-1.07Z"/><path class="cls-1" d="m111.94,29.07H46.82V1.29c0-.71-.58-1.29-1.29-1.29H1.29C.58,0,0,.58,0,1.29v61.33c0,.22.06.43.16.61.22.4.64.68,1.13.68s.91-.27,1.13-.68c.1-.18.16-.39.16-.61V2.57h41.67v60.05c0,.22.06.43.16.61.22.4.64.68,1.13.68s.91-.27,1.13-.68c.1-.18.16-.39.16-.61v-30.98h63.83v30.98c0,.22.06.43.16.61.22.4.64.68,1.13.68s.91-.27,1.13-.68c.1-.18.16-.39.16-.61V30.36c0-.71-.58-1.29-1.29-1.29Z"/><path class="cls-1" d="m36.54,23.58h-4.79v-10.9c0-.59-.48-1.07-1.07-1.07h-14.55c-.59,0-1.07.48-1.07,1.07v10.9h-4.79c-.71,0-1.29.58-1.29,1.29v5.49c0,.71.58,1.29,1.29,1.29h26.27c.71,0,1.29-.58,1.29-1.29v-5.49c0-.71-.58-1.29-1.29-1.29Zm-12.06-9.83h5.13v9.83h-5.13v-9.83Zm-7.27,0h5.13v9.83h-5.13v-9.83Zm18.05,15.32H11.56v-2.91h23.7v2.91Z"/><path class="cls-1" d="m82.21,42.24h-6.95c-.59,0-1.07.48-1.07,1.07v6.95c0,.59.48,1.07,1.07,1.07h6.95c.59,0,1.07-.48,1.07-1.07v-6.95c0-.59-.48-1.07-1.07-1.07Zm-1.07,6.95h-4.81v-4.81h4.81v4.81Z"/><path class="cls-1" d="m96.75,42.24h-6.95c-.59,0-1.07.48-1.07,1.07v6.95c0,.59.48,1.07,1.07,1.07h6.95c.59,0,1.07-.48,1.07-1.07v-6.95c0-.59-.48-1.07-1.07-1.07Zm-1.07,6.95h-4.81v-4.81h4.81v4.81Z"/><path class="cls-1" d="m102.97,61.97c-.29,0-.57-.08-.84-.23-.94-.54-1.74-2.16-2.38-4.82-.13-.54.2-1.08.74-1.21.54-.12,1.08.2,1.21.74.46,1.93,1.02,3.11,1.33,3.46.23-.12.44-.34.74-.65.5-.53,1.19-1.27,2.38-1.43,3.7-.49,5.71.01,6.14,1.55.15.53-.16,1.08-.69,1.23-.53.15-1.08-.16-1.23-.69-.12-.11-1.15-.48-3.95-.1-.47.06-.73.32-1.19.81-.42.45-.95,1.02-1.79,1.27-.15.05-.31.07-.47.07Z"/><path class="cls-1" d="m54.54,43.91c-.39,0-.76-.23-.92-.61-.22-.51.02-1.1.53-1.31l2.57-1.1c.82-1.11,1.89-2.76,2.21-3.7-.44-.16-1.32-.31-1.95-.41-2.02-.34-4.3-.73-4.9-2.36-.84-2.29.8-3.88,1.78-4.39.49-.26,1.09-.07,1.35.42.26.49.07,1.09-.41,1.35-.22.12-1.27.77-.84,1.94.2.55,2.33.91,3.36,1.08,1.93.33,3.92.66,3.67,2.35-.24,1.7-2.4,4.59-2.83,5.16l-.16.21-3.06,1.3c-.13.05-.26.08-.39.08Z"/><path class="cls-1" d="m2.91,19.7c-1.11,0-1.94-.71-2.05-.8-.41-.37-.45-1-.08-1.41.36-.41.99-.45,1.4-.09.02.02.5.4.9.27.18-.06.8-.39,1.29-2.28.4-1.55.65-2.76.85-3.74.43-2.1.68-3.37,1.89-4.4,1.67-1.42,4.82-1.25,5.17-1.22.55.04.96.52.93,1.07-.04.55-.51.98-1.07.93-1.02-.06-2.94.07-3.73.74-.65.56-.81,1.23-1.23,3.28-.2,1-.46,2.25-.87,3.85-.54,2.08-1.43,3.32-2.66,3.69-.26.08-.51.11-.75.11Z"/></g></svg>