<?xml version="1.0" encoding="UTF-8"?><svg id="_レイヤー_2" xmlns="http://www.w3.org/2000/svg" viewBox="0 0 180.63 111.95"><defs><style>.cls-1{fill:#1e1e32;}.cls-2{fill:#3397dc;}</style></defs><g id="_デザイン"><path class="cls-1" d="m140.82,47.39h-8.38c-.42,0-.76-.34-.76-.76v-1.4c0-.42.34-.76.76-.76h8.38c.42,0,.76-.34.76-.76v-2.5c0-.42-.34-.76-.76-.76h-8.38c-.42,0-.76-.34-.76-.76v-1.35c0-.42.34-.76.76-.76h6.64c.56,0,.93-.6.67-1.1l-8.88-17.48c-.26-.5.11-1.1.67-1.1h3.56c.3,0,.57.17.69.44l4.58,10.11c1.21,2.69,2.36,5.39,3.68,8.3h.27c1.32-2.91,2.47-5.61,3.74-8.3l4.63-10.11c.12-.27.39-.44.69-.44h3.33c.57,0,.93.6.67,1.1l-8.98,17.47c-.26.5.11,1.1.67,1.1h6.74c.42,0,.76.34.76.76v1.35c0,.42-.34.76-.76.76h-8.49c-.42,0-.76.34-.76.76v2.5c0,.42.34.76.76.76h8.49c.42,0,.76.34.76.76v1.4c0,.42-.34.76-.76.76h-8.49c-.42,0-.76.34-.76.76v8.22c0,.42-.34.76-.76.76h-3.49c-.42,0-.76-.34-.76-.76v-8.22c0-.42-.34-.76-.76-.76Z"/><path class="cls-1" d="m151.76,74.02c-.66,0-1.26-.45-1.42-1.12-.19-.79.29-1.58,1.07-1.78,15.47-3.82,26.28-17.63,26.28-33.59,0-19.08-15.52-34.6-34.6-34.6s-34.6,15.52-34.6,34.6c0,3.1.41,6.17,1.22,9.14.21.78-.25,1.59-1.03,1.8-.78.21-1.59-.25-1.8-1.03-.88-3.21-1.32-6.55-1.32-9.91C105.56,16.84,122.4,0,143.09,0s37.54,16.84,37.54,37.54c0,17.32-11.73,32.3-28.51,36.44-.12.03-.24.04-.35.04Z"/><polygon class="cls-2" points="153.33 110.48 1.47 110.48 20.66 65.88 134.14 65.88 153.33 110.48"/><path class="cls-1" d="m153.33,111.95H1.47c-.49,0-.95-.25-1.23-.66-.27-.41-.32-.93-.12-1.39l19.19-44.59c.23-.54.76-.89,1.35-.89h113.48c.59,0,1.12.35,1.35.89l19.19,44.59c.2.45.15.98-.12,1.39-.27.41-.73.66-1.23.66ZM3.7,109.01h147.4l-17.93-41.66H21.63L3.7,109.01Z"/><polygon class="cls-1" points="28.8 65.88 27.05 65.88 25.3 65.88 25.3 49.66 25.3 39.51 27.05 37.26 28.8 39.51 28.8 49.66 28.8 65.88"/><polygon class="cls-1" points="41.39 39.51 41.39 49.66 41.39 65.88 39.64 65.88 37.89 65.88 37.89 49.66 37.89 39.51 39.64 37.26 41.39 39.51"/><polygon class="cls-1" points="53.97 39.51 53.97 49.66 53.97 65.88 52.22 65.88 50.47 65.88 50.47 49.66 50.47 39.51 52.22 37.26 53.97 39.51"/><polygon class="cls-1" points="66.55 39.51 66.55 49.66 66.55 65.88 64.8 65.88 63.05 65.88 63.05 49.66 63.05 39.51 64.8 37.26 66.55 39.51"/><polygon class="cls-1" points="79.13 65.88 77.38 65.88 75.63 65.88 75.63 49.66 75.63 39.51 77.38 37.26 79.13 39.51 79.13 49.66 79.13 65.88"/><rect class="cls-1" x="22.73" y="56.19" width="59.31" height="2.94"/><rect class="cls-1" x="22.73" y="46.53" width="59.31" height="2.94"/><path class="cls-1" d="m43.11,96.74h-10.46c-.81,0-1.47-.66-1.47-1.47s.66-1.47,1.47-1.47h10.46c.81,0,1.47.66,1.47,1.47s-.66,1.47-1.47,1.47Z"/><path class="cls-1" d="m48.82,96.74c-.09,0-.19,0-.29-.03-.09-.02-.19-.05-.27-.08-.09-.04-.18-.08-.26-.13-.08-.06-.16-.12-.22-.18-.28-.27-.43-.65-.43-1.04s.16-.76.43-1.04c.34-.34.85-.5,1.32-.4.1.02.19.05.28.09.09.03.17.08.25.13.08.05.16.11.22.18.27.27.43.65.43,1.04s-.16.77-.43,1.04c-.07.07-.14.13-.22.18-.08.05-.16.1-.25.13-.09.03-.18.07-.28.08-.09.02-.19.03-.29.03Z"/><path class="cls-1" d="m81.89,83.54h-10.46c-.81,0-1.47-.66-1.47-1.47s.66-1.47,1.47-1.47h10.46c.81,0,1.47.66,1.47,1.47s-.66,1.47-1.47,1.47Z"/><path class="cls-1" d="m87.6,83.54c-.39,0-.76-.16-1.04-.43-.27-.27-.43-.65-.43-1.04s.16-.76.43-1.04c.28-.27.65-.43,1.04-.43s.77.16,1.04.43c.27.27.43.65.43,1.04s-.16.77-.43,1.04c-.27.27-.65.43-1.04.43Z"/><path class="cls-1" d="m120.67,96.74h-10.46c-.81,0-1.47-.66-1.47-1.47s.66-1.47,1.47-1.47h10.46c.81,0,1.47.66,1.47,1.47s-.66,1.47-1.47,1.47Z"/><path class="cls-1" d="m126.38,96.74c-.39,0-.77-.16-1.04-.43-.07-.07-.13-.14-.18-.22-.05-.08-.1-.17-.13-.25-.03-.09-.06-.18-.08-.28-.02-.09-.03-.19-.03-.29,0-.39.16-.76.43-1.04.27-.28.65-.43,1.04-.43s.76.16,1.04.43c.27.27.43.65.43,1.04,0,.1-.01.19-.03.29-.02.09-.05.19-.09.28-.03.09-.08.17-.13.25-.05.08-.11.16-.18.22-.28.27-.65.43-1.04.43Z"/></g></svg>