<?xml version="1.0" encoding="UTF-8"?><svg xmlns="http://www.w3.org/2000/svg" viewBox="0 0 267.84 253.74"><defs><style>.cls-1{fill:#fff;}.cls-2{fill:#0063a4;mix-blend-mode:multiply;}.cls-3{isolation:isolate;}</style></defs><g class="cls-3"><g id="_レイヤー_2"><g id="_デザイン"><polygon class="cls-2" points="133.92 253.74 0 126.87 133.92 0 267.84 126.87 133.92 253.74"/><path class="cls-1" d="m102.78,82.91c-.97,0-1.81-.18-2.5-.54-.7-.36-1.31-.88-1.85-1.57l1.15-1.15c.4.55.85.97,1.37,1.25.52.28,1.15.42,1.91.42s1.34-.16,1.79-.49c.45-.32.67-.77.67-1.33,0-.47-.11-.85-.33-1.13s-.51-.52-.87-.71-.76-.35-1.19-.5c-.43-.14-.86-.3-1.3-.48-.43-.17-.83-.39-1.2-.66-.37-.26-.66-.6-.87-1.02s-.32-.95-.32-1.59c0-.71.17-1.31.51-1.81.34-.5.81-.88,1.4-1.15s1.26-.4,2.01-.4c.82,0,1.55.16,2.2.48.65.32,1.18.73,1.58,1.25l-1.15,1.15c-.37-.43-.77-.76-1.2-.97-.43-.22-.92-.32-1.47-.32-.67,0-1.21.15-1.6.44-.4.29-.59.71-.59,1.23,0,.42.11.76.33,1.02.22.26.51.48.87.66.36.18.76.35,1.2.5.44.15.87.31,1.31.5.43.18.83.41,1.19.68s.65.63.87,1.07c.22.44.33.99.33,1.65,0,1.1-.38,1.97-1.14,2.59-.76.62-1.8.94-3.11.94Z"/><path class="cls-1" d="m109.27,71.79v-1.55h10.17v1.55h-10.17Zm4.23,10.94v-12.13h1.71v12.13h-1.71Z"/><path class="cls-1" d="m122.36,82.73v-12.49h1.69v12.49h-1.69Zm1.15-10.94v-1.55h7.07v1.55h-7.07Zm0,5.31v-1.49h6.57v1.49h-6.57Zm0,5.63v-1.55h7.16v1.55h-7.16Z"/><path class="cls-1" d="m133.88,82.73v-12.49h1.69v12.49h-1.69Zm1.13-4.86v-1.48h3.4c.47,0,.88-.1,1.25-.29.37-.19.65-.46.86-.81.21-.35.32-.76.32-1.24s-.11-.89-.32-1.24-.5-.62-.86-.81c-.37-.19-.78-.29-1.25-.29h-3.4v-1.48h3.49c.77,0,1.46.16,2.07.47.61.31,1.1.75,1.45,1.32.35.57.53,1.25.53,2.03s-.18,1.44-.53,2.02c-.35.58-.84,1.02-1.45,1.33-.61.31-1.3.47-2.07.47h-3.49Z"/><path class="cls-1" d="m154.78,82.91c-.94,0-1.79-.26-2.56-.79-.77-.53-1.39-1.27-1.85-2.24-.46-.97-.68-2.1-.68-3.41s.22-2.44.67-3.4,1.06-1.7,1.83-2.22,1.61-.78,2.54-.78,1.81.26,2.57.78c.77.52,1.38,1.26,1.83,2.22.45.96.67,2.1.67,3.42s-.23,2.45-.67,3.41c-.45.97-1.06,1.71-1.82,2.23s-1.61.78-2.53.78Zm-.04-1.6c.66,0,1.24-.18,1.74-.55.5-.37.89-.91,1.18-1.63.29-.72.43-1.61.43-2.66s-.14-1.93-.43-2.65c-.29-.72-.68-1.26-1.19-1.62-.5-.36-1.09-.54-1.75-.54s-1.22.18-1.73.54c-.5.36-.9.9-1.18,1.61s-.42,1.6-.42,2.65.14,1.94.42,2.66c.28.72.67,1.26,1.18,1.63.5.37,1.09.55,1.75.55Z"/><path class="cls-1" d="m165.99,82.91c-.82,0-1.56-.15-2.22-.46-.67-.31-1.23-.75-1.68-1.34l1.15-1.15c.28.42.65.75,1.13,1,.48.25,1.01.37,1.58.37s1.05-.1,1.45-.32c.4-.21.72-.51.95-.89.23-.38.34-.83.34-1.33s-.11-.96-.34-1.33c-.23-.37-.55-.66-.97-.87s-.92-.31-1.51-.31c-.2,0-.42.02-.64.04-.22.03-.43.08-.62.13l.72-.97c.23-.11.47-.19.74-.25.26-.06.53-.09.79-.09.67,0,1.27.16,1.81.47s.96.75,1.28,1.31c.32.56.48,1.22.48,1.96,0,.79-.19,1.49-.57,2.1s-.9,1.08-1.56,1.42-1.43.51-2.3.51Zm-3.33-11.16v-1.51h7.61v1.03l-1.48.49h-6.14Zm1.94,4.7v-1.03l3.65-4.16h2.02l-3.76,4.25-1.91.94Z"/><path class="cls-1" d="m155.73,187.98h-45.68c-3.6,0-6.53-2.93-6.53-6.53v-62.99c0-3.6,2.93-6.53,6.53-6.53h45.68c3.6,0,6.53,2.93,6.53,6.53v62.99c0,3.6-2.93,6.53-6.53,6.53Zm-45.68-73.88c-2.4,0-4.36,1.96-4.36,4.36v62.99c0,2.4,1.96,4.36,4.36,4.36h45.68c2.4,0,4.36-1.96,4.36-4.36v-62.99c0-2.4-1.96-4.36-4.36-4.36h-45.68Z"/><path class="cls-1" d="m153.17,121.5h-40.55c-.6,0-1.08-.49-1.08-1.08v-7.39c0-.6.49-1.08,1.08-1.08h40.55c.6,0,1.08.49,1.08,1.08v7.39c0,.6-.49,1.08-1.08,1.08Zm-39.47-2.17h38.38v-5.23h-38.38v5.23Z"/><path class="cls-1" d="m118.98,141.66c-.28,0-.55-.11-.77-.32l-3.11-3.11c-.42-.42-.42-1.11,0-1.53.42-.42,1.11-.42,1.53,0l2.35,2.35,5.46-5.46c.42-.42,1.11-.42,1.53,0s.42,1.11,0,1.53l-6.22,6.22c-.21.21-.49.32-.77.32Z"/><path class="cls-1" d="m118.98,157.22c-.28,0-.55-.11-.77-.32l-3.11-3.11c-.42-.42-.42-1.11,0-1.53.42-.42,1.11-.42,1.53,0l2.35,2.35,5.46-5.46c.42-.42,1.11-.42,1.53,0,.42.42.42,1.11,0,1.53l-6.22,6.22c-.21.21-.49.32-.77.32Z"/><path class="cls-1" d="m118.98,172.78c-.28,0-.55-.11-.77-.32l-3.11-3.11c-.42-.42-.42-1.11,0-1.53.42-.42,1.11-.42,1.53,0l2.35,2.35,5.46-5.46c.42-.42,1.11-.42,1.53,0,.42.42.42,1.11,0,1.53l-6.22,6.22c-.21.21-.49.32-.77.32Z"/><path class="cls-1" d="m149.91,141.66h-17.7c-.6,0-1.08-.49-1.08-1.08s.49-1.08,1.08-1.08h17.7c.6,0,1.08.49,1.08,1.08s-.49,1.08-1.08,1.08Z"/><path class="cls-1" d="m149.91,157.22h-17.7c-.6,0-1.08-.49-1.08-1.08s.49-1.08,1.08-1.08h17.7c.6,0,1.08.49,1.08,1.08s-.49,1.08-1.08,1.08Z"/><path class="cls-1" d="m149.91,172.78h-17.7c-.6,0-1.08-.49-1.08-1.08s.49-1.08,1.08-1.08h17.7c.6,0,1.08.49,1.08,1.08s-.49,1.08-1.08,1.08Z"/></g></g></g></svg>