<?xml version="1.0" encoding="UTF-8"?>
<svg id="_レイヤー_2" data-name="レイヤー 2" xmlns="http://www.w3.org/2000/svg" xmlns:xlink="http://www.w3.org/1999/xlink" viewBox="0 0 620 151">
  <defs>
    <style>
      .cls-1 {
        fill: url(#_名称未設定グラデーション_10-3);
      }

      .cls-1, .cls-2, .cls-3, .cls-4, .cls-5 {
        stroke-width: 0px;
      }

      .cls-2 {
        fill: url(#_名称未設定グラデーション_10);
      }

      .cls-3 {
        fill: url(#_名称未設定グラデーション_10-2);
      }

      .cls-4 {
        fill: #fff;
      }

      .cls-5 {
        fill: url(#_名称未設定グラデーション_10-4);
      }
    </style>
    <linearGradient id="_名称未設定グラデーション_10" data-name="名称未設定グラデーション 10" x1="284.89" y1="22.11" x2="178.11" y2="128.89" gradientUnits="userSpaceOnUse">
      <stop offset="0" stop-color="#3397dc"/>
      <stop offset="1" stop-color="#003888"/>
    </linearGradient>
    <linearGradient id="_名称未設定グラデーション_10-2" data-name="名称未設定グラデーション 10" x1="441.89" y1="22.11" x2="335.11" y2="128.89" xlink:href="#_名称未設定グラデーション_10"/>
    <linearGradient id="_名称未設定グラデーション_10-3" data-name="名称未設定グラデーション 10" x1="597.89" y1="22.11" x2="491.11" y2="128.89" xlink:href="#_名称未設定グラデーション_10"/>
    <linearGradient id="_名称未設定グラデーション_10-4" data-name="名称未設定グラデーション 10" x1="128.89" x2="22.11" y2="128.89" xlink:href="#_名称未設定グラデーション_10"/>
  </defs>
  <g id="_デザイン" data-name="デザイン">
    <g>
      <circle class="cls-2" cx="231.5" cy="75.5" r="75.5"/>
      <g>
        <path class="cls-4" d="m206.84,31.23l2.22.72c-.43,1.12-.93,2.25-1.52,3.38-.59,1.13-1.22,2.2-1.9,3.21-.68,1.01-1.38,1.89-2.1,2.65-.07-.19-.18-.43-.33-.74-.15-.31-.31-.62-.48-.93-.17-.31-.32-.57-.45-.77.6-.61,1.18-1.32,1.75-2.12.57-.8,1.09-1.66,1.58-2.58.49-.92.9-1.86,1.23-2.82Zm-2.02,5.54l2.34-2.36.02.02v15.48h-2.36v-13.14Zm2.56,2.32l11.88-4.64.92,2.08-11.86,4.68-.94-2.12Zm2.46-5.7h2.36v12.7c0,.4.04.7.11.9.07.2.22.33.44.4.22.07.54.1.97.1h4.04c.4,0,.7-.07.9-.22.2-.15.35-.42.44-.81.09-.39.17-.97.24-1.73.27.19.61.37,1.03.54.42.17.8.3,1.13.38-.11,1-.28,1.79-.51,2.37-.23.58-.59,1-1.06,1.25-.47.25-1.13.38-1.97.38h-4.44c-.96,0-1.71-.1-2.24-.31-.53-.21-.91-.57-1.12-1.09-.21-.52-.32-1.24-.32-2.16v-12.7Zm4.3-2.14h2.26v13.94h-2.26v-13.94Zm4.32,3.6h-.16l.42-.3.42-.3,1.64.62-.08.38c0,1.16,0,2.2-.02,3.11-.01.91-.03,1.68-.06,2.3-.03.62-.06,1.08-.1,1.37-.04.51-.16.9-.35,1.18-.19.28-.45.49-.77.64-.31.13-.67.22-1.1.25-.43.03-.82.04-1.18.03-.01-.33-.07-.72-.16-1.16-.09-.44-.21-.79-.36-1.04.23.01.46.02.7.03.24,0,.42,0,.54,0,.13,0,.24-.03.32-.09.08-.06.14-.18.18-.37.03-.16.05-.49.06-1,.01-.51.03-1.23.04-2.16.01-.93.02-2.1.02-3.5Z"/>
        <path class="cls-4" d="m229.7,34.87h.46l.42-.1,1.34.88c-.49,1.31-1.14,2.55-1.94,3.73-.8,1.18-1.68,2.24-2.64,3.19-.96.95-1.94,1.73-2.94,2.36-.07-.21-.17-.47-.31-.77-.14-.3-.28-.59-.42-.86-.14-.27-.28-.49-.41-.65.92-.48,1.8-1.11,2.64-1.89.84-.78,1.59-1.64,2.26-2.58.67-.94,1.18-1.9,1.54-2.89v-.42Zm-5.68,0h6.54v2.16h-6.54v-2.16Zm2.86-3.7h2.38v4.7h-2.38v-4.7Zm0,10.52l2.38-2.84v11.1h-2.38v-8.26Zm2.12-2.16c.19.12.44.32.77.59.33.27.68.57,1.05.9.37.33.71.63,1.02.9.31.27.53.47.66.59l-1.44,1.96c-.2-.25-.44-.55-.73-.89-.29-.34-.59-.69-.91-1.05-.32-.36-.63-.7-.94-1.02-.31-.32-.57-.59-.78-.8l1.3-1.18Zm2.2,7.48h11.38v2.36h-11.38v-2.36Zm.82-9.66h10.08v2.32h-10.08v-2.32Zm3.8-6h2.48v16.8h-2.48v-16.8Z"/>
        <path class="cls-4" d="m245.38,34.43c.4-.01.78-.03,1.14-.05s.63-.04.82-.05c.41-.03.92-.07,1.53-.13.61-.06,1.29-.12,2.04-.19.75-.07,1.56-.13,2.41-.2.85-.07,1.74-.14,2.66-.22.69-.07,1.38-.12,2.07-.17.69-.05,1.34-.09,1.96-.12.62-.03,1.16-.06,1.63-.07l.02,2.56c-.36,0-.77,0-1.24.02-.47.01-.93.04-1.39.07-.46.03-.87.1-1.23.19-.6.16-1.16.43-1.68.81s-.97.83-1.35,1.34c-.38.51-.68,1.07-.89,1.66-.21.59-.32,1.19-.32,1.79,0,.65.12,1.23.35,1.73.23.5.55.93.96,1.28.41.35.88.65,1.43.88.55.23,1.14.41,1.77.53.63.12,1.29.2,1.97.24l-.94,2.74c-.84-.05-1.66-.19-2.45-.4-.79-.21-1.54-.51-2.23-.88s-1.3-.83-1.81-1.37-.92-1.16-1.22-1.86c-.3-.7-.45-1.48-.45-2.35,0-.96.15-1.84.46-2.65.31-.81.69-1.51,1.15-2.12.46-.61.92-1.08,1.37-1.41-.37.05-.82.11-1.35.16-.53.05-1.09.12-1.7.19-.61.07-1.22.15-1.85.23-.63.08-1.23.17-1.81.27s-1.1.2-1.57.29l-.26-2.74Zm13.42,3.32c.17.24.36.52.55.85.19.33.38.65.57.98.19.33.35.62.48.89l-1.52.68c-.25-.56-.5-1.05-.73-1.48-.23-.43-.51-.86-.83-1.3l1.48-.62Zm2.24-.92c.17.24.36.52.57.83.21.31.41.63.61.96.2.33.37.62.5.87l-1.5.72c-.27-.53-.52-1.01-.77-1.42-.25-.41-.54-.84-.87-1.28l1.46-.68Z"/>
        <path class="cls-4" d="m180.69,61.8h2.7v22.83h-2.7v-22.83Zm1.69,18.3h9.91v2.68h-9.91v-2.68Zm4.86-10.22l1.66.73c-.29.95-.67,1.94-1.13,2.95-.46,1.01-.97,1.96-1.52,2.85-.56.88-1.14,1.62-1.77,2.21-.12-.38-.3-.82-.53-1.31s-.46-.92-.66-1.29c.54-.47,1.06-1.04,1.56-1.72.5-.68.97-1.4,1.39-2.17.42-.77.76-1.52,1-2.25Zm-3.35-1.46h8.81v2.6h-8.81v-2.6Zm.05-5.02l1.87-.62c.28.71.51,1.48.69,2.3.18.82.29,1.54.32,2.15l-2.03.65c-.02-.61-.11-1.33-.27-2.17-.17-.84-.36-1.61-.58-2.3Zm3.07-2.24h2.57v18.43h-2.57v-18.43Zm2.5,10.19c.16.14.39.35.71.62.32.28.66.58,1.01.91.35.33.68.64.99.92s.52.49.66.61l-1.66,2.11c-.16-.26-.37-.58-.64-.95-.27-.37-.55-.75-.86-1.14s-.59-.76-.87-1.1c-.28-.35-.51-.63-.7-.86l1.35-1.12Zm1.27-8.58l2.42.57c-.33.8-.65,1.61-.98,2.44-.32.83-.63,1.53-.92,2.11l-1.77-.57c.16-.43.31-.91.47-1.44.16-.53.3-1.07.44-1.61.14-.55.25-1.04.34-1.49Zm2.81.16l3.64,1.04c-.02.23-.24.37-.68.44v7.64c0,.97-.05,2.03-.14,3.19-.1,1.15-.27,2.33-.53,3.54-.26,1.2-.65,2.37-1.18,3.5-.53,1.13-1.23,2.16-2.09,3.09-.12-.23-.31-.48-.57-.77-.26-.29-.54-.55-.83-.81-.29-.25-.57-.44-.83-.56.99-1.07,1.71-2.25,2.16-3.54.45-1.28.74-2.59.87-3.91.13-1.33.2-2.58.2-3.76v-9.1Zm8.14-1.74l2.5,2.29c-.87.38-1.81.74-2.82,1.07-1.01.33-2.05.62-3.09.87-1.05.25-2.08.47-3.08.66-.07-.33-.19-.72-.38-1.18-.18-.46-.37-.85-.56-1.18.9-.21,1.81-.44,2.72-.7.91-.26,1.78-.55,2.6-.87.82-.32,1.53-.64,2.12-.95Zm-6.73,8.29h9.36v2.89h-9.36v-2.89Zm4.11,1.46h2.94v14.33h-2.94v-14.33Z"/>
        <path class="cls-4" d="m215.19,67.29c-.09.35-.18.79-.27,1.34s-.19,1.11-.27,1.7c-.09.59-.17,1.15-.25,1.69-.08.54-.14.99-.19,1.35,1.18-.85,2.41-1.47,3.71-1.87,1.29-.4,2.61-.6,3.96-.6,1.52,0,2.83.28,3.9.83,1.07.56,1.89,1.28,2.46,2.18.56.9.85,1.88.85,2.94,0,1.18-.25,2.27-.75,3.28-.5,1.01-1.33,1.86-2.47,2.57s-2.64,1.21-4.5,1.51c-1.85.29-4.13.33-6.84.1l-.99-3.41c2.6.35,4.78.39,6.55.14,1.77-.25,3.11-.75,4.02-1.51.91-.75,1.36-1.68,1.36-2.77,0-.57-.17-1.08-.49-1.52-.33-.44-.79-.79-1.38-1.04-.59-.25-1.26-.38-2-.38-1.46,0-2.82.26-4.09.79-1.27.53-2.32,1.29-3.13,2.28-.23.28-.41.53-.56.77-.15.23-.28.48-.4.74l-2.99-.75c.1-.5.21-1.1.31-1.78.1-.68.21-1.42.31-2.21.1-.79.2-1.58.29-2.38.09-.8.16-1.59.23-2.37.07-.78.12-1.49.16-2.13l3.48.49Zm-.16-5.23c.62.19,1.4.39,2.34.6s1.92.41,2.94.61c1.02.2,1.99.37,2.9.51.91.14,1.65.24,2.22.31l-.78,3.17c-.52-.07-1.15-.17-1.89-.3s-1.52-.27-2.34-.43c-.82-.16-1.63-.32-2.43-.48-.8-.16-1.53-.33-2.18-.48s-1.2-.29-1.61-.39l.83-3.12Z"/>
        <path class="cls-4" d="m241.03,69.24c-.28.03-.63.08-1.07.13s-.9.11-1.39.18c-.49.07-.99.14-1.49.21-.5.07-.97.13-1.4.18l-.34-3.33c.38.02.74.02,1.08.01.34,0,.73-.02,1.18-.04.42-.03.91-.08,1.49-.14.58-.06,1.17-.13,1.77-.22.6-.09,1.16-.18,1.68-.29s.93-.21,1.22-.31l1.04,1.33c-.16.21-.33.47-.53.78-.2.31-.4.63-.61.95-.21.32-.39.6-.55.84l-1.53,4.89c-.28.4-.62.9-1.03,1.51-.41.61-.84,1.25-1.29,1.92-.45.68-.89,1.33-1.33,1.95-.43.62-.82,1.17-1.17,1.64l-2.05-2.83c.33-.42.71-.9,1.13-1.44s.87-1.13,1.34-1.74c.47-.62.93-1.23,1.38-1.85.45-.61.87-1.2,1.26-1.74.39-.55.72-1.02.98-1.42l.05-.68.18-.49Zm-.31-4.99v-1.16c0-.39-.03-.78-.1-1.18l3.8.13c-.1.4-.21.98-.33,1.73-.11.75-.23,1.62-.34,2.59-.11.97-.22,1.99-.31,3.06-.1,1.07-.17,2.13-.23,3.18-.06,1.06-.09,2.05-.09,2.96,0,.71,0,1.43.01,2.16,0,.73.02,1.47.04,2.24.02.76.05,1.55.1,2.37.02.23.04.54.08.95.03.41.07.76.1,1.05h-3.59c.03-.31.06-.66.06-1.04s.01-.68.01-.88c.02-.85.03-1.64.05-2.37.02-.73.03-1.5.04-2.31,0-.81.03-1.76.07-2.83.02-.4.04-.91.08-1.52.03-.61.07-1.29.12-2.03.04-.74.09-1.49.14-2.25.05-.76.1-1.48.14-2.15.04-.67.08-1.24.1-1.72.03-.48.04-.8.04-.97Zm18.28,17.39c-.61.55-1.31,1.01-2.11,1.38-.8.36-1.73.55-2.78.55-.97,0-1.75-.34-2.35-1.01-.6-.68-.9-1.65-.9-2.91,0-.69.05-1.44.14-2.25s.2-1.62.33-2.43c.12-.81.23-1.59.32-2.33.1-.74.14-1.4.14-1.99,0-.64-.16-1.12-.47-1.44-.31-.32-.75-.48-1.3-.48-.61,0-1.28.21-2.03.64-.75.42-1.51.97-2.29,1.62-.78.66-1.52,1.36-2.22,2.11-.7.75-1.31,1.46-1.83,2.13l-.03-4c.31-.35.72-.75,1.23-1.22s1.09-.95,1.74-1.46c.65-.5,1.33-.97,2.05-1.42.72-.44,1.45-.8,2.18-1.08.74-.28,1.45-.42,2.15-.42.94,0,1.7.17,2.3.51s1.04.8,1.34,1.38c.29.58.44,1.23.44,1.96,0,.68-.04,1.41-.13,2.2-.09.79-.19,1.59-.31,2.41-.12.81-.22,1.62-.3,2.42-.08.8-.12,1.53-.12,2.18,0,.35.09.63.26.85.17.22.42.32.73.32.48,0,1.02-.16,1.61-.48.59-.32,1.18-.78,1.77-1.39l.42,3.67Z"/>
        <path class="cls-4" d="m273.27,62.24c-.1.35-.21.77-.31,1.27-.1.5-.18.89-.23,1.17-.12.59-.27,1.31-.45,2.16-.18.85-.38,1.75-.6,2.7-.22.95-.44,1.86-.66,2.73-.23.92-.5,1.91-.83,2.98-.33,1.07-.68,2.15-1.05,3.25-.37,1.1-.75,2.15-1.13,3.15-.38,1-.75,1.89-1.12,2.67l-3.61-1.22c.38-.66.79-1.46,1.22-2.41.43-.94.85-1.96,1.26-3.05.41-1.09.78-2.18,1.13-3.25.35-1.07.64-2.07.88-2.99.17-.61.34-1.23.49-1.87.16-.64.29-1.27.42-1.87.12-.61.23-1.17.32-1.7.1-.53.17-.99.22-1.39.05-.49.09-.97.1-1.46.02-.49,0-.88-.03-1.17l3.98.31Zm-6.63,3.87c1.06,0,2.16-.05,3.3-.16s2.3-.25,3.46-.44c1.16-.19,2.31-.42,3.46-.68v3.25c-1.08.24-2.22.45-3.43.62-1.21.17-2.41.31-3.59.4-1.18.1-2.26.14-3.25.14-.62,0-1.19-.01-1.69-.04-.5-.03-.99-.05-1.46-.07l-.08-3.25c.68.07,1.26.12,1.74.16.48.03,1,.05,1.53.05Zm9.57,10.53c-.1.36-.19.74-.26,1.13s-.1.73-.1,1.03c0,.28.06.54.18.78.12.24.31.45.57.64.26.18.62.33,1.08.43.46.1,1.04.16,1.73.16.88,0,1.77-.05,2.67-.14.89-.1,1.81-.23,2.74-.4l-.13,3.33c-.73.09-1.53.17-2.42.25-.88.08-1.85.12-2.89.12-2.18,0-3.85-.36-5-1.08-1.15-.72-1.73-1.74-1.73-3.06,0-.59.05-1.19.16-1.79.1-.61.21-1.17.31-1.69l3.09.31Zm-1.4-6.55c.73-.07,1.53-.13,2.42-.18.88-.05,1.74-.08,2.57-.08.75,0,1.5.02,2.27.05.77.03,1.54.1,2.3.18l-.08,3.12c-.64-.09-1.35-.16-2.12-.22-.77-.06-1.56-.09-2.35-.09-.88,0-1.74.02-2.56.07-.82.04-1.64.12-2.46.22v-3.07Z"/>
        <path class="cls-4" d="m182.01,101.34l2.02.32c-.09.88-.21,1.76-.34,2.65-.13.89-.29,1.72-.48,2.51-.19.79-.4,1.48-.64,2.08-.12-.09-.29-.21-.5-.35l-.64-.42c-.21-.14-.4-.24-.56-.31.21-.55.4-1.17.55-1.87.15-.7.28-1.45.38-2.24.1-.79.17-1.58.21-2.37Zm-.94,9.76c.65-.16,1.4-.35,2.23-.56.83-.21,1.71-.45,2.64-.71.93-.26,1.85-.52,2.77-.77l.3,2.1c-1.25.4-2.53.8-3.83,1.19-1.3.39-2.48.74-3.53,1.05l-.58-2.3Zm1.5-7.04h5.96v2.28h-6.42l.46-2.28Zm2.08-3.86h2.2v18.78h-2.2v-18.78Zm6.2-.02l2.18.42c-.25,1.11-.56,2.18-.92,3.23-.36,1.05-.77,2.02-1.24,2.92-.47.9-.97,1.69-1.52,2.37-.12-.13-.29-.28-.52-.45-.23-.17-.46-.33-.69-.5-.23-.17-.43-.3-.59-.41.53-.59,1.01-1.28,1.43-2.08.42-.8.79-1.67,1.1-2.61.31-.94.57-1.9.77-2.89Zm2.02,3.84l1.74.86c-.27,1.15-.63,2.32-1.1,3.51-.47,1.19-1.01,2.31-1.63,3.35-.62,1.04-1.29,1.9-2.01,2.58-.23-.21-.51-.45-.86-.71-.35-.26-.68-.47-1-.63.59-.45,1.13-1.02,1.64-1.69.51-.67.97-1.41,1.38-2.22.41-.81.77-1.64,1.08-2.5.31-.86.56-1.71.76-2.55Zm2.78.24l1.86.86c-.25,1.29-.57,2.59-.95,3.88-.38,1.29-.83,2.53-1.36,3.72-.53,1.19-1.13,2.28-1.81,3.27-.68.99-1.44,1.83-2.28,2.51-.23-.23-.52-.47-.89-.74-.37-.27-.72-.49-1.05-.66.87-.63,1.65-1.4,2.35-2.33.7-.93,1.32-1.96,1.85-3.1s.99-2.34,1.36-3.6c.37-1.26.68-2.53.92-3.81Zm-4.2-.96h7.14v2.22h-8.22l1.08-2.22Zm6.12,0h2.28c-.01.28-.02.51-.02.68s0,.31-.02.4c-.09,2.25-.19,4.17-.29,5.74-.1,1.57-.21,2.87-.32,3.89-.11,1.02-.24,1.82-.39,2.4-.15.58-.31,1-.5,1.25-.24.33-.48.57-.72.72-.24.15-.53.25-.86.32-.28.05-.62.08-1.02.09-.4,0-.82,0-1.26-.03-.03-.35-.1-.74-.21-1.18-.11-.44-.26-.83-.45-1.16.37.04.72.06,1.04.07.32,0,.57,0,.76,0,.16,0,.29-.03.39-.08.1-.05.21-.15.33-.3.13-.16.26-.5.38-1.01.12-.51.23-1.25.34-2.21.11-.96.2-2.18.29-3.67.09-1.49.17-3.29.25-5.41v-.52Z"/>
        <path class="cls-4" d="m206.37,100.26l2.28.72c-.43,1.12-.93,2.25-1.5,3.39-.57,1.14-1.2,2.22-1.87,3.23-.67,1.01-1.37,1.91-2.09,2.68-.08-.2-.19-.46-.34-.77-.15-.31-.31-.63-.48-.95s-.33-.58-.48-.78c.6-.61,1.18-1.32,1.73-2.12.55-.8,1.07-1.66,1.54-2.58.47-.92.88-1.86,1.21-2.82Zm-1.98,5.54l2.28-2.28v15.42h-2.28v-13.14Zm5.48-4.5l2.32.46c-.19.91-.41,1.81-.68,2.7-.27.89-.56,1.73-.89,2.51-.33.78-.67,1.46-1.03,2.05-.15-.12-.35-.25-.61-.4-.26-.15-.52-.29-.78-.43-.26-.14-.49-.24-.69-.31.36-.53.69-1.16,1-1.87.31-.71.57-1.47.8-2.28.23-.81.41-1.62.56-2.43Zm-2.02,8.58h13v2.34h-13v-2.34Zm2.8-5.82h9.26v2.36h-9.86l.6-2.36Zm2.62-3.62h2.44v18.52h-2.44v-18.52Z"/>
        <path class="cls-4" d="m224.35,108.6c.72.24,1.45.43,2.19.56.74.13,1.47.22,2.2.27.73.05,1.42.07,2.09.07.61,0,1.28-.02,1.99-.06.71-.04,1.39-.1,2.03-.18l-.06,2.38c-.56.05-1.13.1-1.72.13-.59.03-1.19.05-1.82.05-1.33,0-2.61-.07-3.84-.21-1.23-.14-2.29-.34-3.2-.59l.14-2.42Zm.42-4.96c.6.19,1.25.34,1.96.47.71.13,1.43.22,2.18.28.75.06,1.45.09,2.12.09.79,0,1.52-.03,2.2-.08.68-.05,1.27-.12,1.78-.2l-.08,2.38c-.6.05-1.2.1-1.8.14-.6.04-1.32.06-2.16.06-.68,0-1.39-.04-2.12-.11-.73-.07-1.46-.17-2.18-.3-.72-.13-1.39-.27-2.02-.43l.12-2.3Zm7.14-2.48c-.08.36-.15.68-.2.96-.05.28-.1.55-.14.82-.05.28-.12.68-.19,1.21-.07.53-.15,1.12-.24,1.78s-.17,1.35-.26,2.06c-.09.71-.17,1.41-.25,2.09-.08.68-.14,1.3-.19,1.86-.05.56-.07,1.01-.07,1.34,0,.83.25,1.46.75,1.89.5.43,1.24.65,2.23.65.93,0,1.72-.13,2.36-.39.64-.26,1.13-.61,1.46-1.05.33-.44.5-.93.5-1.48,0-.68-.18-1.34-.53-1.99-.35-.65-.86-1.28-1.53-1.89l2.82-.6c.67.84,1.16,1.64,1.47,2.39.31.75.47,1.56.47,2.41,0,1-.29,1.89-.86,2.68-.57.79-1.39,1.4-2.45,1.84-1.06.44-2.32.66-3.79.66-1.04,0-1.97-.16-2.78-.48-.81-.32-1.45-.83-1.9-1.52-.45-.69-.68-1.59-.68-2.7,0-.41.03-.96.1-1.65.07-.69.15-1.45.25-2.28.1-.83.2-1.68.31-2.54.11-.86.2-1.68.29-2.45.09-.77.16-1.44.21-2,.03-.47.04-.82.05-1.07,0-.25,0-.48-.03-.71l2.82.16Z"/>
        <path class="cls-4" d="m255.28,117.48c-1.35,0-2.61-.28-3.78-.84s-2.2-1.33-3.08-2.32c-.88-.99-1.57-2.14-2.07-3.45-.5-1.31-.74-2.72-.74-4.22s.25-2.9.74-4.2c.5-1.3,1.18-2.45,2.05-3.44.87-.99,1.89-1.76,3.05-2.31,1.16-.55,2.42-.83,3.77-.83s2.61.28,3.77.83c1.16.55,2.18,1.32,3.06,2.31.88.99,1.57,2.14,2.07,3.45.5,1.31.74,2.71.74,4.21s-.25,2.91-.74,4.21c-.5,1.31-1.18,2.46-2.05,3.44-.87.98-1.89,1.75-3.05,2.31-1.16.56-2.41.84-3.74.84Zm-.05-3.3c1.28,0,2.4-.32,3.36-.96.96-.64,1.72-1.52,2.27-2.66.55-1.13.82-2.43.82-3.92,0-1.1-.16-2.1-.47-3.02-.31-.91-.76-1.7-1.34-2.37-.58-.67-1.26-1.18-2.04-1.54-.78-.36-1.65-.54-2.61-.54-1.26,0-2.37.31-3.33.94s-1.72,1.51-2.27,2.62c-.55,1.12-.82,2.42-.82,3.9,0,1.1.16,2.11.47,3.05.31.93.76,1.72,1.32,2.39s1.25,1.18,2.04,1.54c.79.37,1.66.56,2.59.56Z"/>
        <path class="cls-4" d="m269.37,117.18v-21h3.11v21h-3.11Zm11.42,0l-8.75-10.95,8.56-10.05h3.97l-9.45,10.92v-1.89l9.72,11.97h-4.05Z"/>
      </g>
      <circle class="cls-3" cx="388.5" cy="75.5" r="75.5"/>
      <g>
        <path class="cls-4" d="m341.14,42.74l2.35.73c-.44,1.18-.96,2.36-1.56,3.55s-1.24,2.31-1.92,3.36c-.69,1.05-1.41,1.98-2.15,2.79-.07-.21-.18-.47-.34-.8-.16-.33-.33-.66-.51-.99-.18-.33-.35-.6-.5-.81.62-.62,1.22-1.36,1.8-2.19.58-.84,1.11-1.74,1.59-2.69s.9-1.93,1.25-2.93Zm-2.06,5.78l2.37-2.37v16.06h-2.37v-13.69Zm3.89-1.66h12.75v9.82h-2.46v-7.51h-7.95v7.68h-2.35v-9.99Zm1.33,6.41h10.26v2.31h-10.26v-2.31Zm3.7-10.32h2.5v19.27h-2.5v-19.27Z"/>
        <path class="cls-4" d="m368.29,45.2c-.53.87-1.22,1.76-2.08,2.66-.86.9-1.82,1.76-2.88,2.57-1.06.81-2.17,1.52-3.34,2.13-.1-.21-.24-.44-.42-.69-.18-.25-.37-.5-.56-.75s-.38-.46-.56-.62c1.23-.6,2.4-1.33,3.48-2.21,1.09-.87,2.06-1.81,2.9-2.8.85-.99,1.51-1.95,2-2.86h2.68c.54.87,1.15,1.7,1.82,2.48.67.78,1.39,1.49,2.14,2.13.76.64,1.55,1.22,2.38,1.72.83.5,1.67.92,2.52,1.25-.32.32-.62.68-.89,1.09-.28.41-.53.81-.75,1.2-1.11-.57-2.21-1.25-3.29-2.04-1.08-.79-2.07-1.64-2.96-2.55-.89-.91-1.63-1.81-2.19-2.72Zm-4.87,5.22h2.58v2.58c0,.74-.04,1.51-.13,2.32-.09.81-.29,1.63-.58,2.44-.3.82-.75,1.61-1.35,2.37-.6.76-1.42,1.46-2.44,2.1-.15-.18-.35-.38-.59-.61-.24-.23-.5-.45-.76-.67-.26-.22-.51-.38-.73-.51.9-.54,1.62-1.12,2.16-1.75s.94-1.27,1.21-1.92c.26-.66.44-1.31.52-1.97.08-.65.12-1.28.12-1.87v-2.52Zm7.18-.1h2.6v11.9h-2.6v-11.9Z"/>
        <path class="cls-4" d="m380.69,53.4h19.12v2.46h-19.12v-2.46Zm15.42-10.76l1.81,2.08c-1.07.28-2.23.52-3.48.72-1.26.2-2.56.37-3.9.52-1.35.15-2.7.26-4.06.35-1.36.09-2.67.16-3.93.2-.04-.32-.12-.7-.25-1.13-.12-.44-.25-.79-.37-1.07,1.25-.04,2.53-.11,3.84-.21,1.31-.1,2.59-.21,3.85-.35,1.25-.14,2.44-.3,3.55-.48,1.11-.18,2.09-.39,2.96-.62Zm-13.98,5.91h16.44v2.39h-16.44v-2.39Zm6.82-2.95h2.6v13.65c0,.75-.1,1.31-.3,1.67-.2.37-.56.66-1.07.86-.49.18-1.11.3-1.88.35-.77.06-1.69.08-2.76.06-.04-.24-.12-.5-.24-.8-.12-.3-.25-.6-.38-.89s-.27-.56-.4-.78c.53.01,1.05.03,1.56.04.51.01.97.02,1.37.02h.85c.24-.01.4-.06.5-.15.1-.08.15-.23.15-.44v-13.61Z"/>
        <path class="cls-4" d="m406.55,47.17l1.6.98c-.33.55-.77,1.11-1.3,1.66-.53.55-1.1,1.07-1.71,1.55s-1.2.88-1.78,1.22c-.14-.26-.33-.58-.57-.94-.24-.36-.47-.65-.7-.87.55-.24,1.12-.54,1.68-.93.57-.38,1.1-.8,1.59-1.27.49-.46.88-.93,1.18-1.4Zm-4.29,6.37h10.53v2.02h-10.53v-2.02Zm6.7,1.39l2.31.21c-.19,1.1-.48,2.04-.86,2.82-.38.78-.89,1.45-1.52,2-.63.55-1.4,1.01-2.3,1.37-.9.37-1.98.68-3.22.93-.07-.35-.2-.71-.4-1.1-.19-.39-.39-.71-.6-.96,1.37-.18,2.51-.46,3.4-.85.89-.39,1.6-.94,2.11-1.64.51-.71.87-1.63,1.08-2.77Zm-6.45-8.74h10.21v1.98h-10.21v-1.98Zm3.52,5.87l2.31.48c-.35.72-.72,1.46-1.11,2.23-.4.76-.79,1.5-1.18,2.22-.39.71-.75,1.35-1.08,1.9l-2.18-.67c.33-.53.69-1.14,1.07-1.85.38-.71.76-1.44,1.14-2.19.38-.76.72-1.46,1.03-2.11Zm-3-8.28l1.79-.75c.28.39.53.83.77,1.31.24.49.4.91.5,1.27l-1.91.83c-.07-.36-.21-.79-.44-1.29-.22-.5-.46-.96-.71-1.37Zm1.58,14.46l1.33-1.69c.82.31,1.63.66,2.44,1.06.81.4,1.57.81,2.27,1.24.7.42,1.29.83,1.76,1.22l-1.75,1.77c-.43-.39-.97-.8-1.62-1.23-.65-.43-1.36-.85-2.12-1.26-.76-.41-1.53-.78-2.31-1.11Zm1.87-15.58h2.29v9.7h-2.29v-9.7Zm2.08,5.12c.19.1.46.24.8.44.34.19.71.41,1.1.63.39.23.76.44,1.08.63.33.19.56.34.7.44l-1.31,1.73c-.19-.18-.44-.4-.75-.67-.31-.26-.63-.53-.98-.81-.35-.28-.68-.54-1-.79s-.6-.45-.83-.6l1.19-1Zm1.87-4.85l2.1.85c-.33.46-.66.91-.99,1.36-.33.45-.62.84-.88,1.15l-1.6-.71c.24-.36.49-.79.75-1.3.26-.51.47-.96.62-1.36Zm7.74,4.93l2.56.25c-.3,2.37-.77,4.46-1.4,6.26-.63,1.8-1.5,3.36-2.61,4.66-1.11,1.3-2.54,2.39-4.29,3.27-.08-.19-.21-.44-.38-.73-.17-.29-.35-.58-.54-.86-.2-.28-.38-.51-.54-.68,1.58-.69,2.86-1.59,3.84-2.7.98-1.11,1.73-2.45,2.26-4.03.53-1.57.89-3.39,1.1-5.44Zm-3.79-5.2l2.54.37c-.22,1.43-.51,2.81-.85,4.15-.35,1.34-.77,2.57-1.26,3.7-.49,1.13-1.06,2.13-1.72,2.99-.12-.17-.31-.36-.54-.58-.24-.22-.49-.44-.75-.66-.26-.21-.49-.39-.67-.53.58-.72,1.08-1.58,1.51-2.57.42-.99.78-2.07,1.07-3.25.29-1.17.51-2.38.67-3.63Zm1.19,5.64c.29,1.75.7,3.39,1.23,4.93.53,1.54,1.22,2.89,2.08,4.06.86,1.17,1.92,2.08,3.18,2.75-.18.15-.38.36-.6.61-.22.26-.43.52-.63.8-.2.28-.36.53-.49.75-1.4-.83-2.56-1.91-3.46-3.22-.91-1.32-1.64-2.85-2.19-4.59-.55-1.74-1.01-3.64-1.35-5.71l2.25-.37Zm-1.42-1.85h7.66v2.31h-7.66v-2.31Z"/>
        <path class="cls-4" d="m427,50.86l1.39.69c-.18.69-.39,1.43-.62,2.19-.24.77-.5,1.54-.79,2.3-.29.76-.6,1.48-.92,2.15-.32.67-.66,1.26-1.02,1.76-.07-.26-.17-.55-.3-.86-.13-.31-.27-.62-.42-.93-.15-.3-.28-.57-.41-.79.42-.51.82-1.15,1.22-1.9.4-.76.76-1.54,1.09-2.35.33-.81.59-1.56.77-2.26Zm-2.73-6.47l1.75-.46c.18.5.34,1.04.49,1.62s.27,1.15.36,1.71c.1.55.17,1.05.21,1.5l-1.87.5c-.01-.44-.07-.95-.16-1.51-.09-.56-.2-1.14-.33-1.73-.13-.59-.28-1.13-.45-1.63Zm.02,5.24h8.53v2.33h-8.53v-2.33Zm3.16-6.84h2.29v19.39h-2.29v-19.39Zm2.27,9.28c.11.11.27.28.49.52.21.24.45.5.72.8.26.3.52.6.76.89.24.3.46.57.67.8.2.24.34.42.43.54l-1.52,1.96c-.14-.3-.32-.66-.54-1.07-.22-.41-.46-.83-.73-1.27-.26-.44-.52-.85-.77-1.24-.25-.39-.46-.71-.64-.96l1.14-.98Zm1.39-8.24l2.1.46c-.17.57-.35,1.15-.54,1.75-.19.6-.39,1.17-.58,1.72-.19.55-.37,1.03-.54,1.45l-1.58-.46c.15-.44.3-.95.45-1.53.15-.58.28-1.16.41-1.76.12-.6.22-1.14.29-1.62Zm1.67,11.88l10.69-1.91.37,2.31-10.69,1.93-.37-2.33Zm.23-4.95l1.17-1.79c.42.21.85.45,1.29.74.44.28.87.57,1.27.85.4.28.73.56.98.82l-1.27,2c-.22-.26-.53-.55-.92-.86-.39-.31-.8-.62-1.24-.94-.44-.31-.86-.59-1.28-.82Zm.94-5.24l1.23-1.69c.39.22.79.48,1.22.77.42.29.83.59,1.21.89.38.31.68.59.91.85l-1.29,1.87c-.21-.28-.5-.58-.86-.89-.37-.32-.76-.64-1.17-.96-.42-.32-.83-.6-1.23-.85Zm5.06-2.83h2.33v19.54h-2.33v-19.54Z"/>
        <path class="cls-4" d="m374.45,115.76c-2.84,0-5.45-.89-7.8-2.67-2.36-1.78-4.24-4.29-5.64-7.53-1.4-3.24-2.11-7.06-2.11-11.46s.69-8.21,2.08-11.43c1.38-3.22,3.25-5.71,5.59-7.47,2.34-1.76,4.93-2.64,7.78-2.64s5.49.88,7.83,2.64c2.34,1.76,4.2,4.25,5.59,7.47,1.38,3.22,2.08,7.05,2.08,11.49s-.69,8.22-2.08,11.46c-1.39,3.24-3.24,5.74-5.56,7.5-2.32,1.76-4.91,2.64-7.75,2.64Zm-.11-6.48c1.87,0,3.49-.56,4.86-1.68,1.37-1.12,2.44-2.8,3.21-5.04.77-2.24,1.16-5.06,1.16-8.46s-.39-6.16-1.16-8.4c-.77-2.24-1.85-3.91-3.24-5.01-1.39-1.1-3-1.65-4.83-1.65s-3.45.55-4.83,1.65c-1.39,1.1-2.46,2.76-3.21,4.98-.76,2.22-1.13,5.03-1.13,8.43s.38,6.22,1.13,8.46c.76,2.24,1.83,3.92,3.21,5.04,1.38,1.12,3,1.68,4.83,1.68Z"/>
        <path class="cls-4" d="m396.83,92.73h20.38v3.09h-17.26v19.66h-3.12v-22.75Zm1.69,9.67h18.75v3.07h-18.75v-3.07Zm7.59-7.98h3.12v9.52h-3.12v-9.52Zm9.62-1.69h3.15v19.11c0,.83-.1,1.49-.31,1.96-.21.48-.58.85-1.12,1.1-.54.26-1.21.42-2.01.48-.81.06-1.79.09-2.95.09-.05-.29-.14-.63-.26-1.01-.12-.38-.26-.76-.42-1.13-.16-.37-.31-.7-.47-.97.5.03,1.01.06,1.52.07.51,0,.97.01,1.37.01h.83c.24-.02.42-.07.52-.17.1-.1.16-.26.16-.48v-19.06Z"/>
      </g>
      <circle class="cls-1" cx="544.5" cy="75.5" r="75.5"/>
      <g>
        <path class="cls-4" d="m519.04,51.48c.8-.16,1.72-.36,2.74-.6,1.02-.24,2.11-.5,3.26-.77,1.15-.28,2.29-.56,3.42-.84l.34,2.75c-1,.3-2.02.59-3.07.89-1.05.3-2.07.58-3.05.85-.98.27-1.9.52-2.75.75l-.89-3.02Zm1.7-17.68h2.8v18.27l-2.8.47v-18.74Zm1.3,0h8.29v12.1h-8.29v-2.73h5.56v-6.64h-5.56v-2.73Zm.02,4.77h6.52v2.58h-6.52v-2.58Zm3.07,8.97l2.36-1.16c.52.69,1.04,1.44,1.54,2.25s.95,1.61,1.35,2.4c.4.79.7,1.5.9,2.14l-2.61,1.3c-.16-.62-.43-1.34-.81-2.14-.38-.8-.8-1.63-1.28-2.47-.48-.84-.96-1.62-1.45-2.32Zm6.56-13.79h8.09v2.98h-5.09v18.91h-3v-21.88Zm6.49,0h3.07v14.9c0,.7-.08,1.3-.23,1.78-.16.48-.46.86-.9,1.14-.44.26-.96.43-1.56.5-.6.07-1.3.11-2.1.11-.03-.3-.1-.64-.2-1.05-.1-.4-.22-.79-.37-1.18-.15-.38-.29-.72-.44-1,.48.03.94.05,1.39.05s.77,0,.95-.02c.15,0,.25-.03.31-.09.06-.06.09-.17.09-.33v-14.83Z"/>
        <path class="cls-4" d="m551.62,34.07h17.16v21.27h-3.17v-18.29h-10.97v18.34h-3.02v-21.32Zm2.07,8.26h13.23v2.9h-13.23v-2.9Zm0,8.46h13.25v2.98h-13.25v-2.98Z"/>
        <path class="cls-4" d="m510.17,69.72c-.11.17-.28.44-.5.79-.22.36-.38.69-.5.99-.4.89-.88,1.88-1.46,2.98-.58,1.1-1.23,2.2-1.96,3.31-.73,1.11-1.5,2.14-2.31,3.11-1.06,1.19-2.23,2.37-3.5,3.53-1.28,1.16-2.62,2.23-4.03,3.21-1.41.97-2.85,1.81-4.33,2.51l-2.92-3.06c1.53-.59,3.02-1.32,4.45-2.21,1.44-.89,2.77-1.85,4-2.89,1.23-1.04,2.29-2.05,3.18-3.04.62-.72,1.21-1.48,1.77-2.3.56-.81,1.05-1.62,1.49-2.43.43-.8.76-1.55.96-2.23h-9.62c-.4,0-.81.01-1.25.04-.44.03-.85.06-1.23.09-.39.03-.69.05-.89.07v-4.03c.28.02.63.05,1.05.09.42.04.84.07,1.26.09.43.02.78.03,1.06.03h10.02c.62,0,1.2-.04,1.72-.11.52-.08.92-.16,1.21-.26l2.33,1.73Zm-6.35,8.82c.74.59,1.52,1.27,2.35,2.04.83.78,1.65,1.58,2.47,2.41.81.83,1.56,1.63,2.26,2.4s1.27,1.43,1.75,2l-3.23,2.81c-.7-.96-1.5-1.97-2.4-3.01-.9-1.04-1.84-2.08-2.84-3.11-.99-1.03-2-2.01-3.02-2.94l2.67-2.61Z"/>
        <path class="cls-4" d="m525.01,67.19c-.08.44-.13.94-.17,1.5-.04.57-.06,1.05-.06,1.45v14.33c0,.61.15,1.02.45,1.25s.77.41,1.39.54c.44.06.94.1,1.5.13.57.03,1.16.04,1.79.04.74,0,1.56-.02,2.45-.07.9-.05,1.81-.11,2.72-.18.92-.08,1.78-.18,2.6-.31.81-.13,1.51-.27,2.1-.43v4.14c-.89.13-1.92.24-3.09.33-1.17.09-2.37.15-3.59.2-1.22.05-2.36.07-3.42.07-.93,0-1.8-.03-2.62-.09-.82-.06-1.54-.13-2.14-.23-1.23-.25-2.18-.71-2.87-1.4-.68-.69-1.02-1.64-1.02-2.85v-15.46c0-.21,0-.49-.03-.85-.02-.36-.04-.73-.07-1.11-.03-.38-.07-.71-.13-.99h4.2Zm-1.87,8.71c.91-.19,1.87-.42,2.89-.7,1.02-.27,2.05-.57,3.09-.89,1.04-.32,2.03-.65,2.96-.98.94-.33,1.77-.66,2.51-.98.51-.19,1.02-.41,1.52-.65.5-.25,1.03-.54,1.57-.88l1.53,3.6c-.55.21-1.12.44-1.72.7-.6.26-1.13.47-1.6.64-.83.32-1.78.66-2.85,1.02-1.07.36-2.18.71-3.33,1.06-1.15.35-2.29.68-3.42.98-1.13.3-2.17.57-3.13.79l-.03-3.72Zm13.36-7.09c0-.62.15-1.19.45-1.7.3-.51.71-.92,1.22-1.23.51-.31,1.08-.47,1.7-.47s1.19.16,1.7.47c.51.31.92.72,1.23,1.23.31.51.47,1.08.47,1.7s-.16,1.19-.47,1.7c-.31.51-.72.92-1.23,1.23-.51.31-1.08.47-1.7.47s-1.19-.16-1.7-.47c-.51-.31-.92-.72-1.22-1.23-.3-.51-.45-1.08-.45-1.7Zm1.76,0c0,.45.16.84.47,1.16.31.32.7.48,1.15.48s.84-.16,1.16-.48c.32-.32.48-.71.48-1.16s-.16-.84-.48-1.16c-.32-.32-.71-.48-1.16-.48s-.84.16-1.15.48c-.31.32-.47.71-.47,1.16Z"/>
        <path class="cls-4" d="m548.69,75.82c.34.02.78.04,1.31.07.53.03,1.08.05,1.66.07.58.02,1.11.03,1.6.03h15.23c.66,0,1.29-.02,1.87-.07.59-.05,1.07-.08,1.45-.1v4.45c-.32-.02-.8-.05-1.45-.09-.64-.04-1.27-.06-1.87-.06h-15.23c-.81,0-1.65.01-2.5.04-.85.03-1.54.06-2.07.1v-4.45Z"/>
        <path class="cls-4" d="m583.9,86.66v-16.31c0-.51-.02-1.09-.07-1.73-.05-.64-.12-1.21-.21-1.7h4.43c-.06.49-.11,1.04-.17,1.65-.06.61-.09,1.2-.09,1.79v16.31c0,.25.01.61.04,1.09s.07.98.11,1.49c.05.51.09.96.13,1.36h-4.45c.09-.55.17-1.21.21-1.97.05-.77.07-1.42.07-1.97Zm3.06-12.4c.95.25,2,.56,3.16.95,1.16.39,2.34.8,3.53,1.25,1.19.44,2.32.88,3.38,1.31,1.06.43,1.93.81,2.61,1.15l-1.59,3.94c-.81-.43-1.7-.86-2.67-1.28-.96-.42-1.94-.83-2.94-1.23-.99-.41-1.96-.78-2.91-1.12-.95-.34-1.81-.63-2.58-.88v-4.09Zm8.26-6.41c.26.38.56.82.88,1.33.32.51.63,1.02.92,1.53.29.51.55.98.78,1.42l-2.47,1.11c-.27-.61-.52-1.14-.78-1.62-.26-.47-.52-.93-.78-1.38-.27-.44-.58-.91-.94-1.4l2.38-.99Zm3.72-1.56c.28.38.59.81.92,1.31.33.49.65.99.96,1.49.31.5.57.97.78,1.4l-2.38,1.16c-.3-.61-.59-1.14-.87-1.6-.27-.46-.55-.91-.82-1.33-.27-.43-.59-.87-.95-1.32l2.35-1.11Z"/>
        <path class="cls-4" d="m526.44,107.69l2.88.39c-.41,2.38-.98,4.54-1.72,6.48-.74,1.94-1.66,3.66-2.78,5.16-1.11,1.5-2.47,2.78-4.06,3.85-.11-.2-.29-.44-.53-.74-.24-.3-.49-.59-.75-.87-.26-.29-.5-.52-.71-.7,1.51-.87,2.77-1.96,3.79-3.28,1.02-1.32,1.84-2.84,2.47-4.56.63-1.72,1.1-3.63,1.41-5.73Zm-6.98-3.22h11.7v2.73h-11.7v-2.73Zm.47,6.2l2.09-1.7c.72.79,1.47,1.62,2.24,2.51.77.89,1.52,1.79,2.25,2.7.73.92,1.38,1.81,1.96,2.67.57.86,1.04,1.66,1.4,2.4l-2.34,2.02c-.33-.74-.77-1.55-1.33-2.43-.56-.89-1.18-1.8-1.88-2.75-.7-.95-1.42-1.89-2.16-2.82-.75-.93-1.49-1.79-2.23-2.59Zm3.84-9.98h2.83v5.46h-2.83v-5.46Zm6.34,11.38l2.36-1.13c.39.54.77,1.12,1.14,1.75.37.62.69,1.23.97,1.83.28.6.48,1.15.61,1.66l-2.56,1.28c-.11-.48-.3-1.02-.55-1.65-.25-.62-.55-1.26-.9-1.92-.34-.66-.71-1.26-1.08-1.82Zm.25-5.93h11.75v2.83h-11.75v-2.83Zm6.2-5.48h2.93v19.42c0,.84-.09,1.49-.27,1.95-.18.47-.51.82-.98,1.07-.48.26-1.08.43-1.82.52-.74.08-1.62.12-2.66.12-.02-.3-.07-.63-.17-1.01-.1-.38-.21-.76-.34-1.14-.13-.38-.26-.73-.39-1.02.69.03,1.33.05,1.92.05h1.2c.21,0,.36-.04.46-.11.09-.07.14-.22.14-.43v-19.42Z"/>
        <path class="cls-4" d="m550.56,103.56h2.95v6.2c0,1-.04,2.1-.11,3.31s-.2,2.44-.38,3.71c-.18,1.27-.44,2.5-.77,3.7-.34,1.2-.78,2.28-1.34,3.25-.18-.16-.43-.36-.75-.58-.32-.22-.64-.43-.97-.64-.33-.21-.61-.36-.84-.45.51-.89.91-1.85,1.21-2.9.29-1.05.51-2.12.65-3.22.14-1.1.23-2.18.28-3.23.05-1.06.07-2.04.07-2.94v-6.2Zm1.38,0h19.42v2.8h-19.42v-2.8Zm2.93,9.42l2.66.57c-.08.93-.2,1.9-.34,2.9-.15,1-.34,1.95-.58,2.84-.24.89-.55,1.68-.92,2.35l-2.61-1.18c.34-.64.63-1.36.87-2.16.24-.8.43-1.66.58-2.58.15-.92.26-1.83.34-2.73Zm3.49-1.89h2.93v8.56c0,.46.05.75.16.86.11.11.32.17.65.17h1.99c.25,0,.43-.09.57-.28.13-.19.23-.57.28-1.14.06-.57.1-1.43.14-2.56.21.16.47.33.77.49.3.16.62.3.95.42.33.11.61.21.86.3-.08,1.39-.23,2.48-.46,3.27-.22.79-.55,1.34-1,1.66-.44.32-1.06.48-1.84.48h-2.73c-.87,0-1.54-.11-2-.33-.47-.22-.8-.6-.98-1.14-.19-.54-.28-1.26-.28-2.16v-8.58Zm.17-2.75l1.99-1.94c.66.31,1.36.67,2.11,1.08.75.41,1.48.84,2.16,1.28.69.44,1.25.85,1.7,1.23l-2.11,2.21c-.39-.39-.92-.82-1.59-1.29-.66-.47-1.37-.93-2.11-1.38-.75-.45-1.46-.85-2.15-1.19Zm.84-7.67h3.07v4.5h-3.07v-4.5Zm6.69,12.66l2.63-1.01c.49.84.97,1.74,1.43,2.72.46.98.86,1.93,1.19,2.85.34.93.56,1.77.68,2.52l-2.9,1.2c-.08-.74-.27-1.59-.58-2.54-.3-.96-.67-1.93-1.09-2.93-.43-.99-.88-1.93-1.35-2.82Z"/>
      </g>
      <circle class="cls-5" cx="75.5" cy="75.5" r="75.5"/>
      <g>
        <path class="cls-4" d="m26.86,40.26h14.52v16.14h-2.54v-13.84h-9.56v13.88h-2.42v-16.18Zm1.62,4.36h10.88v2.22h-10.88v-2.22Zm0,4.28h10.88v2.22h-10.88v-2.22Zm0,4.3h10.88v2.22h-10.88v-2.22Zm4.06-15.56l2.9.32c-.24.65-.49,1.29-.76,1.92-.27.63-.51,1.17-.74,1.62l-2.2-.4c.11-.33.21-.7.32-1.11.11-.41.2-.81.29-1.22.09-.41.15-.78.19-1.13Z"/>
        <path class="cls-4" d="m61.8,43.68l2.34,1.12c-1.24,1.92-2.73,3.62-4.47,5.09-1.74,1.47-3.66,2.74-5.75,3.8-2.09,1.06-4.29,1.93-6.6,2.61-.11-.2-.26-.44-.46-.71-.2-.27-.4-.54-.61-.81s-.4-.49-.57-.68c2.33-.59,4.52-1.36,6.56-2.31,2.04-.95,3.87-2.11,5.5-3.46,1.63-1.35,2.98-2.9,4.06-4.65Zm-15.82,5.36c1.09-.05,2.38-.11,3.85-.18,1.47-.07,3.04-.15,4.7-.24,1.66-.09,3.3-.19,4.93-.28l-.02,2.04c-1.55.13-3.11.26-4.68.39-1.57.13-3.08.24-4.53.35-1.45.11-2.75.2-3.91.28l-.34-2.36Zm2.96-9.46h10.16v2.06h-7.74v8.48h-2.42v-10.54Zm1.54,3.22h8.9v1.72h-8.9v-1.72Zm0,2.92h8.9v1.74h-8.9v-1.74Zm3.26-8.12l2.96.32c-.31.61-.64,1.21-.99,1.8-.35.59-.68,1.08-.97,1.48l-2.14-.44c.23-.47.45-.99.66-1.57.21-.58.37-1.11.48-1.59Zm4.56,1.98h2.5v13.94c0,.69-.08,1.23-.24,1.61s-.47.68-.92.89c-.44.2-.99.33-1.66.38-.67.05-1.48.07-2.44.06-.04-.24-.1-.51-.19-.82-.09-.31-.19-.61-.3-.91-.11-.3-.23-.56-.35-.79.41.03.83.04,1.25.05.42,0,.79,0,1.12,0,.33,0,.56-.01.71-.01.19,0,.32-.03.4-.1.08-.07.12-.19.12-.38v-13.92Z"/>
        <path class="cls-4" d="m77.8,40.96c-.13,1.01-.31,2.09-.52,3.24-.21,1.15-.5,2.31-.86,3.48-.39,1.35-.84,2.51-1.36,3.48-.52.97-1.09,1.72-1.71,2.25-.62.53-1.3.79-2.03.79s-1.41-.25-2.03-.75-1.11-1.19-1.48-2.07c-.37-.88-.55-1.88-.55-3s.23-2.25.7-3.28c.47-1.03,1.12-1.94,1.95-2.73.83-.79,1.81-1.42,2.92-1.87,1.11-.45,2.32-.68,3.61-.68s2.36.2,3.35.6,1.84.95,2.55,1.66c.71.71,1.25,1.53,1.62,2.48.37.95.56,1.97.56,3.06,0,1.4-.29,2.65-.86,3.76-.57,1.11-1.42,2.02-2.55,2.74-1.13.72-2.53,1.21-4.21,1.48l-1.5-2.38c.39-.04.73-.09,1.02-.14.29-.05.57-.11.84-.18.64-.16,1.24-.39,1.79-.69.55-.3,1.04-.67,1.45-1.12.41-.45.74-.97.97-1.57.23-.6.35-1.26.35-1.98,0-.79-.12-1.51-.36-2.16-.24-.65-.59-1.22-1.06-1.71-.47-.49-1.03-.86-1.7-1.12s-1.43-.39-2.3-.39c-1.07,0-2.01.19-2.82.57s-1.5.87-2.06,1.47c-.56.6-.98,1.25-1.27,1.94-.29.69-.43,1.35-.43,1.98,0,.67.08,1.22.24,1.67.16.45.36.78.59,1s.48.33.75.33c.28,0,.56-.14.83-.43.27-.29.54-.72.81-1.31.27-.59.53-1.33.8-2.22.31-.96.57-1.99.78-3.08.21-1.09.37-2.16.46-3.2l2.72.08Z"/>
        <path class="cls-4" d="m87.4,47.82c.81-.19,1.79-.43,2.93-.72,1.14-.29,2.28-.6,3.43-.92l.3,2.16c-1.05.31-2.12.62-3.19.93-1.07.31-2.06.6-2.95.85l-.52-2.3Zm.32-6.36h6.18v2.2h-6.18v-2.2Zm2.26-3.78h2.2v16.12c0,.55-.06.98-.17,1.31-.11.33-.32.58-.63.77-.31.17-.68.29-1.13.36-.45.07-1,.09-1.65.08-.03-.29-.1-.66-.22-1.09-.12-.43-.25-.81-.4-1.13.36.01.7.02,1.01.03.31,0,.53,0,.65-.01.12,0,.21-.02.26-.07.05-.05.08-.14.08-.27v-16.1Zm4.22,6.18h12.18v2.18h-12.18v-2.18Zm.18,3.78h11.86v2.16h-11.86v-2.16Zm.66-7.7h10.46v2.18h-10.46v-2.18Zm.42,11.02l1.9-1.06c.29.33.59.7.88,1.11.29.41.56.81.8,1.2.24.39.43.76.58,1.09l-2.06,1.18c-.11-.32-.27-.68-.5-1.09-.23-.41-.48-.82-.75-1.25-.27-.43-.56-.82-.85-1.18Zm6.28-5.28h2.28v8.26c0,.59-.07,1.04-.2,1.37-.13.33-.39.58-.78.77-.37.17-.83.28-1.37.32s-1.17.06-1.89.06c-.04-.33-.13-.72-.26-1.15-.13-.43-.27-.8-.42-1.11.45.01.91.02,1.36.03.45,0,.75,0,.88,0,.16,0,.27-.02.32-.07.05-.05.08-.14.08-.27v-8.2Zm-2.58-7.92h2.28v7.24h-2.28v-7.24Z"/>
        <path class="cls-4" d="m114.12,37.92l2.6.76c-.49,1.16-1.08,2.28-1.77,3.36s-1.43,2.07-2.22,2.98c-.79.91-1.62,1.69-2.47,2.36-.15-.17-.35-.38-.6-.63-.25-.25-.51-.49-.77-.73-.26-.24-.49-.43-.69-.58.83-.56,1.62-1.23,2.37-2.01.75-.78,1.44-1.64,2.05-2.58.61-.94,1.11-1.92,1.5-2.93Zm1.32,7.78h2.62c-.09,1.12-.25,2.21-.46,3.28-.21,1.07-.56,2.07-1.05,3.02-.49.95-1.19,1.81-2.1,2.59-.91.78-2.12,1.44-3.61,1.99-.09-.23-.23-.47-.4-.74-.17-.27-.36-.53-.56-.79-.2-.26-.4-.48-.6-.67,1.35-.43,2.41-.96,3.2-1.59.79-.63,1.38-1.33,1.78-2.08.4-.75.68-1.56.83-2.41.15-.85.27-1.72.35-2.6Zm-3.56-.68h10.82v2.32h-10.82v-2.32Zm10.02,0h2.52v.63c0,.17,0,.3-.02.41-.05,1.51-.11,2.8-.18,3.89-.07,1.09-.14,1.99-.23,2.71s-.19,1.29-.31,1.72c-.12.43-.27.75-.44.96-.27.32-.54.55-.83.68-.29.13-.62.23-1.01.28-.33.05-.77.08-1.32.09-.55,0-1.12,0-1.72-.03-.01-.36-.09-.77-.24-1.23-.15-.46-.33-.86-.54-1.19.56.04,1.08.07,1.56.08.48.01.84.02,1.08.02.19,0,.34-.02.46-.05.12-.03.24-.11.36-.23.16-.17.29-.56.39-1.15.1-.59.19-1.47.27-2.64.08-1.17.15-2.68.2-4.53v-.42Zm-.16-7.14c.32.64.71,1.29,1.16,1.96.45.67.95,1.32,1.49,1.95.54.63,1.09,1.23,1.66,1.79.57.56,1.12,1.05,1.67,1.46-.21.16-.45.37-.71.63-.26.26-.51.52-.74.79-.23.27-.43.51-.59.74-.56-.52-1.13-1.1-1.7-1.75-.57-.65-1.14-1.33-1.69-2.06-.55-.73-1.08-1.48-1.57-2.26-.49-.78-.94-1.55-1.34-2.31l2.36-.94Z"/>
        <path class="cls-4" d="m43.36,67.92c-.08.28-.16.61-.25.99s-.15.68-.19.91c-.09.45-.21,1.01-.35,1.66-.14.65-.29,1.34-.45,2.07-.16.73-.33,1.43-.5,2.11-.19.69-.4,1.45-.65,2.28-.25.83-.51,1.66-.8,2.5-.29.84-.58,1.65-.87,2.42-.29.77-.58,1.46-.86,2.06l-2.8-.94c.31-.51.62-1.13.95-1.86.33-.73.65-1.52.97-2.35.32-.83.61-1.67.88-2.5.27-.83.49-1.6.68-2.29.12-.48.24-.97.36-1.46.12-.49.23-.97.33-1.44.1-.47.19-.9.26-1.31.07-.41.13-.76.17-1.05.04-.37.07-.75.08-1.12.01-.37,0-.68-.02-.92l3.06.24Zm-5.1,3c.81,0,1.66-.04,2.54-.12.88-.08,1.77-.2,2.66-.35.89-.15,1.78-.33,2.66-.53v2.5c-.83.2-1.71.37-2.64.5-.93.13-1.85.24-2.76.31-.91.07-1.74.11-2.5.11-.48,0-.91-.01-1.3-.03s-.76-.04-1.12-.05l-.06-2.5c.52.05.97.09,1.34.12.37.03.77.04,1.18.04Zm7.36,8.08c-.08.28-.15.57-.2.88-.05.31-.08.57-.08.78,0,.23.05.43.14.62.09.19.24.35.44.49.2.14.48.25.83.32.35.07.8.11,1.33.11.67,0,1.35-.03,2.04-.1.69-.07,1.4-.17,2.12-.3l-.1,2.54c-.56.08-1.18.15-1.86.21-.68.06-1.42.09-2.22.09-1.68,0-2.96-.28-3.85-.84-.89-.56-1.33-1.34-1.33-2.34,0-.47.04-.93.11-1.4.07-.47.15-.89.23-1.28l2.4.22Zm-1.08-5.02c.56-.07,1.18-.12,1.86-.15.68-.03,1.34-.05,1.98-.05.57,0,1.16.01,1.75.04.59.03,1.18.07,1.77.14l-.06,2.4c-.49-.07-1.04-.13-1.63-.18-.59-.05-1.2-.08-1.81-.08-.69,0-1.35.02-1.98.05-.63.03-1.25.09-1.88.17v-2.34Zm5.22-5.48c.17.24.36.53.55.86.19.33.38.67.57,1,.19.33.34.63.46.88l-1.6.7c-.13-.28-.29-.59-.46-.92-.17-.33-.35-.67-.54-1-.19-.33-.37-.62-.56-.86l1.58-.66Zm2.36-.9c.19.24.38.53.58.87.2.34.4.67.59,1,.19.33.34.61.45.85l-1.58.68c-.21-.43-.47-.9-.76-1.42-.29-.52-.58-.97-.86-1.34l1.58-.64Z"/>
        <path class="cls-4" d="m61.1,68.1c-.08.24-.17.52-.26.83-.09.31-.17.58-.22.79-.12.55-.25,1.2-.38,1.97-.13.77-.25,1.56-.34,2.39-.09.83-.14,1.64-.14,2.43s.07,1.5.2,2.11c.13-.31.29-.68.46-1.11.17-.43.34-.84.5-1.21l1.24.8c-.19.57-.37,1.16-.55,1.77-.18.61-.34,1.18-.47,1.72-.13.54-.25,1-.34,1.39-.04.15-.07.32-.09.51-.02.19-.03.35-.03.47,0,.09,0,.22,0,.38,0,.16.02.31.03.44l-2.22.22c-.15-.4-.31-.95-.49-1.65-.18-.7-.33-1.47-.46-2.32-.13-.85-.19-1.68-.19-2.51,0-1.09.04-2.15.11-3.16.07-1.01.16-1.94.27-2.77.11-.83.19-1.52.26-2.05.05-.28.09-.58.1-.89.01-.31.03-.6.04-.85l2.96.3Zm2.06,3.56c.32.04.65.08.98.11.33.03.67.06,1.01.08.34.02.68.03,1.03.03.87,0,1.77-.02,2.72-.06.95-.04,1.86-.1,2.74-.19.88-.09,1.65-.19,2.3-.31l-.02,2.6c-.63.07-1.37.13-2.22.19-.85.06-1.75.11-2.69.14-.94.03-1.86.05-2.77.05-.28,0-.6,0-.96-.02-.36-.01-.72-.03-1.08-.04-.36-.01-.71-.03-1.04-.04v-2.54Zm7.88-3.9c-.03.21-.05.44-.06.67-.01.23-.03.46-.04.69-.01.19-.02.47,0,.85,0,.38,0,.81,0,1.28v1.44c0,.49,0,.94,0,1.35,0,.41,0,.73,0,.96,0,1.19-.04,2.26-.13,3.23-.09.97-.27,1.86-.56,2.67-.29.81-.72,1.57-1.3,2.26-.58.69-1.37,1.36-2.37,2l-2.3-1.82c.37-.16.79-.39,1.24-.69s.81-.6,1.08-.91c.39-.4.7-.82.94-1.26.24-.44.43-.93.57-1.46.14-.53.23-1.13.28-1.78.05-.65.07-1.41.07-2.26v-1.36c0-.55,0-1.11-.02-1.7-.01-.59-.03-1.13-.04-1.63-.01-.5-.03-.88-.06-1.15-.01-.25-.04-.51-.09-.76-.05-.25-.09-.46-.13-.62h2.9Z"/>
        <path class="cls-4" d="m77.86,69.94c.4-.01.78-.03,1.14-.05.36-.02.63-.04.82-.05.41-.03.92-.07,1.53-.13.61-.06,1.29-.12,2.04-.19.75-.07,1.56-.13,2.41-.2.85-.07,1.74-.14,2.66-.22.69-.07,1.38-.12,2.07-.17.69-.05,1.34-.09,1.96-.12.62-.03,1.16-.06,1.63-.07l.02,2.56c-.36,0-.77,0-1.24.02-.47.01-.93.04-1.39.07-.46.03-.87.1-1.23.19-.6.16-1.16.43-1.68.81-.52.38-.97.83-1.35,1.34-.38.51-.68,1.07-.89,1.66-.21.59-.32,1.19-.32,1.79,0,.65.12,1.23.35,1.73.23.5.55.93.96,1.28.41.35.88.65,1.43.88.55.23,1.14.41,1.77.53.63.12,1.29.2,1.97.24l-.94,2.74c-.84-.05-1.66-.19-2.45-.4-.79-.21-1.54-.51-2.23-.88s-1.3-.83-1.81-1.37c-.51-.54-.92-1.16-1.22-1.86-.3-.7-.45-1.48-.45-2.35,0-.96.15-1.84.46-2.65.31-.81.69-1.51,1.15-2.12.46-.61.92-1.08,1.37-1.41-.37.05-.82.11-1.35.16-.53.05-1.09.12-1.7.19-.61.07-1.22.15-1.85.23-.63.08-1.23.17-1.81.27s-1.1.2-1.57.29l-.26-2.74Zm13.42,3.32c.17.24.36.52.55.85.19.33.38.65.57.98.19.33.35.62.48.89l-1.52.68c-.25-.56-.5-1.05-.73-1.48-.23-.43-.51-.86-.83-1.3l1.48-.62Zm2.24-.92c.17.24.36.52.57.83.21.31.41.63.61.96.2.33.37.62.5.87l-1.5.72c-.27-.53-.52-1.01-.77-1.42-.25-.41-.54-.84-.87-1.28l1.46-.68Z"/>
        <path class="cls-4" d="m99.3,75.08c.72.24,1.45.43,2.19.56.74.13,1.47.22,2.2.27.73.05,1.42.07,2.09.07.61,0,1.28-.02,1.99-.06.71-.04,1.39-.1,2.03-.18l-.06,2.38c-.56.05-1.13.1-1.72.13-.59.03-1.19.05-1.82.05-1.33,0-2.61-.07-3.84-.21-1.23-.14-2.29-.34-3.2-.59l.14-2.42Zm.42-4.96c.6.19,1.25.34,1.96.47.71.13,1.43.22,2.18.28.75.06,1.45.09,2.12.09.79,0,1.52-.03,2.2-.08.68-.05,1.27-.12,1.78-.2l-.08,2.38c-.6.05-1.2.1-1.8.14-.6.04-1.32.06-2.16.06-.68,0-1.39-.04-2.12-.11-.73-.07-1.46-.17-2.18-.3-.72-.13-1.39-.27-2.02-.43l.12-2.3Zm7.14-2.48c-.08.36-.15.68-.2.96-.05.28-.1.55-.14.82-.05.28-.12.68-.19,1.21-.07.53-.15,1.12-.24,1.78s-.17,1.35-.26,2.06c-.09.71-.17,1.41-.25,2.09-.08.68-.14,1.3-.19,1.86-.05.56-.07,1.01-.07,1.34,0,.83.25,1.46.75,1.89.5.43,1.24.65,2.23.65.93,0,1.72-.13,2.36-.39s1.13-.61,1.46-1.05c.33-.44.5-.93.5-1.48,0-.68-.18-1.34-.53-1.99-.35-.65-.86-1.28-1.53-1.89l2.82-.6c.67.84,1.16,1.64,1.47,2.39.31.75.47,1.56.47,2.41,0,1-.29,1.89-.86,2.68-.57.79-1.39,1.4-2.45,1.84-1.06.44-2.32.66-3.79.66-1.04,0-1.97-.16-2.78-.48-.81-.32-1.45-.83-1.9-1.52-.45-.69-.68-1.59-.68-2.7,0-.41.03-.96.1-1.65.07-.69.15-1.45.25-2.28.1-.83.2-1.68.31-2.54.11-.86.2-1.68.29-2.45.09-.77.16-1.44.21-2,.03-.47.04-.82.05-1.07,0-.25,0-.48-.03-.71l2.82.16Z"/>
        <path class="cls-4" d="m29.99,110.08h3.22c-.09,1.3-.26,2.49-.52,3.56-.26,1.07-.69,2.04-1.29,2.89-.6.85-1.45,1.59-2.55,2.22-1.1.63-2.54,1.17-4.33,1.6-.09-.28-.23-.58-.42-.91-.19-.33-.4-.65-.64-.98-.23-.32-.46-.59-.66-.82,1.56-.29,2.8-.67,3.72-1.12.92-.45,1.61-.99,2.08-1.61.47-.62.79-1.33.97-2.13.18-.8.32-1.7.4-2.7Zm-6.45-12.17h23.01v2.86h-23.01v-2.86Zm.34,8.55h22.33v5.59h-3.15v-2.78h-16.17v2.78h-3.02v-5.59Zm2.16-4h18.15v2.7h-18.15v-2.7Zm7.25-6.58h3.25v8.09h-3.25v-8.09Zm3.12,14.2h3.12v6.14c0,.4.06.65.19.77.13.11.43.17.9.17h2.63c.29,0,.52-.07.66-.22.15-.15.25-.44.31-.88s.11-1.1.14-1.99c.21.16.48.31.82.47.34.16.68.29,1.04.4.36.11.67.21.95.3-.1,1.25-.29,2.21-.55,2.9-.26.68-.63,1.16-1.12,1.43-.49.27-1.14.4-1.98.4h-3.35c-1,0-1.78-.11-2.33-.34-.55-.23-.92-.61-1.13-1.16-.21-.55-.31-1.29-.31-2.22v-6.16Z"/>
        <path class="cls-4" d="m50.11,105.66h13.08v2.89h-13.08v-2.89Zm0,9.18c.9-.09,1.93-.19,3.09-.31,1.16-.12,2.39-.25,3.68-.39,1.29-.14,2.58-.28,3.86-.42l.13,2.76c-1.82.26-3.64.51-5.45.74s-3.44.45-4.88.64l-.44-3.02Zm.86-15.31h11.41v2.83h-11.41v-2.83Zm2.96,7.9l3.3.88c-.31.9-.65,1.83-1.01,2.78-.36.95-.72,1.86-1.07,2.73-.35.87-.69,1.63-1.01,2.29l-2.55-.81c.29-.71.59-1.52.88-2.43s.57-1.84.83-2.8c.26-.95.47-1.84.62-2.65Zm1.3-11.6h3.04v11.36h-3.04v-11.36Zm2.5,15.29l2.52-1.01c.47.76.93,1.59,1.39,2.48.46.89.87,1.76,1.24,2.6.36.84.63,1.6.81,2.28l-2.76,1.14c-.14-.64-.38-1.39-.73-2.25-.35-.86-.73-1.75-1.16-2.67-.42-.92-.86-1.78-1.31-2.57Zm6.27-13.73h7.9v2.94h-4.86v19.94h-3.04v-22.88Zm6.45,0h3.04v15.31c0,.71-.07,1.3-.22,1.78-.15.48-.45.84-.9,1.1-.42.28-.92.45-1.51.52-.59.07-1.27.1-2.05.1-.04-.29-.1-.64-.21-1.04-.1-.4-.23-.79-.36-1.17-.14-.38-.28-.71-.42-.99.45.02.9.03,1.34.03h.9c.14,0,.24-.03.3-.09.06-.06.09-.17.09-.32v-15.24Z"/>
        <path class="cls-4" d="m77.88,97.58h23.56v3.17h-23.56v-3.17Zm2.42,6.08h3.02v12.12h-3.02v-12.12Zm1.27,0h9.8v10.11h-9.8v-2.99h6.73v-4.16h-6.73v-2.96Zm13.57-5.2h3.28v17.86c0,.94-.12,1.66-.36,2.17-.24.51-.68.9-1.33,1.16-.62.26-1.42.42-2.39.48-.97.06-2.12.09-3.46.09-.07-.31-.17-.67-.31-1.08-.14-.41-.3-.81-.48-1.21-.18-.4-.36-.74-.53-1.01.64.02,1.29.04,1.94.05.65.02,1.24.03,1.75.03h1.09c.29,0,.5-.05.62-.16s.18-.29.18-.57v-17.81Z"/>
        <path class="cls-4" d="m104.71,101.06c.94-.03,2.01-.07,3.22-.12,1.21-.04,2.49-.1,3.82-.17,1.33-.07,2.68-.13,4.03-.18l-.03,2.73c-1.28.09-2.57.17-3.85.26-1.28.09-2.51.17-3.69.23-1.18.07-2.26.14-3.25.21l-.26-2.96Zm3.95-5.33l3.25.68c-.31.8-.65,1.6-1,2.4-.36.81-.71,1.57-1.07,2.29-.36.72-.7,1.36-1.03,1.91l-2.73-.7c.33-.59.65-1.27.97-2.03.32-.76.62-1.54.91-2.34.29-.8.52-1.53.69-2.21Zm-2.39,9.52h8.24v2.55h-5.36v12.45h-2.89v-15Zm1.3,3.93h7.23v2.31h-7.23v-2.31Zm0,3.82h7.23v2.31h-7.23v-2.31Zm5.46-7.75h3.09v11.86c0,.68-.08,1.22-.23,1.62-.16.41-.46.72-.91.95-.43.24-.95.39-1.56.44s-1.3.08-2.08.08c-.07-.42-.2-.89-.4-1.42-.2-.53-.4-.97-.61-1.34.47.02.93.03,1.38.03s.75,0,.91-.03c.17,0,.29-.03.34-.08s.08-.16.08-.31v-11.8Zm-.83-6.68l2.63-.99c.43.62.85,1.3,1.26,2.03.41.73.78,1.44,1.12,2.14.34.7.59,1.34.77,1.91l-2.86,1.12c-.14-.55-.36-1.19-.66-1.9-.3-.71-.65-1.44-1.04-2.2-.39-.75-.79-1.46-1.21-2.12Zm5.98-2.63h3.09v7.83c0,.45.07.74.21.86.14.12.45.18.94.18h2.86c.29,0,.51-.06.65-.19s.24-.39.31-.78c.07-.39.12-.97.16-1.73.21.17.48.33.81.48.33.15.67.28,1.01.4.35.12.66.22.94.29-.1,1.13-.28,2-.53,2.63-.25.62-.62,1.06-1.11,1.31-.49.25-1.14.38-1.95.38h-3.56c-1.02,0-1.81-.12-2.37-.35s-.94-.62-1.14-1.17-.31-1.3-.31-2.28v-7.85Zm0,12.17h3.09v8.19c0,.47.07.76.22.88.15.12.47.18.97.18h2.94c.31,0,.55-.08.7-.23.16-.16.27-.46.35-.91.08-.45.13-1.12.17-2,.33.24.76.47,1.3.69.54.22,1.01.38,1.43.48-.1,1.21-.28,2.16-.53,2.85-.25.68-.62,1.17-1.12,1.44-.49.28-1.16.42-1.99.42h-3.72c-1.01,0-1.79-.12-2.34-.35s-.94-.62-1.16-1.17-.33-1.3-.33-2.25v-8.22Zm7.98,1.07l2.05,2.29c-.78.43-1.64.84-2.57,1.21-.94.37-1.88.72-2.83,1.05-.95.33-1.89.62-2.81.88-.07-.29-.2-.66-.38-1.09-.18-.43-.36-.8-.53-1.09.85-.28,1.71-.6,2.57-.96.87-.36,1.69-.74,2.47-1.13s1.46-.78,2.03-1.16Zm-.18-11.7l1.98,2.29c-.78.36-1.62.71-2.51,1.05-.89.34-1.8.65-2.72.95-.92.29-1.81.55-2.68.78-.07-.29-.2-.65-.38-1.07s-.35-.77-.51-1.07c.8-.26,1.61-.55,2.44-.87.83-.32,1.62-.66,2.38-1.03s1.42-.71,1.99-1.04Z"/>
      </g>
    </g>
  </g>
</svg>