<?xml version="1.0" encoding="UTF-8"?><svg id="_レイヤー_2" xmlns="http://www.w3.org/2000/svg" viewBox="0 0 21.55 21.55"><defs><style>.cls-1{fill:#1e1e32;}</style></defs><g id="_デザイン"><path class="cls-1" d="m.57,21.55c-.15,0-.3-.06-.4-.17-.15-.15-.2-.36-.14-.56l1.61-5.54c.03-.09.08-.18.14-.25L13.69,3.12c.21-.21.59-.21.81,0l3.93,3.93c.22.22.22.59,0,.81l-11.92,11.92c-.07.07-.15.12-.24.14l-5.54,1.61c-.05.02-.11.02-.16.02Zm2.12-5.81l-1.28,4.4,4.4-1.28,11.41-11.41-3.12-3.12L2.69,15.74Z"/><path class="cls-1" d="m6.11,19.94c-.15,0-.29-.06-.4-.17l-3.93-3.93c-.22-.22-.22-.59,0-.81.22-.22.59-.22.81,0l3.93,3.93c.22.22.22.59,0,.81-.11.11-.26.17-.4.17Z"/><path class="cls-1" d="m18.03,8.03c-.15,0-.29-.06-.4-.17l-3.93-3.93c-.11-.11-.17-.25-.17-.4s.06-.3.17-.4L16.64.17c.22-.22.59-.22.81,0l3.93,3.93c.11.11.17.25.17.4s-.06.3-.17.4l-2.95,2.95c-.11.11-.26.17-.4.17Zm-3.12-4.5l3.12,3.12,2.14-2.14-3.12-3.12-2.14,2.14Z"/></g></svg>