<?xml version="1.0" encoding="UTF-8"?><svg id="_レイヤー_2" xmlns="http://www.w3.org/2000/svg" xmlns:xlink="http://www.w3.org/1999/xlink" viewBox="0 0 119.88 119.88"><defs><style>.cls-1{fill:#fff;}.cls-2{fill:#33c6e5;}.cls-3{clip-path:url(#clippath);}.cls-4{fill:#2e2e2e;}.cls-5{fill:#c6c6c6;}</style><clipPath id="clippath"><circle class="cls-1" cx="59.94" cy="59.94" r="59.94"/></clipPath></defs><g id="_デザイン"><circle class="cls-1" cx="59.94" cy="59.94" r="59.94"/><g class="cls-3"><path class="cls-2" d="m18.96,36.04c0-.07-.02-.09,0,0h0Z"/><path class="cls-2" d="m51.19,50.12c.07-.03.14-.06.18-.09-.06.04-.12.06-.18.09Z"/><path class="cls-1" d="m66.38,88.72c-4.48,1.52-9.39.9-13.55-1.25-1.99-1.03-3.82-2.4-5.41-4.01-.04,1.4-.13,2.8-.32,4.18,1.41.49,2.82.99,4.23,1.48,2.85,1,5.71,1.99,8.56,2.99.33.11.73.19,1.03.36.05.03.11.04.15.05-.53-.2-.03-.05.28-.05.2,0,.41-.01.61,0,.03-.01.06-.02.08-.03.31-.16.68-.26,1.01-.39,3.97-1.52,7.93-3.04,11.9-4.56-.18-1.43-.31-2.86-.43-4.3-2.23,2.47-5,4.45-8.16,5.53Z"/><path class="cls-2" d="m71.74,50.52s0,0,.01,0c.03,0,.07,0,.09,0-.01,0-.04,0-.05,0-.02,0-.04,0-.05,0Z"/><path class="cls-1" d="m82.92,57.45c-.53-.58-1.42-.71-1.8-.37-.89.82-2.1.09-2.24-.81-.28-.15-.51-.39-.6-.77-.79-3.5-1.72-6.97-2.75-10.41-.36-1.19-.73-2.37-1.14-3.54-.19-.56-.39-1.12-.6-1.68-.12-.33-.38-.76-.47-1.13,0,0,0-.02-.01-.02-.06-.05-.12-.11-.17-.16-.25-.23-.5-.45-.76-.68-.56-.51-1.13-1.02-1.69-1.53-.33-.3-.7-.65-1.05-.87-.94-.6-2.19-.95-3.3-1.01-2.28-.13-4.22,1.03-5.76,2.62-1.45,1.51-2.44,3.37-3.64,5.06-1.37,1.92-2.84,3.78-4.37,5.57-.02.02-.04.04-.06.07,1.35.19,2.7.41,4.05.64.72.12,1.06.98.91,1.61-.07.31-.33.62-.6.78-.32.19-.65.19-1.01.13-.22-.04-.44-.07-.65-.11-.94-.16-1.88-.31-2.83-.45-.24-.04-.49-.07-.73-.11-.03,0-.07,0-.1-.01-.06,0-.13-.02-.19-.02-.15-.02-.29-.04-.44-.05,0,0-.02,0-.03,0-.03,0-.05,0-.07,0-.13,0-.26,0-.39-.03-2.31,2.55-4.84,5-7.76,6.73-.55.32-1.25.18-1.65-.28-.92-.38-1.94-.46-2.6.39-.63.8-.81,1.95-.83,2.94-.06,2.85,1.69,6.35,4.73,6.89.41.07.84.51.91.91.31,1.77.55,3.58,1.03,5.32.88,3.19,2.63,6.12,4.94,8.48,3.98,4.07,9.82,6.46,15.49,4.95,6.19-1.65,10.83-7.35,12.47-13.38.41-1.51.64-3.07,1-4.59.14-.6.4-.96.94-1.28.88-.52,1.76-1.02,2.54-1.69,1.67-1.43,2.35-3.31,2.2-5.5-.06-.91-.3-1.92-.93-2.61Zm-29.3-.48c-1.69,0-1.68-2.62,0-2.62s1.68,2.62,0,2.62Zm7.76,8.41c1.69,0,1.68,2.62,0,2.62s-1.68-2.62,0-2.62Zm4.7,10.59c-.31.59-1.23.86-1.79.47-.27-.19-.54-.36-.83-.5-.04-.02-.32-.14-.3-.13-.12-.04-.23-.08-.35-.12-.14-.04-.29-.08-.43-.11-.04,0-.22-.04-.29-.05-.24-.02-.48-.04-.73-.03-.13,0-.25.02-.38.02-.04,0-.07,0-.09,0-.03,0-.07.01-.1.02-.29.05-.57.12-.85.21-.11.04-.21.08-.32.12-.02.01-.25.11-.29.13-.27.13-.53.29-.78.45-.61.4-1.42.1-1.79-.47-.4-.62-.1-1.41.47-1.79,2.54-1.67,5.85-1.78,8.37-.01.6.42.82,1.12.47,1.79Zm3.59-19c-1.69,0-1.68-2.62,0-2.62s1.68,2.62,0,2.62Zm3.35-7.09c-.23.44-.77.68-1.27.64,0,0-.01,0-.02,0-.03,0-.06,0-.09,0-.15.01-.31.03-.46.04-.19.02-.37.04-.56.07,0,0,0,0,0,0-.01,0-.02,0-.03,0-.11.02-.22.03-.33.05-.45.06-.9.13-1.35.2-.52.08-1.04.16-1.56.24-.73.12-1.37-.18-1.61-.91-.1-.31-.03-.73.13-1.01.15-.25.48-.55.78-.6.21-.03.41-.07.62-.1.88-.14,1.76-.27,2.64-.39.49-.07.99-.14,1.48-.19.39-.04.81-.06,1.16.16.62.4.81,1.14.47,1.79Z"/><path class="cls-2" d="m71.23,50.35s.09.05.16.08c-.05-.02-.11-.04-.16-.08Z"/><path class="cls-1" d="m45.26,90.06c-.17-.04-.32-.11-.45-.21-.42,2-.84,4-1.25,6.01.31.1.63.2.94.31,3.85,1.26,7.71,2.51,11.56,3.77.56-1.94,1.13-3.87,1.69-5.81-3.91-1.37-7.83-2.73-11.74-4.1-.25.08-.51.09-.76.03Z"/><path class="cls-5" d="m79.23,106.48c.2-.05.43-.06.69.02,1.56.46,3.12.92,4.69,1.39.31-2.41.62-4.82.92-7.23.02-.12.05-.23.09-.33-1.2-.56-2.41-1.1-3.62-1.64-1.13,2.52-1.99,5.15-2.77,7.8Z"/><path class="cls-2" d="m62.91,94.9c-.92.32-1.79.26-2.66.04-.44,1.49-.87,2.99-1.31,4.48.03.05.06.11.08.16.52,1.25,1.04,2.5,1.56,3.75h2.19c.43-1.36.87-2.71,1.3-4.07.05-.15.12-.28.2-.39-.45-1.32-.91-2.64-1.36-3.95,0,0,0-.02,0-.03Z"/><path class="cls-1" d="m70.92,91.83c-1.87.72-3.74,1.43-5.6,2.15.04.08.08.16.11.25.67,1.96,1.35,3.92,2.02,5.88.21-.07.41-.15.62-.22,3.76-1.37,7.52-2.73,11.28-4.1-.73-2.11-1.46-4.23-2.19-6.34-2.08.8-4.16,1.59-6.23,2.39Z"/><path class="cls-2" d="m71.73,50.52s0,0,.01,0c-.07,0-.15-.02-.22-.04.07.02.14.04.21.04Z"/><path class="cls-2" d="m50.75,50.2s.05,0,.08,0c.01,0,.03,0,.04,0-.02,0-.05,0-.07,0-.01,0-.03,0-.04,0Z"/><path class="cls-4" d="m81.17,35c-.69-1.99-1.66-4.77-3.66-5.82-.68-.36-1.45-.27-2.09-.7-.74-.51-1.45-1.07-2.16-1.61-.79-.59-1.35-1.4-2.2-1.95-1.18-.76-2.5-1.25-3.86-1.61-6-1.58-12.34-.84-17.4,2.86-2.49,1.82-4.6,4.19-6.36,6.71-1.92,2.73-3.66,5.72-4.21,9.06-.54,3.23.27,6.8,1.81,9.66.43.8.91,1.57,1.39,2.35,1.7-1.18,3.24-2.63,4.69-4.1,2.04-2.07,3.95-4.28,5.75-6.57,2.74-3.5,4.76-8.16,8.84-10.32,2.18-1.16,4.69-1.39,7.06-.65,1.01.32,2.11.75,2.92,1.44.5.43.97.88,1.46,1.32,1.07.96,2.22,1.73,2.77,3.08.94,2.34,1.71,4.75,2.42,7.17.78,2.66,1.49,5.34,2.13,8.04.08-.04.17-.07.25-.12,1.04-.53,1.71-1.65,2.24-2.65,1.46-2.78,1.16-5.28.32-8.19-.7-2.46-1.25-4.96-2.08-7.38Z"/><path class="cls-2" d="m76.67,26.26c-.1-.06-.12-.02,0,0h0Z"/><path class="cls-2" d="m50.9,50.2c.06,0,.13-.03.2-.05-.07.02-.15.04-.23.05.01,0,.02,0,.03,0Z"/><path class="cls-1" d="m56.59,102.85c-.62-.2-1.24-.4-1.85-.61-3.86-1.26-7.72-2.52-11.58-3.78,2.81,7,4.79,14.3,7.73,21.24h4.26c.77-4.99,1.74-10.05,3.24-14.86-.29-.7-.58-1.4-.87-2.1-.28.15-.61.2-.93.1Z"/><path class="cls-2" d="m60.8,105.95c-1.37,4.47-2.29,9.14-3.01,13.76h7.39c-.97-4.56-1.13-9.28-2.47-13.76h-1.9Z"/><path class="cls-5" d="m38.84,99.84c-.02.24-.04.48-.06.71-.22,2.53-.44,5.06-.65,7.59,1.37-.42,2.73-.83,4.12-1.17,1.64-.4,2.33,2.13.7,2.52-1.54.37-3.05.82-4.56,1.3-.73.23-1.46.44-2.21.64-.48.13-.98.23-1.46.37-.02,0-.07.02-.12.04.11.24.2.56.3.77.17.33.34.66.52.99.43.78.89,1.55,1.35,2.32.74,1.24,1.52,2.49,2.14,3.8h9.17c-2.77-6.84-4.73-13.98-7.54-20.8-.56.31-1.13.61-1.7.92Z"/><path class="cls-5" d="m36.12,101.1c-.98.39-1.98.74-2.95,1.12-2.3.9-4.6,1.79-6.89,2.68-2.12.83-4.24,1.66-6.35,2.52-1.62.66-3.27,1.29-4.73,2.27-3.43,2.31-5.37,6.13-6.51,10.02h27.28c-.58-1.04-1.21-2.05-1.81-3.07-.49-.82-.97-1.64-1.41-2.5-.48-.93-1.09-2.02-.8-3.1.31-1.17,1.4-1.61,2.46-1.87.37-.09.73-.19,1.1-.28-.03-.11-.04-.22-.03-.34.03-.38.07-.77.1-1.15.18-2.1.36-4.2.54-6.31Z"/><path class="cls-1" d="m65.73,102.67c-.22.68-.44,1.37-.66,2.05,1.58,4.87,1.64,10.04,2.79,14.99h4.41c3.07-6.75,4.11-14.26,6.92-21.11-4.07,1.48-8.13,2.96-12.2,4.44-.48.17-.95-.03-1.27-.37Z"/><path class="cls-5" d="m86.52,111.18c-.49-.15-.98-.29-1.47-.43-1.95-.58-3.89-1.15-5.84-1.73-.26-.08-.46-.21-.61-.38-1.04,3.74-2.03,7.5-3.51,11.08h8.49c1.16-2.25,2.24-4.54,3.4-6.79.16-.31.35-.63.43-.97.02-.08.03-.31.05-.33-.02-.02-.07-.08-.1-.1-.23-.19-.57-.26-.85-.34Z"/><path class="cls-5" d="m106.84,111.68c-1.2-.88-2.52-1.61-3.79-2.37-2.77-1.64-5.61-3.17-8.48-4.64-2.16-1.11-4.34-2.18-6.53-3.22-.29,2.26-.58,4.53-.87,6.79-.02.13-.06.25-.1.37.81.24,1.64.52,2.24,1.14.8.82.92,2.05.56,3.1-.53,1.57-1.49,3.08-2.22,4.57-.38.76-.75,1.53-1.13,2.29h24.72c-.71-1.81-1.3-3.66-2.25-5.37-.56-1-1.22-1.99-2.16-2.67Z"/><path class="cls-2" d="m73.31,38.73s0,.01,0,.02c.09.23.28.17.06.04-.02-.01-.05-.04-.07-.06Z"/><path class="cls-2" d="m73.3,38.72s0,0,0,0c-.01-.05-.03-.11-.03-.15,0,.06.01.11.03.15Z"/><path class="cls-4" d="m65.61,74.18c-2.52-1.76-5.83-1.66-8.37.01-.57.38-.87,1.17-.47,1.79.37.57,1.18.87,1.79.47.25-.17.51-.32.78-.45.04-.02.26-.12.29-.13.11-.04.21-.08.32-.12.28-.09.56-.16.85-.21.03,0,.07-.01.1-.02.02,0,.04,0,.09,0,.13,0,.25-.02.38-.02.24,0,.49,0,.73.03.07.01.25.04.29.05.15.03.29.07.43.11.12.04.23.08.35.12-.02,0,.26.11.3.13.29.15.56.32.83.5.56.39,1.48.12,1.79-.47.35-.67.13-1.37-.47-1.79Z"/><path class="cls-4" d="m50.82,50.2s.04,0,.07,0c-.01,0-.02,0-.03,0-.01,0-.03,0-.04,0Z"/><path class="cls-4" d="m71.85,50.52s-.03,0-.05,0c-.02,0-.03,0-.05,0,.03,0,.07,0,.09,0Z"/><path class="cls-4" d="m72.55,48.09c-.35-.22-.77-.2-1.16-.16-.5.05-.99.12-1.48.19-.88.12-1.76.25-2.64.39-.21.03-.41.06-.62.1-.3.05-.63.35-.78.6-.16.28-.23.69-.13,1.01.24.74.88,1.03,1.61.91.52-.08,1.04-.16,1.56-.24.45-.07.9-.13,1.35-.2.11-.02.22-.03.33-.05.01,0,.02,0,.03,0,0,0,0,0,0,0,.19-.02.37-.05.56-.07.15-.02.31-.03.46-.04.03,0,.06,0,.09,0-.06,0-.14-.02-.21-.04.07.02.14.04.22.04.02,0,.04,0,.05,0,0,0,0,0,0,0,.48.03,1-.21,1.22-.64.34-.65.15-1.39-.47-1.79Zm-1.32,2.26s.09.05.16.08c-.06-.03-.12-.05-.16-.08Z"/><path class="cls-4" d="m71.73,50.52s.01,0,.02,0c0,0,0,0-.01,0,0,0,0,0-.01,0Z"/><path class="cls-4" d="m69.67,54.35c-1.68,0-1.69,2.62,0,2.62s1.69-2.62,0-2.62Z"/><path class="cls-4" d="m61.38,65.38c-1.68,0-1.69,2.62,0,2.62s1.69-2.62,0-2.62Z"/><path class="cls-4" d="m53.61,54.35c-1.68,0-1.69,2.62,0,2.62s1.69-2.62,0-2.62Z"/><path class="cls-4" d="m109.48,110.55c-.95-1.01-2.2-1.71-3.37-2.44-5.41-3.35-11.11-6.23-16.85-8.96-2.3-1.09-4.61-2.15-6.94-3.18-.06-.03-.12-.04-.18-.06-.01-.04-.02-.08-.03-.13-.97-2.8-1.94-5.6-2.91-8.39-.21-.62-.91-1.18-1.61-.91-.04.02-.08.03-.13.05-.22-1.95-.4-3.91-.51-5.87-.01-.17-.05-.34-.12-.5.17-.26.34-.52.5-.78,1.83-3.14,2.58-6.51,3.31-10,1.42-.76,2.8-1.75,3.84-2.95,1.32-1.52,1.9-3.49,1.98-5.48.08-1.94-.4-4.13-1.87-5.51-.4-.37-.86-.66-1.34-.86.87-.83,1.54-1.92,2.05-2.94.77-1.54,1.3-3.19,1.35-4.92.04-1.72-.42-3.41-.89-5.04-.67-2.33-1.19-4.71-1.96-7.01-.79-2.37-1.79-4.95-3.63-6.72-.81-.78-1.8-1.39-2.91-1.61-.14-.03-.33-.06-.48-.07-.02-.02-.04-.04-.05-.05-.37-.34-.82-.61-1.23-.91-.33-.24-.74-.47-1.03-.77-.19-.19-.59-.72-.99-1.06-1.14-.96-2.46-1.63-3.86-2.15-6.19-2.31-13.76-1.96-19.46,1.44-2.89,1.72-5.37,4.08-7.45,6.7-2.28,2.86-4.35,6.02-5.48,9.52-1.23,3.79-.94,7.77.46,11.46.45,1.17,1,2.26,1.61,3.33-.79.07-1.56.33-2.25.9-1.36,1.13-1.9,2.92-2.06,4.63-.35,3.86,1.93,8.63,5.83,9.85.53,2.97,1.08,5.85,2.46,8.59.45.89.97,1.74,1.53,2.57-.01.07-.02.13-.02.2.02.97,0,1.94-.03,2.9-.03.88-.07,1.76-.14,2.63-.02.23-.05.47-.07.7-.11-.04-.23-.08-.34-.12-.64-.22-1.47.26-1.61.91-.57,2.71-1.13,5.42-1.7,8.14-.22.07-.43.2-.6.38-1.19.66-2.38,1.33-3.6,1.94-2.48,1.24-5.9,2.34-8.73,3.44-3.2,1.24-6.41,2.48-9.58,3.79-2.69,1.11-5.18,2.3-7.21,4.45-2.64,2.78-4.24,6.36-5.23,10.03h2.71c1.14-3.89,3.08-7.72,6.51-10.02,1.45-.98,3.11-1.61,4.73-2.27,2.11-.86,4.23-1.69,6.35-2.52,2.3-.9,4.6-1.79,6.89-2.68.97-.38,1.97-.73,2.95-1.12-.18,2.1-.36,4.2-.54,6.31-.03.38-.07.77-.1,1.15-.01.12,0,.23.03.34-.36.1-.73.19-1.1.28-1.07.26-2.15.7-2.46,1.87-.29,1.07.32,2.17.8,3.1.43.85.92,1.67,1.41,2.5.61,1.02,1.24,2.03,1.81,3.07h2.94c-.63-1.31-1.4-2.56-2.14-3.8-.46-.77-.92-1.53-1.35-2.32-.18-.33-.36-.66-.52-.99-.1-.21-.19-.53-.3-.77.05-.01.09-.03.12-.04.48-.13.97-.24,1.46-.37.74-.19,1.47-.41,2.21-.64,1.51-.47,3.02-.92,4.56-1.3,1.64-.4.94-2.92-.7-2.52-1.39.34-2.75.75-4.12,1.17.22-2.53.44-5.06.65-7.59.02-.24.04-.48.06-.71.57-.3,1.14-.6,1.7-.92,2.82,6.82,4.78,13.96,7.54,20.8h2.8c-2.94-6.94-4.92-14.25-7.73-21.24,3.86,1.26,7.72,2.52,11.58,3.78.62.2,1.24.4,1.85.61.32.1.65.05.93-.1.29.7.58,1.4.87,2.1-1.51,4.82-2.48,9.87-3.24,14.86h2.63c.73-4.63,1.65-9.29,3.01-13.76h1.9c1.35,4.49,1.5,9.2,2.47,13.76h2.69c-1.15-4.96-1.22-10.12-2.79-14.99.22-.68.44-1.37.66-2.05.32.34.79.54,1.27.37,4.07-1.48,8.13-2.96,12.2-4.44-2.81,6.85-3.86,14.36-6.92,21.11h2.83c1.47-3.58,2.47-7.34,3.51-11.08.15.16.34.3.61.38,1.95.58,3.89,1.15,5.84,1.73.49.14.98.29,1.47.43.28.08.61.15.85.34.03.02.08.08.1.1-.01.02-.03.25-.05.33-.08.35-.27.66-.43.97-1.16,2.25-2.24,4.54-3.4,6.79h2.93c.38-.76.76-1.53,1.13-2.29.74-1.49,1.69-2.99,2.22-4.57.36-1.05.24-2.28-.56-3.1-.6-.62-1.43-.9-2.24-1.14.04-.12.08-.24.1-.37.29-2.26.58-4.53.87-6.79,2.19,1.04,4.37,2.11,6.53,3.22,2.87,1.47,5.71,3,8.48,4.64,1.27.75,2.6,1.49,3.79,2.37.94.69,1.6,1.67,2.16,2.67.95,1.7,1.54,3.56,2.25,5.37h2.82c-.87-1.95-1.46-4.02-2.42-5.93-.58-1.16-1.28-2.29-2.17-3.24ZM76.67,26.26c-.06,0-.08-.02-.08-.03,0,0,.02.02.08.03Zm-37.44,15.67c.56-3.34,2.29-6.33,4.21-9.06,1.77-2.51,3.88-4.89,6.36-6.71,5.06-3.7,11.4-4.44,17.4-2.86,1.36.36,2.67.85,3.86,1.61.85.55,1.41,1.36,2.2,1.95.72.54,1.42,1.11,2.16,1.61.64.44,1.4.34,2.09.7,2,1.05,2.97,3.84,3.66,5.82.84,2.42,1.38,4.92,2.08,7.38.83,2.91,1.14,5.41-.32,8.19-.53,1-1.2,2.12-2.24,2.65-.08.04-.17.08-.25.12-.64-2.7-1.35-5.38-2.13-8.04-.71-2.42-1.47-4.83-2.42-7.17-.55-1.35-1.7-2.12-2.77-3.08-.49-.44-.96-.89-1.46-1.32-.81-.69-1.91-1.12-2.92-1.44-2.36-.74-4.87-.51-7.06.65-4.08,2.17-6.1,6.83-8.84,10.32-1.8,2.29-3.71,4.5-5.75,6.57-1.45,1.47-2.98,2.91-4.69,4.1-.48-.77-.96-1.55-1.39-2.35-1.54-2.86-2.35-6.44-1.81-9.66Zm12.15,8.11s-.11.06-.18.09c.07-.03.14-.06.18-.09Zm-7.1,23.03c-.48-1.74-.72-3.55-1.03-5.32-.07-.41-.51-.84-.91-.91-3.04-.54-4.79-4.04-4.73-6.89.02-.99.2-2.13.83-2.94.67-.85,1.69-.76,2.6-.39.4.46,1.1.61,1.65.28,2.92-1.74,5.45-4.18,7.76-6.73.11.03.23.03.35.03,0,0,0,0,0,0,.02,0,.05,0,.07,0,.08,0,.15-.02.23-.05-.07.02-.13.04-.2.05,0,0,.02,0,.03,0,.15,0,.29.03.44.05.06,0,.13.02.19.02.03,0,.07,0,.1.01.24.03.49.07.73.11.94.14,1.88.3,2.83.45.22.04.44.07.65.11.36.06.69.06,1.01-.13.27-.16.53-.47.6-.78.14-.63-.19-1.49-.91-1.61-1.35-.23-2.7-.45-4.05-.64.02-.02.04-.05.06-.07,1.53-1.8,3-3.65,4.37-5.57,1.21-1.69,2.19-3.55,3.64-5.06,1.53-1.59,3.48-2.75,5.76-2.62,1.11.06,2.36.42,3.3,1.01.34.22.71.57,1.05.87.56.51,1.13,1.02,1.69,1.53.25.23.5.45.76.68.05.05.11.11.17.16-.01-.04-.02-.09-.03-.15,0,.05.02.1.03.15.02.02.04.04.07.06.22.13.03.19-.06-.04.09.37.35.81.47,1.13.21.56.41,1.12.6,1.68.4,1.17.78,2.35,1.14,3.54,1.04,3.43,1.96,6.91,2.75,10.41.09.38.31.63.6.77.15.9,1.35,1.63,2.24.81.38-.35,1.27-.21,1.8.37.64.69.87,1.7.93,2.61.14,2.19-.53,4.07-2.2,5.5-.78.67-1.66,1.17-2.54,1.69-.54.32-.8.68-.94,1.28-.36,1.52-.59,3.08-1,4.59-1.63,6.03-6.28,11.73-12.47,13.38-5.67,1.51-11.5-.88-15.49-4.95-2.31-2.36-4.06-5.29-4.94-8.48Zm11.79,26.87c-3.85-1.26-7.71-2.51-11.56-3.77-.31-.1-.63-.2-.94-.31.42-2,.84-4,1.25-6.01.13.1.27.17.45.21.24.05.51.04.76-.03,3.91,1.37,7.83,2.73,11.74,4.1-.56,1.94-1.13,3.87-1.69,5.81Zm8.01-.66c-.43,1.36-.87,2.71-1.3,4.07h-2.19c-.52-1.25-1.04-2.5-1.56-3.75-.02-.06-.05-.11-.08-.16.44-1.49.87-2.99,1.31-4.48.87.22,1.75.28,2.66-.04,0,0,0,.02,0,.03.45,1.32.91,2.64,1.36,3.95-.08.12-.15.24-.2.39Zm-1-7.22c-.33.13-.7.23-1.01.39-.03.01-.06.02-.08.03-.2-.01-.41,0-.61,0-.32,0-.81-.15-.28.05-.05-.02-.11-.03-.15-.05-.3-.17-.71-.25-1.03-.36-2.86-1-5.71-1.99-8.56-2.99-1.41-.49-2.82-.99-4.23-1.48.19-1.38.28-2.78.32-4.18,1.59,1.61,3.41,2.98,5.41,4.01,4.16,2.15,9.07,2.77,13.55,1.25,3.16-1.07,5.93-3.06,8.16-5.53.11,1.44.25,2.87.43,4.3-3.97,1.52-7.93,3.04-11.9,4.56Zm5,7.83c-.21.07-.41.15-.62.22-.67-1.96-1.35-3.92-2.02-5.88-.03-.09-.07-.17-.11-.25,1.87-.72,3.74-1.43,5.6-2.15,2.08-.8,4.16-1.59,6.23-2.39.73,2.11,1.46,4.23,2.19,6.34-3.76,1.37-7.52,2.73-11.28,4.1Zm17.45.77c-.31,2.41-.62,4.82-.92,7.23-1.56-.46-3.12-.93-4.69-1.39-.25-.08-.48-.07-.69-.02.77-2.66,1.63-5.28,2.77-7.8,1.21.54,2.41,1.09,3.62,1.64-.03.11-.07.21-.09.33Z"/><path class="cls-4" d="m50.75,50.2s.05,0,.08,0c-.01,0-.03,0-.04,0-.01,0-.02,0-.03,0Z"/><path class="cls-4" d="m73.3,38.72s0,.02.01.02c0,0,0-.01,0-.02,0,0,0,0,0,0Z"/><path class="cls-4" d="m25.95,45.27c.39.05.12.02.03,0-.1-.02-.2-.04-.29-.07-.19-.05-.38-.11-.57-.18-.04-.01-.13-.05-.17-.07-.05-.02-.11-.05-.16-.07-.19-.09-.38-.19-.56-.29-.41-.22-.81-.47-1.2-.74-.21-.14-.42-.29-.62-.44-.03-.02-.15-.11-.17-.13-.07-.06-.15-.12-.22-.17-.75-.61-1.46-1.27-2.11-1.99-.14-.16-.29-.32-.42-.48-.07-.08-.13-.16-.2-.24,0-.01-.01-.01-.02-.02,0,0,0-.01-.02-.03-.22-.31-.44-.63-.62-.96-.34-.62-1.19-.82-1.79-.47-.63.37-.81,1.17-.47,1.79.94,1.72,2.46,3.19,3.99,4.4,1.64,1.3,3.48,2.52,5.6,2.78.68.09,1.34-.66,1.31-1.31-.04-.78-.58-1.22-1.31-1.31Z"/><path class="cls-4" d="m17.91,31.78c-2.27-.37-4.56,1.29-5.06,3.48-2.09.29-3.94,2.06-3.95,4.29,0,2.79,2.85,4.86,5.5,4.27.69-.16,1.09-.95.91-1.61-.19-.71-.92-1.07-1.61-.91-.04,0-.08.02-.1.02-.09,0-.18,0-.27,0-.01,0-.1,0-.15-.01-.05-.01-.14-.03-.15-.03-.28-.08-.54-.18-.78-.37-.02-.02-.12-.11-.13-.12-.08-.08-.16-.16-.23-.24.1.11-.14-.2-.18-.27-.03-.06-.06-.12-.09-.18,0-.03-.04-.15-.05-.17,0-.01-.02-.1-.04-.14,0-.06-.01-.23-.01-.23,0-.07,0-.14.01-.21,0-.02.02-.06.03-.09,0-.02.06-.17.07-.22.02-.04.06-.12.07-.13.16-.28.25-.41.55-.66,0,0,.12-.08.16-.11.08-.05.15-.09.23-.13.01,0,.1-.05.14-.07.05-.01.2-.06.22-.07.07-.02.15-.04.23-.05.02,0,.05,0,.07,0,.11,0,.21,0,.32,0,.02,0,.06.02.12.03.74.18,1.76-.38,1.66-1.26-.08-.68.09-1.19.54-1.66.07-.07.13-.13.2-.19.02-.02.04-.03.04-.04.02-.01.05-.03.08-.05.08-.05.16-.09.24-.14.02-.01.08-.04.1-.05.07-.03.15-.05.23-.07,0,0,.19-.04.24-.05.06,0,.34.02.33,0,.14.03.28.06.41.12.01.02.29.17.34.21.01,0,0,0,.02.01,0,0,0,0,.02.02.08.07.16.15.23.23.05.05.1.11.14.16.01.02.04.06.05.08.24.43.25.39.35.87,0,.01,0,.03,0,.04,0,.08,0,.17,0,.26,0,.04,0,.06,0,.07,0,0,0,0,0,.03-.02.11-.05.21-.08.31-.48,1.62,2.05,2.31,2.52.7.71-2.42-.97-5.26-3.49-5.67Zm1.04,4.2s0,.01,0,.06c0-.05-.01-.06,0-.06Z"/></g></g></svg>