<?xml version="1.0" encoding="UTF-8"?><svg id="_レイヤー_2" xmlns="http://www.w3.org/2000/svg" xmlns:xlink="http://www.w3.org/1999/xlink" viewBox="0 0 119.88 120.81"><defs><style>.cls-1{fill:#fff;}.cls-2{fill:#33c6e5;}.cls-3{clip-path:url(#clippath);}.cls-4{fill:#2e2e2e;}</style><clipPath id="clippath"><circle class="cls-1" cx="59.94" cy="59.94" r="59.94"/></clipPath></defs><g id="_デザイン"><circle class="cls-1" cx="59.94" cy="59.94" r="59.94"/><g class="cls-3"><path class="cls-2" d="m19.13,44.09c.06.01.08.01.09,0-.01,0-.05,0-.09,0,0,0,0,0,0,0Z"/><path class="cls-2" d="m22.02,28.47s0-.06,0-.1c-.02-.07-.04-.09,0,.1Z"/><path class="cls-2" d="m22.02,28.47s0,.02,0,.03c0,0,0-.01,0-.02,0,0,0,0,0,0,0,0,0,0,0,0Z"/><path class="cls-2" d="m69.92,47.75s.03.01.04.01c0,0,0,0,0,0-.01,0-.03-.01-.04-.01Z"/><path class="cls-1" d="m82.62,71.23c-.68.12-1.31.06-1.93-.16-1.03,3.85-3.02,7.47-5.76,10.36,0,.04.02.07.02.11.38,3.91.95,8.18,3.18,11.52,1.71,2.55,4.35,3.67,6.97,5.03,1.64.85,3.25,1.75,4.82,2.71-1.59-10.03-5.32-19.66-6.88-29.69-.14.05-.28.09-.42.12Z"/><path class="cls-1" d="m37.24,84.52c-.41-2.16-.33-4.23-.26-6.41.04-1.22-.25-2.94-.15-4.49-1.19,9.52-3.2,19.03-6.46,28.05.86-.37,1.72-.73,2.58-1.08,1.78-.73,3.56-1.46,5.32-2.24,1.5-.66,3.09-1.33,4.43-2.31-.75-1.9-1.63-3.63-2.8-5.36-1.28-1.9-2.23-3.9-2.66-6.17Z"/><path class="cls-1" d="m43.68,98.62c-.64.42-1.32.8-2.01,1.16.11.14.2.31.26.52.94,3.41,1.81,6.83,2.65,10.27.11,0,.22.01.33.04.63.17,1.27.34,1.9.51.05-.37.09-.75.11-1.12.15-2.24-.39-4.32-1.2-6.4-.65-1.67-1.39-3.3-2.05-4.96Z"/><path class="cls-2" d="m45.31,113.5c.19.78.38,1.57.57,2.35.04-.18.09-.35.13-.53.13-.52.24-1.04.35-1.57-.04,0-.09,0-.14,0-.31-.08-.62-.16-.93-.25Z"/><path class="cls-1" d="m72.49,83.63c-4.24,3.28-9.48,4.62-14.68,3.6,1.99,4.96,4.98,9.57,5.74,14.93.57,4.05-.03,8.33-1.35,12.23.03.01.07.02.1.03.25.08.32.08.73.05.59-.04,1.2-.16,1.98-.32,2.06-.43,4.09-.99,6.12-1.57,2.69-.77,5.37-1.6,8.03-2.48.97-3.31,1.93-6.63,2.9-9.94.05-.18.13-.32.23-.45-.49-.26-.98-.52-1.47-.78-5.77-3.13-7.53-9.23-8.31-15.3Z"/><path class="cls-2" d="m19.06,44.09s.04,0,.07,0c-.01,0-.02,0-.03,0-.01,0-.03,0-.04,0Z"/><path class="cls-2" d="m69.96,47.76s.03.02.05.02c.12.06.04.02-.03-.01,0,0-.02,0-.02,0Z"/><path class="cls-1" d="m61.98,74.03s-.04-.07-.06-.11c-.02-.02-.04-.04-.06-.06-.03-.02-.07-.04-.11-.06-.04-.01-.08-.02-.12-.03-.04,0-.08,0-.13,0-.04,0-.08.02-.12.03-.04.02-.07.04-.11.06-.02.02-.04.04-.06.06-.02.03-.04.07-.06.11-.01.04-.02.08-.03.12,0,.04,0,.09,0,.13,0,.04.02.08.03.12.02.04.04.07.06.11.02.02.04.04.06.06.03.02.07.04.11.06.04.01.08.02.12.03.04,0,.08,0,.13,0,.04,0,.08-.02.12-.03.04-.02.07-.04.11-.06.02-.02.04-.04.06-.06.02-.03.04-.07.06-.11.02-.06.04-.12.05-.18,0,0,0,0,0,0s0,0,0,0c-.01-.06-.03-.12-.05-.18Z"/><path class="cls-2" d="m38.07,55.07s0,0,0,0c.01-.06,0-.04-.02,0,0,0,0,0,.02,0Z"/><path class="cls-2" d="m18.66,42.44c.06-.05.15-.14.02-.01,0,0-.01,0-.02.01Z"/><path class="cls-2" d="m38.03,55.1s0-.01.01-.02c0,0-.01.01-.01.02Z"/><path class="cls-1" d="m83.58,55.27c-.8-.56-2.19-.02-2.96.39-.18.1-.37.15-.54.16-.7.3-1.56.1-1.7-.84-.41-2.66-1.01-5.43-1.89-8.11-.07.01-.15.02-.23.02-4.94-.02-9.78-1.75-13.95-4.33-3.68-2.28-7.21-5.38-9.22-9.28-.28.32-.53.64-.78.95.01.16,0,.33-.05.51-2.03,6.99-3.91,14.7-9.36,19.91-.15.93-1.39,1.67-2.3.83-.14-.13-.41-.27-.67-.34-.4-.11-.62-.15-1.02-.15-.41,0-.42,0-.79.1-.02,0-.02,0-.03,0,0,0,0,0,0,0-.01.05-.03.04-.03.03,0,.01-.02.03-.03.04-.03.05-.08.09-.12.13.15-.18-.06.11-.1.18-.07.11-.12.22-.18.34-.02.04-.04.08-.06.13,0,.01,0,.02-.02.04-.06.15-.11.31-.15.47-.18.63-.26,1.1-.3,1.66-.1,1.36,0,2.59.31,3.85.15.62.32,1.12.52,1.51.06.13.13.25.21.37.02.03.09.13.12.19.04.04.12.13.14.16.09.09.18.18.27.27.12.11.28.21.41.31.77-.31,1.65-.36,2.41-.08.72.27,1.29.7,1.74,1.33.06.09.11.19.16.28.25.24.38.57.41.92.23-.02.47-.02.7.02.24-.72.66-1.37,1.36-1.79,1.06-.64,2.51-.43,3.53.2,1.51.92,1.73,2.72,1.99,4.36,2.77.04,3.66,2.95,4.12,5.2.55,2.7.4,5.46,1.05,8.15.07.28.15.56.23.84,5.34,1.59,10.82.33,15-3.43,3.54-3.18,5.99-7.63,6.77-12.33-.04-.24-.06-.49-.04-.73.04-.38.12-.72.25-1.05,0-.04,0-.08.01-.13.04-.64.41-1.07.95-1.25.67-.56,1.58-.84,2.45-.78.32-.17.62-.37.89-.61,1.05-.95,1.5-2.57,1.68-3.93.19-1.38.16-3.77-1.15-4.69Zm-29.84,1.49c-1.74,0-1.73-2.69,0-2.69s1.73,2.69,0,2.69Zm3.19-8.49c-.1.36-.33.59-.62.8-1.04.76-2.16,1.37-3.38,1.79-.75.25-1.53.4-2.26.71-.33.14-.74.02-1.04-.14-.31-.16-.51-.48-.62-.8-.1-.32-.03-.75.14-1.04.19-.33.47-.48.8-.62.71-.3,1.47-.45,2.2-.69.21-.07.42-.16.63-.23-.45.16,0,0,.11-.05.12-.06.24-.12.36-.18.6-.31,1.16-.68,1.7-1.07.61-.44,1.48-.08,1.84.48.18.29.22.72.14,1.04Zm4.72,16.7c1.74,0,1.73,2.69,0,2.69s-1.73-2.69,0-2.69Zm3.03,9.53c-.07.68-.34,1.29-.78,1.82-.4.48-1.04.86-1.66.97-.74.13-1.41.05-2.09-.26-.54-.25-1-.7-1.3-1.21-.31-.51-.49-1.18-.43-1.78.03-.31.07-.61.19-.9.16-.4.33-.69.6-1.02.78-.93,2.22-1.32,3.36-.89.68.25,1.2.65,1.62,1.24.35.5.52,1.14.53,1.74,0,.1,0,.19-.03.29Zm4.64-17.74c-1.74,0-1.73-2.69,0-2.69s1.73,2.69,0,2.69Zm4.83-6.13c-.07.32-.34.64-.62.8-.26.15-.74.26-1.04.14-1.9-.8-4.02-1.22-5.69-2.5-.29-.23-.5-.45-.62-.8-.11-.35-.03-.73.14-1.04.15-.29.49-.53.8-.62.3-.08.78-.06,1.04.14.41.31.85.57,1.31.8.11.06.22.11.34.16.05.02.09.04.14.06,0,0,.01,0,.02,0,.21.06.43.17.63.25.86.32,1.75.59,2.6.94.34.14.6.3.8.62.2.31.21.69.14,1.04Z"/><path class="cls-1" d="m54.4,85.71c-.82-2.54-1.1-5.15-1.26-7.81-.07-1.07-.26-2.12-.53-3.16-.13-.51-.43-2.17-1.28-2.07-.95.11-.41,3.56-.35,4.22.22,2.66.45,5.31.66,7.97.13,1.73-2.56,1.72-2.69,0-.23-3.04-.53-6.07-.75-9.11-.1-1.4-.08-3.27.68-4.49-.14-1.16-.22-2.94-1.08-3.41-.95-.52-.9.8-.92,1.39-.03,1.14-.04,2.27-.05,3.41-.05,4.55.06,9.09.49,13.63.17,1.73-2.53,1.71-2.69,0-.29-3-.45-6.01-.49-9.03-.03-2.41-.09-4.86,0-7.28-.89-.55-1.1,1.56-1.13,2.04-.09,1.47-.11,2.95-.08,4.42.06,3.24.36,6.47.84,9.67.11.72-.17,1.44-.94,1.66-.64.18-1.55-.22-1.66-.94-.62-4.15-1.01-8.34-.94-12.55.01-.62,0-1.29.03-1.96-.1.14-.24.26-.43.36-.02.01-.04.02-.05.02,0,.02,0,.03-.01.05-.03.1-.06.2-.09.3-.09.28-.11.58-.12.88-.05.84,0,1.68.04,2.51.1,1.89-.14,3.77,0,5.66.16,2.17.76,4.28,1.9,6.14,1.21,1.97,2.5,3.77,3.37,5.93.84,2.08,1.53,4.19,2.42,6.25.91,2.1,1.83,4.23,2.19,6.51.56,3.61-.39,7.43-1.33,10.9-.27,1-.56,2.01-.88,3h9.88c.27-.81.54-1.62.81-2.44.26-.79.53-1.59.79-2.38.07-.2.13-.41.2-.61.01-.04.03-.07.04-.11.02-.28.12-.55.28-.78,1.32-3.62,2.09-7.56,1.68-11.4-.67-6.21-4.68-11.53-6.57-17.38Z"/><path class="cls-2" d="m65.21,116.85c-.79.15-1.6.31-2.4.33-.53.01-1.02-.11-1.51-.26-.26.8-.53,1.59-.79,2.39-.17.5-.33,1.01-.5,1.51h16.02c.15-.52.31-1.05.46-1.57.59-2.01,1.17-4.01,1.76-6.02-2.27.73-4.54,1.43-6.83,2.08-2.05.58-4.11,1.15-6.2,1.55Z"/><path class="cls-1" d="m90.39,104.26c-1.87-1.21-3.81-2.27-5.77-3.31-.26.9-.52,1.8-.79,2.69-1.67,5.72-3.34,11.44-5.01,17.16h26.51c-1.19-3.41-3.25-6.43-5.74-9.06-2.73-2.88-5.88-5.33-9.2-7.49Z"/><path class="cls-1" d="m39.34,101.02s-.01-.09-.02-.13c-1.37.59-2.77,1.12-4.11,1.68-3.14,1.3-6.31,2.56-9.27,4.25-2.84,1.63-5.63,3.64-7.23,6.56-1.3,2.37-2.15,4.95-3.2,7.44h28.95c.02-.05.04-.1.05-.15-.17-.16-.31-.37-.38-.66-1.54-6.34-3.04-12.7-4.78-18.99Z"/><path class="cls-1" d="m60.77,22.61c-.79,0-1.22-.57-1.29-1.18-.69,0-1.38.13-2.07.34-.03.49-.32.94-.97,1.05-3,.51-5.74,1.94-8.09,3.86-4.27,3.48-7.7,8.32-9.57,13.5-1.38,3.82-1.04,8.22.08,12.09.74,0,1.49.14,2.18.41,5.05-4.87,6.72-12.15,8.61-18.66.43-1.48,2.53-1.08,2.65.21.25-.32.51-.64.78-.95-.04-.09-.1-.17-.14-.26-.77-1.55,1.56-2.91,2.33-1.36,1.79,3.63,5,6.47,8.4,8.57,3.55,2.2,7.62,3.75,11.82,3.93-1.86-4.44-4.65-8.41-8.86-10.84-1.5-.87-.14-3.2,1.36-2.33,7.65,4.43,11.21,13.33,12.72,21.73.69-.23,1.43-.37,2.14-.36.47-2.14.61-4.39.6-6.58-.03-6.08-2.06-11.84-6.27-16.28-4.31-4.54-10.2-6.86-16.42-6.9Z"/><path class="cls-1" d="m37.43,69.63c-.34-.56-.53-1.28-.47-1.94.03-.34.11-.66.22-.96-.24-.19-.46-.4-.67-.62-.53.95-.76,1.89-.88,2.84.79-.2,1.7.21,1.59,1.23-.09.85-.2,1.7-.3,2.56.17-.9.54-1.69,1.27-2.21-.31-.25-.58-.56-.78-.9Z"/><path class="cls-2" d="m38.05,55.08s.01,0,.02,0c0,0,0,0,0,0,0,0-.01,0-.02,0,0,0,0,0,0,0Z"/><path class="cls-2" d="m18.36,42.73s-.06.07-.06.08c0,0,.03-.04.06-.08Z"/><path class="cls-4" d="m28.18,28.16c-1.12-1.1-2.14-2.28-3.63-2.87-1.67-.66-3.66-.18-4.71,1.31-.82,1.17-.6,2.76.14,3.91,1,1.55,2.66,2.29,4.45,2.46.7.07,1.38-.67,1.35-1.35-.04-.79-.59-1.27-1.35-1.35-.02,0-.1-.01-.13-.01-.04,0-.07-.01-.11-.02-.14-.03-.29-.06-.43-.1-.12-.04-.25-.08-.37-.12-.07-.04-.14-.07-.21-.11-.11-.06-.22-.12-.32-.19-.03-.02-.06-.04-.09-.06,0,0,0,0,0,0-.06-.09-.17-.16-.25-.23-.05-.06-.12-.14-.15-.18-.09-.14-.18-.29-.27-.44,0,0,0,0,0,0,0,0,0-.01,0-.02-.03-.1-.06-.2-.09-.3,0,0,0,.01,0,.02,0,0,0-.02,0-.03-.04-.19-.01-.16,0-.1,0-.05,0-.1-.01-.13,0-.03.02-.05.02-.08,0-.01,0-.01.02-.03.01-.02.02-.03.03-.05.04-.04.08-.09.11-.12.04-.02.2-.13.25-.16.02-.01.05-.03.07-.04.02,0,.05-.02.07-.03.05-.02.11-.03.16-.05.01,0,.15-.02.19-.03.03,0,.06,0,.07,0,.06,0,.11,0,.17,0-.26-.01.13.03.22.05.04.01.26.09.29.1.15.07.29.15.43.23.34.21.3.18.61.45.25.22.49.46.72.7.33.34.66.67,1,1,.59.58,1.18,1.15,1.78,1.71.51.48,1.4.55,1.9,0,.48-.52.55-1.39,0-1.9-.65-.62-1.3-1.24-1.94-1.86Z"/><path class="cls-4" d="m22.02,28.47s0,0,0,0c0,0,0,0,0,0,.01-.03,0-.07,0-.11,0,.04,0,.07,0,.1Z"/><path class="cls-4" d="m18.22,43.24s0-.02,0,0h0Z"/><path class="cls-4" d="m19.1,44.08s.02,0,.03,0c.04,0,.08,0,.09,0,.02-.01-.04-.04-.12-.02Z"/><path class="cls-4" d="m23.36,38.88c-.68.02-1.35.07-2.02.13-1.22.11-2.41.25-3.52.8-1.31.65-2.39,1.98-2.29,3.51.11,1.57,1.17,2.82,2.65,3.3.76.25,1.64.22,2.39-.05.94-.35,1.7-.92,2.47-1.53.56-.44.49-1.45,0-1.9-.59-.54-1.31-.47-1.9,0-.04.03-.07.06-.11.09-.02.02-.05.03-.06.04-.12.09-.24.18-.36.26-.26.18-.52.32-.8.46,0,0,0,0,0,0-.05.01-.11.04-.16.05-.05.02-.1.03-.16.04-.09,0-.2.02-.26.01,0,0,0,0,0,0-.01,0-.04,0-.09,0,0,0,0,0,0,0-.03,0-.06,0-.07,0,.01,0,.03,0,.04,0-.08-.02-.17-.05-.25-.07-.03-.01-.06-.03-.09-.05-.03-.01-.13-.08-.18-.12-.06-.05-.13-.12-.16-.15,0,0-.03-.03-.04-.05-.02-.04-.08-.17-.12-.24,0-.02-.01-.05-.02-.07-.01-.03-.01-.07-.01-.09,0,.01,0,.03,0,.07-.03.22,0-.02,0-.08,0-.04,0-.08,0-.12.02-.06.05-.17.07-.24.02-.04.05-.08.07-.12.02-.03.02-.03.02-.04.03-.03.06-.06.07-.06.07-.07.14-.13.21-.19.04-.02.09-.07.12-.08.1-.07.21-.13.32-.19.05-.03.11-.05.16-.08.4-.14.79-.24,1.21-.3.02,0,.04,0,.06,0,.08,0,.16-.02.25-.03.23-.03.46-.05.69-.07.63-.05,1.27-.09,1.9-.11.7-.02,1.38-.6,1.35-1.35-.03-.71-.59-1.37-1.35-1.35Zm-5.06,3.93s.03-.05.06-.08c-.03.04-.06.09-.06.08Zm.36-.37s.01,0,.02-.01c.14-.13.05-.04-.02.01Z"/><path class="cls-4" d="m38.03,55.1s.02.02.03-.03c0,0-.01,0-.02,0,0,0,0,.01-.01.02Z"/><path class="cls-4" d="m69.96,47.76s.02,0,.02,0c0,0-.01,0-.02,0,0,0,0,0,0,0Z"/><path class="cls-4" d="m73.22,48.97c-.85-.36-1.74-.62-2.6-.94-.21-.08-.42-.19-.63-.25.07.03.15.07.03.01-.02,0-.03-.02-.05-.02-.01,0-.03-.01-.04-.01,0,0,.02,0,.04.01-.05-.02-.09-.04-.14-.06-.11-.05-.23-.1-.34-.16-.46-.23-.9-.49-1.31-.8-.26-.2-.74-.22-1.04-.14-.31.09-.65.33-.8.62-.17.31-.25.69-.14,1.04.12.36.32.58.62.8,1.67,1.28,3.78,1.7,5.69,2.5.3.13.77.02,1.04-.14.28-.16.55-.48.62-.8.08-.34.06-.73-.14-1.04-.2-.32-.46-.48-.8-.62Z"/><path class="cls-4" d="m54.96,46.74c-.54.4-1.1.76-1.7,1.07-.12.06-.24.12-.36.18-.11.05-.55.22-.11.05-.21.08-.41.16-.63.23-.73.24-1.49.39-2.2.69-.34.14-.61.29-.8.62-.17.29-.24.71-.14,1.04.11.33.31.64.62.8.3.16.71.27,1.04.14.73-.3,1.51-.45,2.26-.71,1.22-.41,2.34-1.03,3.38-1.79.29-.21.52-.44.62-.8.09-.32.05-.75-.14-1.04-.36-.56-1.23-.93-1.84-.48Z"/><path class="cls-4" d="m69.33,54.06c-1.73,0-1.74,2.69,0,2.69s1.74-2.69,0-2.69Z"/><path class="cls-4" d="m61.66,64.96c-1.73,0-1.74,2.69,0,2.69s1.74-2.69,0-2.69Z"/><path class="cls-4" d="m53.75,54.06c-1.73,0-1.74,2.69,0,2.69s1.74-2.69,0-2.69Z"/><path class="cls-4" d="m94.79,104.04c-.62-.45-1.25-.89-1.89-1.32-1.59-12.38-6.85-24.12-7.75-36.6-.01-.16-.05-.3-.1-.43,0,0,0,0,0,0,1.6-1.58,2.26-4.04,2.41-6.23.14-2.06-.38-4.76-2.08-6.18.02-.05.04-.1.05-.16,1.23-5.56,1.07-11.9-1.05-17.2-2.27-5.66-6.48-10.53-11.96-13.29-3.63-1.83-7.62-2.68-11.67-2.71-.94,0-1.37.78-1.29,1.51.52,0,1.03.07,1.55.24-.52-.17-1.03-.24-1.55-.24.07.61.49,1.18,1.29,1.18,6.22.04,12.11,2.35,16.42,6.9,4.21,4.44,6.24,10.2,6.27,16.28,0,2.19-.13,4.43-.6,6.58-.72,0-1.45.13-2.14.36-1.52-8.41-5.07-17.3-12.72-21.73-1.5-.87-2.86,1.46-1.36,2.33,4.21,2.44,7,6.4,8.86,10.84-4.2-.18-8.27-1.72-11.82-3.93-3.4-2.11-6.61-4.94-8.4-8.57-.77-1.55-3.09-.19-2.33,1.36.04.09.1.17.14.26.24-.28.49-.55.77-.83-.28.28-.53.55-.77.83,2.01,3.9,5.54,7,9.22,9.28,4.16,2.58,9.01,4.32,13.95,4.33.08,0,.16-.01.23-.02.88,2.68,1.48,5.45,1.89,8.11.14.95,1.01,1.14,1.7.84.18-.01.36-.06.54-.16.77-.4,2.16-.95,2.96-.39,1.3.92,1.34,3.3,1.15,4.69-.18,1.36-.63,2.98-1.68,3.93-.27.24-.57.44-.89.61-.87-.06-1.79.22-2.45.78-.54.18-.91.61-.95,1.25,0,.04,0,.08-.01.13-.13.33-.21.67-.25,1.05-.02.24,0,.48.04.73-.78,4.71-3.23,9.15-6.77,12.33-4.18,3.77-9.66,5.02-15,3.43-.08-.28-.16-.56-.23-.84-.66-2.68-.5-5.45-1.05-8.15-.46-2.25-1.34-5.17-4.12-5.2-.26-1.64-.48-3.44-1.99-4.36-1.02-.62-2.47-.83-3.53-.2-.7.42-1.12,1.06-1.36,1.79-.23-.04-.47-.04-.7-.02-.02-.34-.16-.68-.41-.92-.05-.1-.1-.19-.16-.28-.45-.63-1.01-1.06-1.74-1.33-.76-.28-1.64-.23-2.41.08-.14-.1-.29-.19-.41-.31-.09-.09-.18-.17-.27-.27-.02-.02-.1-.11-.14-.16-.03-.05-.11-.16-.12-.19-.07-.12-.14-.24-.21-.37-.2-.4-.37-.9-.52-1.51-.31-1.26-.41-2.49-.31-3.85.04-.57.11-1.03.3-1.66.05-.16.1-.31.15-.47,0-.02.01-.03.02-.04.02-.04.04-.09.06-.13.06-.11.12-.23.18-.34.04-.07.25-.36.1-.18.04-.05.08-.09.12-.13.01-.02.02-.03.03-.04,0,0,0-.01.01-.02,0,0,0,0,0,0,0,0,0,0,.02,0,0,0,0,0,0,0,0,0,0,0,0,0,.01,0,.01,0,.03,0,.38-.1.38-.1.79-.1.41,0,.62.04,1.02.15.26.07.53.21.67.34.91.85,2.15.1,2.3-.83,5.45-5.2,7.33-12.92,9.36-19.91.05-.18.06-.35.05-.51-.94,1.2-1.74,2.4-2.94,3.61,1.2-1.2,2-2.4,2.94-3.61-.11-1.28-2.22-1.69-2.65-.21-1.89,6.51-3.56,13.79-8.61,18.66-.69-.27-1.44-.42-2.18-.41-1.12-3.88-1.46-8.27-.08-12.09,1.87-5.18,5.3-10.02,9.57-13.5,2.35-1.91,5.08-3.35,8.09-3.86.65-.11.94-.56.97-1.05-1.49.44-2.97,1.21-4.46,1.7,1.49-.5,2.97-1.26,4.46-1.7.04-.8-.63-1.73-1.69-1.55-6,1.02-10.93,5.37-14.5,10.06-3.69,4.85-6.39,10.56-5.95,16.76.14,2.02.46,4.09,1.03,6.04-.96.81-1.47,2.16-1.7,3.35-.35,1.76-.31,3.56,0,5.32.26,1.51.76,3.08,1.8,4.24.04.04.09.08.12.12.09-.15.18-.31.28-.46-.1.15-.19.31-.28.46.21.22.43.43.67.62-.11.3-.19.62-.22.96-.06.66.13,1.38.47,1.94.2.33.47.64.78.9-.73.52-1.11,1.31-1.27,2.21.1-.85.21-1.7.3-2.56.11-1.02-.8-1.43-1.59-1.23-.2,1.59-.11,3.19-.64,4.78.53-1.59.44-3.19.64-4.78-.54.13-1.03.54-1.1,1.23-1.18,11.17-3.48,22.42-7.54,32.92-.02.05-.03.1-.04.14-1.11.54-2.2,1.12-3.25,1.76-2.8,1.72-5.51,3.84-7.17,6.72-1.65,2.87-2.56,6.09-3.97,9.09h2.93c1.05-2.49,1.9-5.07,3.2-7.44,1.61-2.92,4.39-4.93,7.23-6.56,2.95-1.7,6.13-2.96,9.27-4.25,1.35-.55,2.74-1.09,4.11-1.68,0,.04.01.09.02.13,1.73,6.29,3.24,12.65,4.78,18.99.07.29.21.5.38.66-.02.05-.04.1-.05.15h2.83c.31-.99.6-2,.88-3,.94-3.48,1.89-7.29,1.33-10.9-.36-2.28-1.28-4.4-2.19-6.51-.89-2.06-1.58-4.17-2.42-6.25-.87-2.16-2.16-3.96-3.37-5.93-1.14-1.86-1.74-3.97-1.9-6.14-.14-1.89.1-3.77,0-5.66-.05-.84-.09-1.68-.04-2.51.02-.29.04-.59.12-.88.03-.1.06-.2.09-.3,0-.02,0-.03.01-.05.02,0,.03,0,.05-.02.18-.1.33-.23.43-.36-.03.67-.02,1.34-.03,1.96-.07,4.2.32,8.39.94,12.55.11.72,1.02,1.12,1.66.94.77-.22,1.05-.93.94-1.66-.48-3.2-.78-6.43-.84-9.67-.03-1.47-.02-2.95.08-4.42.03-.47.24-2.58,1.13-2.04-.1,2.42-.04,4.87,0,7.28.04,3.02.2,6.03.49,9.03.16,1.71,2.86,1.73,2.69,0-.44-4.53-.54-9.08-.49-13.63.01-1.14.02-2.27.05-3.41.01-.59-.04-1.91.92-1.39.86.47.94,2.25,1.08,3.41-.76,1.23-.78,3.1-.68,4.49.21,3.04.51,6.07.75,9.11.13,1.72,2.83,1.73,2.69,0-.2-2.66-.44-5.31-.66-7.97-.05-.66-.6-4.11.35-4.22.85-.1,1.15,1.56,1.28,2.07.27,1.04.47,2.09.53,3.16.16,2.65.44,5.26,1.26,7.81,1.89,5.85,5.9,11.17,6.57,17.38.41,3.84-.36,7.79-1.68,11.4-.16.23-.26.51-.28.78-.01.04-.03.08-.04.11-.07.2-.14.41-.2.61-.26.79-.53,1.59-.79,2.38-.27.81-.54,1.62-.81,2.44h2.84c.17-.5.33-1.01.5-1.51.26-.8.53-1.59.79-2.39.49.15.98.28,1.51.26.8-.02,1.62-.18,2.4-.33,2.09-.4,4.15-.97,6.2-1.55,2.29-.65,4.56-1.35,6.83-2.08-.59,2.01-1.17,4.01-1.76,6.02-.15.52-.31,1.05-.46,1.57h2.81c1.67-5.72,3.34-11.44,5.01-17.16.26-.9.52-1.8.79-2.69,1.96,1.03,3.9,2.09,5.77,3.31,3.32,2.16,6.48,4.6,9.2,7.49,2.49,2.63,4.56,5.65,5.74,9.06h2.84c-2.1-7.03-7.59-12.53-13.38-16.78Zm-56.72-48.97s0,0,0,0c0,0-.01,0-.02,0,.03-.05.03-.07.02,0Zm7.95,60.26c-.04.18-.09.35-.13.53-.19-.78-.38-1.57-.57-2.35.31.08.62.17.93.25.04.01.09,0,.14,0-.11.53-.23,1.05-.35,1.57Zm-.28-11.73c.81,2.08,1.35,4.16,1.2,6.4-.03.38-.07.75-.11,1.12-.63-.17-1.27-.33-1.9-.51-.1-.03-.22-.04-.33-.04-.85-3.43-1.72-6.86-2.65-10.27-.06-.21-.15-.38-.26-.52.69-.35,1.36-.74,2.01-1.16.66,1.66,1.4,3.29,2.05,4.96Zm-5.83-12.9c1.16,1.73,2.05,3.47,2.8,5.36-1.34.98-2.93,1.64-4.43,2.31-1.76.78-3.54,1.5-5.32,2.24-.86.35-1.72.71-2.58,1.08,3.26-9.03,5.27-18.53,6.46-28.05-.1,1.55.19,3.27.15,4.49-.07,2.18-.15,4.25.26,6.41.43,2.26,1.39,4.26,2.66,6.17Zm1.18-22.75c-.02.08-.04.16-.07.24-.03.06-.06.11-.1.17-.03.04-.07.07-.1.1-.05.04-.11.07-.17.1-.06.02-.12.04-.18.05-.07,0-.13,0-.2,0-.06-.01-.12-.03-.18-.05-.06-.03-.11-.06-.17-.1-.04-.03-.07-.07-.1-.1-.04-.05-.07-.11-.1-.17-.02-.06-.04-.12-.05-.18,0-.07,0-.13,0-.2.01-.06.03-.12.05-.18.03-.06.06-.11.1-.17.03-.04.07-.07.1-.1.05-.04.11-.07.17-.1.06-.02.12-.04.18-.05.07,0,.13,0,.2,0,.06.01.12.03.18.05.06.03.11.06.17.1.04.03.07.07.1.1.03.05.07.11.1.17.03.08.05.16.07.24,0,.01,0,.03,0,.04,0,.01,0,.03,0,.04Zm40.1-.14c.01-.06.03-.12.05-.18.03-.06.06-.11.1-.17.03-.04.07-.07.1-.1.05-.03.11-.07.17-.1.06-.02.12-.04.18-.05.07,0,.13,0,.2,0,.06.01.12.03.18.05.06.03.11.06.16.1.04.03.07.07.1.1.04.05.07.11.1.17.03.08.05.16.07.24,0,.01,0,.03,0,.04,0,.01,0,.03,0,.04-.02.08-.04.16-.07.24-.03.06-.06.11-.1.17-.03.04-.07.07-.1.1-.05.03-.11.07-.17.1-.06.02-.12.04-.18.05-.07,0-.13,0-.2,0-.06-.01-.12-.03-.18-.05-.06-.03-.11-.06-.17-.1-.04-.03-.07-.07-.1-.1-.04-.05-.07-.11-.1-.17-.02-.06-.04-.12-.05-.18,0-.07,0-.13,0-.2Zm.85,32.37c-.97,3.31-1.93,6.63-2.9,9.94-2.66.88-5.34,1.7-8.03,2.48-2.02.58-4.06,1.14-6.12,1.57-.77.16-1.39.28-1.98.32-.41.03-.48.03-.73-.05-.03-.01-.07-.02-.1-.03,1.33-3.9,1.93-8.18,1.35-12.23-.76-5.37-3.74-9.98-5.74-14.93,5.2,1.02,10.44-.32,14.68-3.6.78,6.07,2.54,12.18,8.31,15.3.49.26.98.52,1.47.78-.09.13-.17.27-.23.45Zm3.06-2.07c-2.63-1.36-5.27-2.48-6.97-5.03-2.24-3.34-2.8-7.61-3.18-11.52,0-.04-.02-.08-.02-.11,2.75-2.89,4.73-6.5,5.76-10.36.63.23,1.26.29,1.93.16.14-.03.28-.07.42-.12,1.57,10.03,5.3,19.66,6.88,29.69-1.58-.96-3.19-1.86-4.82-2.71Z"/><path class="cls-1" d="m41.02,67.61c-.03-.06-.06-.11-.1-.17-.03-.04-.07-.07-.1-.1-.05-.03-.11-.07-.17-.1-.06-.02-.12-.04-.18-.05-.07,0-.13,0-.2,0-.06.01-.12.03-.18.05-.06.03-.11.06-.17.1-.04.03-.07.07-.1.1-.04.05-.07.11-.1.17-.02.06-.04.12-.05.18,0,.07,0,.13,0,.2.01.06.03.12.05.18.03.06.06.11.1.17.03.04.07.07.1.1.05.03.11.07.17.1.06.02.12.04.18.05.07,0,.13,0,.2,0,.06-.01.12-.03.18-.05.06-.03.11-.06.17-.1.04-.03.07-.07.1-.1.04-.05.07-.11.1-.17.03-.08.05-.16.07-.24,0-.01,0-.03,0-.04,0-.01,0-.03,0-.04-.02-.08-.04-.16-.07-.24Z"/><path class="cls-1" d="m82.55,67.61c-.03-.06-.06-.11-.1-.17-.03-.04-.07-.07-.1-.1-.05-.04-.11-.07-.16-.1-.06-.02-.12-.04-.18-.05-.07,0-.13,0-.2,0-.06.01-.12.03-.18.05-.06.03-.11.06-.17.1-.04.03-.07.07-.1.1-.04.05-.07.11-.1.17-.02.06-.04.12-.05.18,0,.07,0,.13,0,.2.01.06.03.12.05.18.03.06.06.11.1.17.03.04.07.07.1.1.05.03.11.07.17.1.06.02.12.04.18.05.07,0,.13,0,.2,0,.06-.01.12-.03.18-.05.06-.03.11-.06.17-.1.04-.03.07-.07.1-.1.04-.05.07-.11.1-.17.03-.08.05-.16.07-.24,0-.01,0-.03,0-.04,0-.01,0-.03,0-.04-.02-.08-.04-.16-.07-.24Z"/><path class="cls-4" d="m62.57,71.22c-1.14-.43-2.58-.04-3.36.89-.27.33-.44.62-.6,1.02-.12.29-.16.59-.19.9-.06.6.12,1.27.43,1.78.3.5.76.96,1.3,1.21.68.31,1.36.4,2.09.26.62-.11,1.26-.49,1.66-.97.45-.53.71-1.14.78-1.82.02-.09.03-.19.03-.29,0-.6-.17-1.24-.53-1.74-.42-.59-.94-.99-1.62-1.24Zm-.55,2.99c-.01.06-.03.12-.05.18-.02.04-.04.07-.06.11-.02.02-.04.04-.06.06-.03.02-.07.04-.11.06-.04.01-.08.02-.12.03-.04,0-.08,0-.13,0-.04,0-.08-.02-.12-.03-.04-.02-.07-.04-.11-.06-.02-.02-.04-.04-.06-.06-.02-.03-.04-.07-.06-.11-.01-.04-.02-.08-.03-.12,0-.04,0-.08,0-.13,0-.04.02-.08.03-.12.02-.04.04-.07.06-.11.02-.02.04-.04.06-.06.03-.02.07-.04.11-.06.04-.01.08-.02.12-.03.04,0,.08,0,.13,0,.04,0,.08.02.12.03.04.02.07.04.11.06.02.02.04.04.06.06.02.03.04.07.06.11.02.06.04.12.05.18,0,0,0,0,0,0s0,0,0,0Z"/></g></g></svg>