<?xml version="1.0" encoding="UTF-8"?><svg id="_レイヤー_2" xmlns="http://www.w3.org/2000/svg" viewBox="0 0 115.27 65.03"><defs><style>.cls-1{fill:#fff;}</style></defs><g id="_デザイン"><path class="cls-1" d="m66.65,43.75c.56,0,1.01-.45,1.01-1.01v-5.18c0-.56-.45-1.01-1.01-1.01h-5.18c-.56,0-1.01.45-1.01,1.01v5.18c0,.56.45,1.01,1.01,1.01h5.18Zm-4.17-5.18h3.16v3.16h-3.16v-3.16Z"/><path class="cls-1" d="m87.25,29.32h4.35c.56,0,1.01-.45,1.01-1.01v-11.85c0-.56-.45-1.01-1.01-1.01h-4.35c-.56,0-1.01.45-1.01,1.01v11.85c0,.56.45,1.01,1.01,1.01Zm1.01-11.85h2.33v9.82h-2.33v-9.82Z"/><path class="cls-1" d="m97.11,29.32h4.35c.56,0,1.01-.45,1.01-1.01v-11.85c0-.56-.45-1.01-1.01-1.01h-4.35c-.56,0-1.01.45-1.01,1.01v11.85c0,.56.45,1.01,1.01,1.01Zm1.01-11.85h2.33v9.82h-2.33v-9.82Z"/><path class="cls-1" d="m68.21,50.19h-8.44c-.56,0-1.01.45-1.01,1.01v12.48c0,.19.06.37.15.52.18.29.5.49.86.49s.68-.2.86-.49c.09-.15.15-.33.15-.52v-11.47h6.41v11.47c0,.19.06.37.15.52.18.29.5.49.86.49s.68-.2.86-.49c.09-.15.15-.33.15-.52v-12.48c0-.56-.45-1.01-1.01-1.01Z"/><path class="cls-1" d="m114.06,0h-39.13c-.67,0-1.21.54-1.21,1.21v27.46h-20.54c-.67,0-1.21.54-1.21,1.21v33.79c0,.19.05.37.12.52.2.41.61.69,1.09.69s.89-.28,1.09-.69c.08-.16.12-.34.12-.52V31.1h19.32v32.58c0,.19.05.37.12.52.2.41.61.69,1.09.69s.89-.28,1.09-.69c.08-.16.12-.34.12-.52v-11.26h36.7v11.26c0,.19.05.37.12.52.2.41.61.69,1.09.69s.89-.28,1.09-.69c.08-.16.12-.34.12-.52V1.21c0-.67-.54-1.21-1.21-1.21Zm-1.21,49.99h-36.7V8.95h36.7v41.04Zm0-43.46h-36.7V2.43h36.7v4.1Z"/><path class="cls-1" d="m41.21,50.33h-14.08c-.56,0-1.01.45-1.01,1.01v12.48s0,.08.01.11c.06.5.48.9,1,.9s.94-.39,1-.9c0-.04.01-.07.01-.11v-11.47h12.05v11.47s0,.08.01.11c.06.5.48.9,1,.9s.94-.39,1-.9c0-.04.01-.07.01-.11v-12.48c0-.56-.45-1.01-1.01-1.01Z"/><path class="cls-1" d="m10.26,45.6h7.05c.56,0,1.01-.45,1.01-1.01v-7.05c0-.56-.45-1.01-1.01-1.01h-7.05c-.56,0-1.01.45-1.01,1.01v7.05c0,.56.45,1.01,1.01,1.01Zm1.01-7.05h5.03v5.03h-5.03v-5.03Z"/><path class="cls-1" d="m17.5,50.33h-7.44c-.56,0-1.01.45-1.01,1.01v12.48s0,.08.01.11c.06.5.48.9,1,.9s.94-.39,1-.9c0-.04.01-.07.01-.11v-11.47h5.42v11.47s0,.08.01.11c.06.5.48.9,1,.9s.94-.39,1-.9c0-.04.01-.07.01-.11v-12.48c0-.56-.45-1.01-1.01-1.01Z"/><path class="cls-1" d="m49.42,30.13l-23.79-14.56c-.39-.24-.88-.24-1.27,0L.58,30.13c-.36.22-.58.61-.58,1.03v32.66s0,.08.01.11c.06.62.57,1.1,1.2,1.1s1.14-.48,1.2-1.1c0-.04.01-.07.01-.11v-31.98l22.58-13.81,22.57,13.81v31.98s0,.08.01.11c.06.62.57,1.1,1.2,1.1s1.14-.48,1.2-1.1c0-.04.01-.07.01-.11V31.16c0-.42-.22-.81-.58-1.03Z"/><path class="cls-1" d="m27.13,38.71h5.46c.56,0,1.01-.45,1.01-1.01v-5.46c0-.56-.45-1.01-1.01-1.01h-5.46c-.56,0-1.01.45-1.01,1.01v5.46c0,.56.45,1.01,1.01,1.01Zm1.01-5.46h3.44v3.44h-3.44v-3.44Z"/></g></svg>