<?xml version="1.0" encoding="UTF-8"?><svg id="_レイヤー_2" xmlns="http://www.w3.org/2000/svg" viewBox="0 0 99.7 63.39"><defs><style>.cls-1{fill:#fff;}</style></defs><g id="_デザイン"><path class="cls-1" d="m98.63,0H1.07C.48,0,0,.48,0,1.07v61.25c0,.16.04.31.1.44.17.37.54.63.97.63s.8-.26.97-.63c.06-.14.1-.28.1-.44v-16.8h95.42v16.8c0,.16.04.31.1.44.17.37.54.63.97.63s.8-.26.97-.63c.06-.14.1-.28.1-.44V1.07c0-.59-.48-1.07-1.07-1.07Zm-60.64,43.38H2.14v-3.27h35.84v3.27Zm-30.17-5.41v-6.88h3.63v6.88h-3.63Zm5.42,0v-6.88h3.63v6.88h-3.63Zm10.03,0v-6.88h3.63v6.88h-3.63Zm5.42,0v-6.88h3.63v6.88h-3.63Zm9.31,0h-3.89v-7.77c0-.49-.4-.89-.89-.89h-10.83c-.49,0-.89.4-.89.89v7.77h-2.84v-7.77c0-.49-.4-.89-.89-.89H6.92c-.49,0-.89.4-.89.89v7.77h-3.89v-13.83h35.84v13.83Zm0-15.97H2.14v-3.27h35.84v3.27Zm-30.17-5.41v-6.88h3.63v6.88h-3.63Zm5.42,0v-6.88h3.63v6.88h-3.63Zm10.03,0v-6.88h3.63v6.88h-3.63Zm5.42,0v-6.88h3.63v6.88h-3.63Zm9.31,0h-3.89v-7.77c0-.49-.4-.89-.89-.89h-10.83c-.49,0-.89.4-.89.89v7.77h-2.84v-7.77c0-.49-.4-.89-.89-.89H6.92c-.49,0-.89.4-.89.89v7.77h-3.89V2.14h35.84v14.45Zm21.59,1.07v25.72h-19.45V2.14h19.45v15.52Zm37.98,25.72h-35.84v-3.27h35.84v3.27Zm-30.17-5.41v-6.88h3.63v6.88h-3.63Zm5.42,0v-6.88h3.63v6.88h-3.63Zm10.03,0v-6.88h3.63v6.88h-3.63Zm5.42,0v-6.88h3.63v6.88h-3.63Zm9.31,0h-3.89v-7.77c0-.49-.4-.89-.89-.89h-10.83c-.49,0-.89.4-.89.89v7.77h-2.84v-7.77c0-.49-.4-.89-.89-.89h-10.83c-.49,0-.89.4-.89.89v7.77h-3.89v-13.83h35.84v13.83Zm0-15.97h-35.84v-3.27h35.84v3.27Zm-30.17-5.41v-6.88h3.63v6.88h-3.63Zm5.42,0v-6.88h3.63v6.88h-3.63Zm10.03,0v-6.88h3.63v6.88h-3.63Zm5.42,0v-6.88h3.63v6.88h-3.63Zm9.31,0h-3.89v-7.77c0-.49-.4-.89-.89-.89h-10.83c-.49,0-.89.4-.89.89v7.77h-2.84v-7.77c0-.49-.4-.89-.89-.89h-10.83c-.49,0-.89.4-.89.89v7.77h-3.89V2.14h35.84v14.45Z"/><path class="cls-1" d="m57.02,50.16h-14.34c-.49,0-.89.4-.89.89v11.27c0,.16.05.31.12.44.15.27.44.45.77.45s.61-.18.77-.45c.08-.13.12-.28.12-.44v-10.37h12.56v10.37c0,.16.05.31.12.44.15.27.44.45.77.45s.61-.18.77-.45c.08-.13.12-.28.12-.44v-11.27c0-.49-.4-.89-.89-.89Z"/><path class="cls-1" d="m44.43,19.27h10.83c.49,0,.89-.4.89-.89v-8.83c0-.49-.4-.89-.89-.89h-10.83c-.49,0-.89.4-.89.89v8.83c0,.49.4.89.89.89Zm6.31-8.83h3.63v7.05h-3.63v-7.05Zm-5.42,0h3.63v7.05h-3.63v-7.05Z"/><path class="cls-1" d="m44.43,37.17h10.83c.49,0,.89-.4.89-.89v-8.84c0-.49-.4-.89-.89-.89h-10.83c-.49,0-.89.4-.89.89v8.84c0,.49.4.89.89.89Zm6.31-8.84h3.63v7.05h-3.63v-7.05Zm-5.42,0h3.63v7.05h-3.63v-7.05Z"/><path class="cls-1" d="m77.33,49.63h-10.83c-.49,0-.89.4-.89.89v8.83c0,.49.4.89.89.89h10.83c.49,0,.89-.4.89-.89v-8.83c0-.49-.4-.89-.89-.89Zm-6.31,8.83h-3.63v-7.05h3.63v7.05Zm5.42,0h-3.63v-7.05h3.63v7.05Z"/><path class="cls-1" d="m92.77,49.63h-10.83c-.49,0-.89.4-.89.89v8.83c0,.49.4.89.89.89h10.83c.49,0,.89-.4.89-.89v-8.83c0-.49-.4-.89-.89-.89Zm-6.31,8.83h-3.63v-7.05h3.63v7.05Zm5.42,0h-3.63v-7.05h3.63v7.05Z"/><path class="cls-1" d="m17.75,49.63H6.92c-.49,0-.89.4-.89.89v8.83c0,.49.4.89.89.89h10.83c.49,0,.89-.4.89-.89v-8.83c0-.49-.4-.89-.89-.89Zm-6.31,8.83h-3.63v-7.05h3.63v7.05Zm5.42,0h-3.63v-7.05h3.63v7.05Z"/><path class="cls-1" d="m33.2,49.63h-10.83c-.49,0-.89.4-.89.89v8.83c0,.49.4.89.89.89h10.83c.49,0,.89-.4.89-.89v-8.83c0-.49-.4-.89-.89-.89Zm-6.31,8.83h-3.63v-7.05h3.63v7.05Zm5.42,0h-3.63v-7.05h3.63v7.05Z"/></g></svg>