<?xml version="1.0" encoding="UTF-8"?><svg id="_レイヤー_2" xmlns="http://www.w3.org/2000/svg" viewBox="0 0 267.84 253.74"><defs><style>.cls-1{fill:#fff;}.cls-2{fill:#3372b4;opacity:.8;}</style></defs><g id="_デザイン"><polygon class="cls-2" points="133.92 253.74 0 126.87 133.92 0 267.84 126.87 133.92 253.74"/><path class="cls-1" d="m101.86,82.91c-.97,0-1.81-.18-2.5-.54-.7-.36-1.31-.88-1.85-1.57l1.15-1.15c.4.55.85.97,1.37,1.25.52.28,1.15.42,1.91.42s1.34-.16,1.79-.49c.45-.32.68-.77.68-1.33,0-.47-.11-.85-.33-1.13-.22-.29-.51-.52-.87-.71-.36-.19-.76-.35-1.19-.5-.43-.14-.86-.3-1.3-.48-.43-.17-.83-.39-1.2-.66-.37-.26-.66-.6-.87-1.02s-.32-.95-.32-1.59c0-.71.17-1.31.51-1.81.34-.5.81-.88,1.4-1.15.59-.27,1.26-.4,2.01-.4.82,0,1.55.16,2.2.48s1.18.73,1.58,1.25l-1.15,1.15c-.37-.43-.77-.76-1.2-.97-.43-.22-.92-.32-1.47-.32-.67,0-1.21.15-1.6.44s-.59.71-.59,1.23c0,.42.11.76.33,1.02.22.26.51.48.87.66.36.18.76.35,1.2.5.44.15.87.31,1.31.5.43.18.83.41,1.19.68.36.28.65.63.87,1.07.22.44.33.99.33,1.65,0,1.1-.38,1.97-1.14,2.59-.76.62-1.8.94-3.1.94Z"/><path class="cls-1" d="m108.36,71.79v-1.55h10.17v1.55h-10.17Zm4.23,10.94v-12.13h1.71v12.13h-1.71Z"/><path class="cls-1" d="m121.44,82.73v-12.49h1.69v12.49h-1.69Zm1.15-10.94v-1.55h7.07v1.55h-7.07Zm0,5.31v-1.49h6.57v1.49h-6.57Zm0,5.63v-1.55h7.16v1.55h-7.16Z"/><path class="cls-1" d="m132.96,82.73v-12.49h1.69v12.49h-1.69Zm1.13-4.86v-1.48h3.4c.47,0,.88-.1,1.25-.29.37-.19.65-.46.86-.81.21-.35.31-.76.31-1.24s-.1-.89-.31-1.24-.5-.62-.86-.81c-.37-.19-.78-.29-1.25-.29h-3.4v-1.48h3.49c.77,0,1.46.16,2.07.47.61.31,1.1.75,1.45,1.32.35.57.53,1.25.53,2.03s-.18,1.44-.53,2.02c-.35.58-.84,1.02-1.45,1.33-.61.31-1.3.47-2.07.47h-3.49Z"/><path class="cls-1" d="m153.86,82.91c-.94,0-1.79-.26-2.56-.79-.77-.53-1.39-1.27-1.85-2.24-.46-.97-.68-2.1-.68-3.41s.22-2.44.67-3.4,1.06-1.7,1.83-2.22c.77-.52,1.61-.78,2.54-.78s1.81.26,2.57.78,1.38,1.26,1.83,2.22c.45.96.67,2.1.67,3.42s-.23,2.45-.67,3.41c-.45.97-1.06,1.71-1.82,2.23-.76.52-1.61.78-2.53.78Zm-.04-1.6c.66,0,1.24-.18,1.74-.55.5-.37.89-.91,1.18-1.63.29-.72.43-1.61.43-2.66s-.14-1.93-.43-2.65c-.29-.72-.68-1.26-1.19-1.62-.5-.36-1.09-.54-1.75-.54s-1.22.18-1.73.54c-.5.36-.9.9-1.18,1.61-.28.71-.42,1.6-.42,2.65s.14,1.94.42,2.66c.28.72.67,1.26,1.18,1.63.5.37,1.09.55,1.75.55Z"/><path class="cls-1" d="m161.22,81.71l4.61-4.86c.46-.48.82-.9,1.09-1.25.27-.35.46-.68.57-.98.11-.3.16-.61.16-.94,0-.64-.2-1.13-.6-1.49-.4-.36-.93-.54-1.58-.54s-1.19.15-1.67.46c-.48.31-.91.78-1.28,1.41l-1.19-.99c.48-.82,1.07-1.43,1.76-1.84.7-.41,1.51-.62,2.43-.62.77,0,1.44.15,2.01.45.57.3,1.01.72,1.32,1.26.31.54.47,1.17.47,1.89,0,.52-.06.98-.19,1.39-.13.41-.35.83-.67,1.25-.32.43-.76.93-1.32,1.52l-3.73,3.83-2.2.05Zm0,1.03v-1.03l1.44-.49h6.95v1.51h-8.39Z"/><path class="cls-1" d="m125.33,168.26c-15.25,0-27.66-12.41-27.66-27.66s12.41-27.66,27.66-27.66,27.66,12.41,27.66,27.66-12.41,27.66-27.66,27.66Zm0-52.94c-13.94,0-25.28,11.34-25.28,25.28s11.34,25.28,25.28,25.28,25.28-11.34,25.28-25.28-11.34-25.28-25.28-25.28Z"/><path class="cls-1" d="m163.24,183.71c-1.37,0-2.66-.53-3.63-1.5l-18.95-18.95c-.46-.46-.46-1.22,0-1.68l5.63-5.63c.46-.46,1.22-.46,1.68,0l18.95,18.95c.97.97,1.5,2.26,1.5,3.63s-.53,2.66-1.5,3.63c-1.03,1.03-2.32,1.56-3.69,1.56Zm-20.05-21.29l18.11,18.11h0c1.04,1.04,2.86,1.04,3.9,0,.58-.58.86-1.27.86-2s-.29-1.43-.81-1.95l-18.11-18.11-3.95,3.95Z"/><path class="cls-1" d="m108.37,141.8c-.66,0-1.19-.53-1.19-1.19,0-10.01,8.14-18.15,18.15-18.15.66,0,1.19.53,1.19,1.19s-.53,1.19-1.19,1.19c-8.69,0-15.77,7.07-15.77,15.77,0,.66-.53,1.19-1.19,1.19Z"/></g></svg>