<?xml version="1.0" encoding="UTF-8"?>
<svg id="_レイヤー_2" data-name="レイヤー 2" xmlns="http://www.w3.org/2000/svg" xmlns:xlink="http://www.w3.org/1999/xlink" viewBox="0 0 193.51 202.76">
  <defs>
    <style>
      .cls-1 {
        fill: url(#_名称未設定グラデーション_58-74);
      }

      .cls-1, .cls-2, .cls-3, .cls-4, .cls-5, .cls-6, .cls-7, .cls-8, .cls-9, .cls-10, .cls-11, .cls-12, .cls-13, .cls-14, .cls-15, .cls-16, .cls-17, .cls-18, .cls-19, .cls-20, .cls-21, .cls-22, .cls-23, .cls-24, .cls-25, .cls-26, .cls-27, .cls-28, .cls-29, .cls-30, .cls-31, .cls-32, .cls-33, .cls-34, .cls-35, .cls-36, .cls-37, .cls-38, .cls-39, .cls-40, .cls-41, .cls-42, .cls-43, .cls-44, .cls-45, .cls-46, .cls-47, .cls-48, .cls-49, .cls-50, .cls-51, .cls-52, .cls-53, .cls-54, .cls-55, .cls-56, .cls-57, .cls-58, .cls-59, .cls-60, .cls-61, .cls-62, .cls-63, .cls-64, .cls-65, .cls-66, .cls-67, .cls-68, .cls-69, .cls-70, .cls-71, .cls-72, .cls-73, .cls-74, .cls-75, .cls-76, .cls-77, .cls-78, .cls-79, .cls-80 {
        stroke-width: 0px;
      }

      .cls-2 {
        fill: url(#_名称未設定グラデーション_58-41);
      }

      .cls-3 {
        fill: url(#_名称未設定グラデーション_58-55);
      }

      .cls-4 {
        fill: url(#_名称未設定グラデーション_58-78);
      }

      .cls-5 {
        fill: url(#_名称未設定グラデーション_58-7);
      }

      .cls-6 {
        fill: url(#_名称未設定グラデーション_58-76);
      }

      .cls-7 {
        fill: url(#_名称未設定グラデーション_58-69);
      }

      .cls-8 {
        fill: url(#_名称未設定グラデーション_58-22);
      }

      .cls-9 {
        fill: url(#_名称未設定グラデーション_58-45);
      }

      .cls-10 {
        fill: url(#_名称未設定グラデーション_58-35);
      }

      .cls-11 {
        fill: url(#_名称未設定グラデーション_58-53);
      }

      .cls-12 {
        fill: url(#_名称未設定グラデーション_58-29);
      }

      .cls-13 {
        fill: url(#_名称未設定グラデーション_58-24);
      }

      .cls-14 {
        fill: url(#_名称未設定グラデーション_58-54);
      }

      .cls-15 {
        fill: url(#_名称未設定グラデーション_58-65);
      }

      .cls-16 {
        fill: url(#_名称未設定グラデーション_58-60);
      }

      .cls-17 {
        fill: url(#_名称未設定グラデーション_58-75);
      }

      .cls-18 {
        fill: url(#_名称未設定グラデーション_58-38);
      }

      .cls-19 {
        fill: url(#_名称未設定グラデーション_58-39);
      }

      .cls-20 {
        fill: url(#_名称未設定グラデーション_58-77);
      }

      .cls-21 {
        fill: url(#_名称未設定グラデーション_58-50);
      }

      .cls-22 {
        fill: url(#_名称未設定グラデーション_58-18);
      }

      .cls-23 {
        fill: url(#_名称未設定グラデーション_58-56);
      }

      .cls-24 {
        fill: url(#_名称未設定グラデーション_58-15);
      }

      .cls-25 {
        fill: url(#_名称未設定グラデーション_58-36);
      }

      .cls-26 {
        fill: url(#_名称未設定グラデーション_58-17);
      }

      .cls-27 {
        fill: url(#_名称未設定グラデーション_58-72);
      }

      .cls-28 {
        fill: url(#_名称未設定グラデーション_58-31);
      }

      .cls-29 {
        fill: url(#_名称未設定グラデーション_58-23);
      }

      .cls-30 {
        fill: url(#_名称未設定グラデーション_58-70);
      }

      .cls-31 {
        fill: url(#_名称未設定グラデーション_58-44);
      }

      .cls-32 {
        fill: url(#_名称未設定グラデーション_58-33);
      }

      .cls-33 {
        fill: url(#_名称未設定グラデーション_58-63);
      }

      .cls-34 {
        fill: url(#_名称未設定グラデーション_58-9);
      }

      .cls-35 {
        fill: url(#_名称未設定グラデーション_58-27);
      }

      .cls-36 {
        fill: url(#_名称未設定グラデーション_58-16);
      }

      .cls-37 {
        fill: #fff;
      }

      .cls-38 {
        fill: url(#_名称未設定グラデーション_58-14);
      }

      .cls-39 {
        fill: url(#_名称未設定グラデーション_58-4);
      }

      .cls-40 {
        fill: url(#_名称未設定グラデーション_58-40);
      }

      .cls-41 {
        fill: url(#_名称未設定グラデーション_58-32);
      }

      .cls-42 {
        fill: url(#_名称未設定グラデーション_58-68);
      }

      .cls-43 {
        fill: url(#_名称未設定グラデーション_58-6);
      }

      .cls-44 {
        fill: url(#_名称未設定グラデーション_58-66);
      }

      .cls-45 {
        fill: url(#_名称未設定グラデーション_58-20);
      }

      .cls-46 {
        fill: url(#_名称未設定グラデーション_58-61);
      }

      .cls-47 {
        fill: url(#_名称未設定グラデーション_58-19);
      }

      .cls-48 {
        fill: url(#_名称未設定グラデーション_58-21);
      }

      .cls-49 {
        fill: url(#_名称未設定グラデーション_58-57);
      }

      .cls-50 {
        fill: url(#_名称未設定グラデーション_58-26);
      }

      .cls-51 {
        fill: url(#_名称未設定グラデーション_58-42);
      }

      .cls-52 {
        fill: url(#_名称未設定グラデーション_58-51);
      }

      .cls-53 {
        fill: url(#_名称未設定グラデーション_58-52);
      }

      .cls-54 {
        fill: url(#_名称未設定グラデーション_58-47);
      }

      .cls-55 {
        fill: url(#_名称未設定グラデーション_58-48);
      }

      .cls-56 {
        fill: url(#_名称未設定グラデーション_58-34);
      }

      .cls-57 {
        fill: url(#_名称未設定グラデーション_58-37);
      }

      .cls-58 {
        fill: url(#_名称未設定グラデーション_58-58);
      }

      .cls-59 {
        fill: url(#_名称未設定グラデーション_58-13);
      }

      .cls-60 {
        fill: url(#_名称未設定グラデーション_58-2);
      }

      .cls-61 {
        fill: url(#_名称未設定グラデーション_58-5);
      }

      .cls-62 {
        fill: url(#_名称未設定グラデーション_58-64);
      }

      .cls-63 {
        fill: url(#_名称未設定グラデーション_58-62);
      }

      .cls-64 {
        fill: url(#_名称未設定グラデーション_58-11);
      }

      .cls-65 {
        fill: url(#_名称未設定グラデーション_58-30);
      }

      .cls-66 {
        fill: url(#_名称未設定グラデーション_58-28);
      }

      .cls-67 {
        fill: url(#_名称未設定グラデーション_58-12);
      }

      .cls-68 {
        fill: url(#_名称未設定グラデーション_58-3);
      }

      .cls-69 {
        fill: url(#_名称未設定グラデーション_58);
      }

      .cls-70 {
        fill: url(#_名称未設定グラデーション_58-71);
      }

      .cls-71 {
        fill: url(#_名称未設定グラデーション_58-67);
      }

      .cls-72 {
        fill: url(#_名称未設定グラデーション_58-49);
      }

      .cls-73 {
        fill: url(#_名称未設定グラデーション_58-79);
      }

      .cls-74 {
        fill: url(#_名称未設定グラデーション_58-10);
      }

      .cls-75 {
        fill: url(#_名称未設定グラデーション_58-43);
      }

      .cls-76 {
        fill: url(#_名称未設定グラデーション_58-8);
      }

      .cls-77 {
        fill: url(#_名称未設定グラデーション_58-25);
      }

      .cls-78 {
        fill: url(#_名称未設定グラデーション_58-59);
      }

      .cls-79 {
        fill: url(#_名称未設定グラデーション_58-73);
      }

      .cls-80 {
        fill: url(#_名称未設定グラデーション_58-46);
      }
    </style>
    <linearGradient id="_名称未設定グラデーション_58" data-name="名称未設定グラデーション 58" x1="24.98" y1="61.32" x2="128.4" y2="-42.1" gradientUnits="userSpaceOnUse">
      <stop offset="0" stop-color="#f5b500"/>
      <stop offset=".6" stop-color="#e3a400"/>
      <stop offset=".79" stop-color="#f6ce00"/>
      <stop offset=".79" stop-color="#f6cc01"/>
      <stop offset=".86" stop-color="#f6ba13"/>
      <stop offset=".92" stop-color="#f6af1e"/>
      <stop offset="1" stop-color="#f6ac22"/>
    </linearGradient>
    <linearGradient id="_名称未設定グラデーション_58-2" data-name="名称未設定グラデーション 58" x1="3.33" y1="86.12" x2="186.35" y2="-96.9" xlink:href="#_名称未設定グラデーション_58"/>
    <linearGradient id="_名称未設定グラデーション_58-3" data-name="名称未設定グラデーション 58" x1="15.33" y1="73.06" x2="151.25" y2="-62.85" xlink:href="#_名称未設定グラデーション_58"/>
    <linearGradient id="_名称未設定グラデーション_58-4" data-name="名称未設定グラデーション 58" x1="4.8" y1="79.06" x2="176.21" y2="-92.35" xlink:href="#_名称未設定グラデーション_58"/>
    <linearGradient id="_名称未設定グラデーション_58-5" data-name="名称未設定グラデーション 58" x1="-3.07" y1="78.89" x2="209.25" y2="-133.43" xlink:href="#_名称未設定グラデーション_58"/>
    <linearGradient id="_名称未設定グラデーション_58-6" data-name="名称未設定グラデーション 58" x1="23.82" y1="67.84" x2="110.87" y2="-19.21" xlink:href="#_名称未設定グラデーション_58"/>
    <linearGradient id="_名称未設定グラデーション_58-7" data-name="名称未設定グラデーション 58" x1=".69" y1="75.2" x2="189.92" y2="-114.03" xlink:href="#_名称未設定グラデーション_58"/>
    <linearGradient id="_名称未設定グラデーション_58-8" data-name="名称未設定グラデーション 58" x1="15.99" y1="75.71" x2="118.38" y2="-26.68" xlink:href="#_名称未設定グラデーション_58"/>
    <linearGradient id="_名称未設定グラデーション_58-9" data-name="名称未設定グラデーション 58" x1="2.46" y1="77.06" x2="165.8" y2="-86.28" xlink:href="#_名称未設定グラデーション_58"/>
    <linearGradient id="_名称未設定グラデーション_58-10" data-name="名称未設定グラデーション 58" x1="10.05" y1="84.61" x2="128.67" y2="-34.01" xlink:href="#_名称未設定グラデーション_58"/>
    <linearGradient id="_名称未設定グラデーション_58-11" data-name="名称未設定グラデーション 58" x1="2.45" y1="84.08" x2="144.24" y2="-57.71" xlink:href="#_名称未設定グラデーション_58"/>
    <linearGradient id="_名称未設定グラデーション_58-12" data-name="名称未設定グラデーション 58" x1="5.83" y1="94.92" x2="142.51" y2="-41.75" xlink:href="#_名称未設定グラデーション_58"/>
    <linearGradient id="_名称未設定グラデーション_58-13" data-name="名称未設定グラデーション 58" x1="1.96" y1="94.84" x2="124.74" y2="-27.93" xlink:href="#_名称未設定グラデーション_58"/>
    <linearGradient id="_名称未設定グラデーション_58-14" data-name="名称未設定グラデーション 58" x1="3.02" y1="106.89" x2="159.62" y2="-49.72" xlink:href="#_名称未設定グラデーション_58"/>
    <linearGradient id="_名称未設定グラデーション_58-15" data-name="名称未設定グラデーション 58" x1="1.93" y1="108.07" x2="105.5" y2="4.5" xlink:href="#_名称未設定グラデーション_58"/>
    <linearGradient id="_名称未設定グラデーション_58-16" data-name="名称未設定グラデーション 58" x1=".87" y1="120.81" x2="181.35" y2="-59.68" xlink:href="#_名称未設定グラデーション_58"/>
    <linearGradient id="_名称未設定グラデーション_58-17" data-name="名称未設定グラデーション 58" x1="2.83" y1="122.91" x2="90.77" y2="34.96" xlink:href="#_名称未設定グラデーション_58"/>
    <linearGradient id="_名称未設定グラデーション_58-18" data-name="名称未設定グラデーション 58" x1="-.97" y1="136.66" x2="204.2" y2="-68.5" xlink:href="#_名称未設定グラデーション_58"/>
    <linearGradient id="_名称未設定グラデーション_58-19" data-name="名称未設定グラデーション 58" x1="5.07" y1="138.54" x2="84.24" y2="59.37" xlink:href="#_名称未設定グラデーション_58"/>
    <linearGradient id="_名称未設定グラデーション_58-20" data-name="名称未設定グラデーション 58" x1="-3.1" y1="154.69" x2="225.16" y2="-73.57" xlink:href="#_名称未設定グラデーション_58"/>
    <linearGradient id="_名称未設定グラデーション_58-21" data-name="名称未設定グラデーション 58" x1="8.61" y1="154.55" x2="85.63" y2="77.54" xlink:href="#_名称未設定グラデーション_58"/>
    <linearGradient id="_名称未設定グラデーション_58-22" data-name="名称未設定グラデーション 58" x1="-4.46" y1="173.35" x2="228.68" y2="-59.79" xlink:href="#_名称未設定グラデーション_58"/>
    <linearGradient id="_名称未設定グラデーション_58-23" data-name="名称未設定グラデーション 58" x1="12.75" y1="171.07" x2="94.93" y2="88.9" xlink:href="#_名称未設定グラデーション_58"/>
    <linearGradient id="_名称未設定グラデーション_58-24" data-name="名称未設定グラデーション 58" x1="-4.03" y1="191.11" x2="217.38" y2="-30.3" xlink:href="#_名称未設定グラデーション_58"/>
    <linearGradient id="_名称未設定グラデーション_58-25" data-name="名称未設定グラデーション 58" x1="16.29" y1="188.83" x2="111.29" y2="93.83" xlink:href="#_名称未設定グラデーション_58"/>
    <linearGradient id="_名称未設定グラデーション_58-26" data-name="名称未設定グラデーション 58" x1="-.96" y1="206.54" x2="198.59" y2="6.99" xlink:href="#_名称未設定グラデーション_58"/>
    <linearGradient id="_名称未設定グラデーション_58-27" data-name="名称未設定グラデーション 58" x1="18.77" y1="207.82" x2="129.63" y2="96.96" xlink:href="#_名称未設定グラデーション_58"/>
    <linearGradient id="_名称未設定グラデーション_58-28" data-name="名称未設定グラデーション 58" x1="4.91" y1="219.18" x2="179.55" y2="44.55" xlink:href="#_名称未設定グラデーション_58"/>
    <linearGradient id="_名称未設定グラデーション_58-29" data-name="名称未設定グラデーション 58" x1="19.47" y1="227.98" x2="147.48" y2="99.98" xlink:href="#_名称未設定グラデーション_58"/>
    <linearGradient id="_名称未設定グラデーション_58-30" data-name="名称未設定グラデーション 58" x1="13.33" y1="228.73" x2="164.29" y2="77.77" xlink:href="#_名称未設定グラデーション_58"/>
    <linearGradient id="_名称未設定グラデーション_58-31" data-name="名称未設定グラデーション 58" x1="17.37" y1="249.48" x2="164.25" y2="102.59" xlink:href="#_名称未設定グラデーション_58"/>
    <linearGradient id="_名称未設定グラデーション_58-32" data-name="名称未設定グラデーション 58" x1="22.94" y1="236.01" x2="155.64" y2="103.31" xlink:href="#_名称未設定グラデーション_58"/>
    <linearGradient id="_名称未設定グラデーション_58-33" data-name="名称未設定グラデーション 58" x1="11" y1="273.35" x2="180.21" y2="104.14" xlink:href="#_名称未設定グラデーション_58"/>
    <linearGradient id="_名称未設定グラデーション_58-34" data-name="名称未設定グラデーション 58" x1="35.53" y1="238.8" x2="149.37" y2="124.96" xlink:href="#_名称未設定グラデーション_58"/>
    <linearGradient id="_名称未設定グラデーション_58-35" data-name="名称未設定グラデーション 58" x1="19.21" y1="153.24" x2="185.91" y2="-13.47" xlink:href="#_名称未設定グラデーション_58"/>
    <linearGradient id="_名称未設定グラデーション_58-36" data-name="名称未設定グラデーション 58" x1="80.72" y1="99.75" x2="167.04" y2="13.42" xlink:href="#_名称未設定グラデーション_58"/>
    <linearGradient id="_名称未設定グラデーション_58-37" data-name="名称未設定グラデーション 58" x1="86.37" y1="94.63" x2="162.82" y2="18.19" xlink:href="#_名称未設定グラデーション_58"/>
    <linearGradient id="_名称未設定グラデーション_58-38" data-name="名称未設定グラデーション 58" x1="66.72" y1="131.8" x2="174.29" y2="24.23" xlink:href="#_名称未設定グラデーション_58"/>
    <linearGradient id="_名称未設定グラデーション_58-39" data-name="名称未設定グラデーション 58" x1="16.89" y1="179.67" x2="189.13" y2="7.42" xlink:href="#_名称未設定グラデーション_58"/>
    <linearGradient id="_名称未設定グラデーション_58-40" data-name="名称未設定グラデーション 58" x1="82.12" y1="134.97" x2="176.03" y2="41.06" xlink:href="#_名称未設定グラデーション_58"/>
    <linearGradient id="_名称未設定グラデーション_58-41" data-name="名称未設定グラデーション 58" x1="-11" y1="229.01" x2="195.05" y2="22.97" xlink:href="#_名称未設定グラデーション_58"/>
    <linearGradient id="_名称未設定グラデーション_58-42" data-name="名称未設定グラデーション 58" x1="95.15" y1="140.25" x2="178.63" y2="56.77" xlink:href="#_名称未設定グラデーション_58"/>
    <linearGradient id="_名称未設定グラデーション_58-43" data-name="名称未設定グラデーション 58" x1="-34.29" y1="273.61" x2="197.05" y2="42.27" xlink:href="#_名称未設定グラデーション_58"/>
    <linearGradient id="_名称未設定グラデーション_58-44" data-name="名称未設定グラデーション 58" x1="101.31" y1="151.61" x2="181.55" y2="71.37" xlink:href="#_名称未設定グラデーション_58"/>
    <linearGradient id="_名称未設定グラデーション_58-45" data-name="名称未設定グラデーション 58" x1="-46.94" y1="306.48" x2="196.67" y2="62.88" xlink:href="#_名称未設定グラデーション_58"/>
    <linearGradient id="_名称未設定グラデーション_58-46" data-name="名称未設定グラデーション 58" x1="100.79" y1="168.35" x2="183.87" y2="85.28" xlink:href="#_名称未設定グラデーション_58"/>
    <linearGradient id="_名称未設定グラデーション_58-47" data-name="名称未設定グラデーション 58" x1="-37.6" y1="315.7" x2="195.27" y2="82.83" xlink:href="#_名称未設定グラデーション_58"/>
    <linearGradient id="_名称未設定グラデーション_58-48" data-name="名称未設定グラデーション 58" x1="94.53" y1="189.12" x2="185.23" y2="98.42" xlink:href="#_名称未設定グラデーション_58"/>
    <linearGradient id="_名称未設定グラデーション_58-49" data-name="名称未設定グラデーション 58" x1="-11.85" y1="306.43" x2="194.09" y2="100.49" xlink:href="#_名称未設定グラデーション_58"/>
    <linearGradient id="_名称未設定グラデーション_58-50" data-name="名称未設定グラデーション 58" x1="82.59" y1="213.49" x2="185.76" y2="110.31" xlink:href="#_名称未設定グラデーション_58"/>
    <linearGradient id="_名称未設定グラデーション_58-51" data-name="名称未設定グラデーション 58" x1="17.5" y1="291.14" x2="193.16" y2="115.48" xlink:href="#_名称未設定グラデーション_58"/>
    <linearGradient id="_名称未設定グラデーション_58-52" data-name="名称未設定グラデーション 58" x1="66.34" y1="239.69" x2="185.83" y2="120.21" xlink:href="#_名称未設定グラデーション_58"/>
    <linearGradient id="_名称未設定グラデーション_58-53" data-name="名称未設定グラデーション 58" x1="39.87" y1="280.05" x2="191.7" y2="128.22" xlink:href="#_名称未設定グラデーション_58"/>
    <linearGradient id="_名称未設定グラデーション_58-54" data-name="名称未設定グラデーション 58" x1="49.74" y1="263.49" x2="185.89" y2="127.34" xlink:href="#_名称未設定グラデーション_58"/>
    <linearGradient id="_名称未設定グラデーション_58-55" data-name="名称未設定グラデーション 58" x1="56.88" y1="271.23" x2="188.95" y2="139.16" xlink:href="#_名称未設定グラデーション_58"/>
    <linearGradient id="_名称未設定グラデーション_58-56" data-name="名称未設定グラデーション 58" x1="30.07" y1="287.43" x2="187.22" y2="130.28" xlink:href="#_名称未設定グラデーション_58"/>
    <linearGradient id="_名称未設定グラデーション_58-57" data-name="名称未設定グラデーション 58" x1="69.57" y1="263.52" x2="184.5" y2="148.6" xlink:href="#_名称未設定グラデーション_58"/>
    <linearGradient id="_名称未設定グラデーション_58-58" data-name="名称未設定グラデーション 58" x1="3.32" y1="315.51" x2="192.3" y2="126.52" xlink:href="#_名称未設定グラデーション_58"/>
    <linearGradient id="_名称未設定グラデーション_58-59" data-name="名称未設定グラデーション 58" x1="78.08" y1="256.65" x2="178.04" y2="156.69" xlink:href="#_名称未設定グラデーション_58"/>
    <linearGradient id="_名称未設定グラデーション_58-60" data-name="名称未設定グラデーション 58" x1="-18.93" y1="336.18" x2="200.11" y2="117.14" xlink:href="#_名称未設定グラデーション_58"/>
    <linearGradient id="_名称未設定グラデーション_58-61" data-name="名称未設定グラデーション 58" x1="81.28" y1="251.48" x2="169.7" y2="163.06" xlink:href="#_名称未設定グラデーション_58"/>
    <linearGradient id="_名称未設定グラデーション_58-62" data-name="名称未設定グラデーション 58" x1="-30.62" y1="343.29" x2="208.2" y2="104.47" xlink:href="#_名称未設定グラデーション_58"/>
    <linearGradient id="_名称未設定グラデーション_58-63" data-name="名称未設定グラデーション 58" x1="79.55" y1="247.79" x2="160.23" y2="167.11" xlink:href="#_名称未設定グラデーション_58"/>
    <linearGradient id="_名称未設定グラデーション_58-64" data-name="名称未設定グラデーション 58" x1="-29.07" y1="333.98" x2="212.13" y2="92.78" xlink:href="#_名称未設定グラデーション_58"/>
    <linearGradient id="_名称未設定グラデーション_58-65" data-name="名称未設定グラデーション 58" x1="71.47" y1="247.1" x2="151.94" y2="166.63" xlink:href="#_名称未設定グラデーション_58"/>
    <linearGradient id="_名称未設定グラデーション_58-66" data-name="名称未設定グラデーション 58" x1="-15.32" y1="309.65" x2="206.62" y2="87.71" xlink:href="#_名称未設定グラデーション_58"/>
    <linearGradient id="_名称未設定グラデーション_58-67" data-name="名称未設定グラデーション 58" x1="59.68" y1="247.06" x2="145.97" y2="160.76" xlink:href="#_名称未設定グラデーション_58"/>
    <linearGradient id="_名称未設定グラデーション_58-68" data-name="名称未設定グラデーション 58" x1="66.28" y1="29.87" x2="113.05" y2="-16.9" xlink:href="#_名称未設定グラデーション_58"/>
    <linearGradient id="_名称未設定グラデーション_58-69" data-name="名称未設定グラデーション 58" x1="73.29" y1="34.37" x2="120.05" y2="-12.4" xlink:href="#_名称未設定グラデーション_58"/>
    <linearGradient id="_名称未設定グラデーション_58-70" data-name="名称未設定グラデーション 58" x1="80.47" y1="62.73" x2="127.24" y2="15.96" xlink:href="#_名称未設定グラデーション_58"/>
    <linearGradient id="_名称未設定グラデーション_58-71" data-name="名称未設定グラデーション 58" x1="66.28" y1="29.87" x2="80.19" y2="15.96" xlink:href="#_名称未設定グラデーション_58"/>
    <linearGradient id="_名称未設定グラデーション_58-72" data-name="名称未設定グラデーション 58" x1="89.51" y1="18.14" x2="103.42" y2="4.23" xlink:href="#_名称未設定グラデーション_58"/>
    <linearGradient id="_名称未設定グラデーション_58-73" data-name="名称未設定グラデーション 58" x1="113.33" y1="29.87" x2="127.24" y2="15.96" xlink:href="#_名称未設定グラデーション_58"/>
    <linearGradient id="_名称未設定グラデーション_58-74" data-name="名称未設定グラデーション 58" x1="50.83" y1="149.51" x2="107.04" y2="93.3" xlink:href="#_名称未設定グラデーション_58"/>
    <linearGradient id="_名称未設定グラデーション_58-75" data-name="名称未設定グラデーション 58" x1="50.83" y1="149.51" x2="107.04" y2="93.3" xlink:href="#_名称未設定グラデーション_58"/>
    <linearGradient id="_名称未設定グラデーション_58-76" data-name="名称未設定グラデーション 58" x1="125.57" y1="134.47" x2="152.66" y2="134.47" xlink:href="#_名称未設定グラデーション_58"/>
    <linearGradient id="_名称未設定グラデーション_58-77" data-name="名称未設定グラデーション 58" x1="72.65" y1="95.13" x2="119.05" y2="48.72" xlink:href="#_名称未設定グラデーション_58"/>
    <linearGradient id="_名称未設定グラデーション_58-78" data-name="名称未設定グラデーション 58" x1="72.65" y1="95.13" x2="119.05" y2="48.72" xlink:href="#_名称未設定グラデーション_58"/>
    <linearGradient id="_名称未設定グラデーション_58-79" data-name="名称未設定グラデーション 58" x1="72.65" y1="95.13" x2="119.05" y2="48.72" xlink:href="#_名称未設定グラデーション_58"/>
  </defs>
  <g id="_デザイン" data-name="デザイン">
    <g>
      <g>
        <g>
          <path class="cls-69" d="m56.46,32.45s-1.39-.44-3.2-.64c-.41-.05-.85-.08-1.29-.1l1.38,2.43c1.02-.58,2.06-1.15,3.11-1.69Z"/>
          <path class="cls-60" d="m54.77,36.64c.2-.37.38-.75.54-1.12.72-1.62,1.14-3.07,1.14-3.07-1.05.54-2.08,1.11-3.11,1.69l1.42,2.5Z"/>
          <path class="cls-68" d="m45.23,39.39s0,.03,0,.03c0,0,1.15.46,2.59.71,1.48.3,3.23.43,4.51-.4.96-.68,1.79-1.85,2.45-3.1l-1.42-2.5c-2.81,1.6-5.52,3.36-8.12,5.25Z"/>
          <path class="cls-39" d="m47.8,32.56c-1.42.93-2.12,2.65-2.42,4.11-.24,1.41-.17,2.57-.15,2.73,2.6-1.9,5.31-3.65,8.12-5.25l-1.38-2.43c-1.5-.06-3.09.1-4.17.85Z"/>
          <path class="cls-61" d="m35.64,46.41s.22-.17.54-.47c.33-.3.74-.77,1.22-1.27.94-1.03,1.91-2.48,2.08-4.18.15-1.72-.4-3.69-1.04-5.3-.63-1.6-1.32-2.79-1.32-2.79,0,0-.27.26-.71.71-.44.44-1.01,1.07-1.56,1.86-1.12,1.55-2.27,3.52-2.42,5.23-.11,1.76.7,3.3,1.53,4.41.83,1.11,1.68,1.8,1.68,1.8Z"/>
          <path class="cls-43" d="m49.21,49.39c.44-.21.71-.36.71-.36,0,0-.94-1-2.28-2.06-1.34-1.05-3.14-2.2-4.74-2.34-1.61-.16-3.17.57-4.31,1.34-.58.37-.99.82-1.31,1.13-.3.32-.47.53-.47.53,0,0,.66.86,1.73,1.74,1.07.88,2.54,1.77,4.1,1.88,1.6.15,3.42-.41,4.81-1.03.72-.33,1.32-.61,1.76-.81Z"/>
          <path class="cls-5" d="m24.28,55.62c1,.95,1.95,1.49,1.95,1.49,0,0,.77-.79,1.48-1.99.36-.6.71-1.31.95-2.08.28-.74.45-1.55.41-2.39-.18-3.35-3.67-7.62-3.67-7.62,0,0-.91,1.25-1.79,2.93-.93,1.65-1.66,3.84-1.51,5.58.15,1.73,1.19,3.11,2.19,4.07Z"/>
          <path class="cls-76" d="m40.74,57.35s-4.32-3.34-7.62-3.17c-.82.04-1.6.3-2.3.66-.66.39-1.24.89-1.73,1.38-.96.97-1.52,1.9-1.52,1.9,0,0,.79.74,2,1.43,1.2.69,2.81,1.34,4.4,1.21,1.58-.13,3.2-1.05,4.55-1.82,1.31-.8,2.21-1.59,2.21-1.59Z"/>
          <path class="cls-34" d="m16.56,68.08c1.15.78,2.17,1.15,2.17,1.15,0,0,.15-.23.35-.63.19-.4.48-.95.76-1.59.55-1.28.99-2.97.59-4.64-.4-1.66-1.55-3.34-2.68-4.67-1.12-1.31-2.15-2.22-2.15-2.22,0,0-.17.34-.44.9-.25.57-.64,1.33-.89,2.26-.55,1.84-.98,4.08-.58,5.75.42,1.68,1.73,2.89,2.87,3.67Z"/>
          <path class="cls-74" d="m32.54,67.66c.35-.35.55-.57.55-.57,0,0-1.21-.64-2.83-1.21-1.6-.56-3.68-1.06-5.25-.69-1.57.37-2.8,1.58-3.62,2.67-.42.54-.72,1.08-.89,1.48-.18.4-.27.65-.27.65,0,0,.91.6,2.2,1.08,1.3.49,2.95.84,4.5.45,1.58-.37,3.09-1.51,4.2-2.54.53-.53,1.08-.97,1.42-1.33Z"/>
          <path class="cls-64" d="m11,81.65c1.26.58,2.33.78,2.33.78,0,0,.46-1,.74-2.37.23-1.39.47-3.09-.17-4.66-1.27-3.12-5.97-6.02-5.97-6.02,0,0-.44,1.48-.72,3.37-.14.94-.24,1.98-.22,2.98.06,1.01.25,1.99.61,2.79.71,1.59,2.16,2.56,3.41,3.14Z"/>
          <path class="cls-67" d="m21.83,83.34c.73-.32,1.39-.83,2-1.41.65-.56,1.23-1.19,1.72-1.79.97-1.19,1.55-2.23,1.55-2.23,0,0-5.17-1.75-8.21-.51-1.51.62-2.61,1.97-3.15,3.23-.58,1.24-.8,2.3-.8,2.3,0,0,.99.44,2.35.7,1.36.26,3.09.35,4.54-.29Z"/>
          <path class="cls-59" d="m7.74,95.94c1.34.36,2.43.38,2.43.38,0,0,.06-.27.15-.7.09-.44.19-1.05.23-1.75.09-1.39-.1-3.14-.98-4.58-1.71-2.85-6.81-4.92-6.81-4.92,0,0-.23,1.53-.24,3.42.06,1.91.44,4.19,1.37,5.63.94,1.45,2.5,2.16,3.86,2.52Z"/>
          <path class="cls-38" d="m12.28,94.16c-.2.66-.32,1.25-.39,1.69-.08.43-.06.7-.06.7,0,0,1.06.27,2.44.3,1.36.03,3.1-.17,4.45-1.04,1.36-.87,2.37-2.45,3.1-3.78.8-1.32,1.24-2.43,1.24-2.43,0,0-5.4-.87-8.27.85-1.4.86-2.11,2.41-2.52,3.72Z"/>
          <path class="cls-24" d="m2.67,108.72c1.21,1.27,2.89,1.71,4.27,1.85,1.38.14,2.46-.02,2.46-.02,0,0,.09-1.09-.09-2.48-.12-1.39-.52-3.08-1.65-4.35-1.14-1.27-3.05-2.2-4.63-2.82-1.6-.62-2.94-.91-2.94-.91,0,0-.04,1.54.38,3.41.39,1.87,1.03,4.05,2.21,5.32Z"/>
          <path class="cls-36" d="m11.07,110.51s1.08.1,2.45-.1c1.37-.2,3.03-.68,4.18-1.75,1.17-1.08,2.02-2.8,2.5-4.25.46-1.45.78-2.61.78-2.61,0,0-1.37.01-3.07.29-1.72.27-3.69.83-4.9,1.91-1.21,1.08-1.73,2.72-1.95,4.08-.16,1.36,0,2.43,0,2.43Z"/>
          <path class="cls-26" d="m4.01,124.02c1.38,1.06,3.11,1.22,4.49,1.13,1.38-.09,2.42-.43,2.42-.43,0,0-.07-1.1-.48-2.43-.43-1.34-1.03-2.95-2.38-4.02-1.34-1.07-3.3-1.68-5-2.03-1.69-.35-3.06-.42-3.06-.42,0,0,.08.37.21.98.14.6.35,1.43.71,2.32.68,1.79,1.67,3.83,3.09,4.89Z"/>
          <path class="cls-22" d="m14.97,123.9c1.32-.42,2.88-1.17,3.85-2.42.93-1.25,1.48-3.08,1.74-4.59.11-.78.21-1.44.28-1.92.06-.49.08-.79.08-.79,0,0-1.35.24-2.97.79-1.61.55-3.54,1.43-4.55,2.69-1.01,1.26-1.32,2.98-1.22,4.34.07,1.37.39,2.4.39,2.4,0,0,1.08-.08,2.4-.5Z"/>
          <path class="cls-47" d="m12.46,139.27c1.35-.32,2.32-.82,2.32-.82,0,0-.08-.26-.22-.69-.13-.43-.34-1.01-.64-1.64-.3-.63-.7-1.31-1.21-1.93-.49-.63-1.07-1.21-1.8-1.64-1.46-.84-3.57-1.1-5.3-1.16-1.72-.07-3.08.09-3.08.09,0,0,.11.37.37.94.26.57.63,1.34,1.1,2.17.9,1.67,2.33,3.49,3.85,4.31,1.51.83,3.25.7,4.61.37Z"/>
          <path class="cls-45" d="m16.05,137.22c.16.41.29.64.29.64,0,0,1.06-.26,2.29-.9,1.22-.63,2.63-1.62,3.4-3.03.77-1.41.89-3.27.96-4.81.02-.77-.02-1.44-.06-1.93-.03-.5-.05-.79-.05-.79,0,0-1.29.46-2.81,1.27-1.5.81-3.19,1.97-4.01,3.4-.41.71-.62,1.5-.68,2.28-.04.77.05,1.53.19,2.2.14.67.32,1.25.47,1.66Z"/>
          <path class="cls-48" d="m18.73,152.53c1.28-.54,2.15-1.19,2.15-1.19,0,0-.44-1-1.26-2.13-.78-1.16-1.97-2.44-3.56-3.02-3.12-1.18-8.42.32-8.42.32,0,0,.77,1.34,1.95,2.83,1.23,1.46,2.87,3.06,4.52,3.61,1.67.54,3.35.13,4.63-.41Z"/>
          <path class="cls-8" d="m22.33,150.49s1-.43,2.11-1.26c1.11-.83,2.34-2.04,2.83-3.54.51-1.51.4-3.4.14-4.9-.19-1.53-.54-2.67-.54-2.67,0,0-4.79,2.64-5.97,5.74-.56,1.53-.2,3.21.26,4.5.52,1.27,1.17,2.13,1.17,2.13Z"/>
          <path class="cls-29" d="m28.99,163.05s-.57-.94-1.56-1.92c-1.02-.97-2.35-2.08-4.01-2.39-1.67-.3-3.73.13-5.37.62-1.65.5-2.89,1.09-2.89,1.09,0,0,.93,1.23,2.4,2.46.72.62,1.54,1.27,2.4,1.79.88.5,1.8.88,2.65,1.02,1.71.28,3.3-.4,4.47-1.14,1.17-.74,1.92-1.53,1.92-1.53Z"/>
          <path class="cls-13" d="m30.28,161.98s.91-.59,1.87-1.59c.96-1,1.98-2.41,2.24-3.98.13-.79.07-1.63-.08-2.46-.13-.85-.35-1.68-.59-2.4-.51-1.44-.99-2.54-.99-2.54,0,0-1.07.85-2.23,2.11-1.17,1.26-2.4,2.93-2.69,4.53-.3,1.6.27,3.24,1.01,4.39.71,1.17,1.47,1.94,1.47,1.94Z"/>
          <path class="cls-77" d="m38.95,173.25s-.19-.2-.52-.5c-.33-.3-.82-.68-1.37-1.11-1.11-.85-2.68-1.64-4.35-1.7-3.34-.1-7.87,3.06-7.87,3.06,0,0,1.17,1.01,2.77,2.03,1.61,1.01,3.72,1.93,5.43,1.95,1.76-.03,3.22-.97,4.25-1.9,1.03-.92,1.64-1.82,1.64-1.82Z"/>
          <path class="cls-50" d="m39.49,171.55c.34.28.56.43.56.43,0,0,.8-.73,1.58-1.88.78-1.14,1.55-2.69,1.53-4.26.02-1.62-.75-3.33-1.45-4.7-.69-1.38-1.4-2.34-1.4-2.34,0,0-3.67,4.05-3.76,7.36-.06,1.66.85,3.1,1.71,4.17.43.54.9.93,1.23,1.21Z"/>
          <path class="cls-35" d="m48.32,180.39c-1.28-.58-2.88-1.22-4.57-.96-1.69.26-3.48,1.31-4.88,2.32-1.4,1.01-2.38,1.97-2.38,1.97,0,0,.32.19.87.51.53.31,1.3.7,2.19,1.05,1.76.72,3.96,1.35,5.69,1.02,1.72-.3,3-1.46,3.86-2.54.86-1.08,1.32-2.07,1.32-2.07,0,0-.85-.7-2.11-1.3Z"/>
          <path class="cls-66" d="m49.28,178.92c1.06.87,2.02,1.35,2.02,1.35,0,0,.67-.85,1.25-2.11.59-1.26,1.09-2.92.83-4.48-.29-1.54-1.29-3.16-2.21-4.38-.47-.6-.91-1.12-1.23-1.5-.32-.37-.53-.59-.53-.59,0,0-.74,1.16-1.43,2.72-.69,1.56-1.33,3.57-1.08,5.17.25,1.6,1.3,2.99,2.38,3.83Z"/>
          <path class="cls-12" d="m60.86,187.19c-1.33-.43-3.07-.66-4.67-.2-3.2,1.01-6.46,5.46-6.46,5.46,0,0,1.44.57,3.29,1.01,1.84.47,4.16.61,5.78.08,1.64-.56,2.73-1.96,3.4-3.16.68-1.21.96-2.26.96-2.26,0,0-.24-.13-.65-.3-.42-.16-.98-.41-1.65-.62Z"/>
          <path class="cls-65" d="m58.59,182.19c.47,1.6,1.81,2.66,2.97,3.39.58.36,1.14.62,1.55.76.41.15.67.22.67.22,0,0,.52-.96.89-2.29.37-1.34.58-3.02.06-4.53-.5-1.55-1.81-2.86-2.89-3.96-1.1-1.07-2.09-1.75-2.09-1.75,0,0-2.15,5.02-1.17,8.17Z"/>
          <path class="cls-28" d="m69.71,192.4c-2.99,1.52-5.45,6.42-5.45,6.42,0,0,1.5.37,3.4.48,1.92.06,4.18,0,5.72-.9,1.53-.85,2.36-2.37,2.83-3.68.46-1.3.57-2.39.57-2.39,0,0-1.03-.37-2.43-.52-1.39-.17-3.12-.22-4.63.58Z"/>
          <path class="cls-41" d="m74.78,190.11c1.29.47,2.36.59,2.36.59,0,0,.35-1.03.49-2.41.14-1.38.08-3.11-.69-4.49-.78-1.34-2.23-2.6-3.52-3.41-1.27-.86-2.34-1.41-2.34-1.41,0,0-1.3,5.34.19,8.28.75,1.43,2.22,2.35,3.5,2.84Z"/>
          <path class="cls-32" d="m88.42,194.12c-1.4.09-3.12.34-4.47,1.34-1.35,1.01-2.43,2.86-3.17,4.39-.74,1.55-1.14,2.86-1.14,2.86,0,0,.37.02,1,.04.62,0,1.48-.05,2.43-.15.95-.11,1.98-.27,2.94-.56.97-.31,1.86-.73,2.54-1.27,1.36-1.08,1.93-2.71,2.18-4.07.24-1.36.17-2.45.17-2.45,0,0-1.08-.21-2.48-.15Z"/>
          <path class="cls-56" d="m84.64,190.14c.98,1.32,2.57,1.99,3.92,2.23,1.34.27,2.42.22,2.42.22,0,0,.18-1.07.09-2.46-.09-1.38-.44-3.09-1.42-4.34-.49-.63-1.16-1.16-1.87-1.6-.71-.47-1.47-.88-2.17-1.19-.7-.32-1.34-.54-1.8-.71-.46-.18-.75-.27-.75-.27,0,0-.09,1.37.05,3.08.14,1.73.54,3.72,1.52,5.04Z"/>
          <path class="cls-10" d="m137.05,32.45c1.05.54,2.08,1.11,3.11,1.69l1.38-2.43c-.45.02-.88.05-1.29.1-1.81.21-3.2.64-3.2.64,0,0,.43,1.45,1.15,3.07.16.37.35.75.54,1.12l1.42-2.5c-1.02-.58-2.06-1.15-3.11-1.69Z"/>
          <path class="cls-25" d="m148.29,39.39c.01-.17.09-1.33-.15-2.73-.29-1.46-.99-3.18-2.42-4.11-1.08-.75-2.67-.91-4.17-.85l-1.38,2.43c2.81,1.6,5.52,3.36,8.12,5.25Z"/>
          <path class="cls-57" d="m141.19,39.74c1.28.83,3.03.71,4.51.4,1.43-.25,2.59-.71,2.59-.71,0,0,0-.02,0-.03-2.6-1.9-5.31-3.65-8.12-5.25l-1.42,2.5c.66,1.25,1.48,2.42,2.45,3.1Z"/>
          <path class="cls-18" d="m154.93,45.96c-1.14-.76-2.7-1.5-4.31-1.34-1.6.14-3.4,1.29-4.74,2.34-1.35,1.06-2.28,2.06-2.28,2.06,0,0,.26.15.71.36.43.2,1.04.48,1.76.81,1.39.62,3.21,1.18,4.81,1.03,1.56-.11,3.03-1,4.1-1.88,1.07-.88,1.73-1.74,1.73-1.74,0,0-.17-.21-.47-.53-.31-.3-.72-.76-1.31-1.13Z"/>
          <path class="cls-19" d="m156.12,44.66c.48.5.88.98,1.22,1.27.33.31.54.47.54.47,0,0,.84-.69,1.68-1.79.83-1.11,1.65-2.65,1.53-4.41-.15-1.71-1.31-3.68-2.42-5.23-.55-.79-1.12-1.43-1.56-1.86-.45-.44-.71-.71-.71-.71,0,0-.69,1.19-1.32,2.79-.63,1.61-1.19,3.58-1.04,5.3.17,1.7,1.14,3.14,2.08,4.18Z"/>
          <path class="cls-40" d="m162.69,54.84c-.7-.36-1.47-.62-2.3-.66-3.3-.17-7.62,3.16-7.62,3.16,0,0,.9.79,2.21,1.59,1.35.77,2.97,1.69,4.55,1.82,1.59.13,3.2-.52,4.4-1.21,1.2-.69,2-1.43,2-1.43,0,0-.55-.92-1.52-1.9-.48-.49-1.06-.98-1.73-1.38Z"/>
          <path class="cls-2" d="m165.8,55.13c.72,1.2,1.48,1.99,1.48,1.99,0,0,.95-.54,1.95-1.49,1-.96,2.04-2.33,2.19-4.07.15-1.73-.58-3.93-1.51-5.58-.89-1.68-1.79-2.93-1.79-2.93,0,0-3.5,4.27-3.67,7.62-.04.84.13,1.65.4,2.39.24.77.59,1.48.95,2.08Z"/>
          <path class="cls-51" d="m172.13,67.86c-.83-1.1-2.05-2.3-3.62-2.67-1.57-.37-3.65.13-5.25.69-1.62.57-2.83,1.21-2.83,1.21,0,0,.2.23.55.57.33.36.88.8,1.42,1.33,1.11,1.04,2.62,2.17,4.2,2.54,1.55.38,3.19.03,4.5-.45,1.3-.48,2.2-1.08,2.2-1.08,0,0-.09-.25-.27-.65-.17-.4-.47-.94-.89-1.48Z"/>
          <path class="cls-75" d="m174.43,68.61c.21.4.35.63.35.63,0,0,1.02-.37,2.17-1.15,1.14-.78,2.44-1.99,2.87-3.67.4-1.67-.03-3.91-.58-5.75-.25-.93-.64-1.69-.89-2.26-.28-.57-.44-.9-.44-.9,0,0-1.04.9-2.15,2.22-1.13,1.32-2.29,3-2.68,4.67-.4,1.67.04,3.35.59,4.64.28.64.57,1.19.76,1.59Z"/>
          <path class="cls-31" d="m174.63,77.41c-3.05-1.24-8.21.51-8.21.51,0,0,.58,1.04,1.55,2.23.48.59,1.07,1.23,1.72,1.79.61.58,1.27,1.09,2,1.41,1.45.64,3.18.55,4.54.29,1.36-.26,2.35-.7,2.35-.7,0,0-.21-1.06-.8-2.3-.54-1.25-1.64-2.61-3.15-3.23Z"/>
          <path class="cls-9" d="m179.45,80.06c.28,1.37.74,2.37.74,2.37,0,0,1.07-.2,2.33-.78,1.26-.58,2.7-1.54,3.41-3.14.35-.8.55-1.77.61-2.79.02-1-.08-2.04-.22-2.98-.28-1.88-.72-3.37-.72-3.37,0,0-4.7,2.9-5.97,6.02-.64,1.57-.4,3.27-.17,4.66Z"/>
          <path class="cls-80" d="m181.24,94.17c-.42-1.31-1.12-2.86-2.52-3.72-2.86-1.71-8.27-.85-8.27-.85,0,0,.44,1.11,1.24,2.43.73,1.33,1.74,2.91,3.1,3.78,1.35.87,3.09,1.07,4.45,1.04,1.38-.03,2.44-.3,2.44-.3,0,0,.02-.27-.06-.7-.07-.43-.18-1.03-.39-1.69Z"/>
          <path class="cls-54" d="m183.96,89.29c-.88,1.44-1.08,3.19-.98,4.58.04.7.14,1.31.23,1.75.09.43.15.7.15.7,0,0,1.08-.02,2.43-.38,1.36-.36,2.92-1.07,3.86-2.52.93-1.44,1.31-3.72,1.37-5.63,0-1.89-.24-3.42-.24-3.42,0,0-5.1,2.08-6.81,4.92Z"/>
          <path class="cls-55" d="m182.45,110.51s.17-1.07,0-2.43c-.22-1.36-.74-3-1.95-4.08-1.21-1.08-3.18-1.64-4.9-1.91-1.7-.28-3.07-.29-3.07-.29,0,0,.32,1.17.78,2.61.49,1.44,1.33,3.16,2.5,4.25,1.15,1.08,2.81,1.56,4.18,1.75,1.37.2,2.45.1,2.45.1Z"/>
          <path class="cls-72" d="m185.87,103.73c-1.13,1.27-1.53,2.96-1.65,4.35-.18,1.39-.09,2.48-.09,2.48,0,0,1.08.16,2.46.02,1.38-.14,3.06-.58,4.27-1.85,1.18-1.27,1.82-3.45,2.21-5.32.42-1.87.38-3.41.38-3.41,0,0-1.34.3-2.94.91-1.58.62-3.5,1.55-4.63,2.82Z"/>
          <path class="cls-21" d="m180.95,124.41s.31-1.03.39-2.4c.09-1.36-.22-3.08-1.22-4.34-1-1.26-2.94-2.14-4.55-2.69-1.62-.55-2.97-.79-2.97-.79,0,0,.02.3.07.79.07.47.17,1.14.28,1.92.26,1.5.8,3.33,1.74,4.58.97,1.25,2.53,2,3.85,2.42,1.32.42,2.4.5,2.4.5Z"/>
          <path class="cls-52" d="m190.45,116.25c-1.7.35-3.66.96-5,2.03-1.34,1.07-1.95,2.68-2.37,4.02-.41,1.34-.48,2.43-.48,2.43,0,0,1.04.33,2.42.43,1.38.09,3.1-.07,4.49-1.13,1.42-1.05,2.41-3.1,3.09-4.89.35-.89.57-1.72.71-2.32.13-.62.21-.98.21-.98,0,0-1.37.07-3.06.42Z"/>
          <path class="cls-53" d="m177.17,137.86s.13-.24.29-.64c.15-.41.34-.99.47-1.66.14-.67.23-1.43.19-2.2-.06-.78-.27-1.57-.68-2.28-.82-1.42-2.51-2.59-4.01-3.4-1.51-.81-2.81-1.27-2.81-1.27,0,0-.02.3-.05.79-.04.49-.08,1.16-.06,1.93.07,1.54.19,3.4.96,4.81.78,1.41,2.18,2.4,3.4,3.03,1.23.63,2.29.9,2.29.9Z"/>
          <path class="cls-11" d="m187.91,131.39c-1.73.06-3.84.32-5.3,1.16-.73.42-1.32,1-1.8,1.64-.51.62-.91,1.3-1.21,1.93-.3.63-.51,1.21-.64,1.64-.14.42-.22.69-.22.69,0,0,.96.5,2.31.82,1.36.32,3.1.46,4.61-.37,1.52-.82,2.95-2.64,3.85-4.31.47-.83.85-1.6,1.1-2.17.25-.57.37-.94.37-.94,0,0-1.36-.15-3.08-.09Z"/>
          <path class="cls-14" d="m166.65,138.12s-.35,1.14-.54,2.67c-.26,1.5-.37,3.39.14,4.9.49,1.5,1.72,2.71,2.83,3.54,1.11.83,2.11,1.26,2.11,1.26,0,0,.65-.86,1.17-2.13.47-1.29.83-2.97.26-4.5-1.18-3.1-5.97-5.74-5.97-5.74Z"/>
          <path class="cls-3" d="m177.46,146.18c-1.59.58-2.78,1.86-3.56,3.02-.82,1.13-1.26,2.13-1.26,2.13,0,0,.87.65,2.15,1.19,1.28.54,2.96.95,4.63.41,1.65-.55,3.29-2.14,4.52-3.61,1.17-1.49,1.95-2.83,1.95-2.83,0,0-5.3-1.5-8.42-.32Z"/>
          <path class="cls-23" d="m160.78,149.01s-.48,1.11-.99,2.54c-.24.73-.46,1.55-.59,2.4-.16.82-.21,1.67-.08,2.46.26,1.57,1.28,2.98,2.24,3.98.96,1,1.87,1.59,1.87,1.59,0,0,.76-.76,1.47-1.94.73-1.15,1.31-2.79,1.01-4.39-.29-1.6-1.52-3.27-2.69-4.53-1.16-1.26-2.23-2.11-2.23-2.11Z"/>
          <path class="cls-49" d="m170.1,158.74c-1.67.31-3,1.42-4.01,2.39-.99.99-1.56,1.92-1.56,1.92,0,0,.75.79,1.92,1.53,1.17.74,2.76,1.42,4.47,1.14.86-.14,1.77-.52,2.65-1.02.86-.52,1.68-1.17,2.4-1.79,1.46-1.23,2.4-2.46,2.4-2.46,0,0-1.24-.59-2.89-1.09-1.64-.49-3.7-.93-5.37-.62Z"/>
          <path class="cls-58" d="m151.8,161.15c-.7,1.37-1.47,3.07-1.45,4.7-.02,1.57.74,3.12,1.53,4.26.78,1.14,1.58,1.88,1.58,1.88,0,0,.22-.15.56-.43.33-.28.8-.67,1.23-1.21.86-1.07,1.77-2.51,1.71-4.17-.1-3.31-3.76-7.36-3.76-7.36,0,0-.71.96-1.4,2.34Z"/>
          <path class="cls-78" d="m156.44,171.63c-.55.43-1.04.81-1.37,1.11-.33.3-.52.5-.52.5,0,0,.61.9,1.64,1.83,1.03.92,2.5,1.86,4.25,1.9,1.71-.02,3.82-.94,5.43-1.95,1.6-1.02,2.77-2.03,2.77-2.03,0,0-4.53-3.15-7.87-3.06-1.67.06-3.24.85-4.35,1.7Z"/>
          <path class="cls-16" d="m142.33,169.29c-.92,1.22-1.92,2.84-2.21,4.38-.27,1.57.24,3.23.83,4.48.58,1.26,1.25,2.11,1.25,2.11,0,0,.97-.47,2.02-1.35,1.07-.84,2.13-2.23,2.38-3.83.25-1.6-.4-3.6-1.08-5.17-.69-1.57-1.43-2.72-1.43-2.72,0,0-.21.22-.53.59-.31.38-.75.9-1.23,1.5Z"/>
          <path class="cls-46" d="m149.76,179.43c-1.69-.26-3.29.38-4.57.96-1.26.61-2.11,1.3-2.11,1.3,0,0,.46.99,1.32,2.07.87,1.08,2.15,2.24,3.86,2.54,1.73.33,3.93-.3,5.69-1.02.89-.34,1.66-.73,2.19-1.04.54-.32.87-.51.87-.51,0,0-.98-.96-2.38-1.97-1.4-1.01-3.19-2.06-4.88-2.32Z"/>
          <path class="cls-63" d="m129.72,186.55s.26-.07.67-.22c.42-.14.97-.4,1.55-.76,1.17-.72,2.5-1.78,2.97-3.39.99-3.15-1.17-8.17-1.17-8.17,0,0-.99.68-2.09,1.75-1.09,1.1-2.39,2.42-2.89,3.96-.51,1.52-.31,3.19.06,4.53.37,1.33.88,2.29.88,2.29Z"/>
          <path class="cls-33" d="m137.31,186.99c-1.59-.47-3.34-.23-4.67.19-.67.21-1.23.46-1.65.62-.41.17-.65.3-.65.3,0,0,.28,1.05.96,2.26.67,1.2,1.77,2.6,3.4,3.16,1.62.53,3.94.39,5.78-.08,1.85-.44,3.29-1.01,3.29-1.01,0,0-3.26-4.45-6.46-5.46Z"/>
          <path class="cls-62" d="m116.37,190.7s1.07-.12,2.36-.59c1.28-.49,2.74-1.42,3.5-2.84,1.5-2.94.2-8.28.2-8.28,0,0-1.07.55-2.34,1.41-1.28.81-2.74,2.07-3.52,3.41-.77,1.38-.83,3.11-.69,4.49.14,1.38.49,2.41.49,2.41Z"/>
          <path class="cls-15" d="m123.79,192.4c-1.51-.8-3.25-.76-4.63-.58-1.39.15-2.43.52-2.43.52,0,0,.11,1.08.57,2.39.47,1.3,1.3,2.82,2.83,3.68,1.53.89,3.8.96,5.72.9,1.9-.11,3.4-.48,3.4-.48,0,0-2.47-4.9-5.45-6.42Z"/>
          <path class="cls-44" d="m104.94,192.36c1.35-.24,2.94-.91,3.92-2.23.98-1.31,1.38-3.31,1.52-5.04.14-1.71.05-3.08.05-3.08,0,0-.29.09-.75.27-.46.17-1.1.39-1.8.71-.7.31-1.46.72-2.17,1.19-.71.44-1.38.97-1.87,1.6-.98,1.25-1.33,2.96-1.42,4.34-.09,1.39.09,2.46.09,2.46,0,0,1.08.05,2.42-.22Z"/>
          <path class="cls-71" d="m109.56,195.46c-1.36-1.01-3.07-1.25-4.47-1.34-1.4-.06-2.48.15-2.48.15,0,0-.07,1.09.17,2.45.24,1.36.81,2.99,2.18,4.07.68.54,1.58.95,2.54,1.27.96.29,1.99.45,2.94.56.95.1,1.81.16,2.43.15.63-.03,1-.04,1-.04,0,0-.4-1.31-1.14-2.86-.74-1.54-1.82-3.38-3.17-4.39Z"/>
        </g>
        <g>
          <g>
            <polygon class="cls-42" points="76.31 17.96 73.23 11.73 70.16 17.96 63.28 18.96 68.25 23.82 67.08 30.67 73.23 27.43 79.39 30.67 78.21 23.82 83.19 18.96 76.31 17.96"/>
            <polygon class="cls-7" points="99.55 6.24 96.47 0 93.39 6.24 86.51 7.24 91.49 12.09 90.31 18.94 96.47 15.71 102.62 18.94 101.45 12.09 106.43 7.24 99.55 6.24"/>
            <polygon class="cls-30" points="130.24 18.96 123.36 17.96 120.28 11.73 117.2 17.96 110.32 18.96 115.3 23.82 114.13 30.67 120.28 27.43 126.44 30.67 125.26 23.82 130.24 18.96"/>
          </g>
          <g>
            <polygon class="cls-70" points="76.31 17.96 73.23 11.73 70.16 17.96 63.28 18.96 68.25 23.82 67.08 30.67 73.23 27.43 79.39 30.67 78.21 23.82 83.19 18.96 76.31 17.96"/>
            <polygon class="cls-27" points="99.55 6.24 96.47 0 93.39 6.24 86.51 7.24 91.49 12.09 90.31 18.94 96.47 15.71 102.62 18.94 101.45 12.09 106.43 7.24 99.55 6.24"/>
            <polygon class="cls-79" points="130.24 18.96 123.36 17.96 120.28 11.73 117.2 17.96 110.32 18.96 115.3 23.82 114.13 30.67 120.28 27.43 126.44 30.67 125.26 23.82 130.24 18.96"/>
          </g>
        </g>
      </g>
      <g>
        <g>
          <path class="cls-1" d="m48.05,146.74l15.17-21.24,3.03-1.85c-.49,1.09-1.12,2.05-1.89,2.89-.77.84-1.76,1.48-3,1.92-1.23.44-2.81.67-4.74.67-2.96,0-5.67-.7-8.14-2.11-2.47-1.41-4.44-3.37-5.92-5.88-1.48-2.52-2.22-5.43-2.22-8.73s.83-6.41,2.48-9.18c1.65-2.76,3.86-4.96,6.62-6.59,2.76-1.63,5.85-2.44,9.25-2.44s6.56.8,9.32,2.41c2.76,1.6,4.95,3.75,6.55,6.44,1.6,2.69,2.41,5.71,2.41,9.07,0,4.74-1.65,9.52-4.96,14.36l-14.13,20.28h-9.84Zm10.66-24.27c1.87,0,3.55-.44,5.03-1.33,1.48-.89,2.64-2.1,3.48-3.63.84-1.53,1.26-3.23,1.26-5.11,0-1.97-.42-3.72-1.26-5.25-.84-1.53-2-2.74-3.48-3.63-1.48-.89-3.16-1.33-5.03-1.33s-3.55.44-5.03,1.33c-1.48.89-2.65,2.1-3.51,3.63-.86,1.53-1.29,3.28-1.29,5.25s.43,3.64,1.29,5.14c.86,1.51,2.05,2.7,3.55,3.59,1.5.89,3.17,1.33,5,1.33Z"/>
          <path class="cls-17" d="m101.41,147.48c-3.51,0-6.72-1.1-9.62-3.29-2.91-2.19-5.23-5.29-6.96-9.29-1.73-4-2.6-8.71-2.6-14.13s.85-10.13,2.56-14.1c1.71-3.97,4.01-7.04,6.89-9.21,2.89-2.17,6.08-3.26,9.59-3.26s6.77,1.09,9.66,3.26c2.89,2.17,5.18,5.24,6.89,9.21,1.71,3.97,2.56,8.7,2.56,14.17s-.86,10.14-2.56,14.13c-1.71,4-4,7.08-6.86,9.25-2.86,2.17-6.05,3.26-9.56,3.26Zm-.13-7.99c2.31,0,4.31-.69,5.99-2.07,1.69-1.38,3.01-3.45,3.96-6.22.95-2.76,1.43-6.24,1.43-10.43s-.48-7.6-1.43-10.36c-.96-2.76-2.29-4.82-4-6.18-1.71-1.36-3.7-2.04-5.96-2.04s-4.25.68-5.96,2.04c-1.71,1.36-3.03,3.4-3.96,6.14-.93,2.74-1.4,6.2-1.4,10.4s.47,7.67,1.4,10.43c.93,2.76,2.25,4.84,3.96,6.22,1.71,1.38,3.7,2.07,5.96,2.07Z"/>
        </g>
        <path class="cls-6" d="m131,137.05c-1.06,0-2-.28-2.82-.84-.82-.56-1.46-1.37-1.92-2.44-.46-1.07-.69-2.34-.69-3.83s.23-2.74.69-3.79c.46-1.05,1.1-1.85,1.92-2.4.82-.55,1.76-.82,2.82-.82,1.6,0,2.9.61,3.92,1.83,1.01,1.22,1.51,2.95,1.51,5.19,0,1.48-.23,2.76-.69,3.83-.46,1.07-1.09,1.89-1.9,2.44-.81.56-1.75.84-2.83.84Zm0-2.52c.66,0,1.21-.35,1.67-1.07.45-.71.67-1.88.67-3.53s-.23-2.8-.67-3.49c-.45-.69-1.01-1.03-1.67-1.03s-1.19.34-1.64,1.03c-.45.69-.67,1.86-.67,3.49s.23,2.82.67,3.53c.45.71,1,1.07,1.64,1.07Zm.75,11.49l12.12-23.1h2.64l-12.15,23.1h-2.61Zm15.48,0c-1.06,0-2-.28-2.82-.84-.82-.56-1.46-1.37-1.93-2.43-.47-1.06-.71-2.33-.71-3.81s.24-2.77.71-3.82,1.11-1.85,1.93-2.4c.82-.55,1.76-.82,2.82-.82s2,.28,2.82.82c.82.55,1.46,1.35,1.92,2.4s.69,2.32.69,3.82-.23,2.75-.69,3.81c-.46,1.06-1.1,1.87-1.92,2.43-.82.56-1.76.84-2.82.84Zm0-2.49c.66,0,1.21-.36,1.65-1.08.44-.72.66-1.89.66-3.51s-.22-2.83-.66-3.51c-.44-.68-.99-1.02-1.65-1.02s-1.21.34-1.67,1.02c-.45.68-.67,1.85-.67,3.51s.22,2.79.67,3.51c.45.72,1,1.08,1.67,1.08Z"/>
      </g>
      <g>
        <g>
          <path class="cls-37" d="m57.76,69.2l1.54-2.21c.5.16,1.02.36,1.57.59.55.23,1.08.48,1.58.76.5.27.92.54,1.24.79l-1.63,2.42c-.3-.26-.7-.53-1.18-.82-.48-.29-.99-.57-1.54-.84-.54-.27-1.07-.5-1.58-.7Zm.6,11.64c.38-.62.8-1.36,1.24-2.2.44-.84.89-1.74,1.36-2.69.46-.95.9-1.9,1.3-2.84l2.28,1.73c-.35.86-.73,1.74-1.13,2.63-.4.89-.8,1.76-1.21,2.62-.41.86-.82,1.68-1.24,2.46l-2.59-1.7Zm.58-18.29l1.68-2.06c.48.22.98.48,1.51.77.53.29,1.02.59,1.49.9s.85.61,1.15.9l-1.8,2.26c-.26-.29-.61-.6-1.07-.94-.46-.34-.94-.66-1.46-.98-.52-.32-1.02-.6-1.5-.84Zm5.11,3.96h16.32v2.54h-16.32v-2.54Zm.67,3.98h13.39v2.5h-10.82v9.82h-2.57v-12.31Zm.05-8.23h14.9v2.5h-14.9v-2.5Zm3.07-1.99h2.71v8.4h-2.71v-8.4Zm.46,13.7h1.68v6.34h-1.68v-6.34Zm.79,2.83h6.14v2.09h-6.14v-2.09Zm1.66-8.54h2.76v4.1h-.31v5.88h-2.14v-5.88h-.31v-4.1Zm3.02-7.99h2.78v8.4h-2.78v-8.4Zm.58,13.7h1.68v5.71h-1.68v-5.71Zm2.78-3.48h2.69v9.58c0,.62-.07,1.12-.2,1.48-.14.36-.42.64-.85.83-.4.19-.9.31-1.49.35-.59.04-1.3.06-2.11.06-.05-.35-.14-.76-.26-1.21-.13-.46-.26-.85-.41-1.19.45.02.9.03,1.34.04.45,0,.74.01.89.01.27-.02.41-.14.41-.38v-9.55Z"/>
          <path class="cls-37" d="m88.38,71.5l3,.36c-.22,1.33-.53,2.68-.92,4.04-.39,1.37-.92,2.65-1.57,3.84-.66,1.19-1.48,2.19-2.47,2.99-.14-.19-.34-.41-.59-.66-.25-.25-.5-.49-.76-.72-.26-.23-.49-.42-.7-.56.88-.69,1.59-1.54,2.12-2.57.54-1.02.95-2.12,1.25-3.3.29-1.18.51-2.32.64-3.42Zm-1.06-10.2h16.99v8.78h-16.99v-8.78Zm3.31,13.08c.43,1.15,1,2.08,1.69,2.8.7.71,1.49,1.26,2.39,1.64.9.38,1.88.65,2.94.79,1.06.14,2.17.22,3.32.22h3.56c.49,0,.94,0,1.36-.01.42,0,.76-.01,1.03-.01-.14.21-.28.48-.42.82-.14.34-.25.68-.35,1.03-.1.35-.18.66-.24.94h-5.11c-1.47,0-2.84-.1-4.1-.3-1.26-.2-2.42-.56-3.47-1.09-1.05-.53-1.99-1.27-2.82-2.22-.83-.95-1.54-2.19-2.14-3.71l2.35-.89Zm-.43-10.32v3.29h11.06v-3.29h-11.06Zm4.06,5.3h2.98v11.86l-2.98-.94v-10.92Zm1.3,3.67h9.53v2.66h-9.53v-2.66Z"/>
          <path class="cls-37" d="m112.62,62.45h2.76v6.74c0,.99-.03,2.07-.1,3.24-.06,1.17-.18,2.37-.36,3.6-.18,1.23-.44,2.43-.78,3.59-.34,1.16-.79,2.2-1.33,3.13-.16-.16-.38-.35-.67-.56-.29-.22-.58-.42-.89-.61s-.57-.33-.79-.41c.5-.85.89-1.78,1.18-2.81.29-1.02.5-2.07.65-3.13.14-1.06.24-2.12.28-3.16.04-1.04.06-2,.06-2.88v-6.74Zm1.39,0h18.77v2.57h-18.77v-2.57Zm14.59,11.57h.55l.5-.1,1.8.91c-.64,1.3-1.48,2.4-2.51,3.32-1.03.92-2.21,1.69-3.53,2.32-1.32.62-2.75,1.12-4.28,1.5-1.54.38-3.14.68-4.82.9-.11-.37-.28-.79-.52-1.26-.23-.47-.46-.86-.68-1.16,1.52-.13,2.99-.34,4.4-.62,1.42-.29,2.71-.67,3.9-1.15,1.18-.48,2.22-1.08,3.11-1.79.89-.71,1.58-1.54,2.08-2.48v-.38Zm-12.62-6.98h16.66v2.26h-16.66v-2.26Zm.17,6.98h13.18v2.26h-13.18v-2.26Zm4.94,1.78c.72.9,1.68,1.66,2.88,2.29,1.2.63,2.58,1.14,4.15,1.52,1.57.38,3.28.66,5.14.82-.21.19-.42.44-.64.73-.22.3-.42.6-.6.9-.18.3-.34.58-.47.84-1.94-.26-3.71-.64-5.33-1.15-1.62-.51-3.06-1.19-4.34-2.03s-2.37-1.85-3.26-3.04l2.47-.89Zm-1.87-10.34h2.71v5.45h4.42v-5.45h2.81v7.61h-9.94v-7.61Zm1.99-5.18h3v3.62h-3v-3.62Z"/>
        </g>
        <g>
          <path class="cls-20" d="m57.76,69.2l1.54-2.21c.5.16,1.02.36,1.57.59.55.23,1.08.48,1.58.76.5.27.92.54,1.24.79l-1.63,2.42c-.3-.26-.7-.53-1.18-.82-.48-.29-.99-.57-1.54-.84-.54-.27-1.07-.5-1.58-.7Zm.6,11.64c.38-.62.8-1.36,1.24-2.2.44-.84.89-1.74,1.36-2.69.46-.95.9-1.9,1.3-2.84l2.28,1.73c-.35.86-.73,1.74-1.13,2.63-.4.89-.8,1.76-1.21,2.62-.41.86-.82,1.68-1.24,2.46l-2.59-1.7Zm.58-18.29l1.68-2.06c.48.22.98.48,1.51.77.53.29,1.02.59,1.49.9s.85.61,1.15.9l-1.8,2.26c-.26-.29-.61-.6-1.07-.94-.46-.34-.94-.66-1.46-.98-.52-.32-1.02-.6-1.5-.84Zm5.11,3.96h16.32v2.54h-16.32v-2.54Zm.67,3.98h13.39v2.5h-10.82v9.82h-2.57v-12.31Zm.05-8.23h14.9v2.5h-14.9v-2.5Zm3.07-1.99h2.71v8.4h-2.71v-8.4Zm.46,13.7h1.68v6.34h-1.68v-6.34Zm.79,2.83h6.14v2.09h-6.14v-2.09Zm1.66-8.54h2.76v4.1h-.31v5.88h-2.14v-5.88h-.31v-4.1Zm3.02-7.99h2.78v8.4h-2.78v-8.4Zm.58,13.7h1.68v5.71h-1.68v-5.71Zm2.78-3.48h2.69v9.58c0,.62-.07,1.12-.2,1.48-.14.36-.42.64-.85.83-.4.19-.9.31-1.49.35-.59.04-1.3.06-2.11.06-.05-.35-.14-.76-.26-1.21-.13-.46-.26-.85-.41-1.19.45.02.9.03,1.34.04.45,0,.74.01.89.01.27-.02.41-.14.41-.38v-9.55Z"/>
          <path class="cls-4" d="m88.38,71.5l3,.36c-.22,1.33-.53,2.68-.92,4.04-.39,1.37-.92,2.65-1.57,3.84-.66,1.19-1.48,2.19-2.47,2.99-.14-.19-.34-.41-.59-.66-.25-.25-.5-.49-.76-.72-.26-.23-.49-.42-.7-.56.88-.69,1.59-1.54,2.12-2.57.54-1.02.95-2.12,1.25-3.3.29-1.18.51-2.32.64-3.42Zm-1.06-10.2h16.99v8.78h-16.99v-8.78Zm3.31,13.08c.43,1.15,1,2.08,1.69,2.8.7.71,1.49,1.26,2.39,1.64.9.38,1.88.65,2.94.79,1.06.14,2.17.22,3.32.22h3.56c.49,0,.94,0,1.36-.01.42,0,.76-.01,1.03-.01-.14.21-.28.48-.42.82-.14.34-.25.68-.35,1.03-.1.35-.18.66-.24.94h-5.11c-1.47,0-2.84-.1-4.1-.3-1.26-.2-2.42-.56-3.47-1.09-1.05-.53-1.99-1.27-2.82-2.22-.83-.95-1.54-2.19-2.14-3.71l2.35-.89Zm-.43-10.32v3.29h11.06v-3.29h-11.06Zm4.06,5.3h2.98v11.86l-2.98-.94v-10.92Zm1.3,3.67h9.53v2.66h-9.53v-2.66Z"/>
          <path class="cls-73" d="m112.62,62.45h2.76v6.74c0,.99-.03,2.07-.1,3.24-.06,1.17-.18,2.37-.36,3.6-.18,1.23-.44,2.43-.78,3.59-.34,1.16-.79,2.2-1.33,3.13-.16-.16-.38-.35-.67-.56-.29-.22-.58-.42-.89-.61s-.57-.33-.79-.41c.5-.85.89-1.78,1.18-2.81.29-1.02.5-2.07.65-3.13.14-1.06.24-2.12.28-3.16.04-1.04.06-2,.06-2.88v-6.74Zm1.39,0h18.77v2.57h-18.77v-2.57Zm14.59,11.57h.55l.5-.1,1.8.91c-.64,1.3-1.48,2.4-2.51,3.32-1.03.92-2.21,1.69-3.53,2.32-1.32.62-2.75,1.12-4.28,1.5-1.54.38-3.14.68-4.82.9-.11-.37-.28-.79-.52-1.26-.23-.47-.46-.86-.68-1.16,1.52-.13,2.99-.34,4.4-.62,1.42-.29,2.71-.67,3.9-1.15,1.18-.48,2.22-1.08,3.11-1.79.89-.71,1.58-1.54,2.08-2.48v-.38Zm-12.62-6.98h16.66v2.26h-16.66v-2.26Zm.17,6.98h13.18v2.26h-13.18v-2.26Zm4.94,1.78c.72.9,1.68,1.66,2.88,2.29,1.2.63,2.58,1.14,4.15,1.52,1.57.38,3.28.66,5.14.82-.21.19-.42.44-.64.73-.22.3-.42.6-.6.9-.18.3-.34.58-.47.84-1.94-.26-3.71-.64-5.33-1.15-1.62-.51-3.06-1.19-4.34-2.03s-2.37-1.85-3.26-3.04l2.47-.89Zm-1.87-10.34h2.71v5.45h4.42v-5.45h2.81v7.61h-9.94v-7.61Zm1.99-5.18h3v3.62h-3v-3.62Z"/>
        </g>
      </g>
    </g>
  </g>
</svg>