<?xml version="1.0" encoding="UTF-8"?><svg id="_レイヤー_2" xmlns="http://www.w3.org/2000/svg" viewBox="0 0 38.2 36.4"><defs><style>.cls-1{fill:#fff;}.cls-2{fill:#06c255;}</style></defs><g id="_デザイン"><path class="cls-1" d="m38.2,15.5C38.2,6.95,29.63,0,19.1,0S0,6.95,0,15.5c0,7.66,6.8,14.08,15.97,15.29.62.13,1.47.41,1.68.94.19.48.13,1.24.06,1.73,0,0-.22,1.35-.27,1.64-.08.48-.38,1.89,1.65,1.03,2.04-.86,11-6.48,15.01-11.09h0c2.77-3.04,4.09-6.12,4.09-9.54Z"/><path class="cls-2" d="m31.85,20.44h-5.37c-.2,0-.36-.16-.36-.36h0v-8.33h0c0-.21.16-.37.36-.37h5.37c.2,0,.36.16.36.36v1.35c0,.2-.16.36-.36.36h-3.65v1.41h3.65c.2,0,.36.16.36.36v1.35c0,.2-.16.36-.36.36h-3.65v1.41h3.65c.2,0,.36.16.36.36v1.35c0,.2-.16.36-.36.36Z"/><path class="cls-2" d="m12,20.44c.2,0,.36-.16.36-.36v-1.35c0-.2-.16-.36-.36-.36h-3.65v-6.62c0-.2-.16-.36-.36-.36h-1.35c-.2,0-.36.16-.36.36v8.33h0c0,.21.16.37.36.37h5.37Z"/><rect class="cls-2" x="13.51" y="11.37" width="2.08" height="9.07" rx=".36" ry=".36"/><path class="cls-2" d="m24.45,11.37h-1.35c-.2,0-.36.16-.36.36v4.95l-3.81-5.15s-.02-.03-.03-.04c0,0,0,0,0,0,0,0-.01-.02-.02-.02,0,0,0,0,0,0,0,0-.01-.01-.02-.02,0,0,0,0,0,0,0,0-.01,0-.02-.01,0,0,0,0-.01,0,0,0-.01,0-.02-.01,0,0,0,0-.01,0,0,0-.01,0-.02,0,0,0,0,0-.01,0,0,0-.01,0-.02,0,0,0,0,0-.01,0,0,0-.01,0-.02,0,0,0-.01,0-.02,0,0,0-.01,0-.02,0,0,0-.01,0-.02,0,0,0,0,0-.01,0h-1.35c-.2,0-.36.16-.36.36v8.34c0,.2.16.36.36.36h1.35c.2,0,.36-.16.36-.36v-4.95l3.82,5.16s.06.07.09.09c0,0,0,0,0,0,0,0,.02,0,.02.01,0,0,0,0,.01,0,0,0,.01,0,.02,0,0,0,.01,0,.02,0,0,0,0,0,.01,0,0,0,.02,0,.03,0,0,0,0,0,0,0,.03,0,.06.01.1.01h1.35c.2,0,.36-.16.36-.36v-8.34c0-.2-.16-.36-.36-.36Z"/></g></svg>