<?xml version="1.0" encoding="UTF-8"?><svg id="_レイヤー_2" xmlns="http://www.w3.org/2000/svg" xmlns:xlink="http://www.w3.org/1999/xlink" viewBox="0 0 119.88 119.88"><defs><style>.cls-1{stroke:#33c6e5;stroke-miterlimit:10;stroke-width:5px;}.cls-1,.cls-2{fill:none;}.cls-3{fill:#fff;}.cls-4{fill:url(#_新規パターンスウォッチ_12);}.cls-5{fill:#33c6e5;}.cls-6{clip-path:url(#clippath);}.cls-7{fill:#2e2e2e;}</style><clipPath id="clippath"><circle class="cls-3" cx="59.94" cy="59.94" r="59.94"/></clipPath><pattern id="_新規パターンスウォッチ_12" x="0" y="0" width="25" height="25" patternTransform="translate(-6025.26 -3259.26) rotate(-45) scale(.19)" patternUnits="userSpaceOnUse" viewBox="0 0 25 25"><rect class="cls-2" width="25" height="25"/><rect class="cls-3" x="24.29" y="24.29" width="26.43" height="26.43"/><rect class="cls-3" x="-.71" y="24.29" width="26.43" height="26.43"/><rect class="cls-3" x="-25.71" y="24.29" width="26.43" height="26.43"/><rect class="cls-3" x="24.29" y="-.71" width="26.43" height="26.43"/><line class="cls-1" x1="23.61" y1="12.5" x2="51.39" y2="12.5"/><rect class="cls-3" x="-.71" y="-.71" width="26.43" height="26.43"/><line class="cls-1" x1="-1.39" y1="12.5" x2="26.39" y2="12.5"/><rect class="cls-3" x="-25.71" y="-.71" width="26.43" height="26.43"/><line class="cls-1" x1="-26.39" y1="12.5" x2="1.39" y2="12.5"/><rect class="cls-3" x="24.29" y="-25.71" width="26.43" height="26.43"/><rect class="cls-3" x="-.71" y="-25.71" width="26.43" height="26.43"/><rect class="cls-3" x="-25.71" y="-25.71" width="26.43" height="26.43"/></pattern></defs><g id="_デザイン"><circle class="cls-3" cx="59.94" cy="59.94" r="59.94"/><g class="cls-6"><path class="cls-5" d="m102.11,78.72s-.06-.02,0,0h0Z"/><path class="cls-5" d="m101.67,78.6c.08.01.06,0,0,0h0Z"/><path class="cls-5" d="m100.55,78.86s-.04.04,0,0h0Z"/><path class="cls-5" d="m100.81,78.7c-.07.03-.09.05,0,0h0Z"/><path class="cls-5" d="m60.93,73.79s.04.03.05.03c-.02,0-.04-.02-.05-.03,0,0,0,0,0,0Z"/><path class="cls-3" d="m71.22,81.59c-6.51,6.05-16.67,6.44-23.81,1.22-.27-.2-.53-.41-.78-.62-.67,3.6-2.11,6.79-4.86,9.16.09,0,.17.03.27.05,5.46,1.67,11.17,2.54,16.88,2.63,5.46.08,11.11-.52,16.2-2.63-.42-.4-.82-.84-1.16-1.34-1.73-2.46-2.22-5.52-2.73-8.48Z"/><path class="cls-5" d="m60.91,73.78s.01,0,.02.01c0,0,0,0-.01-.01-.12-.11-.07-.05,0,0Z"/><path class="cls-3" d="m79.1,53.71c-.11.03-.23.05-.36.05-.14.04-.28.1-.41.2-.75.56-1.48.12-1.77-.55-1.98-.53-3.75-1.57-5.3-3.01-.31-.29-.6-.61-.9-.92-.3.48-.95.8-1.49.6-.89-.33-1.71-.8-2.53-1.27-.41-.23-.81-.46-1.22-.68-.19-.1-.37-.19-.56-.29-.05-.02-.1-.05-.15-.07-.03-.01-.06-.02-.08-.03-.7-.26-1.1-.88-.93-1.63.15-.66.98-1.17,1.63-.93.89.33,1.71.8,2.53,1.27.24.13.47.26.71.4-1.96-2.9-3.34-6.27-4.31-9.55-.61-2.04-1.82-3.85-3.89-4.64-2.23-.85-4.29.11-5.59,2.01-.58.84-1.63.7-2.18.14-1.71,2.2-2.18,4.78-4.4,6.46-.95,2.61-1.94,5.21-3.29,7.63-1.13,2.02-2.64,3.93-4.65,4.94-.25.5-.78.84-1.47.63-.07-.02-.13-.02-.19-.04-.37.08-.75.13-1.15.15-.52.25-.96.7-1.28,1.23-.58.93-.61,2.06-.52,3.13.14,1.59.79,2.9,1.9,3.74.72-.18,1.49-.16,2.17.1.48.18.91.45,1.28.77.03.02.05.04.07.07.75.7,1.22,1.67,1.23,2.76,0,.1,0,.19-.03.28-.04.41-.13.8-.29,1.17.34,1.57.73,3.15,1.23,4.66,2.4,7.21,9.79,11.95,17.33,11.28,4.07-.36,8.05-2.47,10.6-5.67,2.36-2.95,3.3-6.68,3.94-10.36-.5-1.3-.21-2.78.69-3.86.97-1.16,2.73-1.62,4.14-1.09.25.09.48.21.7.35.65-.88,1.1-1.91,1.3-2.98.24-1.28.41-2.91-.02-4.17-.31-.91-1.44-2.26-2.51-2.28Zm-27.92,1.31c-1.71,0-1.71-2.66,0-2.66s1.71,2.66,0,2.66Zm2.29-6.89c-1.8.58-3.63,1.14-5.38,1.87-.32.13-.73.02-1.02-.13-.31-.16-.51-.47-.61-.79-.1-.32-.03-.74.13-1.02.19-.33.46-.47.79-.61,1.74-.73,3.58-1.29,5.38-1.87.71-.23,1.42.27,1.63.93.23.7-.27,1.42-.93,1.63Zm5.68,15.83c1.71,0,1.71,2.66,0,2.66s-1.71-2.66,0-2.66Zm3.93,10.09c-.47.51-1.41.51-1.88,0-.09-.09-.18-.18-.27-.27,0,0-.01,0-.02-.01-.04-.03-.08-.06-.11-.08-.1-.07-.21-.13-.32-.18-.03-.02-.06-.03-.1-.05-.24-.08-.48-.15-.72-.2-.18,0-.16-.02-.1-.01,0,0-.01,0-.02,0-.12-.01-.25-.02-.38-.02-.14,0-.27,0-.41.02-.02,0-.06,0-.1.01-.24.04-.47.1-.7.18,0,0-.02,0-.02.01-.17.09-.09.04,0,0,.03-.01.04-.02.08-.04-.05.03-.11.05-.16.07-.1.05-.21.11-.3.17-.04.03-.08.06-.13.08-.07.06-.14.13-.21.2-.52.53-1.35.48-1.88,0-.53-.49-.49-1.38,0-1.88,1.98-2.03,5.83-1.97,7.75.12.5.55.5,1.33,0,1.88Zm3.65-19.03c-1.71,0-1.71-2.66,0-2.66s1.71,2.66,0,2.66Z"/><path class="cls-3" d="m75.83,30.43c-1.4-1.32-2.77-2.67-3.97-4.17-1.3-1.62-2.5-3.34-4.05-4.74-4.69-4.23-13.44-3.07-17.01,2.11-.73,1.05-2.21.56-2.48-.35-.22.18-.42.37-.62.57.39.69.24,1.68-.75,1.89-6.83,1.42-10.42,7.9-11.52,14.29-.29,1.68-.21,3.41-.57,5.08-.33,1.55-1.07,2.88-1.9,4.2-.79,1.26-1.47,2.53-.93,4.03.26.72.69,1.36,1.17,1.98.18-.44.41-.86.7-1.26,1.03-1.41,2.56-2.34,4.25-2.28,2.07-.65,3.49-2.84,4.49-4.75,1.66-3.16,2.74-6.6,4-9.93.25-.67.89-1.13,1.63-.93.65.18,1.18.96.93,1.63-.44,1.15-.85,2.32-1.28,3.49,2.21-1.68,2.69-4.26,4.4-6.46-.36-.37-.5-.92-.12-1.48,1.74-2.55,4.41-4.11,7.54-3.52,2.36.44,4.45,2.09,5.69,4.11,1.29,2.11,1.68,4.75,2.67,7.01,1.91,4.31,5.14,9.61,10.32,10.14.99-.15,2.03.16,2.95.7,2.46-3.88,3.39-8.55,1.51-12.91-1.48-3.44-4.38-5.93-7.04-8.43Zm6.41,17.84c-3.22.91-6.36-.42-8.86-2.43-2.12-1.71-3.98-4.03-4.94-6.59-.25-.67.28-1.46.93-1.63.74-.2,1.38.26,1.63.93.02.05.04.1.06.15.05.11.1.23.16.34.11.22.23.44.35.66.28.48.59.95.92,1.4.65.88,1.59,1.88,2.52,2.67.87.74,2.02,1.45,3.07,1.81,1.21.41,2.28.48,3.46.15,1.65-.47,2.35,2.1.71,2.56Z"/><path class="cls-4" d="m27.92,111.09c1.35-.68,2.73-1.29,4.12-1.88-1.33-.16-2.73-.35-3.84-1.06-1.77-1.13-1.16-3.11-.55-4.69.87-2.23,1.85-4.42,2.88-6.58-1.28.44-2.55.86-3.81,1.29-2.47.84-4.93,1.73-7.2,3.03-1.61.92-3.36,2.08-4.36,3.6-1.92,2.91-3.06,6.39-4.18,9.67-.61,1.8-1.18,3.61-1.71,5.43h20.94c-.97-2.43-1.93-4.86-2.9-7.3-.2-.51.14-1.26.61-1.5Z"/><path class="cls-3" d="m65.62,113.89c.1.71-.16,1.43-.93,1.63-.63.17-1.53-.21-1.63-.93-.88-5.96-1.41-11.96-2.27-17.93-.5,0-1.01.02-1.51.01-.68,0-1.37-.03-2.05-.05-.09.73-.18,1.47-.28,2.21-.66,5.28-1.32,10.57-1.99,15.85-.09.71-.54,1.34-1.33,1.33-.65,0-1.42-.61-1.33-1.33.09-.75.19-1.5.28-2.25.66-5.28,1.32-10.57,1.99-15.85,0-.04.01-.08.02-.11-4.49-.37-8.96-1.2-13.26-2.52-.07-.02-.12-.05-.18-.07.32,4.11.71,8.22,1.2,12.31.55,4.58,1.15,9.22,2.34,13.69h28.09c.13-.78.27-1.56.4-2.33,1.33-7.91,2.87-15.91,3.42-23.92-4.18,1.77-8.66,2.65-13.19,2.94.81,5.76,1.34,11.56,2.19,17.32Z"/><path class="cls-4" d="m38.47,93.53c-1.82,1-3.75,1.81-5.71,2.54.4.38.62.98.31,1.61-.95,1.97-1.85,3.96-2.67,5.99-.27.67-.6,1.37-.75,2.07,0,.02,0,.04,0,.07.03.08.07.15-.02.12-.03,0,.45.2.6.25,2.16.7,4.66.75,6.91.98,1.14.12,2.02,1.89.67,2.47-2.5,1.09-5.07,2.1-7.54,3.27.93,2.33,1.85,4.66,2.78,6.99h8.91c-1.1-4.37-1.67-8.9-2.22-13.36-.53-4.32-.94-8.65-1.27-12.99Z"/><path class="cls-4" d="m86.98,103.67c-.81-2.03-1.72-4.02-2.67-5.99-.31-.65-.08-1.27.35-1.65,0,0-.01,0-.02,0-1.73-.63-3.62-1.22-5.4-2.01-.15,1.77-.36,3.53-.59,5.28-.89,6.88-2,13.75-3.18,20.59h8.52s0-.03.02-.05c1.02-2.32,2.04-4.64,3.05-6.96-2.46-1.17-5.01-2.17-7.5-3.25-1.35-.59-.47-2.36.67-2.47,2.24-.24,4.75-.28,6.91-.98.03,0,.48-.24.58-.26.01-.05.01-.1,0-.13-.01-.05-.03-.1-.03-.11-.22-.68-.46-1.35-.73-2.01Z"/><path class="cls-4" d="m95.99,101.91c-2.83-1.94-5.93-3.64-9.11-4.99,1.02,2.14,2,4.32,2.85,6.53.61,1.58,1.22,3.56-.55,4.69-1.11.71-2.51.91-3.84,1.06,1.39.59,2.78,1.21,4.12,1.88.7.35.75,1.19.48,1.82-1.02,2.33-2.04,4.65-3.06,6.98h18.19c-.86-3.39-1.95-6.75-3.4-9.92-1.32-2.91-2.96-6.19-5.68-8.05Z"/><path class="cls-5" d="m59.63,73.27s.02,0,.02,0c.02,0,.03,0,.07,0-.05,0-.1,0-.15-.02.02,0,.04,0,.06,0Z"/><path class="cls-5" d="m59.56,73.26s.01,0,.02,0c0,0-.01,0-.02,0Z"/><path class="cls-7" d="m97.32,81.46c-4.03.31-7.96-.84-11.21-3.25-.58-.43-1.48-.09-1.82.48-.4.68-.1,1.39.48,1.82,3.57,2.65,8.12,3.95,12.55,3.61.72-.05,1.33-.57,1.33-1.33,0-.68-.61-1.38-1.33-1.33Z"/><path class="cls-7" d="m104.75,82.14c.83-1.27,1.03-2.97.19-4.33-1.34-2.18-4.68-2.51-6.44-.67-1.18,1.24.7,3.12,1.88,1.88.06-.06.11-.12.17-.17.01,0,.03-.02.04-.03.07-.04.14-.08.21-.12.01,0,.02,0,.03-.01.06-.02.3-.07.33-.09.15-.01.29-.01.44,0,.02,0,.03,0,.04,0,.08.02.16.03.23.05.08.02.15.04.22.07.01,0,.03.01.05.02.07.04.4.28.25.14.06.05.12.11.18.17.03.03.04.05.05.05-.01-.01-.02-.02,0,.03,0,.01.05.09.08.13.01.04.05.13.05.14,0,.01.02.09.04.14,0,.05.01.13.01.14,0,.29-.01.44-.12.69-.19.48-.55.79-.99.9-1.47.37-1.13,2.58.35,2.61.6.01,1.29.34,1.67.89.41.61.43,1.29.18,1.85-.31.69-.82,1.11-1.47,1.21-.69.11-1.39-.14-1.91-.71-1.16-1.26-3.03.62-1.88,1.88,2.18,2.37,6.29,1.8,7.61-1.17.63-1.41.63-3.07-.24-4.39-.35-.52-.78-.97-1.28-1.32Zm-4.24-3.25s0,0,.03-.02c-.02.02-.03.03-.03.02Zm.23-.15s.01,0,.06-.03c-.05.02-.06.03-.06.03Zm.92-.13s.05,0,.05,0c0,0-.02,0-.05,0Zm.4.1s0,0,.04.02c-.03-.01-.04-.02-.04-.02Z"/><path class="cls-7" d="m60.91,73.78s.01,0,.02.01c0,0,0,0,0,0,0,0-.01,0-.02-.01Z"/><path class="cls-7" d="m57.93,73.46c-.09.04-.17.09,0,0h0Z"/><path class="cls-7" d="m59.66,73.27s-.02,0-.02,0c-.1-.02-.21,0,.02,0Z"/><path class="cls-7" d="m55.33,72.06c-.49.5-.53,1.39,0,1.88.52.48,1.36.53,1.88,0,.07-.07.14-.13.21-.2.04-.03.08-.06.13-.08.1-.06.2-.12.3-.17.05-.03.11-.05.16-.07-.04.02-.05.03-.08.04,0,0,.02,0,.02-.01.23-.08.46-.14.7-.18.04,0,.08-.01.1-.01.14-.01.27-.02.41-.02.13,0,.25,0,.38.02.06,0,.13.02.19.02-.03,0-.04,0-.07,0,.25.05.48.12.72.2.03.01.06.03.1.05.11.06.22.12.32.18.03.02.07.05.11.08-.07-.05-.11-.11,0,0,0,0,0,0,.01.01.02.01.04.03.05.03-.02,0-.03-.02-.05-.03.09.09.19.17.27.27.47.51,1.41.51,1.88,0,.5-.55.5-1.33,0-1.88-1.92-2.09-5.77-2.15-7.75-.12Z"/><path class="cls-7" d="m66.73,52.37c-1.71,0-1.71,2.66,0,2.66s1.71-2.66,0-2.66Z"/><path class="cls-7" d="m59.15,63.96c-1.71,0-1.71,2.66,0,2.66s1.71-2.66,0-2.66Z"/><path class="cls-7" d="m51.17,52.37c-1.71,0-1.71,2.66,0,2.66s1.71-2.66,0-2.66Z"/><path class="cls-7" d="m99.36,101.32c-1.24-1.29-2.79-2.24-4.32-3.15-1.88-1.12-3.83-2.16-5.82-3.08-3.79-1.77-8.25-2.58-11.65-5.08-3.26-2.39-3.41-7.29-4.12-10.96,1.89-2.69,2.92-5.86,3.61-9.11.66.24,1.39.3,2.12.18,1.66-.3,2.86-1.8,3.01-3.44.02-.09.03-.18.03-.28,0-.4-.07-.78-.19-1.14,1.26-1.59,2.1-3.63,2.32-5.37.27-2.14.27-4.45-1-6.28,2.67-3.94,3.92-8.72,2.76-13.41-1.06-4.32-4.05-7.56-7.21-10.52-1.55-1.45-3.12-2.88-4.51-4.49-1.54-1.79-2.83-3.8-4.57-5.41-2.89-2.67-6.8-3.77-10.69-3.37-4.19.44-8.19,2.37-10.62,5.89-.24.35-.28.69-.19.99.36-.3.74-.58,1.18-.8-.44.22-.82.49-1.18.8.28.91,1.76,1.4,2.48.35,3.57-5.17,12.32-6.34,17.01-2.11,1.55,1.4,2.75,3.12,4.05,4.74,1.21,1.5,2.57,2.85,3.97,4.17,2.67,2.5,5.56,5,7.04,8.43,1.88,4.37.95,9.04-1.51,12.91-.92-.54-1.96-.85-2.95-.7-5.18-.52-8.42-5.82-10.32-10.14-1-2.26-1.38-4.91-2.67-7.01-1.24-2.02-3.32-3.67-5.69-4.11-3.14-.59-5.8.97-7.54,3.52-.39.57-.25,1.12.12,1.48.22-.29.46-.57.73-.84-.27.27-.51.55-.73.84.55.55,1.6.7,2.18-.14,1.3-1.9,3.36-2.87,5.59-2.01,2.07.79,3.28,2.6,3.89,4.64.97,3.27,2.35,6.64,4.31,9.55-.24-.13-.47-.26-.71-.4-.82-.47-1.64-.94-2.53-1.27-.65-.24-1.48.27-1.63.93-.17.75.23,1.38.93,1.63.03.01.06.02.08.03.05.02.1.04.15.07.19.09.38.19.56.29.41.22.82.45,1.22.68.82.47,1.64.94,2.53,1.27.54.2,1.19-.11,1.49-.6.29.31.58.63.9.92,1.54,1.43,3.32,2.48,5.3,3.01.29.67,1.02,1.11,1.77.55.13-.1.27-.16.41-.2.13,0,.25-.02.36-.05,1.08.02,2.2,1.38,2.51,2.28.43,1.26.26,2.89.02,4.17-.2,1.07-.66,2.1-1.3,2.98-.22-.13-.45-.26-.7-.35-1.41-.52-3.17-.06-4.14,1.09-.9,1.08-1.19,2.56-.69,3.86-.63,3.68-1.58,7.41-3.94,10.36-2.55,3.19-6.53,5.3-10.6,5.67-7.54.67-14.92-4.07-17.33-11.28-.5-1.51-.9-3.08-1.23-4.66.16-.37.26-.77.29-1.17.02-.09.03-.18.03-.28-.02-1.09-.48-2.06-1.23-2.76-.02-.02-.05-.04-.07-.07-.37-.33-.79-.59-1.28-.77-.68-.25-1.45-.27-2.17-.1-1.11-.84-1.76-2.15-1.9-3.74-.09-1.07-.06-2.2.52-3.13.33-.52.76-.98,1.28-1.23.4-.02.78-.07,1.15-.15.06.01.13.02.19.04.69.2,1.22-.14,1.47-.63,2.01-1.02,3.52-2.92,4.65-4.94,1.35-2.42,2.34-5.02,3.29-7.63-.32.24-.67.47-1.07.67.4-.2.75-.43,1.07-.67.42-1.17.84-2.34,1.28-3.49.25-.67-.28-1.46-.93-1.63-.75-.21-1.38.25-1.63.93-1.26,3.33-2.34,6.77-4,9.93-1.01,1.91-2.43,4.11-4.49,4.75-1.69-.06-3.22.88-4.25,2.28-.29.4-.52.82-.7,1.26-.48-.61-.91-1.26-1.17-1.98-.54-1.5.14-2.78.93-4.03.83-1.33,1.57-2.66,1.9-4.2.36-1.67.28-3.4.57-5.08,1.1-6.39,4.69-12.87,11.52-14.29.99-.21,1.14-1.19.75-1.89-.81.79-1.56,1.64-2.62,2.17,1.07-.53,1.81-1.39,2.62-2.17-.27-.47-.78-.81-1.46-.67-7.68,1.59-12.13,8.88-13.37,16.14-.33,1.91-.2,3.91-.74,5.77-.5,1.73-1.76,3.06-2.45,4.7-1.52,3.61.81,6.37,2.99,9.02.01.02.03.03.04.04.02.28.05.56.08.84.24,1.73.95,3.4,2.2,4.63-.77,1.2-.87,2.75-.11,4.01.86,1.43,2.49,2.07,4.1,1.78.17-.03.34-.08.5-.14.2.8.41,1.61.63,2.4.8,2.86,2.28,5.45,4.23,7.63-.03.07-.05.14-.06.22-.55,4.01-1.83,7.66-5.35,9.95-4.17,2.72-9.09,4.09-13.75,5.71-4.21,1.46-9.23,3.33-11.97,7.06-2.04,2.78-3.21,6.31-4.35,9.53-.86,2.44-1.66,4.92-2.36,7.41h2.77c.53-1.82,1.1-3.64,1.71-5.43,1.11-3.28,2.26-6.76,4.18-9.67,1-1.52,2.75-2.67,4.36-3.6,2.27-1.3,4.73-2.19,7.2-3.03,1.26-.43,2.53-.85,3.81-1.29-1.03,2.16-2.01,4.35-2.88,6.58-.61,1.58-1.22,3.56.55,4.69,1.11.71,2.51.91,3.84,1.06-1.39.59-2.78,1.21-4.12,1.88-.47.24-.81.99-.61,1.5.97,2.43,1.93,4.86,2.9,7.3h2.84c-.93-2.33-1.85-4.66-2.78-6.99,2.47-1.17,5.03-2.19,7.54-3.27,1.35-.59.47-2.36-.67-2.47-2.25-.24-4.75-.28-6.91-.98-.15-.05-.63-.26-.6-.25.09.03.04-.04.02-.12,0-.02,0-.04,0-.07.15-.71.48-1.4.75-2.07.81-2.03,1.72-4.02,2.67-5.99.3-.63.09-1.23-.31-1.61,1.96-.73,3.89-1.54,5.71-2.54.33,4.34.75,8.67,1.27,12.99.55,4.47,1.12,8.99,2.22,13.36h2.74c-1.19-4.47-1.79-9.11-2.34-13.69-.5-4.09-.88-8.2-1.2-12.31.06.03.11.05.18.07,4.3,1.31,8.77,2.15,13.26,2.52,0,.04-.02.08-.02.11-.66,5.28-1.32,10.57-1.99,15.85-.09.75-.19,1.5-.28,2.25-.09.72.67,1.32,1.33,1.33.79,0,1.24-.62,1.33-1.33.66-5.28,1.32-10.57,1.99-15.85.09-.74.18-1.47.28-2.21.68.03,1.37.05,2.05.05.5,0,1.01,0,1.51-.01.86,5.96,1.39,11.97,2.27,17.93.11.71,1,1.09,1.63.93.76-.2,1.03-.93.93-1.63-.85-5.76-1.38-11.56-2.19-17.32,4.52-.29,9-1.17,13.19-2.94-.56,8.01-2.09,16.02-3.42,23.92-.13.78-.26,1.56-.4,2.33h2.68c1.18-6.84,2.28-13.7,3.18-20.59.23-1.76.44-3.52.59-5.28,1.78.79,3.68,1.38,5.4,2.01,0,0,.01,0,.02,0-.43.38-.67.99-.35,1.65.95,1.97,1.86,3.96,2.67,5.99.27.66.51,1.33.73,2.01,0,.01.02.06.03.11,0,.03,0,.08,0,.13-.1.02-.55.25-.58.26-2.15.7-4.66.75-6.91.98-1.14.12-2.02,1.89-.67,2.47,2.49,1.08,5.04,2.09,7.5,3.25-1.02,2.32-2.04,4.64-3.05,6.96,0,.02,0,.03-.02.05h2.88c1.02-2.33,2.04-4.65,3.06-6.98.27-.62.22-1.47-.48-1.82-1.35-.68-2.73-1.29-4.12-1.88,1.33-.16,2.73-.35,3.84-1.06,1.76-1.13,1.16-3.12.55-4.69-.86-2.21-1.83-4.39-2.85-6.53,3.19,1.35,6.28,3.06,9.11,4.99,2.72,1.86,4.35,5.13,5.68,8.05,1.44,3.18,2.54,6.53,3.4,9.92h2.74c-.77-3.19-1.77-6.33-3.02-9.36-1.35-3.27-2.95-6.63-5.42-9.21Zm-22.16-35.07c0-.09.04-.19.03-.1.02-.07.04-.13.06-.2.03-.05.05-.1.08-.15.02-.03.04-.06.06-.09.06-.07.12-.13.19-.2,0,0,.02-.02.04-.03,0,0,0,0,0,0,.05-.03.13-.09.2-.13,0,0,0,0,.01,0,.06-.02.13-.04.19-.06.03,0,.13-.03.19-.04.06,0,.11,0,.17,0,.04,0,.08,0,.12,0,.11.03.21.06.32.09.05.02.1.05.14.07.04.02.07.05.11.07,0,0,0,0,0,0,.07.06.13.13.2.19,0-.02-.01-.02-.02-.05,0,.02.03.04.04.06,0,0,0,0,0,0,.03.04.05.07.06.09,0,0,0,0,0,0,.03.05.05.1.08.14.03.09.06.19.08.28,0-.03,0-.05,0-.1,0,.04,0,.08,0,.12,0,.01,0,.02.01.04,0,.02,0,.04,0,.05,0,0,0,.02,0,.03,0,0,0,0,0-.01,0,.02,0,.03,0,.05,0,.07,0,.14,0,.21,0,0,0,0,0,.01-.02.06-.04.12-.06.16,0,.01,0,.03-.01.05-.03.06-.07.11-.1.17.03-.04.03.01-.03.07-.01.01-.02.02-.03.04,0,.02-.02.04-.03.05.01-.02.02-.03.03-.05-.02.03-.05.05-.07.08-.03.03-.06.06-.09.09.02-.01.03-.02.06-.04-.03.02-.06.03-.08.05-.04.04-.09.06-.1.06-.03.02-.06.04-.09.06-.03.02-.06.03-.09.04-.09.03-.18.05-.28.08.03,0,.04,0,.08,0-.04,0-.07,0-.11,0,0,0,0,0,0,0-.07.01-.12,0-.11,0-.08,0-.15,0-.23,0-.05-.01-.1-.02-.15-.03-.04-.01-.08-.02-.12-.04.02.01.03.02.06.03-.02-.01-.05-.03-.07-.04-.02,0-.04-.01-.06-.02-.07-.02-.09-.05-.04-.04-.04-.02-.08-.04-.11-.06-.02-.01-.04-.03-.06-.04-.08-.08-.16-.16-.24-.24-.01-.02-.03-.05-.03-.06-.07-.12-.16-.44-.04-.03-.03-.11-.08-.21-.1-.31,0-.03-.01-.06-.02-.1,0-.09,0-.19,0-.28,0,.02-.01.04-.02.07,0-.03.01-.06.02-.1Zm-37.83.11s0,0,0-.01c0,.02,0,.03,0,.05,0,.07,0,.14,0,.21,0,0,0,0,0,.01-.02.06-.04.12-.06.16,0,.01,0,.03-.01.05-.03.06-.07.11-.1.17.03-.04.03.01-.03.07-.01.01-.02.02-.03.04,0,.02-.02.04-.03.05.01-.02.02-.03.03-.05-.02.03-.05.05-.07.08-.03.03-.06.06-.09.09.02-.01.03-.02.06-.04-.03.02-.06.03-.08.05-.04.04-.09.06-.1.06-.03.02-.06.04-.09.06-.03.02-.06.03-.09.04-.09.03-.18.05-.28.08.03,0,.04,0,.08,0-.04,0-.07,0-.11,0,0,0,0,0,0,0-.07.01-.12,0-.11,0-.08,0-.15,0-.23,0-.05-.01-.1-.02-.15-.03-.04-.01-.08-.02-.12-.04.02.01.03.02.06.03-.02-.01-.05-.03-.07-.04-.02,0-.04-.01-.06-.02-.07-.02-.09-.05-.04-.04-.04-.02-.08-.04-.11-.06-.02-.01-.04-.03-.06-.04-.08-.08-.16-.16-.24-.24-.01-.02-.03-.05-.03-.06-.07-.12-.16-.44-.04-.03-.03-.11-.08-.21-.1-.31,0-.03-.01-.06-.02-.1,0-.09,0-.19,0-.28,0,.02-.01.04-.02.07,0-.03.01-.06.02-.1,0-.09.04-.19.03-.1.02-.07.04-.13.06-.2.03-.05.05-.1.08-.15.02-.03.04-.06.06-.09.06-.07.12-.13.19-.2,0,0,.02-.02.04-.03,0,0,0,0,0,0,.05-.03.13-.09.2-.13,0,0,0,0,.01,0,.06-.02.13-.04.19-.06.03,0,.13-.03.19-.04.06,0,.11,0,.17,0,.04,0,.08,0,.12,0,.11.03.21.06.32.09.05.02.1.05.14.07.04.02.07.05.11.07,0,0,0,0,0,0,.07.06.13.13.2.19,0-.02-.01-.02-.02-.05,0,.02.03.04.04.06,0,0,0,0,0,0,.03.04.05.07.06.09,0,0,0,0,0,0,.03.05.05.1.08.14.03.09.06.19.08.28,0-.03,0-.05,0-.1,0,.04,0,.08,0,.12,0,.01,0,.02.01.04,0,.02,0,.04,0,.05,0,0,0,.02,0,.03Zm19.56,27.67c-5.71-.09-11.41-.97-16.88-2.63-.09-.03-.18-.04-.27-.05,2.75-2.37,4.18-5.56,4.86-9.16.26.21.51.43.78.62,7.13,5.22,17.3,4.83,23.81-1.22.51,2.95,1,6.01,2.73,8.48.34.49.74.93,1.16,1.34-5.08,2.11-10.74,2.71-16.2,2.63Z"/><path class="cls-7" d="m81.54,45.71c-1.18.33-2.25.26-3.46-.15-1.05-.36-2.19-1.07-3.07-1.81-.93-.78-1.88-1.78-2.52-2.67-.33-.45-.64-.91-.92-1.4-.12-.22-.24-.43-.35-.66-.06-.11-.11-.22-.16-.34-.02-.05-.04-.1-.06-.15-.25-.67-.9-1.13-1.63-.93-.64.18-1.18.96-.93,1.63.96,2.56,2.82,4.88,4.94,6.59,2.5,2.01,5.64,3.34,8.86,2.43,1.64-.47.94-3.03-.71-2.56Z"/><path class="cls-3" d="m79.3,65.68s.01,0,.02.02c-.01-.02-.03-.04-.04-.06.01.02.02.03.02.05Z"/><path class="cls-3" d="m78.42,67.54s.05.01.11,0c0,0,0,0,0,0-.02,0-.04,0-.06,0-.02,0-.04,0-.06,0Z"/><path class="cls-3" d="m79.31,65.69s.04.07.06.1c0-.02-.02-.05-.06-.09,0,0,0,0,0,0Z"/><path class="cls-3" d="m79.3,67.1s.02-.03.03-.04c.06-.06.07-.11.03-.07-.02.04-.05.07-.07.11Z"/><path class="cls-3" d="m77.18,66.34s.01-.05.02-.07c0,0,0,0,0-.01,0,0,0,0,0-.01,0,.03-.01.06-.02.1Z"/><path class="cls-3" d="m79.54,66.24s0,.07,0,.11c0,.01,0,.02,0,.01,0,0,0-.02,0-.03,0-.02,0-.03,0-.05,0-.01,0-.02-.01-.04Z"/><path class="cls-3" d="m77.2,66.21s.01-.04.02-.07c.02-.09-.02.01-.03.1,0-.01,0-.02,0-.04Z"/><path class="cls-3" d="m79.54,66.22s0,0,0,.01c0-.04,0-.08,0-.12,0,.05,0,.07,0,.1Z"/><path class="cls-3" d="m77.92,67.46s.05.02.07.04c-.03-.02-.04-.02-.06-.03,0,0,0,0-.01,0Z"/><path class="cls-3" d="m79.14,67.27s0,0-.01.01c.03-.02.05-.04.08-.05-.03.02-.04.02-.06.04,0,0,0,0,0,0Z"/><path class="cls-3" d="m78.54,67.54s.07,0,.11,0c-.04,0-.05,0-.08,0,0,0-.02,0-.03,0Z"/><path class="cls-3" d="m79.54,66.22c-.02-.1-.05-.19-.08-.28-.03-.05-.05-.1-.08-.14,0,0,0,0,0,0,.01.04-.01.02-.08-.11-.06-.07-.13-.13-.2-.19,0,0,0,0,0,0-.04-.02-.07-.05-.11-.07-.05-.03-.09-.05-.14-.07-.11-.03-.21-.06-.32-.09-.04,0-.08,0-.12,0-.06,0-.11,0-.17,0-.06.01-.16.03-.19.04-.06.02-.13.04-.19.06,0,0,0,0-.01,0-.07.04-.15.09-.2.13,0,0,0,0,0,0-.01.01-.03.02-.04.03-.07.06-.13.13-.19.2-.02.03-.04.06-.06.09-.03.05-.05.1-.08.15-.02.07-.04.13-.06.2,0,.02-.01.07-.03.13,0,.09,0,.19,0,.28,0,.03.01.06.02.1.03.11.07.21.1.31-.12-.41-.03-.09.04.03,0,.01.02.04.03.06.08.08.16.16.24.24.02.01.04.03.06.04.04.02.07.04.11.06.02,0,.06.03.12.06.04.01.08.03.12.04.05.01.1.02.15.03.08,0,.15,0,.23,0,0,0,.06-.01.15-.01.09-.02.18-.05.28-.08.03-.01.06-.03.09-.04.03-.02.06-.04.09-.06-.01,0,.03-.03.12-.08.03-.03.06-.06.09-.09.02-.02.05-.05.07-.08.03-.06.06-.1.07-.12.04-.06.07-.12.1-.17,0-.02,0-.03.01-.05.01-.04.04-.1.06-.16,0,0,0,0,0-.01,0-.07,0-.14,0-.21,0-.02,0-.03,0-.05,0-.02,0-.06-.01-.12Z"/><path class="cls-3" d="m77.86,67.44s.04.01.06.02c-.03-.02-.07-.04-.1-.06-.04-.01-.02.02.04.04Z"/><path class="cls-3" d="m79.12,67.29s-.07.04-.1.06c.01,0,.06-.03.1-.06Z"/><path class="cls-3" d="m79.27,67.16s.02-.04.03-.05c0,0,0,0,0,0,0,.02-.02.02-.03.05Z"/><path class="cls-7" d="m79.3,67.1s.04-.07.07-.11c-.02.02-.04.05-.07.12,0,0,0,0,0,0Z"/><path class="cls-7" d="m77.92,67.46s0,0,.01,0c-.06-.03-.1-.05-.12-.06.04.02.07.04.1.06Z"/><path class="cls-7" d="m79.3,65.68c.07.13.09.15.08.11-.02-.03-.04-.06-.06-.1,0,0-.01,0-.02-.02Z"/><path class="cls-7" d="m78.48,67.54s.04,0,.06,0c0,0,.02,0,.03,0-.09,0-.14,0-.15.01.02,0,.04,0,.06,0Z"/><path class="cls-7" d="m79.12,67.29s0,0,.01-.01c0,0,0,0,0,0-.09.05-.13.08-.12.08.03-.02.07-.04.1-.06Z"/><path class="cls-7" d="m79.54,66.22c0,.06,0,.1.01.12,0-.04,0-.07,0-.11,0,0,0,0,0-.01Z"/><path class="cls-7" d="m77.2,66.24s0,0,0,.01c0,0,0,0,0,.01.01-.06.02-.1.03-.13,0,.02-.01.04-.02.07,0,.01,0,.02,0,.04Z"/><path class="cls-3" d="m37.66,67.44s.04.01.06.02c-.03-.02-.07-.04-.1-.06-.04-.01-.02.02.04.04Z"/><path class="cls-3" d="m37.72,67.46s.05.02.07.04c-.03-.02-.04-.02-.06-.03,0,0,0,0-.01,0Z"/><path class="cls-3" d="m38.93,67.29s-.07.04-.1.06c.01,0,.06-.03.1-.06Z"/><path class="cls-3" d="m36.98,66.34s.01-.05.02-.07c0,0,0,0,0-.01,0,0,0,0,0-.01,0,.03-.01.06-.02.1Z"/><path class="cls-3" d="m37.01,66.21s.01-.04.02-.07c.02-.09-.02.01-.03.1,0-.01,0-.02,0-.04Z"/><path class="cls-3" d="m38.22,67.54s.05.01.11,0c0,0,0,0,0,0-.02,0-.04,0-.06,0-.02,0-.04,0-.06,0Z"/><path class="cls-3" d="m38.35,67.54s.07,0,.11,0c-.04,0-.05,0-.08,0,0,0-.02,0-.03,0Z"/><path class="cls-3" d="m39.12,65.69s.04.07.06.1c0-.02-.02-.05-.06-.09,0,0,0,0,0,0Z"/><path class="cls-3" d="m39.1,65.68s.01,0,.02.02c-.01-.02-.03-.04-.04-.06.01.02.02.03.02.05Z"/><path class="cls-3" d="m39.11,67.1s.02-.03.03-.04c.06-.06.07-.11.03-.07-.02.04-.05.07-.07.11Z"/><path class="cls-3" d="m39.34,66.22s0,0,0,.01c0-.04,0-.08,0-.12,0,.05,0,.07,0,.1Z"/><path class="cls-3" d="m39.08,67.16s.02-.04.03-.05c0,0,0,0,0,0,0,.02-.02.02-.03.05Z"/><path class="cls-3" d="m39.34,66.22c-.02-.1-.05-.19-.08-.28-.03-.05-.05-.1-.08-.14,0,0,0,0,0,0,.01.04-.01.02-.08-.11-.06-.07-.13-.13-.2-.19,0,0,0,0,0,0-.04-.02-.07-.05-.11-.07-.05-.03-.09-.05-.14-.07-.11-.03-.21-.06-.32-.09-.04,0-.08,0-.12,0-.06,0-.11,0-.17,0-.06.01-.16.03-.19.04-.06.02-.13.04-.19.06,0,0,0,0-.01,0-.07.04-.15.09-.2.13,0,0,0,0,0,0-.01.01-.03.02-.04.03-.07.06-.13.13-.19.2-.02.03-.04.06-.06.09-.03.05-.05.1-.08.15-.02.07-.04.13-.06.2,0,.02-.01.07-.03.13,0,.09,0,.19,0,.28,0,.03.01.06.02.1.03.11.07.21.1.31-.12-.41-.03-.09.04.03,0,.01.02.04.03.06.08.08.16.16.24.24.02.01.04.03.06.04.04.02.07.04.11.06.02,0,.06.03.12.06.04.01.08.03.12.04.05.01.1.02.15.03.08,0,.15,0,.23,0,0,0,.06-.01.15-.01.09-.02.18-.05.28-.08.03-.01.06-.03.09-.04.03-.02.06-.04.09-.06-.01,0,.03-.03.12-.08.03-.03.06-.06.09-.09.02-.02.05-.05.07-.08.03-.06.06-.1.07-.12.04-.06.07-.12.1-.17,0-.02,0-.03.01-.05.01-.04.04-.1.06-.16,0,0,0,0,0-.01,0-.07,0-.14,0-.21,0-.02,0-.03,0-.05,0-.02,0-.06-.01-.12Z"/><path class="cls-3" d="m39.35,66.24s0,.07,0,.11c0,.01,0,.02,0,.01,0,0,0-.02,0-.03,0-.02,0-.03,0-.05,0-.01,0-.02-.01-.04Z"/><path class="cls-3" d="m38.94,67.27s0,0-.01.01c.03-.02.05-.04.08-.05-.03.02-.04.02-.06.04,0,0,0,0,0,0Z"/><path class="cls-7" d="m37,66.24s0,0,0,.01c0,0,0,0,0,.01.01-.06.02-.1.03-.13,0,.02-.01.04-.02.07,0,.01,0,.02,0,.04Z"/><path class="cls-7" d="m38.93,67.29s0,0,.01-.01c0,0,0,0,0,0-.09.05-.13.08-.12.08.03-.02.07-.04.1-.06Z"/><path class="cls-7" d="m38.28,67.54s.04,0,.06,0c0,0,.02,0,.03,0-.09,0-.14,0-.15.01.02,0,.04,0,.06,0Z"/><path class="cls-7" d="m37.72,67.46s0,0,.01,0c-.06-.03-.1-.05-.12-.06.04.02.07.04.1.06Z"/><path class="cls-7" d="m39.11,67.1s.04-.07.07-.11c-.02.02-.04.05-.07.12,0,0,0,0,0,0Z"/><path class="cls-7" d="m39.34,66.22c0,.06,0,.1.01.12,0-.04,0-.07,0-.11,0,0,0,0,0-.01Z"/><path class="cls-7" d="m39.1,65.68c.07.13.09.15.08.11-.02-.03-.04-.06-.06-.1,0,0-.01,0-.02-.02Z"/><path class="cls-7" d="m52.76,45.58c-1.8.58-3.63,1.14-5.38,1.87-.33.14-.6.28-.79.61-.17.28-.24.7-.13,1.02.1.32.3.63.61.79.29.15.7.27,1.02.13,1.75-.73,3.58-1.29,5.38-1.87.66-.21,1.15-.93.93-1.63-.21-.66-.93-1.15-1.63-.93Z"/></g></g></svg>