<?xml version="1.0" encoding="UTF-8"?><svg id="_レイヤー_2" xmlns="http://www.w3.org/2000/svg" viewBox="0 0 86.6 67.49"><defs><style>.cls-1{fill:#fff;}</style></defs><g id="_デザイン"><path class="cls-1" d="m85.56,5.59h-20.39V1.05c0-.58-.47-1.05-1.05-1.05H22.49c-.58,0-1.05.47-1.05,1.05v4.54H1.05c-.58,0-1.05.47-1.05,1.05v59.8c0,.58.47,1.05,1.05,1.05s1.05-.47,1.05-1.05V7.69h82.41v58.75c0,.58.47,1.05,1.05,1.05s1.05-.47,1.05-1.05V6.64c0-.58-.47-1.05-1.05-1.05Zm-22.49,0H23.54v-3.49h39.53v3.49Z"/><path class="cls-1" d="m77.99,13.3H8.61c-.48,0-.87.39-.87.87v12.7c0,.48.39.87.87.87h69.38c.48,0,.87-.39.87-.87v-12.7c0-.48-.39-.87-.87-.87Zm-56.38,12.7h-12.13v-10.96h12.13v10.96Zm13.88,0h-12.13v-10.96h12.13v10.96Zm13.88,0h-12.13v-10.96h12.13v10.96Zm13.88,0h-12.13v-10.96h12.13v10.96Zm13.88,0h-12.13v-10.96h12.13v10.96Z"/><path class="cls-1" d="m77.99,33.53H8.61c-.48,0-.87.39-.87.87v12.7c0,.48.39.87.87.87h69.38c.48,0,.87-.39.87-.87v-12.7c0-.48-.39-.87-.87-.87Zm-56.38,12.7h-12.13v-10.96h12.13v10.96Zm13.88,0h-12.13v-10.96h12.13v10.96Zm13.88,0h-12.13v-10.96h12.13v10.96Zm13.88,0h-12.13v-10.96h12.13v10.96Zm13.88,0h-12.13v-10.96h12.13v10.96Z"/><path class="cls-1" d="m77.99,53.46h-13.88c-.48,0-.87.39-.87.87v12.11c0,.48.39.87.87.87s.87-.39.87-.87v-11.23h12.13v11.23c0,.48.39.87.87.87s.87-.39.87-.87v-12.11c0-.48-.39-.87-.87-.87Z"/><path class="cls-1" d="m48.5,53.98c-1.53,0-3,.49-4.22,1.38-1.22-.9-2.69-1.38-4.22-1.38s-3,.49-4.22,1.38c-1.22-.9-2.69-1.38-4.22-1.38s-3,.49-4.22,1.38c-1.22-.9-2.69-1.38-4.22-1.38s-3,.49-4.22,1.38c-1.22-.9-2.69-1.38-4.22-1.38-3.94,0-7.15,3.21-7.15,7.15,0,.05,0,.09.01.14,0,.05-.01.09-.01.14v5.02c0,.58.47,1.05,1.05,1.05s1.05-.47,1.05-1.05v-3.97h43.89v3.97c0,.58.47,1.05,1.05,1.05s1.05-.47,1.05-1.05v-5.02s0-.09-.01-.14c0-.05.01-.09.01-.14,0-3.95-3.21-7.15-7.16-7.15Zm-38.77,6.39c.37-2.42,2.47-4.29,4.99-4.29,1.31,0,2.55.5,3.5,1.41.41.39,1.05.39,1.45,0,.95-.91,2.19-1.41,3.5-1.41s2.55.5,3.5,1.41c.41.39,1.05.39,1.45,0,.95-.91,2.19-1.41,3.5-1.41s2.55.5,3.5,1.41c.41.39,1.05.39,1.45,0,.95-.91,2.19-1.41,3.5-1.41s2.55.5,3.5,1.41c.41.39,1.05.39,1.45,0,.95-.91,2.19-1.41,3.5-1.41,2.53,0,4.62,1.86,4.99,4.29H9.72Z"/></g></svg>