<?xml version="1.0" encoding="UTF-8"?><svg id="_レイヤー_2" xmlns="http://www.w3.org/2000/svg" viewBox="0 0 102.25 68.7"><defs><style>.cls-1{fill:#fff;}</style></defs><g id="_デザイン"><path class="cls-1" d="m99.91,43.22c-1.64-1.64-4.12-2.43-7.31-2.33-3.25-.1-5.74.69-7.38,2.33-1.64,1.64-2.42,4.12-2.33,7.31-.09,3.26.69,5.74,2.33,7.38,1.43,1.43,3.5,2.21,6.12,2.32v7.24c0,.2.05.38.13.55.2.4.61.68,1.09.68s.89-.28,1.09-.68c.08-.17.13-.35.13-.55v-7.25c2.64-.12,4.7-.89,6.12-2.31,1.63-1.63,2.42-4.1,2.33-7.34.09-3.24-.7-5.71-2.33-7.34Zm-.12,7.38c.07,2.56-.47,4.43-1.61,5.58-1.14,1.14-3,1.67-5.6,1.61,0,0,0,0,0,0s0,0,0,0c0,0-.02,0-.03,0-2.55.06-4.43-.47-5.58-1.61-1.14-1.14-1.69-3.02-1.61-5.65-.07-2.56.47-4.43,1.61-5.57,1.14-1.14,3.02-1.67,5.65-1.61,2.55-.06,4.43.47,5.57,1.61,1.14,1.14,1.69,3.02,1.61,5.57,0,.02,0,.05,0,.07Z"/><path class="cls-1" d="m63.08,53.86h-7.51c-.56,0-1.02.46-1.02,1.02v12.6c0,.2.06.39.16.55.18.28.5.47.86.47s.68-.19.86-.47c.1-.16.16-.35.16-.55v-11.57h5.47v11.57c0,.2.06.39.16.55.18.28.5.47.86.47s.68-.19.86-.47c.1-.16.16-.35.16-.55v-12.6c0-.56-.46-1.02-1.02-1.02Z"/><path class="cls-1" d="m45.4,47.88H10.05c-.56,0-1.02.46-1.02,1.02v18.57c0,.2.06.39.16.55.18.28.5.47.86.47s.68-.19.86-.47c.1-.16.16-.35.16-.55v-17.55h6.8v17.55c0,.2.06.39.16.55.18.28.5.47.86.47s.68-.19.86-.47c.1-.16.16-.35.16-.55v-17.55h6.8v17.55c0,.2.06.39.16.55.18.28.5.47.86.47s.68-.19.86-.47c.1-.16.16-.35.16-.55v-17.55h7.19v17.55c0,.2.06.39.16.55.18.28.5.47.86.47s.68-.19.86-.47c.1-.16.16-.35.16-.55v-17.55h6.4v17.55c0,.2.06.39.16.55.18.28.5.47.86.47s.68-.19.86-.47c.1-.16.16-.35.16-.55v-18.57c0-.56-.46-1.02-1.02-1.02Z"/><path class="cls-1" d="m44.38,19.57v10.17c0,.56.46,1.02,1.02,1.02h19.42c.56,0,1.02-.46,1.02-1.02v-10.17c0-.56-.46-1.02-1.02-1.02h-19.42c-.56,0-1.02.46-1.02,1.02Zm11.75,1.02h7.67v8.13h-7.67v-8.13Zm-9.71,0h7.67v8.13h-7.67v-8.13Z"/><path class="cls-1" d="m74.49,11.76L55.75.18c-.39-.24-.89-.24-1.29,0l-18.73,11.57c-.36.22-.58.62-.58,1.04v25.53H1.22c-.68,0-1.22.55-1.22,1.22v27.92c0,.2.05.38.13.55.2.4.61.68,1.09.68s.89-.28,1.09-.68c.08-.17.13-.35.13-.55v-26.69h70.17v26.69c0,.2.05.38.13.55.2.4.61.68,1.09.68s.89-.28,1.09-.68c.08-.17.13-.35.13-.55V12.8c0-.42-.22-.82-.58-1.04Zm-1.87,26.57h-35.02V13.48L55.11,2.66l17.51,10.82v24.85Z"/></g></svg>