<?xml version="1.0" encoding="UTF-8"?><svg id="_レイヤー_2" xmlns="http://www.w3.org/2000/svg" viewBox="0 0 130.95 143.76"><defs><style>.cls-1{fill:#1e1e32;}.cls-2{fill:#3397dc;}</style></defs><g id="_デザイン"><path class="cls-1" d="m86.43,93.89s-.06,0-.09,0l-2.23-.15c-2.03-.14-4.03-.54-5.92-1.18-.14-.05-.3-.1-.45-.16-1.75-.63-3.42-1.48-4.96-2.51-3.53-2.35-5.63-6.29-5.63-10.54v-2.16c0-.75.61-1.37,1.37-1.37s1.37.61,1.37,1.37v2.16c0,3.33,1.65,6.42,4.42,8.26,1.36.91,2.83,1.65,4.38,2.21.14.05.26.1.38.14,1.68.57,3.44.93,5.23,1.05l2.23.15c.75.05,1.32.7,1.27,1.45-.05.72-.65,1.28-1.36,1.28Z"/><path class="cls-1" d="m1.37,143.76c-.75,0-1.37-.61-1.37-1.37v-27.22c0-12.52,9.78-22.98,22.27-23.82l5.3-.35c1.97-.13,3.92-.55,5.8-1.25,1.45-.54,2.84-1.25,4.14-2.1.02-.02.04-.03.07-.05,2.77-1.85,4.42-4.93,4.42-8.26v-2.14c0-.75.61-1.37,1.37-1.37s1.37.61,1.37,1.37v2.14c0,4.22-2.08,8.14-5.57,10.5-.02.02-.05.04-.07.05-1.49.99-3.09,1.81-4.76,2.43-2.12.79-4.33,1.27-6.57,1.41l-5.3.35c-11.06.74-19.72,10.01-19.72,21.1v27.22c0,.75-.61,1.37-1.37,1.37Z"/><path class="cls-1" d="m40.14,115.18c-.12,0-.25-.02-.37-.05-.46-.13-.82-.49-.94-.95l-6.29-22.77c-.2-.73.23-1.48.95-1.68.72-.2,1.48.22,1.68.95l5.7,20.61,28.04-26.01c.55-.51,1.42-.48,1.93.07.51.55.48,1.42-.07,1.93l-29.69,27.54c-.26.24-.59.36-.93.36Z"/><path class="cls-1" d="m70.75,114.4c-.34,0-.67-.12-.92-.36l-29.04-26.55c-.56-.51-.59-1.37-.09-1.93.51-.56,1.37-.59,1.93-.09l27.49,25.14,6.79-19.95c.24-.71,1.01-1.1,1.73-.85.71.24,1.1,1.02.85,1.73l-7.47,21.93c-.15.44-.51.77-.95.88-.11.03-.23.04-.34.04Z"/><path class="cls-1" d="m23.18,143.76c-.75,0-1.37-.61-1.37-1.37v-28.59c0-.75.61-1.37,1.37-1.37s1.37.61,1.37,1.37v28.59c0,.75-.61,1.37-1.37,1.37Z"/><path class="cls-1" d="m55.75,143.76c-.75,0-1.37-.61-1.37-1.37v-43.07c0-.75.61-1.37,1.37-1.37s1.37.61,1.37,1.37v43.07c0,.75-.61,1.37-1.37,1.37Z"/><path class="cls-1" d="m33.52,58.17c-.12,0-.25-.02-.37-.05-4.02-1.14-7.06-5.13-7.06-9.28v-2.86c0-1.43.52-2.79,1.47-3.86.02-.03.05-.06.08-.09,1.1-1.19,2.66-1.87,4.27-1.87h1.48c.75,0,1.37.61,1.37,1.37s-.61,1.37-1.37,1.37h-1.48c-.83,0-1.63.34-2.21.93-.02.02-.04.05-.06.07-.53.57-.82,1.31-.82,2.09v2.86c0,2.88,2.27,5.86,5.07,6.66.73.21,1.15.96.94,1.69-.17.6-.72.99-1.31.99Z"/><path class="cls-1" d="m28.64,44.32c-.51,0-1-.29-1.23-.77l-.49-1.02c-1.37-2.85-2.1-5.75-2.17-8.63,0-.19,0-.36,0-.54,0-8.84,5.46-16.78,13.65-19.98l.46-1.8c.72-2.82,2.24-5.35,4.37-7.33,2.13-1.98,4.78-3.29,7.64-3.79,1.73-.3,3.49-.45,5.23-.45,6.12,0,12.02,1.81,17.08,5.25,6.39,4.34,10.85,10.88,12.57,18.42.17.74-.29,1.47-1.03,1.63-.75.17-1.47-.29-1.63-1.03-1.56-6.86-5.62-12.82-11.44-16.76-4.6-3.12-9.98-4.77-15.55-4.77-1.58,0-3.18.14-4.76.41-2.34.41-4.51,1.48-6.26,3.1-1.75,1.62-2.99,3.69-3.58,6l-.64,2.49c-.11.44-.44.8-.87.95-7.49,2.63-12.52,9.73-12.52,17.66,0,.16,0,.32,0,.48.06,2.49.71,5.02,1.91,7.52l.49,1.02c.33.68.04,1.5-.64,1.82-.19.09-.39.14-.59.14Z"/><path class="cls-1" d="m33.34,42.88c-.1,0-.19-.01-.29-.03-.74-.16-1.2-.89-1.04-1.63l.94-4.29c.79-5.57,3.58-10.64,7.84-14.3l1.03-.88c.57-.49,1.43-.42,1.93.15.49.57.42,1.43-.15,1.93l-1.03.88c-3.77,3.23-6.23,7.73-6.92,12.66,0,.03-.01.07-.02.1l-.95,4.34c-.14.64-.71,1.07-1.33,1.07Z"/><path class="cls-1" d="m55.92,83.67c-2.82,0-5.54-.59-8.09-1.76-2.56-1.17-4.78-2.85-6.62-4.98l-4.33-5.03c-3.04-3.53-4.71-8.03-4.71-12.68l-.02-2.41c0-.75.6-1.37,1.35-1.38,0,0,0,0,.01,0,.75,0,1.36.6,1.37,1.36l.02,2.42c0,4.01,1.44,7.88,4.05,10.91l4.33,5.02c1.58,1.83,3.49,3.27,5.69,4.28,2.19,1,4.53,1.51,6.95,1.51,4.86,0,9.47-2.11,12.64-5.8.49-.57,1.35-.64,1.93-.14.57.49.64,1.35.14,1.93-3.69,4.29-9.05,6.74-14.71,6.74Z"/><path class="cls-1" d="m59.37,33.89c-2.57,0-5.13-.48-7.54-1.44-2.48-.98-4.73-2.42-6.66-4.28-1.93-1.86-3.46-4.04-4.54-6.48l-.72-1.62c-.41-.92-.75-1.88-1.01-2.84l-.67-2.46c-.2-.73.23-1.48.96-1.68.72-.2,1.48.23,1.68.96l.67,2.46c.23.83.52,1.66.88,2.46l.72,1.62c.94,2.12,2.26,4.01,3.94,5.62,1.68,1.61,3.62,2.86,5.77,3.71,3.09,1.23,6.46,1.56,9.74.96l6.21-1.14c1.83-.33,3.44-.14,5.03.48.7.27,1.05,1.06.78,1.77-.27.7-1.06,1.05-1.77.78-1.13-.44-2.24-.58-3.55-.34l-6.2,1.14c-1.22.22-2.46.33-3.69.33Z"/><path class="cls-1" d="m101.91,141.81s0,0-.01,0h-.39c-1.98,0-3.84-.77-5.24-2.17-1.4-1.4-2.17-3.27-2.17-5.25l.04-48.43c0-.75.61-1.36,1.37-1.36h0c.75,0,1.37.61,1.36,1.37l-.04,48.43c0,1.25.48,2.43,1.37,3.32.88.89,2.06,1.37,3.31,1.37h.39s0,0,0,0c1.25,0,2.43-.49,3.31-1.37.89-.88,1.37-2.06,1.37-3.31l.04-48.45c0-.75.61-1.37,1.37-1.37h0c.75,0,1.37.61,1.37,1.37l-.04,48.45c0,1.98-.77,3.84-2.17,5.24-1.4,1.4-3.26,2.17-5.24,2.17Z"/><path class="cls-1" d="m101.76,88.04c-.41,0-.82,0-1.23-.03-7.8-.32-15.01-3.66-20.29-9.4s-8.02-13.2-7.7-21c.32-7.8,3.66-15.01,9.4-20.29,11.85-10.91,30.38-10.15,41.29,1.7,5.29,5.74,8.02,13.2,7.7,21s-3.66,15.01-9.41,20.29c-5.44,5.01-12.42,7.73-19.76,7.73Zm-.04-55.7c-6.42,0-12.85,2.31-17.93,6.99-5.21,4.79-8.23,11.33-8.53,18.4-.29,7.07,2.19,13.83,6.98,19.04,4.79,5.21,11.33,8.23,18.4,8.53,7.09.3,13.83-2.19,19.04-6.98h0c5.21-4.79,8.23-11.33,8.53-18.4.29-7.07-2.19-13.83-6.98-19.04-5.21-5.66-12.35-8.54-19.5-8.54Z"/><circle class="cls-2" cx="101.73" cy="58.81" r="19.65" transform="translate(38.62 157.93) rotate(-87.55)"/><path class="cls-1" d="m101.74,79.82c-5.68,0-11.33-2.28-15.47-6.77-3.8-4.13-5.77-9.5-5.54-15.11.23-5.61,2.63-10.79,6.76-14.6,4.13-3.8,9.48-5.77,15.1-5.54,5.61.23,10.79,2.63,14.6,6.76,7.85,8.53,7.3,21.85-1.23,29.7h0c-4.03,3.71-9.14,5.55-14.23,5.55Zm-.03-39.3c-4.6,0-8.96,1.7-12.37,4.83-3.59,3.31-5.68,7.82-5.89,12.7s1.51,9.55,4.82,13.14c6.83,7.42,18.42,7.9,25.84,1.07,7.42-6.83,7.9-18.42,1.07-25.84-3.31-3.59-7.82-5.68-12.7-5.89-.26-.01-.52-.02-.77-.02Zm13.33,32.75h0,0Z"/></g></svg>