<?xml version="1.0" encoding="UTF-8"?><svg xmlns="http://www.w3.org/2000/svg" viewBox="0 0 267.84 253.74"><defs><style>.cls-1{fill:#fff;}.cls-2{isolation:isolate;}.cls-3{fill:#003888;mix-blend-mode:multiply;}</style></defs><g class="cls-2"><g id="_レイヤー_2"><g id="_デザイン"><polygon class="cls-3" points="133.92 253.74 0 126.87 133.92 0 267.84 126.87 133.92 253.74"/><path class="cls-1" d="m101.89,82.91c-.97,0-1.81-.18-2.5-.54-.7-.36-1.31-.88-1.85-1.57l1.15-1.15c.4.55.85.97,1.37,1.25.52.28,1.15.42,1.91.42s1.34-.16,1.79-.49c.45-.32.68-.77.68-1.33,0-.47-.11-.85-.33-1.13-.22-.29-.51-.52-.87-.71-.36-.19-.76-.35-1.19-.5s-.86-.3-1.3-.48c-.43-.17-.83-.39-1.2-.66-.37-.26-.66-.6-.87-1.02s-.32-.95-.32-1.59c0-.71.17-1.31.51-1.81.34-.5.81-.88,1.4-1.15.59-.27,1.26-.4,2.01-.4.82,0,1.55.16,2.2.48.65.32,1.18.73,1.58,1.25l-1.15,1.15c-.37-.43-.77-.76-1.2-.97-.43-.22-.92-.32-1.47-.32-.67,0-1.21.15-1.6.44-.4.29-.59.71-.59,1.23,0,.42.11.76.33,1.02.22.26.51.48.87.66.36.18.76.35,1.2.5.44.15.87.31,1.3.5s.83.41,1.19.68c.36.28.65.63.87,1.07.22.44.33.99.33,1.65,0,1.1-.38,1.97-1.14,2.59s-1.8.94-3.1.94Z"/><path class="cls-1" d="m108.39,71.79v-1.55h10.17v1.55h-10.17Zm4.23,10.94v-12.13h1.71v12.13h-1.71Z"/><path class="cls-1" d="m121.47,82.73v-12.49h1.69v12.49h-1.69Zm1.15-10.94v-1.55h7.07v1.55h-7.07Zm0,5.31v-1.49h6.57v1.49h-6.57Zm0,5.63v-1.55h7.16v1.55h-7.16Z"/><path class="cls-1" d="m132.99,82.73v-12.49h1.69v12.49h-1.69Zm1.13-4.86v-1.48h3.4c.47,0,.88-.1,1.25-.29s.65-.46.86-.81c.21-.35.31-.76.31-1.24s-.1-.89-.31-1.24-.5-.62-.86-.81-.78-.29-1.25-.29h-3.4v-1.48h3.49c.77,0,1.46.16,2.07.47s1.09.75,1.45,1.32c.35.57.53,1.25.53,2.03s-.18,1.44-.53,2.02c-.35.58-.84,1.02-1.45,1.33-.61.31-1.3.47-2.07.47h-3.49Z"/><path class="cls-1" d="m153.89,82.91c-.94,0-1.79-.26-2.57-.79-.77-.53-1.39-1.27-1.84-2.24-.46-.97-.68-2.1-.68-3.41s.22-2.44.67-3.4,1.06-1.7,1.83-2.22c.77-.52,1.61-.78,2.54-.78s1.81.26,2.57.78c.77.52,1.38,1.26,1.83,2.22s.67,2.1.67,3.42-.22,2.45-.67,3.41-1.06,1.71-1.82,2.23c-.76.52-1.61.78-2.53.78Zm-.04-1.6c.66,0,1.24-.18,1.74-.55.5-.37.89-.91,1.18-1.63.29-.72.43-1.61.43-2.66s-.14-1.93-.43-2.65c-.29-.72-.68-1.26-1.19-1.62-.5-.36-1.09-.54-1.75-.54s-1.22.18-1.73.54c-.5.36-.9.9-1.18,1.61-.28.71-.42,1.6-.42,2.65s.14,1.94.42,2.66c.28.72.67,1.26,1.18,1.63.5.37,1.09.55,1.75.55Z"/><path class="cls-1" d="m161.25,78.43l4.55-8.19h1.91l-4.64,8.19h-1.82Zm0,1.04v-1.04l.72-.47h8.86v1.51h-9.58Zm6.1,3.26v-8.24h1.67v8.24h-1.67Z"/><path class="cls-1" d="m163.16,180.46c-.64,0-1.16-.52-1.16-1.16v-22.58c0-.64.52-1.16,1.16-1.16s1.16.52,1.16,1.16v22.58c0,.64-.52,1.16-1.16,1.16Z"/><path class="cls-1" d="m167.84,185.13c-1.45,0-2.86-.54-3.93-1.51-.28-.25-.53-.53-.75-.82-.22.3-.47.57-.75.82-1.21,1.1-2.84,1.65-4.49,1.49-2.95-.28-5.26-2.92-5.26-6.01v-29.71s0-.06,0-.1v-14.23l-3.89,1.79c-2.91,1.34-5.99,2.32-9.14,2.93l-4.91.94c-2.15.41-4.28-.78-5.05-2.83-.44-1.17-.38-2.43.16-3.55.54-1.12,1.5-1.95,2.69-2.33l8.39-2.67,7.94-6.18c1.48-1.16,3.24-1.8,4.94-1.8h18.72c4.73,0,8.59,3.85,8.59,8.59v19.59c0,1.37-.58,2.68-1.6,3.61-1.01.92-2.38,1.38-3.75,1.24-.75-.07-1.46-.33-2.07-.72v25.44c0,3.09-2.31,5.73-5.26,6.01-.19.02-.37.03-.56.03Zm-4.68-7c.64,0,1.16.52,1.16,1.16,0,.99.42,1.93,1.15,2.6.74.67,1.7.98,2.71.89,1.77-.17,3.16-1.79,3.16-3.69v-29.73c0-.64.52-1.16,1.16-1.16s1.16.52,1.16,1.16c0,1.39,1.01,2.57,2.29,2.7.73.07,1.43-.16,1.97-.65.53-.48.83-1.17.83-1.89v-19.59c0-3.45-2.81-6.26-6.26-6.26h-18.68c-1.22,0-2.47.47-3.55,1.31l-8.1,6.31c-.11.08-.23.15-.36.19l-8.59,2.73c-.57.18-1.03.58-1.3,1.12-.26.54-.29,1.15-.08,1.71.37.99,1.4,1.57,2.44,1.37l4.91-.94c2.97-.57,5.86-1.49,8.6-2.75l5.54-2.55c.36-.17.78-.14,1.11.08.33.21.54.58.54.98v16.13s0,.06,0,.1v29.63c0,1.9,1.39,3.52,3.16,3.69,1,.09,1.97-.22,2.71-.89.73-.66,1.15-1.61,1.15-2.6,0-.64.52-1.16,1.16-1.16Z"/><path class="cls-1" d="m172.5,123.68h-18.68c-.64,0-1.16-.52-1.16-1.16s.52-1.16,1.16-1.16h18.68c.64,0,1.16.52,1.16,1.16s-.52,1.16-1.16,1.16Z"/><path class="cls-1" d="m172.5,150.53c-.64,0-1.16-.52-1.16-1.16v-16.13c0-.64.52-1.16,1.16-1.16s1.16.52,1.16,1.16v16.13c0,.64-.52,1.16-1.16,1.16Z"/><path class="cls-1" d="m163.16,118.62c-4.1,0-7.43-3.33-7.43-7.43s3.34-7.43,7.43-7.43,7.43,3.34,7.43,7.43-3.33,7.43-7.43,7.43Zm0-12.54c-2.82,0-5.11,2.29-5.11,5.11s2.29,5.11,5.11,5.11,5.11-2.29,5.11-5.11-2.29-5.11-5.11-5.11Z"/><path class="cls-1" d="m107.28,172.72c-1.82,0-3.89-.67-5.52-2.8-.39-.51-.3-1.24.21-1.63.51-.39,1.24-.3,1.63.21,2.38,3.11,5.69,1.53,6.06,1.34.03-.02.07-.03.1-.05.12-.05,1.29-.62,1.14-2.22-.16-1.73-1.79-2.25-1.86-2.27,0,0-2.01-.6-3.98-1.18-2.87-.85-3.45-2.85-3.44-4.37.01-1.27.49-2.35,1.39-3.14,1.03-.9,2.56-1.32,4.53-1.33,3.61.04,5.3,2.6,5.68,3.95.18.62-.18,1.26-.8,1.44-.61.17-1.25-.17-1.44-.79-.07-.24-.78-2.24-3.48-2.27-1.33-.04-2.4.24-2.97.75-.39.34-.59.82-.6,1.42,0,.83.2,1.65,1.77,2.12,1.98.59,3.99,1.19,3.99,1.19.12.03,3.21.96,3.52,4.29.24,2.65-1.52,4.13-2.53,4.57-.8.41-2.04.79-3.41.79Z"/><path class="cls-1" d="m107.53,157.6c-.64,0-1.16-.52-1.16-1.16v-3.15c0-.64.52-1.16,1.16-1.16s1.16.52,1.16,1.16v3.15c0,.64-.52,1.16-1.16,1.16Z"/><path class="cls-1" d="m107.53,176.07c-.64,0-1.16-.52-1.16-1.16v-3.15c0-.64.52-1.16,1.16-1.16s1.16.52,1.16,1.16v3.15c0,.64-.52,1.16-1.16,1.16Z"/><path class="cls-1" d="m107.39,185.13c-11.41,0-22.2,0-22.2-12.85,0-9.55,6.17-23.96,15.03-29.37.18-.11.39-.17.61-.17h13.12c.21,0,.42.06.61.17,8.86,5.41,15.03,19.82,15.03,29.37,0,12.85-10.78,12.85-22.2,12.85Zm-6.22-40.07c-7.83,5.01-13.65,18.41-13.65,27.22,0,10.03,7.18,10.52,19.87,10.52s19.87-.49,19.87-10.52c0-8.81-5.82-22.21-13.64-27.22h-12.45Z"/><path class="cls-1" d="m114.12,145.06h-13.46c-2.14,0-3.89-1.74-3.89-3.89s1.75-3.89,3.89-3.89h13.46c2.14,0,3.89,1.74,3.89,3.89s-1.74,3.89-3.89,3.89Zm-13.46-5.45c-.86,0-1.56.7-1.56,1.56s.7,1.56,1.56,1.56h13.46c.86,0,1.56-.7,1.56-1.56s-.7-1.56-1.56-1.56h-13.46Z"/><path class="cls-1" d="m113.47,139.61c-.19,0-.38-.05-.56-.14-.56-.31-.77-1.02-.46-1.58.07-.12,1.67-3.04,4.98-7.88.39-.57.37-.8.37-.81-.74-.96-7.88-.16-11.22,1.29-2.49,1.09-4.34.04-5.83-.81-.99-.56-1.83-1.05-2.83-.97.17,1.32,2.75,5.32,5.81,8.99.41.49.35,1.23-.15,1.64-.49.41-1.23.35-1.64-.15-2.71-3.24-7.13-9.03-6.22-11.49.25-.67.83-1.13,1.58-1.26,1.89-.31,3.32.5,4.59,1.22,1.48.84,2.38,1.29,3.75.7,2.18-.95,11.66-3.38,13.95-.61.45.54,1.01,1.72-.26,3.56-3.24,4.74-4.85,7.66-4.86,7.69-.21.39-.61.61-1.02.61Z"/></g></g></g></svg>