<?xml version="1.0" encoding="UTF-8"?><svg xmlns="http://www.w3.org/2000/svg" viewBox="0 0 267.84 253.74"><defs><style>.cls-1{fill:#fff;}.cls-2{fill:#33aed1;mix-blend-mode:multiply;opacity:.8;}.cls-3{isolation:isolate;}</style></defs><g class="cls-3"><g id="_レイヤー_2"><g id="_デザイン"><polygon class="cls-2" points="133.92 253.74 0 126.87 133.92 0 267.84 126.87 133.92 253.74"/><path class="cls-1" d="m100.88,82.91c-.97,0-1.81-.18-2.5-.54-.7-.36-1.31-.88-1.85-1.57l1.15-1.15c.4.55.85.97,1.37,1.25.52.28,1.15.42,1.91.42s1.34-.16,1.79-.49c.45-.32.68-.77.68-1.33,0-.47-.11-.85-.33-1.13-.22-.29-.51-.52-.87-.71-.36-.19-.76-.35-1.19-.5-.43-.14-.86-.3-1.3-.48-.43-.17-.83-.39-1.2-.66-.37-.26-.66-.6-.87-1.02s-.32-.95-.32-1.59c0-.71.17-1.31.51-1.81.34-.5.81-.88,1.4-1.15.59-.27,1.26-.4,2.01-.4.82,0,1.55.16,2.2.48s1.18.73,1.58,1.25l-1.15,1.15c-.37-.43-.77-.76-1.2-.97-.43-.22-.92-.32-1.47-.32-.67,0-1.21.15-1.6.44s-.59.71-.59,1.23c0,.42.11.76.33,1.02.22.26.51.48.87.66.36.18.76.35,1.2.5.44.15.87.31,1.31.5.43.18.83.41,1.19.68.36.28.65.63.87,1.07.22.44.33.99.33,1.65,0,1.1-.38,1.97-1.14,2.59-.76.62-1.8.94-3.1.94Z"/><path class="cls-1" d="m107.37,71.79v-1.55h10.17v1.55h-10.17Zm4.23,10.94v-12.13h1.71v12.13h-1.71Z"/><path class="cls-1" d="m120.46,82.73v-12.49h1.69v12.49h-1.69Zm1.15-10.94v-1.55h7.07v1.55h-7.07Zm0,5.31v-1.49h6.57v1.49h-6.57Zm0,5.63v-1.55h7.16v1.55h-7.16Z"/><path class="cls-1" d="m131.98,82.73v-12.49h1.69v12.49h-1.69Zm1.13-4.86v-1.48h3.4c.47,0,.88-.1,1.25-.29.37-.19.65-.46.86-.81.21-.35.31-.76.31-1.24s-.1-.89-.31-1.24-.5-.62-.86-.81c-.37-.19-.78-.29-1.25-.29h-3.4v-1.48h3.49c.77,0,1.46.16,2.07.47.61.31,1.1.75,1.45,1.32.35.57.53,1.25.53,2.03s-.18,1.44-.53,2.02c-.35.58-.84,1.02-1.45,1.33-.61.31-1.3.47-2.07.47h-3.49Z"/><path class="cls-1" d="m152.88,82.91c-.94,0-1.79-.26-2.56-.79-.77-.53-1.39-1.27-1.85-2.24-.46-.97-.68-2.1-.68-3.41s.22-2.44.67-3.4,1.06-1.7,1.83-2.22c.77-.52,1.61-.78,2.54-.78s1.81.26,2.57.78,1.38,1.26,1.83,2.22c.45.96.67,2.1.67,3.42s-.23,2.45-.67,3.41c-.45.97-1.06,1.71-1.82,2.23-.76.52-1.61.78-2.53.78Zm-.04-1.6c.66,0,1.24-.18,1.74-.55.5-.37.89-.91,1.18-1.63.29-.72.43-1.61.43-2.66s-.14-1.93-.43-2.65c-.29-.72-.68-1.26-1.19-1.62-.5-.36-1.09-.54-1.75-.54s-1.22.18-1.73.54c-.5.36-.9.9-1.18,1.61-.28.71-.42,1.6-.42,2.65s.14,1.94.42,2.66c.28.72.67,1.26,1.18,1.63.5.37,1.09.55,1.75.55Z"/><path class="cls-1" d="m160.2,71.75v-1.51h4.05v1.51h-4.05Zm2.56,10.98v-12.49h1.67v12.49h-1.67Z"/><path class="cls-1" d="m110.32,122.16c-4.52,0-8.2-3.68-8.2-8.2s3.68-8.2,8.2-8.2,8.2,3.68,8.2,8.2-3.68,8.2-8.2,8.2Zm0-13.89c-3.13,0-5.68,2.55-5.68,5.68s2.55,5.68,5.68,5.68,5.68-2.55,5.68-5.68-2.55-5.68-5.68-5.68Z"/><path class="cls-1" d="m135.02,190.84c-2.51,0-4.72-1.83-5.11-4.37l-1.99-12.91c-.24-1.54-1.46-2.76-3-2.99l-6.32.26h-5.15c-6.33,0-11.53-4.95-11.84-11.27l-1.22-24.91c-.13-2.57.78-5.01,2.55-6.87,1.77-1.86,4.16-2.89,6.74-2.89h2.78c4.2,0,8.35,1.42,11.68,3.99l3.32,2.57c3.03,2.34,6.65,3.74,10.47,4.05l5.81.46c2.44.19,4.29,2.34,4.13,4.78-.15,2.38-1.99,4.22-4.27,4.38l-7.49.5c-3.75.25-7.53-.46-10.94-2.06l-5.48-2.58-1.1,16.66,13.71,4.11c2.96.96,5.13,3.55,5.54,6.61l2.28,16.63c.38,2.8-1.58,5.4-4.38,5.79-.24.03-.48.05-.72.05Zm-10.04-22.79c.05,0,.1,0,.16,0,2.69.34,4.86,2.44,5.27,5.12l1.99,12.91c.22,1.44,1.54,2.4,2.99,2.2,1.43-.2,2.43-1.53,2.23-2.95l-2.28-16.63c-.29-2.1-1.78-3.89-3.8-4.55l-14.65-4.39c-.56-.17-.93-.7-.9-1.29l1.29-19.5c.03-.42.26-.79.62-1,.36-.21.8-.23,1.18-.06l7.16,3.36c3.02,1.42,6.37,2.05,9.7,1.82l7.49-.5c1.04-.07,1.85-.89,1.92-1.95.07-1.15-.74-2.1-1.81-2.18l-5.81-.46c-4.31-.34-8.39-1.92-11.81-4.57l-3.32-2.57c-2.89-2.23-6.49-3.46-10.13-3.46h-2.78c-1.87,0-3.62.75-4.91,2.1-1.29,1.36-1.95,3.14-1.86,5.01l1.22,24.91c.25,4.98,4.34,8.87,9.32,8.87h5.1l6.38-.26s.03,0,.05,0Z"/><path class="cls-1" d="m125.2,176.46s-.01,0-.02,0l-26.31-.45c-.63-.01-1.16-.49-1.23-1.12l-5.43-47.31c-.08-.69.42-1.32,1.11-1.4.7-.08,1.32.42,1.4,1.11l5.31,46.21,25.21.43c.7.01,1.25.59,1.24,1.28-.01.69-.57,1.24-1.26,1.24Z"/><path class="cls-1" d="m112.7,191.69c-.7,0-1.26-.57-1.26-1.26v-15.44c0-.7.57-1.26,1.26-1.26s1.26.57,1.26,1.26v15.44c0,.7-.57,1.26-1.26,1.26Z"/><path class="cls-1" d="m119.99,191.69h-14.58c-.7,0-1.26-.57-1.26-1.26s.57-1.26,1.26-1.26h14.58c.7,0,1.26.57,1.26,1.26s-.57,1.26-1.26,1.26Z"/><path class="cls-1" d="m135.16,165.86c-.7,0-1.26-.57-1.26-1.26v-9.38c0-.7.57-1.26,1.26-1.26s1.26.57,1.26,1.26v9.38c0,.7-.57,1.26-1.26,1.26Z"/><path class="cls-1" d="m168.05,190.84c-.7,0-1.26-.57-1.26-1.26v-33.1h-31.63c-.7,0-1.26-.57-1.26-1.26s.57-1.26,1.26-1.26h32.89c.7,0,1.26.57,1.26,1.26v34.36c0,.7-.57,1.26-1.26,1.26Z"/><path class="cls-1" d="m170.89,156.48h-38.22c-.7,0-1.26-.57-1.26-1.26s.57-1.26,1.26-1.26h38.22c.7,0,1.26.57,1.26,1.26s-.57,1.26-1.26,1.26Z"/><path class="cls-1" d="m164.85,156.48h-20.09c-.43,0-.83-.22-1.06-.59-.23-.36-.26-.82-.08-1.21l7.47-15.87c.21-.44.65-.72,1.14-.72h20.09c.43,0,.83.22,1.06.59.23.36.26.82.08,1.21l-7.47,15.87c-.21.44-.65.72-1.14.72Zm-18.1-2.52h17.3l6.28-13.35h-17.3l-6.28,13.35Z"/></g></g></g></svg>